<?xml version="1.0" encoding="utf-8" standalone="no"?>
<!DOCTYPE svg PUBLIC "-//W3C//DTD SVG 1.1//EN"
  "http://www.w3.org/Graphics/SVG/1.1/DTD/svg11.dtd">
<svg xmlns:xlink="http://www.w3.org/1999/xlink" width="460.8pt" height="345.6pt" viewBox="0 0 460.8 345.6" xmlns="http://www.w3.org/2000/svg" version="1.1">
 <metadata>
  <rdf:RDF xmlns:dc="http://purl.org/dc/elements/1.1/" xmlns:cc="http://creativecommons.org/ns#" xmlns:rdf="http://www.w3.org/1999/02/22-rdf-syntax-ns#">
   <cc:Work>
    <dc:type rdf:resource="http://purl.org/dc/dcmitype/StillImage"/>
    <dc:date>2025-06-05T11:20:24.781914</dc:date>
    <dc:format>image/svg+xml</dc:format>
    <dc:creator>
     <cc:Agent>
      <dc:title>Matplotlib v3.9.2, https://matplotlib.org/</dc:title>
     </cc:Agent>
    </dc:creator>
   </cc:Work>
  </rdf:RDF>
 </metadata>
 <defs>
  <style type="text/css">*{stroke-linejoin: round; stroke-linecap: butt}</style>
 </defs>
 <g id="figure_1">
  <g id="patch_1">
   <path d="M 0 345.6 
L 460.8 345.6 
L 460.8 0 
L 0 0 
z
" style="fill: #ffffff"/>
  </g>
  <g id="axes_1">
   <g id="patch_2">
    <path d="M 57.6 307.584 
L 414.72 307.584 
L 414.72 41.472 
L 57.6 41.472 
z
" style="fill: #ffffff"/>
   </g>
   <g id="matplotlib.axis_1">
    <g id="xtick_1">
     <g id="line2d_1">
      <defs>
       <path id="m05ddeab8c0" d="M 0 0 
L 0 3.5 
" style="stroke: #000000; stroke-width: 0.8"/>
      </defs>
      <g>
       <use xlink:href="#m05ddeab8c0" x="73.832727" y="307.584" style="stroke: #000000; stroke-width: 0.8"/>
      </g>
     </g>
     <g id="text_1">
      <!-- 0 -->
      <g transform="translate(70.832727 322.9165) scale(0.12 -0.12)">
       <defs>
        <path id="TimesNewRomanPSMT-30" d="M 231 2094 
Q 231 2819 450 3342 
Q 669 3866 1031 4122 
Q 1313 4325 1613 4325 
Q 2100 4325 2488 3828 
Q 2972 3213 2972 2159 
Q 2972 1422 2759 906 
Q 2547 391 2217 158 
Q 1888 -75 1581 -75 
Q 975 -75 572 641 
Q 231 1244 231 2094 
z
M 844 2016 
Q 844 1141 1059 588 
Q 1238 122 1591 122 
Q 1759 122 1940 273 
Q 2122 425 2216 781 
Q 2359 1319 2359 2297 
Q 2359 3022 2209 3506 
Q 2097 3866 1919 4016 
Q 1791 4119 1609 4119 
Q 1397 4119 1231 3928 
Q 1006 3669 925 3112 
Q 844 2556 844 2016 
z
" transform="scale(0.015625)"/>
       </defs>
       <use xlink:href="#TimesNewRomanPSMT-30"/>
      </g>
     </g>
    </g>
    <g id="xtick_2">
     <g id="line2d_2">
      <g>
       <use xlink:href="#m05ddeab8c0" x="138.828632" y="307.584" style="stroke: #000000; stroke-width: 0.8"/>
      </g>
     </g>
     <g id="text_2">
      <!-- 200 -->
      <g transform="translate(129.828632 322.9165) scale(0.12 -0.12)">
       <defs>
        <path id="TimesNewRomanPSMT-32" d="M 2934 816 
L 2638 0 
L 138 0 
L 138 116 
Q 1241 1122 1691 1759 
Q 2141 2397 2141 2925 
Q 2141 3328 1894 3587 
Q 1647 3847 1303 3847 
Q 991 3847 742 3664 
Q 494 3481 375 3128 
L 259 3128 
Q 338 3706 661 4015 
Q 984 4325 1469 4325 
Q 1984 4325 2329 3994 
Q 2675 3663 2675 3213 
Q 2675 2891 2525 2569 
Q 2294 2063 1775 1497 
Q 997 647 803 472 
L 1909 472 
Q 2247 472 2383 497 
Q 2519 522 2628 598 
Q 2738 675 2819 816 
L 2934 816 
z
" transform="scale(0.015625)"/>
       </defs>
       <use xlink:href="#TimesNewRomanPSMT-32"/>
       <use xlink:href="#TimesNewRomanPSMT-30" x="50"/>
       <use xlink:href="#TimesNewRomanPSMT-30" x="100"/>
      </g>
     </g>
    </g>
    <g id="xtick_3">
     <g id="line2d_3">
      <g>
       <use xlink:href="#m05ddeab8c0" x="203.824537" y="307.584" style="stroke: #000000; stroke-width: 0.8"/>
      </g>
     </g>
     <g id="text_3">
      <!-- 400 -->
      <g transform="translate(194.824537 322.9165) scale(0.12 -0.12)">
       <defs>
        <path id="TimesNewRomanPSMT-34" d="M 2978 1563 
L 2978 1119 
L 2409 1119 
L 2409 0 
L 1894 0 
L 1894 1119 
L 100 1119 
L 100 1519 
L 2066 4325 
L 2409 4325 
L 2409 1563 
L 2978 1563 
z
M 1894 1563 
L 1894 3666 
L 406 1563 
L 1894 1563 
z
" transform="scale(0.015625)"/>
       </defs>
       <use xlink:href="#TimesNewRomanPSMT-34"/>
       <use xlink:href="#TimesNewRomanPSMT-30" x="50"/>
       <use xlink:href="#TimesNewRomanPSMT-30" x="100"/>
      </g>
     </g>
    </g>
    <g id="xtick_4">
     <g id="line2d_4">
      <g>
       <use xlink:href="#m05ddeab8c0" x="268.820442" y="307.584" style="stroke: #000000; stroke-width: 0.8"/>
      </g>
     </g>
     <g id="text_4">
      <!-- 600 -->
      <g transform="translate(259.820442 322.9165) scale(0.12 -0.12)">
       <defs>
        <path id="TimesNewRomanPSMT-36" d="M 2869 4325 
L 2869 4209 
Q 2456 4169 2195 4045 
Q 1934 3922 1679 3669 
Q 1425 3416 1258 3105 
Q 1091 2794 978 2366 
Q 1428 2675 1881 2675 
Q 2316 2675 2634 2325 
Q 2953 1975 2953 1425 
Q 2953 894 2631 456 
Q 2244 -75 1606 -75 
Q 1172 -75 869 213 
Q 275 772 275 1663 
Q 275 2231 503 2743 
Q 731 3256 1154 3653 
Q 1578 4050 1965 4187 
Q 2353 4325 2688 4325 
L 2869 4325 
z
M 925 2138 
Q 869 1716 869 1456 
Q 869 1156 980 804 
Q 1091 453 1309 247 
Q 1469 100 1697 100 
Q 1969 100 2183 356 
Q 2397 613 2397 1088 
Q 2397 1622 2184 2012 
Q 1972 2403 1581 2403 
Q 1463 2403 1327 2353 
Q 1191 2303 925 2138 
z
" transform="scale(0.015625)"/>
       </defs>
       <use xlink:href="#TimesNewRomanPSMT-36"/>
       <use xlink:href="#TimesNewRomanPSMT-30" x="50"/>
       <use xlink:href="#TimesNewRomanPSMT-30" x="100"/>
      </g>
     </g>
    </g>
    <g id="xtick_5">
     <g id="line2d_5">
      <g>
       <use xlink:href="#m05ddeab8c0" x="333.816347" y="307.584" style="stroke: #000000; stroke-width: 0.8"/>
      </g>
     </g>
     <g id="text_5">
      <!-- 800 -->
      <g transform="translate(324.816347 322.9165) scale(0.12 -0.12)">
       <defs>
        <path id="TimesNewRomanPSMT-38" d="M 1228 2134 
Q 725 2547 579 2797 
Q 434 3047 434 3316 
Q 434 3728 753 4026 
Q 1072 4325 1600 4325 
Q 2113 4325 2425 4047 
Q 2738 3769 2738 3413 
Q 2738 3175 2569 2928 
Q 2400 2681 1866 2347 
Q 2416 1922 2594 1678 
Q 2831 1359 2831 1006 
Q 2831 559 2490 242 
Q 2150 -75 1597 -75 
Q 994 -75 656 303 
Q 388 606 388 966 
Q 388 1247 577 1523 
Q 766 1800 1228 2134 
z
M 1719 2469 
Q 2094 2806 2194 3001 
Q 2294 3197 2294 3444 
Q 2294 3772 2109 3958 
Q 1925 4144 1606 4144 
Q 1288 4144 1088 3959 
Q 888 3775 888 3528 
Q 888 3366 970 3203 
Q 1053 3041 1206 2894 
L 1719 2469 
z
M 1375 2016 
Q 1116 1797 991 1539 
Q 866 1281 866 981 
Q 866 578 1086 336 
Q 1306 94 1647 94 
Q 1984 94 2187 284 
Q 2391 475 2391 747 
Q 2391 972 2272 1150 
Q 2050 1481 1375 2016 
z
" transform="scale(0.015625)"/>
       </defs>
       <use xlink:href="#TimesNewRomanPSMT-38"/>
       <use xlink:href="#TimesNewRomanPSMT-30" x="50"/>
       <use xlink:href="#TimesNewRomanPSMT-30" x="100"/>
      </g>
     </g>
    </g>
    <g id="xtick_6">
     <g id="line2d_6">
      <g>
       <use xlink:href="#m05ddeab8c0" x="398.812252" y="307.584" style="stroke: #000000; stroke-width: 0.8"/>
      </g>
     </g>
     <g id="text_6">
      <!-- 1000 -->
      <g transform="translate(386.812252 322.9165) scale(0.12 -0.12)">
       <defs>
        <path id="TimesNewRomanPSMT-31" d="M 750 3822 
L 1781 4325 
L 1884 4325 
L 1884 747 
Q 1884 391 1914 303 
Q 1944 216 2037 169 
Q 2131 122 2419 116 
L 2419 0 
L 825 0 
L 825 116 
Q 1125 122 1212 167 
Q 1300 213 1334 289 
Q 1369 366 1369 747 
L 1369 3034 
Q 1369 3497 1338 3628 
Q 1316 3728 1258 3775 
Q 1200 3822 1119 3822 
Q 1003 3822 797 3725 
L 750 3822 
z
" transform="scale(0.015625)"/>
       </defs>
       <use xlink:href="#TimesNewRomanPSMT-31"/>
       <use xlink:href="#TimesNewRomanPSMT-30" x="50"/>
       <use xlink:href="#TimesNewRomanPSMT-30" x="100"/>
       <use xlink:href="#TimesNewRomanPSMT-30" x="150"/>
      </g>
     </g>
    </g>
   </g>
   <g id="matplotlib.axis_2">
    <g id="ytick_1">
     <g id="line2d_7">
      <defs>
       <path id="me16114ef9f" d="M 0 0 
L -3.5 0 
" style="stroke: #000000; stroke-width: 0.8"/>
      </defs>
      <g>
       <use xlink:href="#me16114ef9f" x="57.6" y="304.700593" style="stroke: #000000; stroke-width: 0.8"/>
      </g>
     </g>
     <g id="text_7">
      <!-- −1.75 -->
      <g transform="translate(22.833125 308.866843) scale(0.12 -0.12)">
       <defs>
        <path id="TimesNewRomanPSMT-2212" d="M 3484 2000 
L 116 2000 
L 116 2256 
L 3484 2256 
L 3484 2000 
z
" transform="scale(0.015625)"/>
        <path id="TimesNewRomanPSMT-2e" d="M 800 606 
Q 947 606 1047 504 
Q 1147 403 1147 259 
Q 1147 116 1045 14 
Q 944 -88 800 -88 
Q 656 -88 554 14 
Q 453 116 453 259 
Q 453 406 554 506 
Q 656 606 800 606 
z
" transform="scale(0.015625)"/>
        <path id="TimesNewRomanPSMT-37" d="M 644 4238 
L 2916 4238 
L 2916 4119 
L 1503 -88 
L 1153 -88 
L 2419 3728 
L 1253 3728 
Q 900 3728 750 3644 
Q 488 3500 328 3200 
L 238 3234 
L 644 4238 
z
" transform="scale(0.015625)"/>
        <path id="TimesNewRomanPSMT-35" d="M 2778 4238 
L 2534 3706 
L 1259 3706 
L 981 3138 
Q 1809 3016 2294 2522 
Q 2709 2097 2709 1522 
Q 2709 1188 2573 903 
Q 2438 619 2231 419 
Q 2025 219 1772 97 
Q 1413 -75 1034 -75 
Q 653 -75 479 54 
Q 306 184 306 341 
Q 306 428 378 495 
Q 450 563 559 563 
Q 641 563 702 538 
Q 763 513 909 409 
Q 1144 247 1384 247 
Q 1750 247 2026 523 
Q 2303 800 2303 1197 
Q 2303 1581 2056 1914 
Q 1809 2247 1375 2428 
Q 1034 2569 447 2591 
L 1259 4238 
L 2778 4238 
z
" transform="scale(0.015625)"/>
       </defs>
       <use xlink:href="#TimesNewRomanPSMT-2212"/>
       <use xlink:href="#TimesNewRomanPSMT-31" x="56.396484"/>
       <use xlink:href="#TimesNewRomanPSMT-2e" x="106.396484"/>
       <use xlink:href="#TimesNewRomanPSMT-37" x="131.396484"/>
       <use xlink:href="#TimesNewRomanPSMT-35" x="181.396484"/>
      </g>
     </g>
    </g>
    <g id="ytick_2">
     <g id="line2d_8">
      <g>
       <use xlink:href="#me16114ef9f" x="57.6" y="268.685907" style="stroke: #000000; stroke-width: 0.8"/>
      </g>
     </g>
     <g id="text_8">
      <!-- −1.50 -->
      <g transform="translate(22.833125 272.852157) scale(0.12 -0.12)">
       <use xlink:href="#TimesNewRomanPSMT-2212"/>
       <use xlink:href="#TimesNewRomanPSMT-31" x="56.396484"/>
       <use xlink:href="#TimesNewRomanPSMT-2e" x="106.396484"/>
       <use xlink:href="#TimesNewRomanPSMT-35" x="131.396484"/>
       <use xlink:href="#TimesNewRomanPSMT-30" x="181.396484"/>
      </g>
     </g>
    </g>
    <g id="ytick_3">
     <g id="line2d_9">
      <g>
       <use xlink:href="#me16114ef9f" x="57.6" y="232.671221" style="stroke: #000000; stroke-width: 0.8"/>
      </g>
     </g>
     <g id="text_9">
      <!-- −1.25 -->
      <g transform="translate(22.833125 236.837471) scale(0.12 -0.12)">
       <use xlink:href="#TimesNewRomanPSMT-2212"/>
       <use xlink:href="#TimesNewRomanPSMT-31" x="56.396484"/>
       <use xlink:href="#TimesNewRomanPSMT-2e" x="106.396484"/>
       <use xlink:href="#TimesNewRomanPSMT-32" x="131.396484"/>
       <use xlink:href="#TimesNewRomanPSMT-35" x="181.396484"/>
      </g>
     </g>
    </g>
    <g id="ytick_4">
     <g id="line2d_10">
      <g>
       <use xlink:href="#me16114ef9f" x="57.6" y="196.656536" style="stroke: #000000; stroke-width: 0.8"/>
      </g>
     </g>
     <g id="text_10">
      <!-- −1.00 -->
      <g transform="translate(22.833125 200.822786) scale(0.12 -0.12)">
       <use xlink:href="#TimesNewRomanPSMT-2212"/>
       <use xlink:href="#TimesNewRomanPSMT-31" x="56.396484"/>
       <use xlink:href="#TimesNewRomanPSMT-2e" x="106.396484"/>
       <use xlink:href="#TimesNewRomanPSMT-30" x="131.396484"/>
       <use xlink:href="#TimesNewRomanPSMT-30" x="181.396484"/>
      </g>
     </g>
    </g>
    <g id="ytick_5">
     <g id="line2d_11">
      <g>
       <use xlink:href="#me16114ef9f" x="57.6" y="160.64185" style="stroke: #000000; stroke-width: 0.8"/>
      </g>
     </g>
     <g id="text_11">
      <!-- −0.75 -->
      <g transform="translate(22.833125 164.8081) scale(0.12 -0.12)">
       <use xlink:href="#TimesNewRomanPSMT-2212"/>
       <use xlink:href="#TimesNewRomanPSMT-30" x="56.396484"/>
       <use xlink:href="#TimesNewRomanPSMT-2e" x="106.396484"/>
       <use xlink:href="#TimesNewRomanPSMT-37" x="131.396484"/>
       <use xlink:href="#TimesNewRomanPSMT-35" x="181.396484"/>
      </g>
     </g>
    </g>
    <g id="ytick_6">
     <g id="line2d_12">
      <g>
       <use xlink:href="#me16114ef9f" x="57.6" y="124.627165" style="stroke: #000000; stroke-width: 0.8"/>
      </g>
     </g>
     <g id="text_12">
      <!-- −0.50 -->
      <g transform="translate(22.833125 128.793415) scale(0.12 -0.12)">
       <use xlink:href="#TimesNewRomanPSMT-2212"/>
       <use xlink:href="#TimesNewRomanPSMT-30" x="56.396484"/>
       <use xlink:href="#TimesNewRomanPSMT-2e" x="106.396484"/>
       <use xlink:href="#TimesNewRomanPSMT-35" x="131.396484"/>
       <use xlink:href="#TimesNewRomanPSMT-30" x="181.396484"/>
      </g>
     </g>
    </g>
    <g id="ytick_7">
     <g id="line2d_13">
      <g>
       <use xlink:href="#me16114ef9f" x="57.6" y="88.612479" style="stroke: #000000; stroke-width: 0.8"/>
      </g>
     </g>
     <g id="text_13">
      <!-- −0.25 -->
      <g transform="translate(22.833125 92.778729) scale(0.12 -0.12)">
       <use xlink:href="#TimesNewRomanPSMT-2212"/>
       <use xlink:href="#TimesNewRomanPSMT-30" x="56.396484"/>
       <use xlink:href="#TimesNewRomanPSMT-2e" x="106.396484"/>
       <use xlink:href="#TimesNewRomanPSMT-32" x="131.396484"/>
       <use xlink:href="#TimesNewRomanPSMT-35" x="181.396484"/>
      </g>
     </g>
    </g>
    <g id="ytick_8">
     <g id="line2d_14">
      <g>
       <use xlink:href="#me16114ef9f" x="57.6" y="52.597793" style="stroke: #000000; stroke-width: 0.8"/>
      </g>
     </g>
     <g id="text_14">
      <!-- 0.00 -->
      <g transform="translate(29.6 56.764043) scale(0.12 -0.12)">
       <use xlink:href="#TimesNewRomanPSMT-30"/>
       <use xlink:href="#TimesNewRomanPSMT-2e" x="50"/>
       <use xlink:href="#TimesNewRomanPSMT-30" x="75"/>
       <use xlink:href="#TimesNewRomanPSMT-30" x="125"/>
      </g>
     </g>
    </g>
    <g id="text_15">
     <!-- 1e6 -->
     <g transform="translate(57.6 38.472) scale(0.12 -0.12)">
      <defs>
       <path id="TimesNewRomanPSMT-65" d="M 681 1784 
Q 678 1147 991 784 
Q 1303 422 1725 422 
Q 2006 422 2214 576 
Q 2422 731 2563 1106 
L 2659 1044 
Q 2594 616 2278 264 
Q 1963 -88 1488 -88 
Q 972 -88 605 314 
Q 238 716 238 1394 
Q 238 2128 614 2539 
Q 991 2950 1559 2950 
Q 2041 2950 2350 2633 
Q 2659 2316 2659 1784 
L 681 1784 
z
M 681 1966 
L 2006 1966 
Q 1991 2241 1941 2353 
Q 1863 2528 1708 2628 
Q 1553 2728 1384 2728 
Q 1125 2728 920 2526 
Q 716 2325 681 1966 
z
" transform="scale(0.015625)"/>
      </defs>
      <use xlink:href="#TimesNewRomanPSMT-31"/>
      <use xlink:href="#TimesNewRomanPSMT-65" x="50"/>
      <use xlink:href="#TimesNewRomanPSMT-36" x="94.384766"/>
     </g>
    </g>
   </g>
   <g id="line2d_15">
    <path d="M 73.832727 295.488 
L 76.757543 295.488 
L 77.082523 188.108144 
L 77.407502 185.155921 
L 77.732482 205.350913 
L 78.057461 168.116122 
L 78.382441 223.520196 
L 79.0324 145.016483 
L 79.357379 168.590552 
L 79.682359 165.294452 
L 80.007338 188.678328 
L 80.332318 226.276364 
L 80.657297 204.105093 
L 80.982277 201.207216 
L 81.307256 228.20866 
L 81.632236 217.519501 
L 81.957215 178.543994 
L 82.282195 207.183538 
L 82.607174 191.873101 
L 82.932154 198.649904 
L 83.257133 214.969877 
L 83.907093 207.874318 
L 84.232072 207.201402 
L 84.557052 180.068415 
L 84.882031 193.636983 
L 85.207011 188.678319 
L 85.53199 170.155156 
L 85.85697 184.86232 
L 86.181949 183.252086 
L 86.506929 189.708637 
L 86.831908 167.564026 
L 87.156888 177.25764 
L 87.481867 171.718077 
L 87.806847 210.428516 
L 88.131826 205.52915 
L 88.456806 215.517751 
L 88.781785 208.760675 
L 89.106765 213.050421 
L 89.431744 243.674554 
L 90.406683 169.414442 
L 90.731663 176.016222 
L 91.056642 168.535279 
L 91.381622 184.853308 
L 91.706601 176.916733 
L 92.031581 176.594465 
L 92.35656 176.61277 
L 92.68154 181.103648 
L 93.006519 205.894357 
L 93.331499 197.460411 
L 93.656478 166.421829 
L 93.981458 169.661296 
L 94.306437 169.796513 
L 94.631417 138.785735 
L 94.956396 163.485282 
L 95.281376 151.163505 
L 95.606355 171.287278 
L 95.931335 204.181858 
L 96.256314 169.991091 
L 96.581294 150.693901 
L 96.906274 160.201255 
L 97.231253 153.490846 
L 97.556233 200.335868 
L 97.881212 170.220982 
L 98.206192 205.390673 
L 98.531171 218.631328 
L 98.856151 140.289258 
L 99.18113 209.540195 
L 99.50611 151.238569 
L 99.831089 162.216313 
L 100.156069 207.767516 
L 100.481048 206.934839 
L 100.806028 157.2036 
L 101.131007 210.020109 
L 101.455987 168.289929 
L 101.780966 181.096868 
L 102.105946 213.027155 
L 102.430925 207.925027 
L 102.755905 176.433272 
L 103.080885 175.393771 
L 103.405864 182.087983 
L 103.730844 166.811886 
L 104.055823 179.855487 
L 104.380803 198.821451 
L 104.705782 200.253016 
L 105.030762 184.484977 
L 105.680721 221.41051 
L 106.0057 158.29354 
L 106.33068 186.936991 
L 106.655659 157.774442 
L 106.980639 161.400932 
L 107.305618 197.230574 
L 107.630598 170.485411 
L 107.955577 159.552775 
L 108.280557 143.450582 
L 108.930516 171.110347 
L 109.255495 146.752985 
L 109.580475 157.005438 
L 109.905455 174.454139 
L 110.555414 159.33241 
L 110.880393 156.407387 
L 111.205373 190.241825 
L 111.530352 168.11496 
L 111.855332 194.661448 
L 112.180311 142.654784 
L 112.505291 158.105858 
L 112.83027 158.029615 
L 113.15525 149.419998 
L 113.480229 149.570864 
L 113.805209 156.843624 
L 114.130188 159.405322 
L 114.455168 153.726427 
L 114.780147 161.866728 
L 115.105127 156.657617 
L 115.430106 154.091292 
L 115.755086 156.434732 
L 116.080066 143.148878 
L 116.405045 144.740178 
L 116.730025 138.807758 
L 117.055004 157.602022 
L 117.379984 208.743442 
L 117.704963 164.543681 
L 118.029943 193.131337 
L 118.354922 166.109771 
L 118.679902 161.745304 
L 119.329861 144.968925 
L 119.65484 145.198924 
L 119.97982 142.201431 
L 120.304799 149.984177 
L 120.629779 149.289562 
L 120.954758 148.881633 
L 121.279738 141.903967 
L 121.604717 141.522086 
L 121.929697 143.358141 
L 122.254676 165.963182 
L 122.579656 160.201967 
L 122.904636 141.733573 
L 123.229615 141.317351 
L 123.554595 159.549561 
L 123.879574 142.560308 
L 124.204554 140.270305 
L 124.854513 155.420036 
L 125.179492 141.81493 
L 125.504472 151.025767 
L 125.829451 181.959222 
L 126.154431 160.751704 
L 126.47941 160.642417 
L 126.80439 161.182809 
L 127.129369 148.427352 
L 127.454349 148.076173 
L 128.104308 130.853563 
L 128.754267 147.19276 
L 129.079247 136.190039 
L 129.404226 129.098253 
L 129.729206 156.991987 
L 130.054185 147.153738 
L 130.379165 167.764889 
L 130.704144 170.917281 
L 131.354103 217.172427 
L 131.679083 170.488184 
L 132.329042 146.832343 
L 132.654021 172.64387 
L 132.979001 142.042489 
L 133.30398 165.138689 
L 133.62896 155.010081 
L 133.953939 153.268266 
L 134.278919 153.017091 
L 134.603898 154.118897 
L 134.928878 154.02498 
L 135.253857 149.373836 
L 135.578837 150.777257 
L 135.903817 144.567911 
L 136.228796 161.263437 
L 136.878755 141.972359 
L 137.203735 148.235232 
L 137.528714 133.801383 
L 137.853694 141.158022 
L 138.178673 186.79648 
L 138.503653 210.370946 
L 138.828632 221.216138 
L 139.153612 218.422875 
L 139.478591 193.043948 
L 139.803571 186.21885 
L 140.12855 175.388783 
L 140.45353 195.017913 
L 141.103489 159.1627 
L 141.428468 153.834687 
L 141.753448 179.033929 
L 142.078428 261.067342 
L 142.728387 153.810179 
L 143.053366 141.971162 
L 143.378346 141.841365 
L 143.703325 139.975066 
L 144.028305 173.398153 
L 144.353284 173.447196 
L 144.678264 176.560521 
L 145.003243 131.230484 
L 145.653202 104.393421 
L 145.978182 97.864215 
L 146.303161 95.666491 
L 146.628141 84.861977 
L 146.95312 170.572648 
L 147.2781 82.690001 
L 147.603079 119.442621 
L 147.928059 76.561763 
L 148.253038 199.396119 
L 148.902998 90.15725 
L 149.552957 80.210797 
L 149.877936 82.911926 
L 150.202916 67.322843 
L 150.527895 71.64696 
L 150.852875 85.241669 
L 151.177854 67.664296 
L 151.502834 153.688585 
L 151.827813 82.34731 
L 152.152793 65.629823 
L 152.477772 72.608815 
L 152.802752 116.500109 
L 153.127731 71.458456 
L 153.452711 174.78922 
L 153.77769 66.165757 
L 154.10267 67.993832 
L 154.427649 65.981761 
L 154.752629 61.032877 
L 155.077609 62.118042 
L 155.402588 64.895272 
L 155.727568 88.259927 
L 156.052547 147.970083 
L 156.377527 88.461789 
L 156.702506 169.879779 
L 157.027486 220.252115 
L 157.352465 220.252115 
L 157.677445 186.175794 
L 158.002424 75.622815 
L 158.327404 74.329352 
L 158.652383 90.764365 
L 158.977363 140.364223 
L 159.302342 92.344402 
L 159.627322 63.026304 
L 159.952301 74.81309 
L 160.277281 72.532165 
L 160.92724 187.042271 
L 161.252219 141.267642 
L 161.577199 141.211612 
L 161.902179 195.157163 
L 162.227158 125.149359 
L 162.552138 121.426976 
L 162.877117 71.388941 
L 163.202097 65.191047 
L 163.852056 63.383214 
L 164.177035 63.768682 
L 164.502015 61.263614 
L 164.826994 161.246123 
L 165.151974 65.287869 
L 165.476953 60.560894 
L 165.801933 61.370188 
L 166.126912 64.099232 
L 166.776871 161.457925 
L 167.101851 76.828323 
L 167.42683 65.921607 
L 167.75181 67.355352 
L 168.07679 86.742707 
L 168.401769 76.880357 
L 168.726749 71.385079 
L 169.051728 81.183968 
L 169.376708 77.200323 
L 169.701687 93.48378 
L 170.026667 147.394334 
L 170.351646 61.618019 
L 170.676626 61.057251 
L 171.001605 125.951411 
L 171.326585 86.217709 
L 171.651564 67.920124 
L 171.976544 61.912072 
L 172.301523 70.692669 
L 172.626503 63.360689 
L 172.951482 61.331074 
L 173.276462 70.197262 
L 173.601441 69.338516 
L 173.926421 61.106062 
L 174.2514 64.555118 
L 174.57638 64.065086 
L 174.90136 117.442419 
L 175.226339 88.229607 
L 175.551319 176.484449 
L 175.876298 172.514163 
L 176.526257 79.320206 
L 176.851237 71.905039 
L 177.176216 69.386125 
L 177.501196 80.817015 
L 177.826175 119.447388 
L 178.151155 59.932782 
L 178.476134 59.660757 
L 178.801114 62.988673 
L 179.126093 65.160492 
L 179.451073 58.448566 
L 180.101032 61.371822 
L 180.426011 59.754606 
L 180.750991 71.739777 
L 181.075971 69.141011 
L 181.40095 64.077688 
L 181.72593 89.633819 
L 182.050909 86.299796 
L 182.700868 89.520294 
L 183.025848 174.41076 
L 183.350827 86.705227 
L 183.675807 65.503207 
L 184.000786 70.898322 
L 184.325766 59.174373 
L 184.975725 56.580004 
L 185.300704 57.473507 
L 185.625684 61.255471 
L 185.950663 57.189468 
L 186.275643 57.918981 
L 186.925602 61.626732 
L 187.250581 154.493945 
L 187.575561 71.554008 
L 187.900541 148.419825 
L 188.22552 129.873685 
L 188.5505 211.413517 
L 188.875479 156.553292 
L 189.200459 70.741655 
L 189.850418 63.977958 
L 190.175397 67.73629 
L 190.500377 62.160926 
L 190.825356 62.541472 
L 191.150336 61.529119 
L 191.475315 70.622798 
L 191.800295 94.895101 
L 192.125274 60.466216 
L 192.450254 62.376117 
L 192.775233 58.824681 
L 193.100213 67.454096 
L 193.425192 97.531196 
L 193.750172 62.753669 
L 194.400131 120.447786 
L 194.725111 64.824685 
L 195.05009 69.56523 
L 195.37507 66.608215 
L 195.700049 81.392493 
L 196.025029 172.19329 
L 196.350008 221.251541 
L 196.674988 64.345589 
L 196.999967 221.46428 
L 197.324947 67.642391 
L 197.649926 65.50436 
L 197.974906 86.993227 
L 198.299885 69.20126 
L 198.624865 89.218725 
L 198.949844 124.950919 
L 199.274824 100.834486 
L 199.599803 90.110825 
L 199.924783 221.010026 
L 200.249762 204.774624 
L 200.574742 73.486005 
L 200.899722 63.371342 
L 201.224701 78.767201 
L 201.549681 70.378511 
L 201.87466 65.567761 
L 202.19964 69.321686 
L 202.524619 58.351289 
L 202.849599 60.19039 
L 203.174578 63.528515 
L 203.499558 63.604962 
L 203.824537 58.059069 
L 204.149517 56.628738 
L 204.799476 56.870088 
L 205.124455 56.738731 
L 205.449435 106.765456 
L 205.774414 65.158176 
L 206.099394 66.704848 
L 206.424373 60.372694 
L 206.749353 119.76163 
L 207.074333 258.22265 
L 207.399312 142.458477 
L 207.724292 68.505705 
L 208.049271 63.073809 
L 208.374251 92.289227 
L 208.69923 179.769358 
L 209.02421 170.383381 
L 209.349189 155.300035 
L 209.674169 104.169648 
L 209.999148 81.887364 
L 210.324128 68.751743 
L 210.649107 150.219398 
L 210.974087 72.388464 
L 211.299066 70.326523 
L 211.624046 58.482258 
L 211.949025 65.98643 
L 212.274005 70.132838 
L 212.598984 60.844627 
L 212.923964 58.290519 
L 213.248943 58.196536 
L 213.573923 56.956841 
L 213.898903 59.233758 
L 214.223882 56.973758 
L 214.548862 57.481126 
L 214.873841 56.983344 
L 215.198821 58.337272 
L 215.5238 70.33302 
L 215.84878 64.841904 
L 216.173759 173.930288 
L 216.498739 127.758259 
L 216.823718 100.868411 
L 217.148698 95.233482 
L 217.473677 86.378841 
L 217.798657 65.175719 
L 218.123636 68.438386 
L 218.448616 62.756497 
L 218.773595 62.783762 
L 219.098575 58.129195 
L 219.423554 56.327734 
L 219.748534 56.650078 
L 220.073514 62.152276 
L 220.398493 64.231104 
L 220.723473 57.067004 
L 221.048452 58.52314 
L 221.373432 58.975133 
L 221.698411 56.721427 
L 222.023391 161.871382 
L 222.34837 85.364006 
L 222.67335 56.993648 
L 222.998329 122.498048 
L 223.323309 221.160712 
L 223.648288 220.555089 
L 223.973268 70.979461 
L 224.298247 77.022976 
L 224.623227 74.987621 
L 224.948206 69.289836 
L 225.273186 87.182156 
L 225.598165 63.796285 
L 225.923145 63.061913 
L 226.248124 88.602485 
L 226.573104 61.269946 
L 226.898084 143.317481 
L 227.223063 97.210787 
L 227.548043 208.633724 
L 227.873022 209.013805 
L 228.198002 123.546278 
L 228.522981 221.240988 
L 228.847961 221.373775 
L 229.17294 181.693514 
L 229.49792 119.757097 
L 229.822899 165.267531 
L 230.147879 84.778358 
L 231.122817 67.824844 
L 231.447797 66.923107 
L 231.772776 62.438274 
L 232.097756 66.608942 
L 232.747715 55.979518 
L 233.072695 57.664991 
L 233.397674 54.675528 
L 233.722654 54.496802 
L 234.047633 54.854931 
L 234.372613 86.801724 
L 234.697592 221.662576 
L 235.022572 103.997435 
L 235.347551 60.172578 
L 235.672531 59.905281 
L 235.99751 63.416926 
L 236.32249 58.785294 
L 236.647469 59.71837 
L 236.972449 59.345548 
L 237.297428 56.424193 
L 237.622408 69.186541 
L 237.947387 55.652701 
L 238.272367 54.43689 
L 238.597346 55.167212 
L 238.922326 105.347418 
L 239.247305 59.12422 
L 239.572285 147.227451 
L 239.897265 184.182057 
L 240.222244 98.208776 
L 240.547224 218.952345 
L 240.872203 207.761358 
L 241.197183 170.948407 
L 241.522162 221.71026 
L 241.847142 221.167374 
L 242.172121 61.072713 
L 242.497101 59.814242 
L 242.82208 61.447913 
L 243.14706 56.659683 
L 243.797019 59.851251 
L 244.121998 56.912614 
L 244.446978 57.590899 
L 244.771957 56.679075 
L 245.096937 56.781128 
L 245.421916 56.999991 
L 246.071876 55.263487 
L 246.721835 54.269651 
L 247.046814 54.148086 
L 247.696773 54.478258 
L 248.021753 206.941069 
L 248.346732 276.500301 
L 248.671712 198.8238 
L 248.996691 202.65154 
L 249.321671 214.696652 
L 249.64665 221.779966 
L 250.296609 125.737659 
L 250.621589 205.198355 
L 250.946568 197.268641 
L 251.271548 166.741009 
L 251.596527 106.96075 
L 251.921507 106.521794 
L 252.246486 64.843438 
L 252.571466 73.153137 
L 252.896446 61.328924 
L 253.221425 66.35111 
L 253.546405 154.005334 
L 253.871384 87.035754 
L 254.196364 59.017785 
L 254.521343 59.364452 
L 254.846323 60.247106 
L 255.171302 73.468371 
L 255.496282 61.275898 
L 255.821261 117.74085 
L 256.146241 63.664917 
L 256.47122 63.940983 
L 256.7962 59.532595 
L 257.121179 59.522587 
L 257.446159 176.871715 
L 257.771138 213.958567 
L 258.096118 107.730987 
L 258.421097 64.136772 
L 258.746077 64.754204 
L 259.071057 94.856696 
L 259.396036 66.662913 
L 259.721016 65.188835 
L 260.045995 72.439522 
L 260.370975 73.763271 
L 260.695954 63.732764 
L 261.020934 90.828944 
L 261.345913 63.534767 
L 261.670893 61.527144 
L 261.995872 60.955092 
L 262.320852 57.80355 
L 262.645831 60.388529 
L 262.970811 58.959457 
L 263.62077 62.445199 
L 263.945749 60.646872 
L 264.270729 209.313969 
L 264.595708 66.822599 
L 264.920688 81.376926 
L 265.245667 115.670348 
L 265.570647 91.427909 
L 265.895627 146.234634 
L 266.545586 68.346169 
L 266.870565 71.382613 
L 267.520524 57.861614 
L 267.845504 57.738407 
L 268.170483 63.773277 
L 268.495463 58.957362 
L 268.820442 57.005175 
L 269.145422 57.613557 
L 269.470401 56.502646 
L 269.795381 56.497122 
L 270.12036 56.060298 
L 270.44534 54.712164 
L 270.770319 94.787575 
L 271.095299 98.713473 
L 271.420278 227.079005 
L 271.745258 110.818328 
L 272.070238 63.149396 
L 272.395217 67.899805 
L 272.720197 178.802084 
L 273.045176 58.371122 
L 273.370156 64.704138 
L 273.695135 61.503357 
L 274.020115 57.060245 
L 274.345094 61.847349 
L 274.670074 56.039678 
L 274.995053 56.831744 
L 275.320033 55.822614 
L 275.645012 59.92974 
L 275.969992 55.596382 
L 276.294971 54.241554 
L 276.619951 57.26614 
L 276.94493 56.048118 
L 277.26991 198.933114 
L 277.594889 221.055243 
L 277.919869 288.159047 
L 278.569828 208.344238 
L 278.894808 211.434586 
L 279.219787 127.818291 
L 279.544767 113.346136 
L 279.869746 108.035874 
L 280.194726 221.172381 
L 280.519705 119.958801 
L 280.844685 198.704115 
L 281.169664 88.075122 
L 281.494644 196.093896 
L 281.819623 99.084073 
L 282.144603 111.399452 
L 282.469582 89.113956 
L 282.794562 89.044959 
L 283.119541 98.310171 
L 283.444521 207.724893 
L 283.7695 220.616278 
L 284.09448 219.845581 
L 284.744439 221.622096 
L 285.069419 221.690308 
L 285.394398 218.794367 
L 285.719378 220.03365 
L 286.369337 193.653856 
L 286.694316 150.684465 
L 287.019296 216.91829 
L 287.344275 222.673166 
L 287.669255 151.426664 
L 287.994234 129.512854 
L 288.319214 126.74174 
L 288.644193 112.188048 
L 288.969173 117.55818 
L 289.619132 69.736058 
L 290.269091 62.835947 
L 290.59407 62.61354 
L 290.91905 104.710733 
L 291.244029 59.611538 
L 291.569009 60.206268 
L 291.893989 57.020009 
L 292.218968 56.775307 
L 292.543948 55.116162 
L 292.868927 55.595819 
L 293.193907 59.497596 
L 293.518886 56.152499 
L 293.843866 56.285971 
L 294.168845 217.617515 
L 294.493825 181.56424 
L 294.818804 112.697354 
L 295.468763 63.983178 
L 295.793743 72.512062 
L 296.118722 62.443135 
L 296.443702 59.738007 
L 296.768681 63.348104 
L 297.093661 58.798294 
L 297.41864 59.000152 
L 297.74362 57.121406 
L 298.0686 61.665983 
L 298.393579 56.760443 
L 298.718559 58.114365 
L 299.043538 56.64434 
L 299.368518 56.496463 
L 299.693497 174.635491 
L 300.018477 208.453488 
L 300.343456 212.65118 
L 300.668436 219.892166 
L 300.993415 218.654342 
L 301.318395 237.819899 
L 301.643374 223.242433 
L 301.968354 220.026825 
L 302.293333 206.345711 
L 302.618313 243.648426 
L 303.268272 204.561795 
L 303.593251 162.700251 
L 303.918231 140.5795 
L 304.24321 138.566306 
L 304.56819 102.24257 
L 304.89317 89.674687 
L 305.218149 95.48138 
L 305.543129 88.607516 
L 305.868108 75.37852 
L 306.518067 69.713739 
L 306.843047 58.757003 
L 307.168026 58.577062 
L 307.493006 59.77476 
L 307.817985 63.309139 
L 308.142965 70.076244 
L 308.467944 60.639036 
L 308.792924 111.058479 
L 309.442883 65.76501 
L 309.767862 63.224934 
L 310.092842 64.810728 
L 310.417821 65.05695 
L 311.067781 63.228331 
L 311.39276 66.033253 
L 311.71774 70.634813 
L 312.042719 105.630575 
L 312.367699 58.999701 
L 312.692678 59.724244 
L 313.017658 64.141329 
L 313.342637 83.15064 
L 313.667617 75.280959 
L 313.992596 61.431894 
L 314.317576 62.727408 
L 314.642555 86.249274 
L 314.967535 59.777016 
L 315.292514 57.500861 
L 315.617494 58.450225 
L 315.942473 58.020046 
L 316.267453 59.504878 
L 316.917412 56.980609 
L 317.567371 221.692162 
L 317.892351 221.016581 
L 318.21733 220.997745 
L 318.54231 204.865075 
L 318.867289 79.861318 
L 319.192269 89.979457 
L 319.517248 71.940734 
L 320.167207 60.895574 
L 320.492187 60.698548 
L 320.817166 57.094909 
L 321.467125 55.256995 
L 321.792105 56.722653 
L 322.117084 57.457764 
L 322.442064 56.612737 
L 322.767043 55.426066 
L 323.092023 56.963651 
L 323.417002 57.867094 
L 324.066962 55.572107 
L 324.391941 149.186902 
L 324.716921 208.473494 
L 325.0419 218.955316 
L 325.36688 196.577033 
L 325.691859 216.12883 
L 326.016839 214.018369 
L 326.341818 80.614574 
L 326.666798 125.823136 
L 326.991777 60.446193 
L 327.316757 60.86118 
L 327.641736 60.973914 
L 327.966716 61.455665 
L 328.291695 66.201227 
L 328.616675 62.178038 
L 328.941654 56.019097 
L 329.591613 57.46571 
L 329.916593 62.255323 
L 330.241572 54.611615 
L 330.566552 55.232388 
L 330.891532 55.291721 
L 331.216511 54.928116 
L 331.541491 54.302825 
L 331.86647 54.474885 
L 332.19145 54.3792 
L 332.516429 57.322699 
L 332.841409 58.064609 
L 333.166388 55.30881 
L 333.491368 55.999943 
L 333.816347 57.223441 
L 334.141327 57.472886 
L 334.466306 55.43851 
L 334.791286 54.539542 
L 335.116265 67.965012 
L 335.441245 71.466041 
L 335.766224 59.600689 
L 336.091204 59.054013 
L 336.741163 65.1465 
L 337.066143 63.33194 
L 337.391122 81.122021 
L 337.716102 61.588419 
L 338.041081 55.685681 
L 338.366061 56.511338 
L 338.69104 58.981096 
L 339.01602 55.761448 
L 339.340999 57.054068 
L 339.665979 55.5644 
L 339.990958 61.436333 
L 340.315938 55.560017 
L 340.965897 54.528086 
L 341.290876 54.481123 
L 341.615856 54.677539 
L 341.940835 67.547538 
L 342.265815 204.573608 
L 342.590794 196.401147 
L 342.915774 212.612446 
L 343.240753 206.608312 
L 343.890713 93.489241 
L 344.215692 121.033664 
L 344.540672 76.104806 
L 344.865651 71.731002 
L 345.190631 70.757081 
L 345.84059 62.30646 
L 346.165569 60.743836 
L 346.490549 66.632293 
L 346.815528 77.239847 
L 347.140508 58.680427 
L 347.465487 71.338702 
L 347.790467 58.294544 
L 348.115446 141.527227 
L 348.440426 57.626217 
L 348.765405 60.737373 
L 349.090385 57.446831 
L 349.415364 57.944007 
L 349.740344 59.356732 
L 350.065324 64.965356 
L 350.715283 57.993393 
L 351.040262 59.954711 
L 351.690221 66.823163 
L 352.015201 59.889499 
L 352.34018 64.9703 
L 352.66516 61.597018 
L 352.990139 113.410908 
L 353.640098 60.12878 
L 353.965078 63.513052 
L 354.290057 57.038529 
L 354.615037 62.072253 
L 354.940016 65.381102 
L 355.264996 67.157213 
L 355.589975 58.903943 
L 355.914955 59.755573 
L 356.239934 60.123937 
L 356.564914 54.3352 
L 356.889894 56.254823 
L 357.214873 55.272567 
L 357.539853 57.899914 
L 357.864832 62.259522 
L 358.514791 54.803208 
L 358.839771 54.629144 
L 359.48973 79.14027 
L 359.814709 63.207807 
L 360.139689 83.632625 
L 360.464668 114.294614 
L 360.789648 221.406116 
L 361.439607 103.9274 
L 361.764586 148.431836 
L 362.089566 59.789269 
L 362.414545 127.728826 
L 362.739525 67.226912 
L 363.064505 61.717336 
L 363.389484 59.695 
L 363.714464 74.060556 
L 364.039443 63.704148 
L 364.364423 64.211083 
L 364.689402 63.570167 
L 365.014382 66.818639 
L 365.339361 62.888781 
L 365.664341 160.433172 
L 365.98932 85.402139 
L 366.3143 77.37018 
L 366.639279 64.317426 
L 366.964259 60.175084 
L 367.289238 67.011405 
L 367.614218 68.955496 
L 367.939197 68.349209 
L 368.264177 63.623313 
L 368.589156 68.158592 
L 368.914136 59.505494 
L 369.239115 58.228433 
L 369.564095 179.4413 
L 369.889075 185.972347 
L 370.214054 212.49068 
L 370.539034 61.379924 
L 370.864013 58.816061 
L 371.188993 63.772887 
L 371.513972 66.697825 
L 371.838952 56.254949 
L 372.163931 55.311583 
L 372.81389 62.875567 
L 373.13887 59.918645 
L 373.463849 58.413853 
L 373.788829 53.679091 
L 374.113808 53.568 
L 374.438788 53.753179 
L 375.088747 54.846046 
L 375.413726 54.63326 
L 375.738706 53.873233 
L 376.063686 199.06653 
L 376.388665 213.938273 
L 376.713645 204.032704 
L 377.363604 106.291836 
L 377.688583 67.363668 
L 378.013563 70.367482 
L 378.663522 59.55008 
L 378.988501 88.115496 
L 379.313481 64.455797 
L 379.63846 132.966059 
L 379.96344 61.112779 
L 380.288419 61.623386 
L 380.613399 62.726486 
L 380.938378 61.552767 
L 381.263358 62.532344 
L 381.588337 64.710958 
L 381.913317 99.483192 
L 382.238296 104.434631 
L 382.563276 101.645581 
L 382.888256 73.649484 
L 383.213235 67.092924 
L 383.538215 131.165478 
L 383.863194 58.175936 
L 384.188174 57.142357 
L 384.513153 56.581637 
L 384.838133 62.264841 
L 385.163112 141.474402 
L 385.488092 56.569314 
L 385.813071 57.548758 
L 386.138051 59.179851 
L 386.46303 54.497308 
L 386.78801 67.917362 
L 387.112989 93.48116 
L 387.437969 64.636304 
L 387.762948 66.233471 
L 388.087928 58.0306 
L 388.412907 59.333883 
L 388.737887 66.315039 
L 389.062867 60.300637 
L 389.387846 58.495984 
L 389.712826 195.769341 
L 390.037805 114.75201 
L 390.362785 196.074502 
L 390.687764 140.825661 
L 391.012744 192.951354 
L 391.337723 172.895892 
L 391.662703 65.170459 
L 391.987682 61.804338 
L 392.312662 70.972368 
L 392.637641 63.613319 
L 392.962621 59.575719 
L 393.2876 65.754194 
L 393.61258 63.626342 
L 393.937559 59.694109 
L 394.262539 62.633792 
L 394.587518 60.330434 
L 395.237477 57.686164 
L 395.562457 57.829544 
L 395.887437 56.763844 
L 396.212416 56.082371 
L 396.862375 58.061607 
L 397.187355 55.114491 
L 397.837314 54.504588 
L 398.487273 207.861713 
L 398.487273 207.861713 
" clip-path="url(#p65efe9fda2)" style="fill: none; stroke: #1f77b4; stroke-width: 1.5; stroke-linecap: square"/>
   </g>
   <g id="line2d_16">
    <defs>
     <path id="mbec86a99c0" d="M 0 3 
C 0.795609 3 1.55874 2.683901 2.12132 2.12132 
C 2.683901 1.55874 3 0.795609 3 0 
C 3 -0.795609 2.683901 -1.55874 2.12132 -2.12132 
C 1.55874 -2.683901 0.795609 -3 0 -3 
C -0.795609 -3 -1.55874 -2.683901 -2.12132 -2.12132 
C -2.683901 -1.55874 -3 -0.795609 -3 0 
C -3 0.795609 -2.683901 1.55874 -2.12132 2.12132 
C -1.55874 2.683901 -0.795609 3 0 3 
z
" style="stroke: #ff0000"/>
    </defs>
    <g clip-path="url(#p65efe9fda2)">
     <use xlink:href="#mbec86a99c0" x="77.082523" y="188.108144" style="fill: #ff0000; stroke: #ff0000"/>
    </g>
   </g>
   <g id="line2d_17">
    <g clip-path="url(#p65efe9fda2)">
     <use xlink:href="#mbec86a99c0" x="77.407502" y="185.155921" style="fill: #ff0000; stroke: #ff0000"/>
    </g>
   </g>
   <g id="line2d_18">
    <g clip-path="url(#p65efe9fda2)">
     <use xlink:href="#mbec86a99c0" x="78.057461" y="168.116122" style="fill: #ff0000; stroke: #ff0000"/>
    </g>
   </g>
   <g id="line2d_19">
    <g clip-path="url(#p65efe9fda2)">
     <use xlink:href="#mbec86a99c0" x="79.0324" y="145.016483" style="fill: #ff0000; stroke: #ff0000"/>
    </g>
   </g>
   <g id="line2d_20">
    <g clip-path="url(#p65efe9fda2)">
     <use xlink:href="#mbec86a99c0" x="94.631417" y="138.785735" style="fill: #ff0000; stroke: #ff0000"/>
    </g>
   </g>
   <g id="line2d_21">
    <g clip-path="url(#p65efe9fda2)">
     <use xlink:href="#mbec86a99c0" x="127.779328" y="138.681679" style="fill: #ff0000; stroke: #ff0000"/>
    </g>
   </g>
   <g id="line2d_22">
    <g clip-path="url(#p65efe9fda2)">
     <use xlink:href="#mbec86a99c0" x="128.104308" y="130.853563" style="fill: #ff0000; stroke: #ff0000"/>
    </g>
   </g>
   <g id="line2d_23">
    <g clip-path="url(#p65efe9fda2)">
     <use xlink:href="#mbec86a99c0" x="129.404226" y="129.098253" style="fill: #ff0000; stroke: #ff0000"/>
    </g>
   </g>
   <g id="line2d_24">
    <g clip-path="url(#p65efe9fda2)">
     <use xlink:href="#mbec86a99c0" x="145.328223" y="118.41912" style="fill: #ff0000; stroke: #ff0000"/>
    </g>
   </g>
   <g id="line2d_25">
    <g clip-path="url(#p65efe9fda2)">
     <use xlink:href="#mbec86a99c0" x="145.653202" y="104.393421" style="fill: #ff0000; stroke: #ff0000"/>
    </g>
   </g>
   <g id="line2d_26">
    <g clip-path="url(#p65efe9fda2)">
     <use xlink:href="#mbec86a99c0" x="145.978182" y="97.864215" style="fill: #ff0000; stroke: #ff0000"/>
    </g>
   </g>
   <g id="line2d_27">
    <g clip-path="url(#p65efe9fda2)">
     <use xlink:href="#mbec86a99c0" x="146.303161" y="95.666491" style="fill: #ff0000; stroke: #ff0000"/>
    </g>
   </g>
   <g id="line2d_28">
    <g clip-path="url(#p65efe9fda2)">
     <use xlink:href="#mbec86a99c0" x="146.628141" y="84.861977" style="fill: #ff0000; stroke: #ff0000"/>
    </g>
   </g>
   <g id="line2d_29">
    <g clip-path="url(#p65efe9fda2)">
     <use xlink:href="#mbec86a99c0" x="147.2781" y="82.690001" style="fill: #ff0000; stroke: #ff0000"/>
    </g>
   </g>
   <g id="line2d_30">
    <g clip-path="url(#p65efe9fda2)">
     <use xlink:href="#mbec86a99c0" x="147.928059" y="76.561763" style="fill: #ff0000; stroke: #ff0000"/>
    </g>
   </g>
   <g id="line2d_31">
    <g clip-path="url(#p65efe9fda2)">
     <use xlink:href="#mbec86a99c0" x="150.202916" y="67.322843" style="fill: #ff0000; stroke: #ff0000"/>
    </g>
   </g>
   <g id="line2d_32">
    <g clip-path="url(#p65efe9fda2)">
     <use xlink:href="#mbec86a99c0" x="152.152793" y="65.629823" style="fill: #ff0000; stroke: #ff0000"/>
    </g>
   </g>
   <g id="line2d_33">
    <g clip-path="url(#p65efe9fda2)">
     <use xlink:href="#mbec86a99c0" x="154.752629" y="61.032877" style="fill: #ff0000; stroke: #ff0000"/>
    </g>
   </g>
   <g id="line2d_34">
    <g clip-path="url(#p65efe9fda2)">
     <use xlink:href="#mbec86a99c0" x="165.476953" y="60.560894" style="fill: #ff0000; stroke: #ff0000"/>
    </g>
   </g>
   <g id="line2d_35">
    <g clip-path="url(#p65efe9fda2)">
     <use xlink:href="#mbec86a99c0" x="178.151155" y="59.932782" style="fill: #ff0000; stroke: #ff0000"/>
    </g>
   </g>
   <g id="line2d_36">
    <g clip-path="url(#p65efe9fda2)">
     <use xlink:href="#mbec86a99c0" x="178.476134" y="59.660757" style="fill: #ff0000; stroke: #ff0000"/>
    </g>
   </g>
   <g id="line2d_37">
    <g clip-path="url(#p65efe9fda2)">
     <use xlink:href="#mbec86a99c0" x="179.451073" y="58.448566" style="fill: #ff0000; stroke: #ff0000"/>
    </g>
   </g>
   <g id="line2d_38">
    <g clip-path="url(#p65efe9fda2)">
     <use xlink:href="#mbec86a99c0" x="184.650745" y="58.022571" style="fill: #ff0000; stroke: #ff0000"/>
    </g>
   </g>
   <g id="line2d_39">
    <g clip-path="url(#p65efe9fda2)">
     <use xlink:href="#mbec86a99c0" x="184.975725" y="56.580004" style="fill: #ff0000; stroke: #ff0000"/>
    </g>
   </g>
   <g id="line2d_40">
    <g clip-path="url(#p65efe9fda2)">
     <use xlink:href="#mbec86a99c0" x="219.423554" y="56.327734" style="fill: #ff0000; stroke: #ff0000"/>
    </g>
   </g>
   <g id="line2d_41">
    <g clip-path="url(#p65efe9fda2)">
     <use xlink:href="#mbec86a99c0" x="232.747715" y="55.979518" style="fill: #ff0000; stroke: #ff0000"/>
    </g>
   </g>
   <g id="line2d_42">
    <g clip-path="url(#p65efe9fda2)">
     <use xlink:href="#mbec86a99c0" x="233.397674" y="54.675528" style="fill: #ff0000; stroke: #ff0000"/>
    </g>
   </g>
   <g id="line2d_43">
    <g clip-path="url(#p65efe9fda2)">
     <use xlink:href="#mbec86a99c0" x="233.722654" y="54.496802" style="fill: #ff0000; stroke: #ff0000"/>
    </g>
   </g>
   <g id="line2d_44">
    <g clip-path="url(#p65efe9fda2)">
     <use xlink:href="#mbec86a99c0" x="238.272367" y="54.43689" style="fill: #ff0000; stroke: #ff0000"/>
    </g>
   </g>
   <g id="line2d_45">
    <g clip-path="url(#p65efe9fda2)">
     <use xlink:href="#mbec86a99c0" x="246.721835" y="54.269651" style="fill: #ff0000; stroke: #ff0000"/>
    </g>
   </g>
   <g id="line2d_46">
    <g clip-path="url(#p65efe9fda2)">
     <use xlink:href="#mbec86a99c0" x="247.046814" y="54.148086" style="fill: #ff0000; stroke: #ff0000"/>
    </g>
   </g>
   <g id="line2d_47">
    <g clip-path="url(#p65efe9fda2)">
     <use xlink:href="#mbec86a99c0" x="373.788829" y="53.679091" style="fill: #ff0000; stroke: #ff0000"/>
    </g>
   </g>
   <g id="line2d_48">
    <g clip-path="url(#p65efe9fda2)">
     <use xlink:href="#mbec86a99c0" x="374.113808" y="53.568" style="fill: #ff0000; stroke: #ff0000"/>
    </g>
   </g>
   <g id="patch_3">
    <path d="M 57.6 307.584 
L 57.6 41.472 
" style="fill: none; stroke: #000000; stroke-width: 0.8; stroke-linejoin: miter; stroke-linecap: square"/>
   </g>
   <g id="patch_4">
    <path d="M 414.72 307.584 
L 414.72 41.472 
" style="fill: none; stroke: #000000; stroke-width: 0.8; stroke-linejoin: miter; stroke-linecap: square"/>
   </g>
   <g id="patch_5">
    <path d="M 57.6 307.584 
L 414.72 307.584 
" style="fill: none; stroke: #000000; stroke-width: 0.8; stroke-linejoin: miter; stroke-linecap: square"/>
   </g>
   <g id="patch_6">
    <path d="M 57.6 41.472 
L 414.72 41.472 
" style="fill: none; stroke: #000000; stroke-width: 0.8; stroke-linejoin: miter; stroke-linecap: square"/>
   </g>
  </g>
 </g>
 <defs>
  <clipPath id="p65efe9fda2">
   <rect x="57.6" y="41.472" width="357.12" height="266.112"/>
  </clipPath>
 </defs>
</svg>
