<?xml version="1.0" encoding="utf-8" standalone="no"?>
<!DOCTYPE svg PUBLIC "-//W3C//DTD SVG 1.1//EN"
  "http://www.w3.org/Graphics/SVG/1.1/DTD/svg11.dtd">
<svg xmlns:xlink="http://www.w3.org/1999/xlink" width="1080pt" height="360pt" viewBox="0 0 1080 360" xmlns="http://www.w3.org/2000/svg" version="1.1">
 <metadata>
  <rdf:RDF xmlns:dc="http://purl.org/dc/elements/1.1/" xmlns:cc="http://creativecommons.org/ns#" xmlns:rdf="http://www.w3.org/1999/02/22-rdf-syntax-ns#">
   <cc:Work>
    <dc:type rdf:resource="http://purl.org/dc/dcmitype/StillImage"/>
    <dc:date>2025-06-09T14:06:40.413409</dc:date>
    <dc:format>image/svg+xml</dc:format>
    <dc:creator>
     <cc:Agent>
      <dc:title>Matplotlib v3.9.2, https://matplotlib.org/</dc:title>
     </cc:Agent>
    </dc:creator>
   </cc:Work>
  </rdf:RDF>
 </metadata>
 <defs>
  <style type="text/css">*{stroke-linejoin: round; stroke-linecap: butt}</style>
 </defs>
 <g id="figure_1">
  <g id="patch_1">
   <path d="M 0 360 
L 1080 360 
L 1080 0 
L 0 0 
z
" style="fill: #ffffff"/>
  </g>
  <g id="axes_1">
   <g id="patch_2">
    <path d="M 91.8 315 
L 945 315 
L 945 12.6 
L 91.8 12.6 
z
" style="fill: #ffffff"/>
   </g>
   <g id="patch_3">
    <path d="M 91.8 315 
L 305.1 315 
L 305.1 12.6 
L 91.8 12.6 
z
" clip-path="url(#p57f4ca2df6)" style="fill: #add8e6; opacity: 0.2; stroke: #add8e6; stroke-linejoin: miter"/>
   </g>
   <g id="patch_4">
    <path d="M 305.1 315 
L 731.7 315 
L 731.7 12.6 
L 305.1 12.6 
z
" clip-path="url(#p57f4ca2df6)" style="fill: #90ee90; opacity: 0.2; stroke: #90ee90; stroke-linejoin: miter"/>
   </g>
   <g id="patch_5">
    <path d="M 731.7 315 
L 945 315 
L 945 12.6 
L 731.7 12.6 
z
" clip-path="url(#p57f4ca2df6)" style="fill: #fa8072; opacity: 0.2; stroke: #fa8072; stroke-linejoin: miter"/>
   </g>
   <g id="matplotlib.axis_1">
    <g id="xtick_1">
     <g id="line2d_1">
      <path d="M 91.8 315 
L 91.8 12.6 
" clip-path="url(#p57f4ca2df6)" style="fill: none; stroke-dasharray: 1.85,0.8; stroke-dashoffset: 0; stroke: #b0b0b0; stroke-opacity: 0.5; stroke-width: 0.5"/>
     </g>
     <g id="line2d_2">
      <defs>
       <path id="mfe03310b70" d="M 0 0 
L 0 3.5 
" style="stroke: #000000; stroke-width: 0.8"/>
      </defs>
      <g>
       <use xlink:href="#mfe03310b70" x="91.8" y="315" style="stroke: #000000; stroke-width: 0.8"/>
      </g>
     </g>
     <g id="text_1">
      <!-- 0 -->
      <g transform="translate(87.3 334.49875) scale(0.18 -0.18)">
       <defs>
        <path id="TimesNewRomanPSMT-30" d="M 231 2094 
Q 231 2819 450 3342 
Q 669 3866 1031 4122 
Q 1313 4325 1613 4325 
Q 2100 4325 2488 3828 
Q 2972 3213 2972 2159 
Q 2972 1422 2759 906 
Q 2547 391 2217 158 
Q 1888 -75 1581 -75 
Q 975 -75 572 641 
Q 231 1244 231 2094 
z
M 844 2016 
Q 844 1141 1059 588 
Q 1238 122 1591 122 
Q 1759 122 1940 273 
Q 2122 425 2216 781 
Q 2359 1319 2359 2297 
Q 2359 3022 2209 3506 
Q 2097 3866 1919 4016 
Q 1791 4119 1609 4119 
Q 1397 4119 1231 3928 
Q 1006 3669 925 3112 
Q 844 2556 844 2016 
z
" transform="scale(0.015625)"/>
       </defs>
       <use xlink:href="#TimesNewRomanPSMT-30"/>
      </g>
     </g>
    </g>
    <g id="xtick_2">
     <g id="line2d_3">
      <path d="M 234 315 
L 234 12.6 
" clip-path="url(#p57f4ca2df6)" style="fill: none; stroke-dasharray: 1.85,0.8; stroke-dashoffset: 0; stroke: #b0b0b0; stroke-opacity: 0.5; stroke-width: 0.5"/>
     </g>
     <g id="line2d_4">
      <g>
       <use xlink:href="#mfe03310b70" x="234" y="315" style="stroke: #000000; stroke-width: 0.8"/>
      </g>
     </g>
     <g id="text_2">
      <!-- 100 -->
      <g transform="translate(220.5 334.49875) scale(0.18 -0.18)">
       <defs>
        <path id="TimesNewRomanPSMT-31" d="M 750 3822 
L 1781 4325 
L 1884 4325 
L 1884 747 
Q 1884 391 1914 303 
Q 1944 216 2037 169 
Q 2131 122 2419 116 
L 2419 0 
L 825 0 
L 825 116 
Q 1125 122 1212 167 
Q 1300 213 1334 289 
Q 1369 366 1369 747 
L 1369 3034 
Q 1369 3497 1338 3628 
Q 1316 3728 1258 3775 
Q 1200 3822 1119 3822 
Q 1003 3822 797 3725 
L 750 3822 
z
" transform="scale(0.015625)"/>
       </defs>
       <use xlink:href="#TimesNewRomanPSMT-31"/>
       <use xlink:href="#TimesNewRomanPSMT-30" x="50"/>
       <use xlink:href="#TimesNewRomanPSMT-30" x="100"/>
      </g>
     </g>
    </g>
    <g id="xtick_3">
     <g id="line2d_5">
      <path d="M 376.2 315 
L 376.2 12.6 
" clip-path="url(#p57f4ca2df6)" style="fill: none; stroke-dasharray: 1.85,0.8; stroke-dashoffset: 0; stroke: #b0b0b0; stroke-opacity: 0.5; stroke-width: 0.5"/>
     </g>
     <g id="line2d_6">
      <g>
       <use xlink:href="#mfe03310b70" x="376.2" y="315" style="stroke: #000000; stroke-width: 0.8"/>
      </g>
     </g>
     <g id="text_3">
      <!-- 200 -->
      <g transform="translate(362.7 334.49875) scale(0.18 -0.18)">
       <defs>
        <path id="TimesNewRomanPSMT-32" d="M 2934 816 
L 2638 0 
L 138 0 
L 138 116 
Q 1241 1122 1691 1759 
Q 2141 2397 2141 2925 
Q 2141 3328 1894 3587 
Q 1647 3847 1303 3847 
Q 991 3847 742 3664 
Q 494 3481 375 3128 
L 259 3128 
Q 338 3706 661 4015 
Q 984 4325 1469 4325 
Q 1984 4325 2329 3994 
Q 2675 3663 2675 3213 
Q 2675 2891 2525 2569 
Q 2294 2063 1775 1497 
Q 997 647 803 472 
L 1909 472 
Q 2247 472 2383 497 
Q 2519 522 2628 598 
Q 2738 675 2819 816 
L 2934 816 
z
" transform="scale(0.015625)"/>
       </defs>
       <use xlink:href="#TimesNewRomanPSMT-32"/>
       <use xlink:href="#TimesNewRomanPSMT-30" x="50"/>
       <use xlink:href="#TimesNewRomanPSMT-30" x="100"/>
      </g>
     </g>
    </g>
    <g id="xtick_4">
     <g id="line2d_7">
      <path d="M 518.4 315 
L 518.4 12.6 
" clip-path="url(#p57f4ca2df6)" style="fill: none; stroke-dasharray: 1.85,0.8; stroke-dashoffset: 0; stroke: #b0b0b0; stroke-opacity: 0.5; stroke-width: 0.5"/>
     </g>
     <g id="line2d_8">
      <g>
       <use xlink:href="#mfe03310b70" x="518.4" y="315" style="stroke: #000000; stroke-width: 0.8"/>
      </g>
     </g>
     <g id="text_4">
      <!-- 300 -->
      <g transform="translate(504.9 334.49875) scale(0.18 -0.18)">
       <defs>
        <path id="TimesNewRomanPSMT-33" d="M 325 3431 
Q 506 3859 782 4092 
Q 1059 4325 1472 4325 
Q 1981 4325 2253 3994 
Q 2459 3747 2459 3466 
Q 2459 3003 1878 2509 
Q 2269 2356 2469 2072 
Q 2669 1788 2669 1403 
Q 2669 853 2319 450 
Q 1863 -75 997 -75 
Q 569 -75 414 31 
Q 259 138 259 259 
Q 259 350 332 419 
Q 406 488 509 488 
Q 588 488 669 463 
Q 722 447 909 348 
Q 1097 250 1169 231 
Q 1284 197 1416 197 
Q 1734 197 1970 444 
Q 2206 691 2206 1028 
Q 2206 1275 2097 1509 
Q 2016 1684 1919 1775 
Q 1784 1900 1550 2001 
Q 1316 2103 1072 2103 
L 972 2103 
L 972 2197 
Q 1219 2228 1467 2375 
Q 1716 2522 1828 2728 
Q 1941 2934 1941 3181 
Q 1941 3503 1739 3701 
Q 1538 3900 1238 3900 
Q 753 3900 428 3381 
L 325 3431 
z
" transform="scale(0.015625)"/>
       </defs>
       <use xlink:href="#TimesNewRomanPSMT-33"/>
       <use xlink:href="#TimesNewRomanPSMT-30" x="50"/>
       <use xlink:href="#TimesNewRomanPSMT-30" x="100"/>
      </g>
     </g>
    </g>
    <g id="xtick_5">
     <g id="line2d_9">
      <path d="M 660.6 315 
L 660.6 12.6 
" clip-path="url(#p57f4ca2df6)" style="fill: none; stroke-dasharray: 1.85,0.8; stroke-dashoffset: 0; stroke: #b0b0b0; stroke-opacity: 0.5; stroke-width: 0.5"/>
     </g>
     <g id="line2d_10">
      <g>
       <use xlink:href="#mfe03310b70" x="660.6" y="315" style="stroke: #000000; stroke-width: 0.8"/>
      </g>
     </g>
     <g id="text_5">
      <!-- 400 -->
      <g transform="translate(647.1 334.49875) scale(0.18 -0.18)">
       <defs>
        <path id="TimesNewRomanPSMT-34" d="M 2978 1563 
L 2978 1119 
L 2409 1119 
L 2409 0 
L 1894 0 
L 1894 1119 
L 100 1119 
L 100 1519 
L 2066 4325 
L 2409 4325 
L 2409 1563 
L 2978 1563 
z
M 1894 1563 
L 1894 3666 
L 406 1563 
L 1894 1563 
z
" transform="scale(0.015625)"/>
       </defs>
       <use xlink:href="#TimesNewRomanPSMT-34"/>
       <use xlink:href="#TimesNewRomanPSMT-30" x="50"/>
       <use xlink:href="#TimesNewRomanPSMT-30" x="100"/>
      </g>
     </g>
    </g>
    <g id="xtick_6">
     <g id="line2d_11">
      <path d="M 802.8 315 
L 802.8 12.6 
" clip-path="url(#p57f4ca2df6)" style="fill: none; stroke-dasharray: 1.85,0.8; stroke-dashoffset: 0; stroke: #b0b0b0; stroke-opacity: 0.5; stroke-width: 0.5"/>
     </g>
     <g id="line2d_12">
      <g>
       <use xlink:href="#mfe03310b70" x="802.8" y="315" style="stroke: #000000; stroke-width: 0.8"/>
      </g>
     </g>
     <g id="text_6">
      <!-- 500 -->
      <g transform="translate(789.3 334.49875) scale(0.18 -0.18)">
       <defs>
        <path id="TimesNewRomanPSMT-35" d="M 2778 4238 
L 2534 3706 
L 1259 3706 
L 981 3138 
Q 1809 3016 2294 2522 
Q 2709 2097 2709 1522 
Q 2709 1188 2573 903 
Q 2438 619 2231 419 
Q 2025 219 1772 97 
Q 1413 -75 1034 -75 
Q 653 -75 479 54 
Q 306 184 306 341 
Q 306 428 378 495 
Q 450 563 559 563 
Q 641 563 702 538 
Q 763 513 909 409 
Q 1144 247 1384 247 
Q 1750 247 2026 523 
Q 2303 800 2303 1197 
Q 2303 1581 2056 1914 
Q 1809 2247 1375 2428 
Q 1034 2569 447 2591 
L 1259 4238 
L 2778 4238 
z
" transform="scale(0.015625)"/>
       </defs>
       <use xlink:href="#TimesNewRomanPSMT-35"/>
       <use xlink:href="#TimesNewRomanPSMT-30" x="50"/>
       <use xlink:href="#TimesNewRomanPSMT-30" x="100"/>
      </g>
     </g>
    </g>
    <g id="xtick_7">
     <g id="line2d_13">
      <path d="M 945 315 
L 945 12.6 
" clip-path="url(#p57f4ca2df6)" style="fill: none; stroke-dasharray: 1.85,0.8; stroke-dashoffset: 0; stroke: #b0b0b0; stroke-opacity: 0.5; stroke-width: 0.5"/>
     </g>
     <g id="line2d_14">
      <g>
       <use xlink:href="#mfe03310b70" x="945" y="315" style="stroke: #000000; stroke-width: 0.8"/>
      </g>
     </g>
     <g id="text_7">
      <!-- 600 -->
      <g transform="translate(931.5 334.49875) scale(0.18 -0.18)">
       <defs>
        <path id="TimesNewRomanPSMT-36" d="M 2869 4325 
L 2869 4209 
Q 2456 4169 2195 4045 
Q 1934 3922 1679 3669 
Q 1425 3416 1258 3105 
Q 1091 2794 978 2366 
Q 1428 2675 1881 2675 
Q 2316 2675 2634 2325 
Q 2953 1975 2953 1425 
Q 2953 894 2631 456 
Q 2244 -75 1606 -75 
Q 1172 -75 869 213 
Q 275 772 275 1663 
Q 275 2231 503 2743 
Q 731 3256 1154 3653 
Q 1578 4050 1965 4187 
Q 2353 4325 2688 4325 
L 2869 4325 
z
M 925 2138 
Q 869 1716 869 1456 
Q 869 1156 980 804 
Q 1091 453 1309 247 
Q 1469 100 1697 100 
Q 1969 100 2183 356 
Q 2397 613 2397 1088 
Q 2397 1622 2184 2012 
Q 1972 2403 1581 2403 
Q 1463 2403 1327 2353 
Q 1191 2303 925 2138 
z
" transform="scale(0.015625)"/>
       </defs>
       <use xlink:href="#TimesNewRomanPSMT-36"/>
       <use xlink:href="#TimesNewRomanPSMT-30" x="50"/>
       <use xlink:href="#TimesNewRomanPSMT-30" x="100"/>
      </g>
     </g>
    </g>
    <g id="text_8">
     <!-- Time/s -->
     <g transform="translate(493.718906 354.847812) scale(0.18 -0.18)">
      <defs>
       <path id="TimesNewRomanPSMT-54" d="M 3703 4238 
L 3750 3244 
L 3631 3244 
Q 3597 3506 3538 3619 
Q 3441 3800 3280 3886 
Q 3119 3972 2856 3972 
L 2259 3972 
L 2259 734 
Q 2259 344 2344 247 
Q 2463 116 2709 116 
L 2856 116 
L 2856 0 
L 1059 0 
L 1059 116 
L 1209 116 
Q 1478 116 1591 278 
Q 1659 378 1659 734 
L 1659 3972 
L 1150 3972 
Q 853 3972 728 3928 
Q 566 3869 450 3700 
Q 334 3531 313 3244 
L 194 3244 
L 244 4238 
L 3703 4238 
z
" transform="scale(0.015625)"/>
       <path id="TimesNewRomanPSMT-69" d="M 928 4444 
Q 1059 4444 1151 4351 
Q 1244 4259 1244 4128 
Q 1244 3997 1151 3903 
Q 1059 3809 928 3809 
Q 797 3809 703 3903 
Q 609 3997 609 4128 
Q 609 4259 701 4351 
Q 794 4444 928 4444 
z
M 1188 2947 
L 1188 647 
Q 1188 378 1227 289 
Q 1266 200 1342 156 
Q 1419 113 1622 113 
L 1622 0 
L 231 0 
L 231 113 
Q 441 113 512 153 
Q 584 194 626 287 
Q 669 381 669 647 
L 669 1750 
Q 669 2216 641 2353 
Q 619 2453 572 2492 
Q 525 2531 444 2531 
Q 356 2531 231 2484 
L 188 2597 
L 1050 2947 
L 1188 2947 
z
" transform="scale(0.015625)"/>
       <path id="TimesNewRomanPSMT-6d" d="M 1050 2338 
Q 1363 2650 1419 2697 
Q 1559 2816 1721 2881 
Q 1884 2947 2044 2947 
Q 2313 2947 2506 2790 
Q 2700 2634 2766 2338 
Q 3088 2713 3309 2830 
Q 3531 2947 3766 2947 
Q 3994 2947 4170 2830 
Q 4347 2713 4450 2447 
Q 4519 2266 4519 1878 
L 4519 647 
Q 4519 378 4559 278 
Q 4591 209 4675 161 
Q 4759 113 4950 113 
L 4950 0 
L 3538 0 
L 3538 113 
L 3597 113 
Q 3781 113 3884 184 
Q 3956 234 3988 344 
Q 4000 397 4000 647 
L 4000 1878 
Q 4000 2228 3916 2372 
Q 3794 2572 3525 2572 
Q 3359 2572 3192 2489 
Q 3025 2406 2788 2181 
L 2781 2147 
L 2788 2013 
L 2788 647 
Q 2788 353 2820 281 
Q 2853 209 2943 161 
Q 3034 113 3253 113 
L 3253 0 
L 1806 0 
L 1806 113 
Q 2044 113 2133 169 
Q 2222 225 2256 338 
Q 2272 391 2272 647 
L 2272 1878 
Q 2272 2228 2169 2381 
Q 2031 2581 1784 2581 
Q 1616 2581 1450 2491 
Q 1191 2353 1050 2181 
L 1050 647 
Q 1050 366 1089 281 
Q 1128 197 1204 155 
Q 1281 113 1516 113 
L 1516 0 
L 100 0 
L 100 113 
Q 297 113 375 155 
Q 453 197 493 289 
Q 534 381 534 647 
L 534 1741 
Q 534 2213 506 2350 
Q 484 2453 437 2492 
Q 391 2531 309 2531 
Q 222 2531 100 2484 
L 53 2597 
L 916 2947 
L 1050 2947 
L 1050 2338 
z
" transform="scale(0.015625)"/>
       <path id="TimesNewRomanPSMT-65" d="M 681 1784 
Q 678 1147 991 784 
Q 1303 422 1725 422 
Q 2006 422 2214 576 
Q 2422 731 2563 1106 
L 2659 1044 
Q 2594 616 2278 264 
Q 1963 -88 1488 -88 
Q 972 -88 605 314 
Q 238 716 238 1394 
Q 238 2128 614 2539 
Q 991 2950 1559 2950 
Q 2041 2950 2350 2633 
Q 2659 2316 2659 1784 
L 681 1784 
z
M 681 1966 
L 2006 1966 
Q 1991 2241 1941 2353 
Q 1863 2528 1708 2628 
Q 1553 2728 1384 2728 
Q 1125 2728 920 2526 
Q 716 2325 681 1966 
z
" transform="scale(0.015625)"/>
       <path id="TimesNewRomanPSMT-2f" d="M 1794 4444 
L 259 -88 
L 9 -88 
L 1544 4444 
L 1794 4444 
z
" transform="scale(0.015625)"/>
       <path id="TimesNewRomanPSMT-73" d="M 2050 2947 
L 2050 1972 
L 1947 1972 
Q 1828 2431 1642 2597 
Q 1456 2763 1169 2763 
Q 950 2763 815 2647 
Q 681 2531 681 2391 
Q 681 2216 781 2091 
Q 878 1963 1175 1819 
L 1631 1597 
Q 2266 1288 2266 781 
Q 2266 391 1970 151 
Q 1675 -88 1309 -88 
Q 1047 -88 709 6 
Q 606 38 541 38 
Q 469 38 428 -44 
L 325 -44 
L 325 978 
L 428 978 
Q 516 541 762 319 
Q 1009 97 1316 97 
Q 1531 97 1667 223 
Q 1803 350 1803 528 
Q 1803 744 1651 891 
Q 1500 1038 1047 1263 
Q 594 1488 453 1669 
Q 313 1847 313 2119 
Q 313 2472 555 2709 
Q 797 2947 1181 2947 
Q 1350 2947 1591 2875 
Q 1750 2828 1803 2828 
Q 1853 2828 1881 2850 
Q 1909 2872 1947 2947 
L 2050 2947 
z
" transform="scale(0.015625)"/>
      </defs>
      <use xlink:href="#TimesNewRomanPSMT-54"/>
      <use xlink:href="#TimesNewRomanPSMT-69" x="57.583984"/>
      <use xlink:href="#TimesNewRomanPSMT-6d" x="85.367188"/>
      <use xlink:href="#TimesNewRomanPSMT-65" x="163.150391"/>
      <use xlink:href="#TimesNewRomanPSMT-2f" x="207.535156"/>
      <use xlink:href="#TimesNewRomanPSMT-73" x="235.318359"/>
     </g>
    </g>
   </g>
   <g id="matplotlib.axis_2">
    <g id="ytick_1">
     <g id="line2d_15">
      <path d="M 91.8 254.965952 
L 945 254.965952 
" clip-path="url(#p57f4ca2df6)" style="fill: none; stroke-dasharray: 1.85,0.8; stroke-dashoffset: 0; stroke: #b0b0b0; stroke-opacity: 0.5; stroke-width: 0.5"/>
     </g>
     <g id="line2d_16">
      <defs>
       <path id="m6fac8f5d91" d="M 0 0 
L -3.5 0 
" style="stroke: #000000; stroke-width: 0.8"/>
      </defs>
      <g>
       <use xlink:href="#m6fac8f5d91" x="91.8" y="254.965952" style="stroke: #000000; stroke-width: 0.8"/>
      </g>
     </g>
     <g id="text_9">
      <!-- 0 -->
      <g transform="translate(75.8 261.215327) scale(0.18 -0.18)">
       <use xlink:href="#TimesNewRomanPSMT-30"/>
      </g>
     </g>
    </g>
    <g id="ytick_2">
     <g id="line2d_17">
      <path d="M 91.8 187.226546 
L 945 187.226546 
" clip-path="url(#p57f4ca2df6)" style="fill: none; stroke-dasharray: 1.85,0.8; stroke-dashoffset: 0; stroke: #b0b0b0; stroke-opacity: 0.5; stroke-width: 0.5"/>
     </g>
     <g id="line2d_18">
      <g>
       <use xlink:href="#m6fac8f5d91" x="91.8" y="187.226546" style="stroke: #000000; stroke-width: 0.8"/>
      </g>
     </g>
     <g id="text_10">
      <!-- 2000 -->
      <g transform="translate(48.8 193.475921) scale(0.18 -0.18)">
       <use xlink:href="#TimesNewRomanPSMT-32"/>
       <use xlink:href="#TimesNewRomanPSMT-30" x="50"/>
       <use xlink:href="#TimesNewRomanPSMT-30" x="100"/>
       <use xlink:href="#TimesNewRomanPSMT-30" x="150"/>
      </g>
     </g>
    </g>
    <g id="ytick_3">
     <g id="line2d_19">
      <path d="M 91.8 119.487139 
L 945 119.487139 
" clip-path="url(#p57f4ca2df6)" style="fill: none; stroke-dasharray: 1.85,0.8; stroke-dashoffset: 0; stroke: #b0b0b0; stroke-opacity: 0.5; stroke-width: 0.5"/>
     </g>
     <g id="line2d_20">
      <g>
       <use xlink:href="#m6fac8f5d91" x="91.8" y="119.487139" style="stroke: #000000; stroke-width: 0.8"/>
      </g>
     </g>
     <g id="text_11">
      <!-- 4000 -->
      <g transform="translate(48.8 125.736514) scale(0.18 -0.18)">
       <use xlink:href="#TimesNewRomanPSMT-34"/>
       <use xlink:href="#TimesNewRomanPSMT-30" x="50"/>
       <use xlink:href="#TimesNewRomanPSMT-30" x="100"/>
       <use xlink:href="#TimesNewRomanPSMT-30" x="150"/>
      </g>
     </g>
    </g>
    <g id="ytick_4">
     <g id="line2d_21">
      <path d="M 91.8 51.747732 
L 945 51.747732 
" clip-path="url(#p57f4ca2df6)" style="fill: none; stroke-dasharray: 1.85,0.8; stroke-dashoffset: 0; stroke: #b0b0b0; stroke-opacity: 0.5; stroke-width: 0.5"/>
     </g>
     <g id="line2d_22">
      <g>
       <use xlink:href="#m6fac8f5d91" x="91.8" y="51.747732" style="stroke: #000000; stroke-width: 0.8"/>
      </g>
     </g>
     <g id="text_12">
      <!-- 6000 -->
      <g transform="translate(48.8 57.997107) scale(0.18 -0.18)">
       <use xlink:href="#TimesNewRomanPSMT-36"/>
       <use xlink:href="#TimesNewRomanPSMT-30" x="50"/>
       <use xlink:href="#TimesNewRomanPSMT-30" x="100"/>
       <use xlink:href="#TimesNewRomanPSMT-30" x="150"/>
      </g>
     </g>
    </g>
    <g id="text_13">
     <!-- Power/W -->
     <g transform="translate(40.949688 197.791875) rotate(-90) scale(0.18 -0.18)">
      <defs>
       <path id="TimesNewRomanPSMT-50" d="M 1313 1984 
L 1313 750 
Q 1313 350 1400 253 
Q 1519 116 1759 116 
L 1922 116 
L 1922 0 
L 106 0 
L 106 116 
L 266 116 
Q 534 116 650 291 
Q 713 388 713 750 
L 713 3488 
Q 713 3888 628 3984 
Q 506 4122 266 4122 
L 106 4122 
L 106 4238 
L 1659 4238 
Q 2228 4238 2556 4120 
Q 2884 4003 3109 3725 
Q 3334 3447 3334 3066 
Q 3334 2547 2992 2222 
Q 2650 1897 2025 1897 
Q 1872 1897 1694 1919 
Q 1516 1941 1313 1984 
z
M 1313 2163 
Q 1478 2131 1606 2115 
Q 1734 2100 1825 2100 
Q 2150 2100 2386 2351 
Q 2622 2603 2622 3003 
Q 2622 3278 2509 3514 
Q 2397 3750 2190 3867 
Q 1984 3984 1722 3984 
Q 1563 3984 1313 3925 
L 1313 2163 
z
" transform="scale(0.015625)"/>
       <path id="TimesNewRomanPSMT-6f" d="M 1600 2947 
Q 2250 2947 2644 2453 
Q 2978 2031 2978 1484 
Q 2978 1100 2793 706 
Q 2609 313 2286 112 
Q 1963 -88 1566 -88 
Q 919 -88 538 428 
Q 216 863 216 1403 
Q 216 1797 411 2186 
Q 606 2575 925 2761 
Q 1244 2947 1600 2947 
z
M 1503 2744 
Q 1338 2744 1170 2645 
Q 1003 2547 900 2300 
Q 797 2053 797 1666 
Q 797 1041 1045 587 
Q 1294 134 1700 134 
Q 2003 134 2200 384 
Q 2397 634 2397 1244 
Q 2397 2006 2069 2444 
Q 1847 2744 1503 2744 
z
" transform="scale(0.015625)"/>
       <path id="TimesNewRomanPSMT-77" d="M 41 2863 
L 1241 2863 
L 1241 2747 
Q 1075 2734 1023 2687 
Q 972 2641 972 2553 
Q 972 2456 1025 2319 
L 1638 672 
L 2253 2013 
L 2091 2434 
Q 2016 2622 1894 2694 
Q 1825 2738 1638 2747 
L 1638 2863 
L 3000 2863 
L 3000 2747 
Q 2775 2738 2681 2666 
Q 2619 2616 2619 2506 
Q 2619 2444 2644 2378 
L 3294 734 
L 3897 2319 
Q 3959 2488 3959 2588 
Q 3959 2647 3898 2694 
Q 3838 2741 3659 2747 
L 3659 2863 
L 4563 2863 
L 4563 2747 
Q 4291 2706 4163 2378 
L 3206 -88 
L 3078 -88 
L 2363 1741 
L 1528 -88 
L 1413 -88 
L 494 2319 
Q 403 2547 315 2626 
Q 228 2706 41 2747 
L 41 2863 
z
" transform="scale(0.015625)"/>
       <path id="TimesNewRomanPSMT-72" d="M 1038 2947 
L 1038 2303 
Q 1397 2947 1775 2947 
Q 1947 2947 2059 2842 
Q 2172 2738 2172 2600 
Q 2172 2478 2090 2393 
Q 2009 2309 1897 2309 
Q 1788 2309 1652 2417 
Q 1516 2525 1450 2525 
Q 1394 2525 1328 2463 
Q 1188 2334 1038 2041 
L 1038 669 
Q 1038 431 1097 309 
Q 1138 225 1241 169 
Q 1344 113 1538 113 
L 1538 0 
L 72 0 
L 72 113 
Q 291 113 397 181 
Q 475 231 506 341 
Q 522 394 522 644 
L 522 1753 
Q 522 2253 501 2348 
Q 481 2444 426 2487 
Q 372 2531 291 2531 
Q 194 2531 72 2484 
L 41 2597 
L 906 2947 
L 1038 2947 
z
" transform="scale(0.015625)"/>
       <path id="TimesNewRomanPSMT-57" d="M 5991 4238 
L 5991 4122 
Q 5825 4122 5722 4062 
Q 5619 4003 5525 3841 
Q 5463 3731 5328 3319 
L 4147 -97 
L 4022 -97 
L 3056 2613 
L 2097 -97 
L 1984 -97 
L 725 3422 
Q 584 3816 547 3888 
Q 484 4006 376 4064 
Q 269 4122 84 4122 
L 84 4238 
L 1653 4238 
L 1653 4122 
L 1578 4122 
Q 1413 4122 1325 4047 
Q 1238 3972 1238 3866 
Q 1238 3756 1375 3363 
L 2209 984 
L 2913 3006 
L 2788 3363 
L 2688 3647 
Q 2622 3803 2541 3922 
Q 2500 3981 2441 4022 
Q 2363 4078 2284 4103 
Q 2225 4122 2097 4122 
L 2097 4238 
L 3747 4238 
L 3747 4122 
L 3634 4122 
Q 3459 4122 3378 4047 
Q 3297 3972 3297 3844 
Q 3297 3684 3438 3288 
L 4250 984 
L 5056 3319 
Q 5194 3706 5194 3856 
Q 5194 3928 5148 3990 
Q 5103 4053 5034 4078 
Q 4916 4122 4725 4122 
L 4725 4238 
L 5991 4238 
z
" transform="scale(0.015625)"/>
      </defs>
      <use xlink:href="#TimesNewRomanPSMT-50"/>
      <use xlink:href="#TimesNewRomanPSMT-6f" x="55.615234"/>
      <use xlink:href="#TimesNewRomanPSMT-77" x="105.615234"/>
      <use xlink:href="#TimesNewRomanPSMT-65" x="177.832031"/>
      <use xlink:href="#TimesNewRomanPSMT-72" x="222.216797"/>
      <use xlink:href="#TimesNewRomanPSMT-2f" x="255.517578"/>
      <use xlink:href="#TimesNewRomanPSMT-57" x="283.300781"/>
     </g>
    </g>
   </g>
   <g id="line2d_23">
    <path d="M 91.8 238.031101 
L 232.578 34.81288 
L 305.1 34.81288 
L 346.338 119.148442 
L 347.76 119.487139 
L 731.7 119.487139 
L 758.718 68.682584 
L 802.8 68.682584 
L 942.156 236.320509 
L 942.156 236.320509 
" clip-path="url(#p57f4ca2df6)" style="fill: none; stroke: #f09639; stroke-width: 1.5; stroke-linecap: square"/>
   </g>
   <g id="line2d_24">
    <path d="M 91.8 254.965952 
L 93.222 246.498526 
L 94.644 253.272467 
L 96.066 254.965952 
L 100.332 254.965952 
L 101.754 246.498526 
L 103.176 253.272467 
L 107.442 232.950645 
L 108.864 239.724586 
L 117.396 178.75912 
L 121.662 153.356842 
L 123.084 146.582901 
L 127.35 166.904723 
L 128.772 168.598209 
L 130.194 165.211238 
L 131.616 171.985179 
L 133.038 163.517753 
L 134.46 170.291694 
L 135.882 171.985179 
L 137.304 168.598209 
L 138.726 175.372149 
L 140.148 166.904723 
L 142.992 170.291694 
L 144.414 161.824268 
L 145.836 168.598209 
L 147.258 161.824268 
L 148.68 163.517753 
L 150.102 156.743812 
L 151.524 158.437298 
L 152.946 151.663357 
L 155.79 155.050327 
L 157.212 161.824268 
L 162.9 134.728505 
L 164.322 141.502446 
L 165.744 134.728505 
L 167.166 136.42199 
L 168.588 129.64805 
L 170.01 131.341535 
L 171.432 124.567594 
L 172.854 131.341535 
L 174.276 124.567594 
L 175.698 126.261079 
L 177.12 119.487139 
L 178.542 121.180624 
L 179.964 114.406683 
L 181.386 116.100168 
L 182.808 109.326228 
L 184.23 111.019713 
L 185.652 111.019713 
L 187.074 104.245772 
L 188.496 105.939257 
L 189.918 99.165317 
L 191.34 105.939257 
L 192.762 99.165317 
L 194.184 100.858802 
L 195.606 94.084861 
L 197.028 95.778346 
L 198.45 89.004406 
L 199.872 90.697891 
L 201.294 83.92395 
L 202.716 85.617435 
L 204.138 78.843495 
L 206.982 82.230465 
L 208.404 77.15001 
L 209.826 70.376069 
L 211.248 72.069554 
L 212.67 63.602128 
L 214.092 70.376069 
L 215.514 63.602128 
L 218.358 66.989099 
L 219.78 60.215158 
L 221.202 55.134702 
L 224.046 58.521673 
L 225.468 51.747732 
L 226.89 53.441217 
L 228.312 58.521673 
L 229.734 51.747732 
L 231.156 56.828188 
L 232.578 50.054247 
L 235.422 63.602128 
L 238.266 50.054247 
L 239.688 51.747732 
L 241.11 44.973791 
L 242.532 46.667277 
L 243.954 39.893336 
L 246.798 43.280306 
L 248.22 36.506366 
L 251.064 39.893336 
L 252.486 33.119395 
L 253.908 34.81288 
L 255.33 33.119395 
L 258.174 36.506366 
L 259.596 39.893336 
L 261.018 33.119395 
L 262.44 34.81288 
L 263.862 28.03894 
L 265.284 34.81288 
L 266.706 26.345455 
L 268.128 33.119395 
L 270.972 36.506366 
L 272.394 29.732425 
L 273.816 36.506366 
L 275.238 29.732425 
L 280.926 36.506366 
L 282.348 29.732425 
L 283.77 31.42591 
L 285.192 38.199851 
L 286.614 31.42591 
L 289.458 34.81288 
L 290.88 28.03894 
L 292.302 34.81288 
L 293.724 28.03894 
L 295.146 34.81288 
L 296.568 36.506366 
L 297.99 43.280306 
L 300.834 29.732425 
L 305.1 34.81288 
L 307.944 48.360762 
L 309.366 56.828188 
L 312.21 70.376069 
L 313.632 73.763039 
L 315.054 66.989099 
L 316.476 73.763039 
L 319.32 60.215158 
L 320.742 66.989099 
L 325.008 72.069554 
L 326.43 65.295613 
L 327.852 72.069554 
L 329.274 73.763039 
L 330.696 80.53698 
L 337.806 89.004406 
L 339.228 95.778346 
L 344.916 102.552287 
L 346.338 109.326228 
L 347.76 99.165317 
L 350.604 85.617435 
L 352.026 77.15001 
L 354.87 90.697891 
L 356.292 95.778346 
L 357.714 97.471832 
L 359.136 104.245772 
L 369.09 116.100168 
L 370.512 109.326228 
L 371.934 116.100168 
L 374.778 119.487139 
L 376.2 112.713198 
L 377.622 119.487139 
L 379.044 112.713198 
L 380.466 116.100168 
L 383.31 119.487139 
L 384.732 109.326228 
L 387.576 122.874109 
L 388.998 116.100168 
L 390.42 122.874109 
L 391.842 116.100168 
L 393.264 122.874109 
L 394.686 116.100168 
L 396.108 122.874109 
L 397.53 116.100168 
L 398.952 122.874109 
L 400.374 116.100168 
L 401.796 122.874109 
L 403.218 121.180624 
L 404.64 122.874109 
L 406.062 116.100168 
L 407.484 122.874109 
L 408.906 116.100168 
L 410.328 122.874109 
L 411.75 116.100168 
L 413.172 122.874109 
L 414.594 116.100168 
L 416.016 122.874109 
L 417.438 116.100168 
L 420.282 129.64805 
L 423.126 116.100168 
L 427.392 121.180624 
L 428.814 114.406683 
L 430.236 124.567594 
L 431.658 117.793654 
L 433.08 117.793654 
L 435.924 121.180624 
L 437.346 114.406683 
L 438.768 121.180624 
L 440.19 114.406683 
L 441.612 111.019713 
L 443.034 117.793654 
L 444.456 122.874109 
L 445.878 116.100168 
L 447.3 122.874109 
L 448.722 116.100168 
L 450.144 122.874109 
L 451.566 116.100168 
L 452.988 119.487139 
L 455.832 122.874109 
L 457.254 116.100168 
L 458.676 122.874109 
L 460.098 116.100168 
L 461.52 122.874109 
L 462.942 116.100168 
L 464.364 122.874109 
L 465.786 131.341535 
L 468.63 117.793654 
L 471.474 121.180624 
L 472.896 114.406683 
L 474.318 121.180624 
L 475.74 114.406683 
L 477.162 121.180624 
L 478.584 114.406683 
L 480.006 121.180624 
L 481.428 122.874109 
L 482.85 116.100168 
L 484.272 122.874109 
L 485.694 116.100168 
L 487.116 122.874109 
L 488.538 116.100168 
L 489.96 122.874109 
L 491.382 116.100168 
L 492.804 122.874109 
L 494.226 116.100168 
L 495.648 122.874109 
L 497.07 116.100168 
L 498.492 126.261079 
L 499.914 119.487139 
L 501.336 121.180624 
L 502.758 114.406683 
L 504.18 121.180624 
L 505.602 114.406683 
L 507.024 121.180624 
L 508.446 131.341535 
L 511.29 117.793654 
L 512.712 119.487139 
L 514.134 112.713198 
L 515.556 119.487139 
L 516.978 121.180624 
L 518.4 114.406683 
L 519.822 121.180624 
L 521.244 114.406683 
L 522.666 121.180624 
L 524.088 114.406683 
L 525.51 121.180624 
L 526.932 114.406683 
L 528.354 121.180624 
L 529.776 122.874109 
L 531.198 116.100168 
L 532.62 122.874109 
L 534.042 116.100168 
L 535.464 122.874109 
L 536.886 116.100168 
L 538.308 122.874109 
L 539.73 116.100168 
L 541.152 122.874109 
L 542.574 116.100168 
L 543.996 122.874109 
L 545.418 121.180624 
L 546.84 114.406683 
L 548.262 121.180624 
L 549.684 122.874109 
L 551.106 116.100168 
L 552.528 122.874109 
L 553.95 116.100168 
L 555.372 122.874109 
L 556.794 116.100168 
L 558.216 122.874109 
L 559.638 116.100168 
L 561.06 122.874109 
L 562.482 116.100168 
L 563.904 111.019713 
L 566.748 124.567594 
L 568.17 117.793654 
L 572.436 122.874109 
L 573.858 116.100168 
L 575.28 122.874109 
L 576.702 116.100168 
L 578.124 122.874109 
L 579.546 116.100168 
L 580.968 122.874109 
L 582.39 116.100168 
L 583.812 122.874109 
L 585.234 116.100168 
L 586.656 122.874109 
L 588.078 116.100168 
L 589.5 122.874109 
L 590.922 116.100168 
L 592.344 122.874109 
L 593.766 116.100168 
L 595.188 122.874109 
L 596.61 116.100168 
L 598.032 122.874109 
L 599.454 116.100168 
L 600.876 122.874109 
L 602.298 116.100168 
L 603.72 122.874109 
L 605.142 116.100168 
L 606.564 122.874109 
L 607.986 116.100168 
L 609.408 122.874109 
L 610.83 116.100168 
L 612.252 107.632743 
L 613.674 104.245772 
L 617.94 124.567594 
L 619.362 124.567594 
L 620.784 122.874109 
L 623.628 126.261079 
L 625.05 133.03502 
L 627.894 119.487139 
L 629.316 121.180624 
L 630.738 114.406683 
L 632.16 104.245772 
L 635.004 117.793654 
L 636.426 111.019713 
L 637.848 111.019713 
L 640.692 124.567594 
L 643.536 127.954565 
L 644.958 121.180624 
L 646.38 122.874109 
L 647.802 121.180624 
L 650.646 124.567594 
L 652.068 117.793654 
L 653.49 124.567594 
L 654.912 117.793654 
L 659.178 122.874109 
L 660.6 116.100168 
L 662.022 122.874109 
L 663.444 116.100168 
L 664.866 122.874109 
L 666.288 116.100168 
L 667.71 122.874109 
L 669.132 116.100168 
L 670.554 122.874109 
L 671.976 116.100168 
L 673.398 114.406683 
L 674.82 121.180624 
L 676.242 116.100168 
L 677.664 122.874109 
L 679.086 116.100168 
L 680.508 122.874109 
L 683.352 109.326228 
L 686.196 122.874109 
L 687.618 124.567594 
L 689.04 124.567594 
L 690.462 117.793654 
L 691.884 124.567594 
L 693.306 117.793654 
L 694.728 124.567594 
L 696.15 117.793654 
L 700.416 122.874109 
L 701.838 116.100168 
L 703.26 105.939257 
L 707.526 126.261079 
L 708.948 119.487139 
L 711.792 122.874109 
L 713.214 126.261079 
L 714.636 119.487139 
L 717.48 122.874109 
L 718.902 116.100168 
L 720.324 122.874109 
L 721.746 116.100168 
L 723.168 122.874109 
L 724.59 116.100168 
L 726.012 122.874109 
L 727.434 116.100168 
L 728.856 122.874109 
L 730.278 116.100168 
L 731.7 122.874109 
L 733.122 112.713198 
L 738.81 85.617435 
L 744.498 92.391376 
L 745.92 97.471832 
L 747.342 90.697891 
L 748.764 90.697891 
L 750.186 83.92395 
L 751.608 90.697891 
L 753.03 83.92395 
L 754.452 85.617435 
L 755.874 78.843495 
L 758.718 82.230465 
L 762.984 102.552287 
L 764.406 104.245772 
L 765.828 97.471832 
L 767.25 99.165317 
L 770.094 85.617435 
L 771.516 87.310921 
L 772.938 80.53698 
L 774.36 82.230465 
L 775.782 75.456524 
L 777.204 82.230465 
L 778.626 85.617435 
L 781.47 72.069554 
L 784.314 75.456524 
L 785.736 68.682584 
L 787.158 75.456524 
L 788.58 68.682584 
L 791.424 72.069554 
L 792.846 82.230465 
L 795.69 68.682584 
L 798.534 72.069554 
L 799.956 65.295613 
L 801.378 72.069554 
L 802.8 73.763039 
L 804.222 66.989099 
L 809.91 94.084861 
L 811.332 95.778346 
L 812.754 89.004406 
L 817.02 94.084861 
L 818.442 102.552287 
L 821.286 89.004406 
L 829.818 99.165317 
L 831.24 92.391376 
L 832.662 100.858802 
L 834.084 102.552287 
L 835.506 109.326228 
L 836.928 102.552287 
L 838.35 104.245772 
L 839.772 97.471832 
L 842.616 111.019713 
L 844.038 112.713198 
L 845.46 119.487139 
L 846.882 112.713198 
L 848.304 119.487139 
L 851.148 122.874109 
L 852.57 121.180624 
L 853.992 129.64805 
L 855.414 122.874109 
L 856.836 129.64805 
L 879.588 156.743812 
L 881.01 149.969872 
L 882.432 156.743812 
L 883.854 153.356842 
L 886.698 166.904723 
L 888.12 170.291694 
L 889.542 161.824268 
L 892.386 175.372149 
L 893.808 166.904723 
L 896.652 180.452605 
L 898.074 188.920031 
L 900.918 171.985179 
L 902.34 180.452605 
L 903.762 171.985179 
L 910.872 197.387457 
L 912.294 188.920031 
L 916.56 204.161397 
L 917.982 195.693971 
L 922.248 210.935338 
L 925.092 224.483219 
L 926.514 217.709279 
L 929.358 231.25716 
L 930.78 234.64413 
L 932.202 227.87019 
L 937.89 254.965952 
L 942.156 254.965952 
L 942.156 254.965952 
" clip-path="url(#p57f4ca2df6)" style="fill: none; stroke: #c84343; stroke-width: 1.5; stroke-linecap: square"/>
   </g>
   <g id="line2d_25">
    <path d="M 91.8 254.965952 
L 93.222 254.965952 
L 94.644 244.445816 
L 96.066 235.619168 
L 97.488 231.872973 
L 101.754 225.714845 
L 103.176 232.129561 
L 104.598 223.30291 
L 108.864 237.466607 
L 110.286 228.639956 
L 118.818 277.289167 
L 123.084 296.533315 
L 124.506 301.254545 
L 128.772 274.774598 
L 130.194 271.028403 
L 131.616 272.362667 
L 133.038 263.536013 
L 134.46 269.950733 
L 135.882 261.124078 
L 137.304 257.377887 
L 138.726 258.712143 
L 140.148 249.885497 
L 141.57 256.300217 
L 144.414 248.807827 
L 145.836 255.222538 
L 147.258 246.395892 
L 148.68 251.117119 
L 150.102 247.370928 
L 151.524 252.092162 
L 152.946 248.345963 
L 154.368 253.067198 
L 157.212 245.574808 
L 158.634 236.748153 
L 164.322 255.633085 
L 165.744 246.80643 
L 167.166 251.527665 
L 168.588 247.781474 
L 170.01 252.5027 
L 171.432 248.756509 
L 172.854 253.477736 
L 174.276 244.65109 
L 175.698 249.372316 
L 177.12 245.626125 
L 178.542 250.347352 
L 179.964 246.601161 
L 181.386 251.322396 
L 182.808 247.576205 
L 184.23 252.297423 
L 185.652 248.551232 
L 187.074 246.498526 
L 188.496 251.219761 
L 189.918 247.47357 
L 191.34 252.194789 
L 192.762 243.368142 
L 194.184 248.089377 
L 195.606 244.343186 
L 197.028 249.064421 
L 198.45 245.318214 
L 199.872 250.039448 
L 201.294 246.293257 
L 202.716 251.014492 
L 204.138 247.268285 
L 205.56 251.98952 
L 208.404 244.497138 
L 209.826 247.524888 
L 211.248 252.246106 
L 212.67 248.499915 
L 214.092 254.914635 
L 215.514 246.087989 
L 216.936 250.809223 
L 219.78 243.316825 
L 221.202 248.03806 
L 222.624 251.06581 
L 225.468 243.573411 
L 226.89 248.294646 
L 228.312 244.548455 
L 229.734 237.415294 
L 231.156 242.136512 
L 232.578 235.003351 
L 234 239.724586 
L 236.844 226.176704 
L 239.688 239.724586 
L 241.11 238.031101 
L 242.532 244.805041 
L 243.954 243.111556 
L 245.376 249.885497 
L 248.22 246.498526 
L 249.642 253.272467 
L 252.486 249.885497 
L 253.908 256.659437 
L 255.33 254.965952 
L 256.752 256.659437 
L 259.596 253.272467 
L 261.018 249.885497 
L 262.44 256.659437 
L 263.862 254.965952 
L 265.284 261.739893 
L 266.706 254.965952 
L 268.128 263.433378 
L 269.55 256.659437 
L 272.394 253.272467 
L 273.816 260.046408 
L 275.238 253.272467 
L 276.66 260.046408 
L 282.348 253.272467 
L 283.77 260.046408 
L 285.192 258.352923 
L 286.614 251.578982 
L 288.036 258.352923 
L 290.88 254.965952 
L 292.302 261.739893 
L 293.724 254.965952 
L 295.146 261.739893 
L 296.568 254.965952 
L 297.99 253.272467 
L 299.412 246.498526 
L 302.256 260.046408 
L 306.522 254.965952 
L 309.366 247.234316 
L 310.788 241.675021 
L 313.632 233.943385 
L 315.054 233.464528 
L 316.476 243.1466 
L 317.898 239.280774 
L 320.742 258.6449 
L 322.164 254.77909 
L 326.43 258.422994 
L 327.852 268.105065 
L 329.274 264.239239 
L 330.696 265.453884 
L 332.118 261.588058 
L 339.228 267.661253 
L 340.65 263.795427 
L 346.338 268.653984 
L 347.76 264.788166 
L 349.182 275.287774 
L 352.026 288.835656 
L 353.448 297.303081 
L 356.292 283.7552 
L 357.714 278.674745 
L 359.136 276.981259 
L 360.558 270.207319 
L 370.512 258.352923 
L 371.934 265.126863 
L 373.356 258.352923 
L 376.2 254.965952 
L 377.622 261.739893 
L 379.044 254.965952 
L 380.466 261.739893 
L 381.888 258.352923 
L 384.732 254.965952 
L 386.154 265.126863 
L 388.998 251.578982 
L 390.42 258.352923 
L 391.842 251.578982 
L 393.264 258.352923 
L 394.686 251.578982 
L 396.108 258.352923 
L 397.53 251.578982 
L 398.952 258.352923 
L 400.374 251.578982 
L 401.796 258.352923 
L 403.218 251.578982 
L 404.64 253.272467 
L 406.062 251.578982 
L 407.484 258.352923 
L 408.906 251.578982 
L 410.328 258.352923 
L 411.75 251.578982 
L 413.172 258.352923 
L 414.594 251.578982 
L 416.016 258.352923 
L 417.438 251.578982 
L 418.86 258.352923 
L 421.704 244.805041 
L 424.548 258.352923 
L 428.814 253.272467 
L 430.236 260.046408 
L 431.658 249.885497 
L 433.08 256.659437 
L 434.502 256.659437 
L 437.346 253.272467 
L 438.768 260.046408 
L 440.19 253.272467 
L 441.612 260.046408 
L 443.034 263.433378 
L 444.456 256.659437 
L 445.878 251.578982 
L 447.3 258.352923 
L 448.722 251.578982 
L 450.144 258.352923 
L 451.566 251.578982 
L 452.988 258.352923 
L 454.41 254.965952 
L 457.254 251.578982 
L 458.676 258.352923 
L 460.098 251.578982 
L 461.52 258.352923 
L 462.942 251.578982 
L 464.364 258.352923 
L 465.786 251.578982 
L 467.208 243.111556 
L 470.052 256.659437 
L 472.896 253.272467 
L 474.318 260.046408 
L 475.74 253.272467 
L 477.162 260.046408 
L 478.584 253.272467 
L 480.006 260.046408 
L 481.428 253.272467 
L 482.85 251.578982 
L 484.272 258.352923 
L 485.694 251.578982 
L 487.116 258.352923 
L 488.538 251.578982 
L 489.96 258.352923 
L 491.382 251.578982 
L 492.804 258.352923 
L 494.226 251.578982 
L 495.648 258.352923 
L 497.07 251.578982 
L 498.492 258.352923 
L 499.914 248.192012 
L 501.336 254.965952 
L 502.758 253.272467 
L 504.18 260.046408 
L 505.602 253.272467 
L 507.024 260.046408 
L 508.446 253.272467 
L 509.868 243.111556 
L 512.712 256.659437 
L 514.134 254.965952 
L 515.556 261.739893 
L 516.978 254.965952 
L 518.4 253.272467 
L 519.822 260.046408 
L 521.244 253.272467 
L 522.666 260.046408 
L 524.088 253.272467 
L 525.51 260.046408 
L 526.932 253.272467 
L 528.354 260.046408 
L 529.776 253.272467 
L 531.198 251.578982 
L 532.62 258.352923 
L 534.042 251.578982 
L 535.464 258.352923 
L 536.886 251.578982 
L 538.308 258.352923 
L 539.73 251.578982 
L 541.152 258.352923 
L 542.574 251.578982 
L 543.996 258.352923 
L 545.418 251.578982 
L 546.84 253.272467 
L 548.262 260.046408 
L 549.684 253.272467 
L 551.106 251.578982 
L 552.528 258.352923 
L 553.95 251.578982 
L 555.372 258.352923 
L 556.794 251.578982 
L 558.216 258.352923 
L 559.638 251.578982 
L 561.06 258.352923 
L 562.482 251.578982 
L 563.904 258.352923 
L 565.326 263.433378 
L 568.17 249.885497 
L 569.592 256.659437 
L 573.858 251.578982 
L 575.28 258.352923 
L 576.702 251.578982 
L 578.124 258.352923 
L 579.546 251.578982 
L 580.968 258.352923 
L 582.39 251.578982 
L 583.812 258.352923 
L 585.234 251.578982 
L 586.656 258.352923 
L 588.078 251.578982 
L 589.5 258.352923 
L 590.922 251.578982 
L 592.344 258.352923 
L 593.766 251.578982 
L 595.188 258.352923 
L 596.61 251.578982 
L 598.032 258.352923 
L 599.454 251.578982 
L 600.876 258.352923 
L 602.298 251.578982 
L 603.72 258.352923 
L 605.142 251.578982 
L 606.564 258.352923 
L 607.986 251.578982 
L 609.408 258.352923 
L 610.83 251.578982 
L 612.252 258.352923 
L 613.674 266.820348 
L 615.096 270.207319 
L 619.362 249.885497 
L 620.784 249.885497 
L 622.206 251.578982 
L 625.05 248.192012 
L 626.472 241.418071 
L 629.316 254.965952 
L 630.738 253.272467 
L 632.16 260.046408 
L 633.582 270.207319 
L 636.426 256.659437 
L 637.848 263.433378 
L 639.27 263.433378 
L 642.114 249.885497 
L 644.958 246.498526 
L 646.38 253.272467 
L 647.802 251.578982 
L 649.224 253.272467 
L 652.068 249.885497 
L 653.49 256.659437 
L 654.912 249.885497 
L 656.334 256.659437 
L 660.6 251.578982 
L 662.022 258.352923 
L 663.444 251.578982 
L 664.866 258.352923 
L 666.288 251.578982 
L 667.71 258.352923 
L 669.132 251.578982 
L 670.554 258.352923 
L 671.976 251.578982 
L 673.398 258.352923 
L 674.82 260.046408 
L 676.242 253.272467 
L 677.664 258.352923 
L 679.086 251.578982 
L 680.508 258.352923 
L 681.93 251.578982 
L 684.774 265.126863 
L 687.618 251.578982 
L 689.04 249.885497 
L 690.462 249.885497 
L 691.884 256.659437 
L 693.306 249.885497 
L 694.728 256.659437 
L 696.15 249.885497 
L 697.572 256.659437 
L 701.838 251.578982 
L 703.26 258.352923 
L 704.682 268.513834 
L 708.948 248.192012 
L 710.37 254.965952 
L 713.214 251.578982 
L 714.636 248.192012 
L 716.058 254.965952 
L 718.902 251.578982 
L 720.324 258.352923 
L 721.746 251.578982 
L 723.168 258.352923 
L 724.59 251.578982 
L 726.012 258.352923 
L 727.434 251.578982 
L 728.856 258.352923 
L 730.278 251.578982 
L 731.7 258.352923 
L 733.122 251.578982 
L 734.544 259.065972 
L 740.232 275.466037 
L 745.92 257.996398 
L 747.342 250.242022 
L 748.764 254.342042 
L 750.186 251.668105 
L 751.608 255.768125 
L 753.03 246.320264 
L 754.452 250.420284 
L 755.874 246.052878 
L 757.296 250.152882 
L 760.14 241.418071 
L 764.406 221.096249 
L 765.828 219.402764 
L 767.25 226.176704 
L 768.672 224.483219 
L 771.516 238.031101 
L 772.938 236.337615 
L 774.36 243.111556 
L 775.782 241.418071 
L 777.204 248.192012 
L 778.626 241.418071 
L 780.048 238.031101 
L 782.892 251.578982 
L 785.736 248.192012 
L 787.158 254.965952 
L 788.58 248.192012 
L 790.002 254.965952 
L 792.846 251.578982 
L 794.268 241.418071 
L 797.112 254.965952 
L 799.956 251.578982 
L 801.378 258.352923 
L 802.8 251.578982 
L 804.222 249.885497 
L 805.644 258.370023 
L 811.332 238.116635 
L 812.754 238.133735 
L 814.176 246.618261 
L 818.442 246.669578 
L 819.864 239.912754 
L 822.708 256.881807 
L 831.24 256.984458 
L 832.662 265.468984 
L 834.084 258.712143 
L 835.506 258.72926 
L 836.928 253.665905 
L 838.35 262.150431 
L 839.772 262.167548 
L 841.194 270.652074 
L 844.038 260.525371 
L 845.46 260.54248 
L 846.882 255.479133 
L 848.304 263.963659 
L 849.726 258.900312 
L 852.57 258.934521 
L 853.992 262.338599 
L 855.414 255.581767 
L 856.836 264.066293 
L 858.258 259.002946 
L 881.01 259.276641 
L 882.432 267.761175 
L 883.854 262.69782 
L 885.276 267.795384 
L 888.12 257.66869 
L 889.542 255.992305 
L 890.964 266.170325 
L 893.808 256.043622 
L 895.23 266.221642 
L 898.074 256.09494 
L 899.496 249.338107 
L 902.34 269.694142 
L 903.762 262.937306 
L 905.184 273.115326 
L 912.294 256.266 
L 913.716 266.444019 
L 917.982 256.334426 
L 919.404 266.512441 
L 923.67 256.402847 
L 926.514 246.276149 
L 927.936 254.760683 
L 930.78 244.633983 
L 932.202 242.957602 
L 933.624 251.442135 
L 939.312 231.188736 
L 942.156 234.609919 
L 942.156 234.609919 
" clip-path="url(#p57f4ca2df6)" style="fill: none; stroke: #42985e; stroke-width: 1.5; stroke-linecap: square"/>
   </g>
   <g id="patch_6">
    <path d="M 91.8 315 
L 91.8 12.6 
" style="fill: none; stroke: #000000; stroke-width: 0.8; stroke-linejoin: miter; stroke-linecap: square"/>
   </g>
   <g id="patch_7">
    <path d="M 945 315 
L 945 12.6 
" style="fill: none; stroke: #000000; stroke-width: 0.8; stroke-linejoin: miter; stroke-linecap: square"/>
   </g>
   <g id="patch_8">
    <path d="M 91.8 315 
L 945 315 
" style="fill: none; stroke: #000000; stroke-width: 0.8; stroke-linejoin: miter; stroke-linecap: square"/>
   </g>
   <g id="patch_9">
    <path d="M 91.8 12.6 
L 945 12.6 
" style="fill: none; stroke: #000000; stroke-width: 0.8; stroke-linejoin: miter; stroke-linecap: square"/>
   </g>
  </g>
  <g id="axes_2">
   <g id="matplotlib.axis_3">
    <g id="ytick_5">
     <g id="line2d_26">
      <defs>
       <path id="m4e21552fca" d="M 0 0 
L 3.5 0 
" style="stroke: #000000; stroke-width: 0.8"/>
      </defs>
      <g>
       <use xlink:href="#m4e21552fca" x="945" y="279.793044" style="stroke: #000000; stroke-width: 0.8"/>
      </g>
     </g>
     <g id="text_14">
      <!-- 0.52 -->
      <g style="fill: #8a7ab5" transform="translate(952 286.042419) scale(0.18 -0.18)">
       <defs>
        <path id="TimesNewRomanPSMT-2e" d="M 800 606 
Q 947 606 1047 504 
Q 1147 403 1147 259 
Q 1147 116 1045 14 
Q 944 -88 800 -88 
Q 656 -88 554 14 
Q 453 116 453 259 
Q 453 406 554 506 
Q 656 606 800 606 
z
" transform="scale(0.015625)"/>
       </defs>
       <use xlink:href="#TimesNewRomanPSMT-30"/>
       <use xlink:href="#TimesNewRomanPSMT-2e" x="50"/>
       <use xlink:href="#TimesNewRomanPSMT-35" x="75"/>
       <use xlink:href="#TimesNewRomanPSMT-32" x="125"/>
      </g>
     </g>
    </g>
    <g id="ytick_6">
     <g id="line2d_27">
      <g>
       <use xlink:href="#m4e21552fca" x="945" y="220.130463" style="stroke: #000000; stroke-width: 0.8"/>
      </g>
     </g>
     <g id="text_15">
      <!-- 0.54 -->
      <g style="fill: #8a7ab5" transform="translate(952 226.379838) scale(0.18 -0.18)">
       <use xlink:href="#TimesNewRomanPSMT-30"/>
       <use xlink:href="#TimesNewRomanPSMT-2e" x="50"/>
       <use xlink:href="#TimesNewRomanPSMT-35" x="75"/>
       <use xlink:href="#TimesNewRomanPSMT-34" x="125"/>
      </g>
     </g>
    </g>
    <g id="ytick_7">
     <g id="line2d_28">
      <g>
       <use xlink:href="#m4e21552fca" x="945" y="160.467883" style="stroke: #000000; stroke-width: 0.8"/>
      </g>
     </g>
     <g id="text_16">
      <!-- 0.56 -->
      <g style="fill: #8a7ab5" transform="translate(952 166.717258) scale(0.18 -0.18)">
       <use xlink:href="#TimesNewRomanPSMT-30"/>
       <use xlink:href="#TimesNewRomanPSMT-2e" x="50"/>
       <use xlink:href="#TimesNewRomanPSMT-35" x="75"/>
       <use xlink:href="#TimesNewRomanPSMT-36" x="125"/>
      </g>
     </g>
    </g>
    <g id="ytick_8">
     <g id="line2d_29">
      <g>
       <use xlink:href="#m4e21552fca" x="945" y="100.805303" style="stroke: #000000; stroke-width: 0.8"/>
      </g>
     </g>
     <g id="text_17">
      <!-- 0.58 -->
      <g style="fill: #8a7ab5" transform="translate(952 107.054678) scale(0.18 -0.18)">
       <defs>
        <path id="TimesNewRomanPSMT-38" d="M 1228 2134 
Q 725 2547 579 2797 
Q 434 3047 434 3316 
Q 434 3728 753 4026 
Q 1072 4325 1600 4325 
Q 2113 4325 2425 4047 
Q 2738 3769 2738 3413 
Q 2738 3175 2569 2928 
Q 2400 2681 1866 2347 
Q 2416 1922 2594 1678 
Q 2831 1359 2831 1006 
Q 2831 559 2490 242 
Q 2150 -75 1597 -75 
Q 994 -75 656 303 
Q 388 606 388 966 
Q 388 1247 577 1523 
Q 766 1800 1228 2134 
z
M 1719 2469 
Q 2094 2806 2194 3001 
Q 2294 3197 2294 3444 
Q 2294 3772 2109 3958 
Q 1925 4144 1606 4144 
Q 1288 4144 1088 3959 
Q 888 3775 888 3528 
Q 888 3366 970 3203 
Q 1053 3041 1206 2894 
L 1719 2469 
z
M 1375 2016 
Q 1116 1797 991 1539 
Q 866 1281 866 981 
Q 866 578 1086 336 
Q 1306 94 1647 94 
Q 1984 94 2187 284 
Q 2391 475 2391 747 
Q 2391 972 2272 1150 
Q 2050 1481 1375 2016 
z
" transform="scale(0.015625)"/>
       </defs>
       <use xlink:href="#TimesNewRomanPSMT-30"/>
       <use xlink:href="#TimesNewRomanPSMT-2e" x="50"/>
       <use xlink:href="#TimesNewRomanPSMT-35" x="75"/>
       <use xlink:href="#TimesNewRomanPSMT-38" x="125"/>
      </g>
     </g>
    </g>
    <g id="ytick_9">
     <g id="line2d_30">
      <g>
       <use xlink:href="#m4e21552fca" x="945" y="41.142722" style="stroke: #000000; stroke-width: 0.8"/>
      </g>
     </g>
     <g id="text_18">
      <!-- 0.60 -->
      <g style="fill: #8a7ab5" transform="translate(952 47.392097) scale(0.18 -0.18)">
       <use xlink:href="#TimesNewRomanPSMT-30"/>
       <use xlink:href="#TimesNewRomanPSMT-2e" x="50"/>
       <use xlink:href="#TimesNewRomanPSMT-36" x="75"/>
       <use xlink:href="#TimesNewRomanPSMT-30" x="125"/>
      </g>
     </g>
    </g>
    <g id="text_19">
     <!-- Battery SOC -->
     <g style="fill: #8a7ab5" transform="translate(999.965 210.04875) rotate(-90) scale(0.18 -0.18)">
      <defs>
       <path id="TimesNewRomanPSMT-42" d="M 2956 2163 
Q 3397 2069 3616 1863 
Q 3919 1575 3919 1159 
Q 3919 844 3719 555 
Q 3519 266 3170 133 
Q 2822 0 2106 0 
L 106 0 
L 106 116 
L 266 116 
Q 531 116 647 284 
Q 719 394 719 750 
L 719 3488 
Q 719 3881 628 3984 
Q 506 4122 266 4122 
L 106 4122 
L 106 4238 
L 1938 4238 
Q 2450 4238 2759 4163 
Q 3228 4050 3475 3764 
Q 3722 3478 3722 3106 
Q 3722 2788 3528 2536 
Q 3334 2284 2956 2163 
z
M 1319 2331 
Q 1434 2309 1582 2298 
Q 1731 2288 1909 2288 
Q 2366 2288 2595 2386 
Q 2825 2484 2947 2687 
Q 3069 2891 3069 3131 
Q 3069 3503 2766 3765 
Q 2463 4028 1881 4028 
Q 1569 4028 1319 3959 
L 1319 2331 
z
M 1319 306 
Q 1681 222 2034 222 
Q 2600 222 2897 476 
Q 3194 731 3194 1106 
Q 3194 1353 3059 1581 
Q 2925 1809 2622 1940 
Q 2319 2072 1872 2072 
Q 1678 2072 1540 2065 
Q 1403 2059 1319 2044 
L 1319 306 
z
" transform="scale(0.015625)"/>
       <path id="TimesNewRomanPSMT-61" d="M 1822 413 
Q 1381 72 1269 19 
Q 1100 -59 909 -59 
Q 613 -59 420 144 
Q 228 347 228 678 
Q 228 888 322 1041 
Q 450 1253 767 1440 
Q 1084 1628 1822 1897 
L 1822 2009 
Q 1822 2438 1686 2597 
Q 1550 2756 1291 2756 
Q 1094 2756 978 2650 
Q 859 2544 859 2406 
L 866 2225 
Q 866 2081 792 2003 
Q 719 1925 600 1925 
Q 484 1925 411 2006 
Q 338 2088 338 2228 
Q 338 2497 613 2722 
Q 888 2947 1384 2947 
Q 1766 2947 2009 2819 
Q 2194 2722 2281 2516 
Q 2338 2381 2338 1966 
L 2338 994 
Q 2338 584 2353 492 
Q 2369 400 2405 369 
Q 2441 338 2488 338 
Q 2538 338 2575 359 
Q 2641 400 2828 588 
L 2828 413 
Q 2478 -56 2159 -56 
Q 2006 -56 1915 50 
Q 1825 156 1822 413 
z
M 1822 616 
L 1822 1706 
Q 1350 1519 1213 1441 
Q 966 1303 859 1153 
Q 753 1003 753 825 
Q 753 600 887 451 
Q 1022 303 1197 303 
Q 1434 303 1822 616 
z
" transform="scale(0.015625)"/>
       <path id="TimesNewRomanPSMT-74" d="M 1031 3803 
L 1031 2863 
L 1700 2863 
L 1700 2644 
L 1031 2644 
L 1031 788 
Q 1031 509 1111 412 
Q 1191 316 1316 316 
Q 1419 316 1516 380 
Q 1613 444 1666 569 
L 1788 569 
Q 1678 263 1478 108 
Q 1278 -47 1066 -47 
Q 922 -47 784 33 
Q 647 113 581 261 
Q 516 409 516 719 
L 516 2644 
L 63 2644 
L 63 2747 
Q 234 2816 414 2980 
Q 594 3144 734 3369 
Q 806 3488 934 3803 
L 1031 3803 
z
" transform="scale(0.015625)"/>
       <path id="TimesNewRomanPSMT-79" d="M 38 2863 
L 1372 2863 
L 1372 2747 
L 1306 2747 
Q 1166 2747 1095 2686 
Q 1025 2625 1025 2534 
Q 1025 2413 1128 2197 
L 1825 753 
L 2466 2334 
Q 2519 2463 2519 2588 
Q 2519 2644 2497 2672 
Q 2472 2706 2419 2726 
Q 2366 2747 2231 2747 
L 2231 2863 
L 3163 2863 
L 3163 2747 
Q 3047 2734 2984 2696 
Q 2922 2659 2847 2556 
Q 2819 2513 2741 2316 
L 1575 -541 
Q 1406 -956 1132 -1168 
Q 859 -1381 606 -1381 
Q 422 -1381 303 -1275 
Q 184 -1169 184 -1031 
Q 184 -900 270 -820 
Q 356 -741 506 -741 
Q 609 -741 788 -809 
Q 913 -856 944 -856 
Q 1038 -856 1148 -759 
Q 1259 -663 1372 -384 
L 1575 113 
L 547 2272 
Q 500 2369 397 2513 
Q 319 2622 269 2659 
Q 197 2709 38 2747 
L 38 2863 
z
" transform="scale(0.015625)"/>
       <path id="TimesNewRomanPSMT-20" transform="scale(0.015625)"/>
       <path id="TimesNewRomanPSMT-53" d="M 2934 4334 
L 2934 2869 
L 2819 2869 
Q 2763 3291 2617 3541 
Q 2472 3791 2203 3937 
Q 1934 4084 1647 4084 
Q 1322 4084 1109 3886 
Q 897 3688 897 3434 
Q 897 3241 1031 3081 
Q 1225 2847 1953 2456 
Q 2547 2138 2764 1967 
Q 2981 1797 3098 1565 
Q 3216 1334 3216 1081 
Q 3216 600 2842 251 
Q 2469 -97 1881 -97 
Q 1697 -97 1534 -69 
Q 1438 -53 1133 45 
Q 828 144 747 144 
Q 669 144 623 97 
Q 578 50 556 -97 
L 441 -97 
L 441 1356 
L 556 1356 
Q 638 900 775 673 
Q 913 447 1195 297 
Q 1478 147 1816 147 
Q 2206 147 2432 353 
Q 2659 559 2659 841 
Q 2659 997 2573 1156 
Q 2488 1316 2306 1453 
Q 2184 1547 1640 1851 
Q 1097 2156 867 2337 
Q 638 2519 519 2737 
Q 400 2956 400 3219 
Q 400 3675 750 4004 
Q 1100 4334 1641 4334 
Q 1978 4334 2356 4169 
Q 2531 4091 2603 4091 
Q 2684 4091 2736 4139 
Q 2788 4188 2819 4334 
L 2934 4334 
z
" transform="scale(0.015625)"/>
       <path id="TimesNewRomanPSMT-4f" d="M 2341 4334 
Q 3166 4334 3770 3707 
Q 4375 3081 4375 2144 
Q 4375 1178 3765 540 
Q 3156 -97 2291 -97 
Q 1416 -97 820 525 
Q 225 1147 225 2134 
Q 225 3144 913 3781 
Q 1509 4334 2341 4334 
z
M 2281 4106 
Q 1713 4106 1369 3684 
Q 941 3159 941 2147 
Q 941 1109 1384 550 
Q 1725 125 2284 125 
Q 2881 125 3270 590 
Q 3659 1056 3659 2059 
Q 3659 3147 3231 3681 
Q 2888 4106 2281 4106 
z
" transform="scale(0.015625)"/>
       <path id="TimesNewRomanPSMT-43" d="M 3853 4334 
L 3950 2894 
L 3853 2894 
Q 3659 3541 3300 3825 
Q 2941 4109 2438 4109 
Q 2016 4109 1675 3895 
Q 1334 3681 1139 3212 
Q 944 2744 944 2047 
Q 944 1472 1128 1050 
Q 1313 628 1683 403 
Q 2053 178 2528 178 
Q 2941 178 3256 354 
Q 3572 531 3950 1056 
L 4047 994 
Q 3728 428 3303 165 
Q 2878 -97 2294 -97 
Q 1241 -97 663 684 
Q 231 1266 231 2053 
Q 231 2688 515 3219 
Q 800 3750 1298 4042 
Q 1797 4334 2388 4334 
Q 2847 4334 3294 4109 
Q 3425 4041 3481 4041 
Q 3566 4041 3628 4100 
Q 3709 4184 3744 4334 
L 3853 4334 
z
" transform="scale(0.015625)"/>
      </defs>
      <use xlink:href="#TimesNewRomanPSMT-42"/>
      <use xlink:href="#TimesNewRomanPSMT-61" x="66.699219"/>
      <use xlink:href="#TimesNewRomanPSMT-74" x="111.083984"/>
      <use xlink:href="#TimesNewRomanPSMT-74" x="138.867188"/>
      <use xlink:href="#TimesNewRomanPSMT-65" x="166.650391"/>
      <use xlink:href="#TimesNewRomanPSMT-72" x="211.035156"/>
      <use xlink:href="#TimesNewRomanPSMT-79" x="244.335938"/>
      <use xlink:href="#TimesNewRomanPSMT-20" x="294.335938"/>
      <use xlink:href="#TimesNewRomanPSMT-53" x="319.335938"/>
      <use xlink:href="#TimesNewRomanPSMT-4f" x="374.951172"/>
      <use xlink:href="#TimesNewRomanPSMT-43" x="447.167969"/>
     </g>
    </g>
   </g>
   <g id="line2d_31">
    <path d="M 91.8 41.142722 
L 93.222 45.321014 
L 94.644 53.004994 
L 96.066 62.176854 
L 97.488 72.16399 
L 100.332 94.584091 
L 101.754 103.654041 
L 103.176 116.22968 
L 104.598 126.930184 
L 106.02 135.75555 
L 107.442 142.705781 
L 108.864 153.161701 
L 110.286 160.397279 
L 111.708 164.412515 
L 113.13 165.20741 
L 114.552 162.781964 
L 115.974 157.136174 
L 117.396 148.270042 
L 118.818 136.856172 
L 120.24 122.894564 
L 121.662 106.385217 
L 123.084 88.000734 
L 124.506 73.12194 
L 125.928 61.748834 
L 127.35 53.881416 
L 128.772 47.501878 
L 130.194 40.592409 
L 131.616 37.18863 
L 133.038 31.237111 
L 134.46 28.791283 
L 135.882 27.833333 
L 137.304 26.345455 
L 138.726 28.363264 
L 140.148 27.833333 
L 141.57 28.791283 
L 142.992 31.237111 
L 144.414 31.135203 
L 145.836 34.538981 
L 147.258 36.067626 
L 148.68 39.084149 
L 150.102 40.225535 
L 151.524 42.854802 
L 152.946 43.608932 
L 154.368 45.850943 
L 155.79 49.580832 
L 157.212 56.816412 
L 158.634 62.176855 
L 160.056 65.66216 
L 161.478 67.272332 
L 162.9 67.007366 
L 164.322 70.248091 
L 165.744 71.613679 
L 167.166 74.467145 
L 168.588 75.445477 
L 170.01 77.911687 
L 171.432 78.502763 
L 172.854 82.599526 
L 174.276 84.821156 
L 175.698 88.530663 
L 177.12 90.365037 
L 178.542 93.687289 
L 179.964 95.134404 
L 181.386 98.069396 
L 182.808 99.129258 
L 184.23 101.676999 
L 185.652 105.040014 
L 187.074 106.527892 
L 188.496 109.503648 
L 189.918 110.604274 
L 191.34 115.210586 
L 192.762 117.941762 
L 194.184 122.160816 
L 195.606 124.504732 
L 197.028 128.336533 
L 198.45 130.293197 
L 199.872 133.737739 
L 201.294 135.307144 
L 202.716 138.364434 
L 204.138 139.546586 
L 205.56 142.216617 
L 206.982 146.374525 
L 208.404 149.3299 
L 209.826 150.410143 
L 211.248 152.978265 
L 212.67 152.998647 
L 214.092 156.524716 
L 215.514 158.175648 
L 216.936 161.314464 
L 218.358 165.941159 
L 219.78 168.692716 
L 221.202 170.241739 
L 222.624 173.278647 
L 224.046 177.803433 
L 225.468 180.453082 
L 226.89 184.590608 
L 228.312 191.561219 
L 229.734 196.6567 
L 231.156 204.585264 
L 232.578 210.638692 
L 234 219.382531 
L 235.422 230.816783 
L 236.844 239.560622 
L 238.266 245.61405 
L 239.688 252.34008 
L 241.11 256.375699 
L 242.532 261.08392 
L 243.954 263.101729 
L 245.376 265.792141 
L 246.798 269.155156 
L 248.22 269.827759 
L 249.642 271.172966 
L 251.064 273.190775 
L 252.486 272.518172 
L 253.908 272.518172 
L 255.33 271.845569 
L 256.752 271.845569 
L 258.174 272.518172 
L 259.596 274.535981 
L 261.018 273.863378 
L 262.44 273.863378 
L 263.862 271.172966 
L 265.284 271.172966 
L 266.706 267.80995 
L 268.128 267.137347 
L 269.55 267.137347 
L 270.972 267.80995 
L 272.394 265.792141 
L 273.816 266.464744 
L 275.238 264.446935 
L 276.66 263.101729 
L 278.082 262.429126 
L 279.504 262.429126 
L 280.926 263.101729 
L 282.348 261.08392 
L 283.77 259.738714 
L 285.192 261.08392 
L 286.614 259.738714 
L 288.036 259.066111 
L 289.458 259.066111 
L 290.88 256.375699 
L 292.302 256.375699 
L 293.724 253.685286 
L 295.146 253.685286 
L 296.568 254.357889 
L 297.99 257.720905 
L 299.412 258.393508 
L 300.834 256.375699 
L 302.256 255.030492 
L 303.678 254.357889 
L 305.1 254.357889 
L 306.522 255.893277 
L 307.944 258.964058 
L 309.366 264.242829 
L 310.788 271.056994 
L 313.632 287.946286 
L 315.054 292.640589 
L 316.476 298.870286 
L 317.898 301.254545 
L 319.32 299.793374 
L 320.742 299.867591 
L 322.164 299.459392 
L 323.586 298.568771 
L 325.008 297.195734 
L 326.43 291.977261 
L 327.852 288.294181 
L 329.274 284.128679 
L 330.696 281.498572 
L 332.118 278.386042 
L 333.54 274.791097 
L 334.962 270.71373 
L 336.384 266.153948 
L 337.806 261.111744 
L 339.228 257.604933 
L 340.65 253.615701 
L 342.072 249.144053 
L 343.494 244.189984 
L 344.916 238.753496 
L 346.338 234.852398 
L 347.76 226.781161 
L 349.182 216.019513 
L 350.604 202.567452 
L 352.026 185.752376 
L 353.448 171.627712 
L 354.87 160.19346 
L 357.714 142.033178 
L 359.136 135.979751 
L 360.558 130.598926 
L 361.98 125.890705 
L 363.402 121.855087 
L 364.824 118.492071 
L 366.246 115.801659 
L 367.668 113.78385 
L 369.09 112.438644 
L 370.512 108.403026 
L 371.934 107.05782 
L 373.356 106.385217 
L 374.778 106.385217 
L 376.2 103.694804 
L 377.622 103.694804 
L 379.044 101.004392 
L 380.466 99.659186 
L 381.888 98.986583 
L 383.31 98.986583 
L 384.732 94.950965 
L 386.154 93.605759 
L 387.576 94.950965 
L 388.998 93.605759 
L 390.42 94.950965 
L 391.842 93.605759 
L 393.264 94.950965 
L 394.686 93.605759 
L 396.108 94.950965 
L 397.53 93.605759 
L 398.952 94.950965 
L 400.374 93.605759 
L 401.796 94.950965 
L 403.218 95.623568 
L 404.64 96.968774 
L 406.062 95.623568 
L 407.484 96.968774 
L 408.906 95.623568 
L 410.328 96.968774 
L 411.75 95.623568 
L 413.172 96.968774 
L 414.594 95.623568 
L 416.016 96.968774 
L 417.438 95.623568 
L 418.86 96.968774 
L 420.282 101.004392 
L 421.704 102.349598 
L 423.126 101.004392 
L 424.548 100.331789 
L 425.97 100.331789 
L 427.392 101.004392 
L 428.814 98.986583 
L 430.236 101.004392 
L 433.08 99.659186 
L 434.502 99.659186 
L 435.924 100.331789 
L 437.346 98.31398 
L 438.768 98.986583 
L 440.19 96.968774 
L 441.612 93.605759 
L 443.034 92.933156 
L 444.456 94.278362 
L 445.878 92.933156 
L 447.3 94.278362 
L 448.722 92.933156 
L 450.144 94.278362 
L 451.566 92.933156 
L 452.988 92.933156 
L 454.41 93.605759 
L 455.832 94.950965 
L 457.254 93.605759 
L 458.676 94.950965 
L 460.098 93.605759 
L 461.52 94.950965 
L 462.942 93.605759 
L 464.364 94.950965 
L 465.786 99.659186 
L 467.208 101.676995 
L 468.63 101.004392 
L 470.052 101.004392 
L 471.474 101.676995 
L 472.896 99.659186 
L 474.318 100.331789 
L 475.74 98.31398 
L 477.162 98.986583 
L 478.584 96.968774 
L 480.006 97.641377 
L 481.428 98.986583 
L 482.85 97.641377 
L 484.272 98.986583 
L 485.694 97.641377 
L 487.116 98.986583 
L 488.538 97.641377 
L 489.96 98.986583 
L 491.382 97.641377 
L 492.804 98.986583 
L 494.226 97.641377 
L 495.648 98.986583 
L 497.07 97.641377 
L 498.492 100.331789 
L 499.914 100.331789 
L 501.336 101.004392 
L 502.758 98.986583 
L 504.18 99.659186 
L 505.602 97.641377 
L 507.024 98.31398 
L 508.446 103.022201 
L 509.868 105.040011 
L 511.29 104.367408 
L 512.712 104.367408 
L 514.134 101.676995 
L 515.556 101.676995 
L 516.978 102.349598 
L 518.4 100.331789 
L 519.822 101.004392 
L 521.244 98.986583 
L 522.666 99.659186 
L 524.088 97.641377 
L 525.51 98.31398 
L 526.932 96.296171 
L 528.354 96.968774 
L 529.776 98.31398 
L 531.198 96.968774 
L 532.62 98.31398 
L 534.042 96.968774 
L 535.464 98.31398 
L 536.886 96.968774 
L 538.308 98.31398 
L 539.73 96.968774 
L 541.152 98.31398 
L 542.574 96.968774 
L 543.996 98.31398 
L 545.418 98.986583 
L 546.84 96.968774 
L 548.262 97.641377 
L 549.684 98.986583 
L 551.106 97.641377 
L 552.528 98.986583 
L 553.95 97.641377 
L 555.372 98.986583 
L 556.794 97.641377 
L 558.216 98.986583 
L 559.638 97.641377 
L 561.06 98.986583 
L 562.482 97.641377 
L 563.904 94.278362 
L 565.326 93.605759 
L 566.748 95.623568 
L 568.17 94.950965 
L 569.592 94.950965 
L 571.014 95.623568 
L 572.436 96.968774 
L 573.858 95.623568 
L 575.28 96.968774 
L 576.702 95.623568 
L 578.124 96.968774 
L 579.546 95.623568 
L 580.968 96.968774 
L 582.39 95.623568 
L 583.812 96.968774 
L 585.234 95.623568 
L 586.656 96.968774 
L 588.078 95.623568 
L 589.5 96.968774 
L 590.922 95.623568 
L 592.344 96.968774 
L 593.766 95.623568 
L 595.188 96.968774 
L 596.61 95.623568 
L 598.032 96.968774 
L 599.454 95.623568 
L 600.876 96.968774 
L 602.298 95.623568 
L 603.72 96.968774 
L 605.142 95.623568 
L 606.564 96.968774 
L 607.986 95.623568 
L 609.408 96.968774 
L 610.83 95.623568 
L 612.252 90.915347 
L 613.674 84.861919 
L 615.096 81.498904 
L 616.518 80.826301 
L 619.362 84.861919 
L 620.784 86.207125 
L 622.206 88.224935 
L 623.628 90.915347 
L 625.05 96.296171 
L 626.472 98.986583 
L 627.894 98.986583 
L 629.316 99.659186 
L 630.738 97.641377 
L 632.16 91.58795 
L 633.582 88.224935 
L 635.004 87.552331 
L 637.848 80.826301 
L 639.27 80.153698 
L 640.692 82.171507 
L 642.114 84.861919 
L 643.536 88.224935 
L 644.958 88.897538 
L 646.38 90.242744 
L 647.802 90.915347 
L 649.224 92.260553 
L 650.646 94.278362 
L 652.068 93.605759 
L 653.49 95.623568 
L 654.912 94.950965 
L 656.334 94.950965 
L 657.756 95.623568 
L 659.178 96.968774 
L 660.6 95.623568 
L 662.022 96.968774 
L 663.444 95.623568 
L 664.866 96.968774 
L 666.288 95.623568 
L 667.71 96.968774 
L 669.132 95.623568 
L 670.554 96.968774 
L 671.976 95.623568 
L 673.398 93.605759 
L 674.82 94.278362 
L 676.242 92.933156 
L 677.664 94.278362 
L 679.086 92.933156 
L 680.508 94.278362 
L 681.93 92.933156 
L 683.352 88.897538 
L 684.774 87.552331 
L 686.196 88.897538 
L 689.04 92.933156 
L 690.462 92.260553 
L 691.884 94.278362 
L 693.306 93.605759 
L 694.728 95.623568 
L 696.15 94.950965 
L 697.572 94.950965 
L 698.994 95.623568 
L 700.416 96.968774 
L 701.838 95.623568 
L 703.26 90.242744 
L 704.682 87.552331 
L 706.104 87.552331 
L 707.526 90.242744 
L 708.948 90.242744 
L 710.37 90.915347 
L 711.792 92.260553 
L 713.214 94.950965 
L 714.636 94.950965 
L 716.058 95.623568 
L 717.48 96.968774 
L 718.902 95.623568 
L 720.324 96.968774 
L 721.746 95.623568 
L 723.168 96.968774 
L 724.59 95.623568 
L 726.012 96.968774 
L 727.434 95.623568 
L 728.856 96.968774 
L 730.278 95.623568 
L 731.7 96.968774 
L 733.122 95.340365 
L 734.544 92.083548 
L 735.966 87.198328 
L 737.388 80.6847 
L 738.81 72.542663 
L 740.232 66.135232 
L 741.654 61.462408 
L 743.076 58.524196 
L 744.498 57.320592 
L 745.92 59.196799 
L 747.342 59.444598 
L 748.764 60.754407 
L 750.186 60.435808 
L 751.608 63.869624 
L 753.03 65.675031 
L 754.452 69.215044 
L 755.874 71.126656 
L 757.296 74.772874 
L 758.718 80.153698 
L 760.14 88.224935 
L 761.562 98.986583 
L 764.406 126.563308 
L 767.25 150.104414 
L 768.672 159.520857 
L 770.094 166.246888 
L 771.516 173.645521 
L 772.938 178.353742 
L 774.36 183.734567 
L 775.782 186.424979 
L 777.204 191.805803 
L 778.626 198.531834 
L 780.048 202.567452 
L 781.47 203.912658 
L 782.892 205.930467 
L 784.314 208.620879 
L 785.736 208.620879 
L 787.158 211.311291 
L 788.58 211.311291 
L 790.002 211.983894 
L 791.424 213.329101 
L 792.846 218.709925 
L 794.268 221.400337 
L 795.69 221.400337 
L 797.112 222.07294 
L 798.534 223.418146 
L 799.956 222.07294 
L 801.378 223.418146 
L 802.8 225.435955 
L 804.222 224.083957 
L 805.644 224.742971 
L 807.066 227.413001 
L 808.488 232.094049 
L 811.332 245.471375 
L 817.02 258.692445 
L 818.442 264.671137 
L 819.864 267.280023 
L 828.396 262.612571 
L 829.818 261.81088 
L 831.24 257.639381 
L 834.084 254.656827 
L 835.506 255.173168 
L 838.35 249.459438 
L 839.772 243.229367 
L 841.194 239.010313 
L 844.038 234.587439 
L 845.46 234.383619 
L 846.882 230.809991 
L 851.148 226.10177 
L 852.57 223.173569 
L 853.992 222.928985 
L 855.414 219.314594 
L 865.368 207.948283 
L 875.322 196.249065 
L 879.588 191.133207 
L 881.01 186.051316 
L 882.432 182.980443 
L 883.854 177.884966 
L 885.276 174.800503 
L 886.698 173.727054 
L 888.12 173.319417 
L 889.542 168.869366 
L 890.964 166.430329 
L 892.386 166.00231 
L 893.808 161.531878 
L 895.23 159.072459 
L 896.652 158.624058 
L 898.074 160.859275 
L 899.496 159.052078 
L 900.918 153.202469 
L 902.34 150.036479 
L 903.762 142.828076 
L 905.184 136.958086 
L 906.606 132.426508 
L 908.028 129.233342 
L 909.45 127.378588 
L 910.872 126.862247 
L 912.294 122.303493 
L 913.716 119.083151 
L 915.138 117.20122 
L 916.56 116.657703 
L 917.982 112.071773 
L 919.404 108.824255 
L 920.826 106.915149 
L 922.248 106.344457 
L 923.67 107.784778 
L 925.092 111.236115 
L 926.514 111.317642 
L 927.936 113.410184 
L 929.358 117.513742 
L 930.78 122.283109 
L 932.202 123.682667 
L 933.624 127.09324 
L 935.046 132.514828 
L 936.468 139.947431 
L 939.312 158.155271 
L 940.734 166.240095 
L 942.156 173.645523 
L 942.156 173.645523 
" clip-path="url(#p57f4ca2df6)" style="fill: none; stroke: #8a7ab5; stroke-width: 1.5; stroke-linecap: square"/>
   </g>
   <g id="patch_10">
    <path d="M 91.8 315 
L 91.8 12.6 
" style="fill: none; stroke: #000000; stroke-width: 0.8; stroke-linejoin: miter; stroke-linecap: square"/>
   </g>
   <g id="patch_11">
    <path d="M 945 315 
L 945 12.6 
" style="fill: none; stroke: #000000; stroke-width: 0.8; stroke-linejoin: miter; stroke-linecap: square"/>
   </g>
   <g id="patch_12">
    <path d="M 91.8 315 
L 945 315 
" style="fill: none; stroke: #000000; stroke-width: 0.8; stroke-linejoin: miter; stroke-linecap: square"/>
   </g>
   <g id="patch_13">
    <path d="M 91.8 12.6 
L 945 12.6 
" style="fill: none; stroke: #000000; stroke-width: 0.8; stroke-linejoin: miter; stroke-linecap: square"/>
   </g>
   <g id="legend_1">
    <g id="patch_14">
     <path d="M 436.250625 309 
L 600.549375 309 
Q 602.949375 309 602.949375 306.6 
L 602.949375 222.920625 
Q 602.949375 220.520625 600.549375 220.520625 
L 436.250625 220.520625 
Q 433.850625 220.520625 433.850625 222.920625 
L 433.850625 306.6 
Q 433.850625 309 436.250625 309 
z
" style="fill: #ffffff; opacity: 0.8; stroke: #cccccc; stroke-linejoin: miter"/>
    </g>
    <g id="line2d_32">
     <path d="M 438.650625 229.520625 
L 450.650625 229.520625 
L 462.650625 229.520625 
" style="fill: none; stroke: #f09639; stroke-width: 1.5; stroke-linecap: square"/>
    </g>
    <g id="text_20">
     <!-- Power Demand -->
     <g transform="translate(472.250625 233.720625) scale(0.12 -0.12)">
      <defs>
       <path id="TimesNewRomanPSMT-44" d="M 109 0 
L 109 116 
L 269 116 
Q 538 116 650 288 
Q 719 391 719 750 
L 719 3488 
Q 719 3884 631 3984 
Q 509 4122 269 4122 
L 109 4122 
L 109 4238 
L 1834 4238 
Q 2784 4238 3279 4022 
Q 3775 3806 4076 3303 
Q 4378 2800 4378 2141 
Q 4378 1256 3841 663 
Q 3238 0 2003 0 
L 109 0 
z
M 1319 306 
Q 1716 219 1984 219 
Q 2709 219 3187 728 
Q 3666 1238 3666 2109 
Q 3666 2988 3187 3494 
Q 2709 4000 1959 4000 
Q 1678 4000 1319 3909 
L 1319 306 
z
" transform="scale(0.015625)"/>
       <path id="TimesNewRomanPSMT-6e" d="M 1034 2341 
Q 1538 2947 1994 2947 
Q 2228 2947 2397 2830 
Q 2566 2713 2666 2444 
Q 2734 2256 2734 1869 
L 2734 647 
Q 2734 375 2778 278 
Q 2813 200 2889 156 
Q 2966 113 3172 113 
L 3172 0 
L 1756 0 
L 1756 113 
L 1816 113 
Q 2016 113 2095 173 
Q 2175 234 2206 353 
Q 2219 400 2219 647 
L 2219 1819 
Q 2219 2209 2117 2386 
Q 2016 2563 1775 2563 
Q 1403 2563 1034 2156 
L 1034 647 
Q 1034 356 1069 288 
Q 1113 197 1189 155 
Q 1266 113 1500 113 
L 1500 0 
L 84 0 
L 84 113 
L 147 113 
Q 366 113 442 223 
Q 519 334 519 647 
L 519 1709 
Q 519 2225 495 2337 
Q 472 2450 423 2490 
Q 375 2531 294 2531 
Q 206 2531 84 2484 
L 38 2597 
L 900 2947 
L 1034 2947 
L 1034 2341 
z
" transform="scale(0.015625)"/>
       <path id="TimesNewRomanPSMT-64" d="M 2222 322 
Q 2013 103 1813 7 
Q 1613 -88 1381 -88 
Q 913 -88 563 304 
Q 213 697 213 1313 
Q 213 1928 600 2439 
Q 988 2950 1597 2950 
Q 1975 2950 2222 2709 
L 2222 3238 
Q 2222 3728 2198 3840 
Q 2175 3953 2125 3993 
Q 2075 4034 2000 4034 
Q 1919 4034 1784 3984 
L 1744 4094 
L 2597 4444 
L 2738 4444 
L 2738 1134 
Q 2738 631 2761 520 
Q 2784 409 2836 365 
Q 2888 322 2956 322 
Q 3041 322 3181 375 
L 3216 266 
L 2366 -88 
L 2222 -88 
L 2222 322 
z
M 2222 541 
L 2222 2016 
Q 2203 2228 2109 2403 
Q 2016 2578 1861 2667 
Q 1706 2756 1559 2756 
Q 1284 2756 1069 2509 
Q 784 2184 784 1559 
Q 784 928 1059 592 
Q 1334 256 1672 256 
Q 1956 256 2222 541 
z
" transform="scale(0.015625)"/>
      </defs>
      <use xlink:href="#TimesNewRomanPSMT-50"/>
      <use xlink:href="#TimesNewRomanPSMT-6f" x="55.615234"/>
      <use xlink:href="#TimesNewRomanPSMT-77" x="105.615234"/>
      <use xlink:href="#TimesNewRomanPSMT-65" x="177.832031"/>
      <use xlink:href="#TimesNewRomanPSMT-72" x="222.216797"/>
      <use xlink:href="#TimesNewRomanPSMT-20" x="255.517578"/>
      <use xlink:href="#TimesNewRomanPSMT-44" x="280.517578"/>
      <use xlink:href="#TimesNewRomanPSMT-65" x="352.734375"/>
      <use xlink:href="#TimesNewRomanPSMT-6d" x="397.119141"/>
      <use xlink:href="#TimesNewRomanPSMT-61" x="474.902344"/>
      <use xlink:href="#TimesNewRomanPSMT-6e" x="519.287109"/>
      <use xlink:href="#TimesNewRomanPSMT-64" x="569.287109"/>
     </g>
    </g>
    <g id="line2d_33">
     <path d="M 438.650625 246.4875 
L 450.650625 246.4875 
L 462.650625 246.4875 
" style="fill: none; stroke: #c84343; stroke-width: 1.5; stroke-linecap: square"/>
    </g>
    <g id="text_21">
     <!-- Power Fuel Cell -->
     <g transform="translate(472.250625 250.6875) scale(0.12 -0.12)">
      <defs>
       <path id="TimesNewRomanPSMT-46" d="M 1309 4006 
L 1309 2341 
L 2081 2341 
Q 2347 2341 2470 2458 
Q 2594 2575 2634 2922 
L 2750 2922 
L 2750 1488 
L 2634 1488 
Q 2631 1734 2570 1850 
Q 2509 1966 2401 2023 
Q 2294 2081 2081 2081 
L 1309 2081 
L 1309 750 
Q 1309 428 1350 325 
Q 1381 247 1481 191 
Q 1619 116 1769 116 
L 1922 116 
L 1922 0 
L 103 0 
L 103 116 
L 253 116 
Q 516 116 634 269 
Q 709 369 709 750 
L 709 3488 
Q 709 3809 669 3913 
Q 638 3991 541 4047 
Q 406 4122 253 4122 
L 103 4122 
L 103 4238 
L 3256 4238 
L 3297 3306 
L 3188 3306 
Q 3106 3603 2998 3742 
Q 2891 3881 2733 3943 
Q 2575 4006 2244 4006 
L 1309 4006 
z
" transform="scale(0.015625)"/>
       <path id="TimesNewRomanPSMT-75" d="M 2709 2863 
L 2709 1128 
Q 2709 631 2732 520 
Q 2756 409 2807 365 
Q 2859 322 2928 322 
Q 3025 322 3147 375 
L 3191 266 
L 2334 -88 
L 2194 -88 
L 2194 519 
Q 1825 119 1631 15 
Q 1438 -88 1222 -88 
Q 981 -88 804 51 
Q 628 191 559 409 
Q 491 628 491 1028 
L 491 2306 
Q 491 2509 447 2587 
Q 403 2666 317 2708 
Q 231 2750 6 2747 
L 6 2863 
L 1009 2863 
L 1009 947 
Q 1009 547 1148 422 
Q 1288 297 1484 297 
Q 1619 297 1789 381 
Q 1959 466 2194 703 
L 2194 2325 
Q 2194 2569 2105 2655 
Q 2016 2741 1734 2747 
L 1734 2863 
L 2709 2863 
z
" transform="scale(0.015625)"/>
       <path id="TimesNewRomanPSMT-6c" d="M 1184 4444 
L 1184 647 
Q 1184 378 1223 290 
Q 1263 203 1344 158 
Q 1425 113 1647 113 
L 1647 0 
L 244 0 
L 244 113 
Q 441 113 512 153 
Q 584 194 625 287 
Q 666 381 666 647 
L 666 3247 
Q 666 3731 644 3842 
Q 622 3953 573 3993 
Q 525 4034 450 4034 
Q 369 4034 244 3984 
L 191 4094 
L 1044 4444 
L 1184 4444 
z
" transform="scale(0.015625)"/>
      </defs>
      <use xlink:href="#TimesNewRomanPSMT-50"/>
      <use xlink:href="#TimesNewRomanPSMT-6f" x="55.615234"/>
      <use xlink:href="#TimesNewRomanPSMT-77" x="105.615234"/>
      <use xlink:href="#TimesNewRomanPSMT-65" x="177.832031"/>
      <use xlink:href="#TimesNewRomanPSMT-72" x="222.216797"/>
      <use xlink:href="#TimesNewRomanPSMT-20" x="255.517578"/>
      <use xlink:href="#TimesNewRomanPSMT-46" x="280.517578"/>
      <use xlink:href="#TimesNewRomanPSMT-75" x="336.132812"/>
      <use xlink:href="#TimesNewRomanPSMT-65" x="386.132812"/>
      <use xlink:href="#TimesNewRomanPSMT-6c" x="430.517578"/>
      <use xlink:href="#TimesNewRomanPSMT-20" x="458.300781"/>
      <use xlink:href="#TimesNewRomanPSMT-43" x="483.300781"/>
      <use xlink:href="#TimesNewRomanPSMT-65" x="550"/>
      <use xlink:href="#TimesNewRomanPSMT-6c" x="594.384766"/>
      <use xlink:href="#TimesNewRomanPSMT-6c" x="622.167969"/>
     </g>
    </g>
    <g id="line2d_34">
     <path d="M 438.650625 263.454375 
L 450.650625 263.454375 
L 462.650625 263.454375 
" style="fill: none; stroke: #42985e; stroke-width: 1.5; stroke-linecap: square"/>
    </g>
    <g id="text_22">
     <!-- Power Battery -->
     <g transform="translate(472.250625 267.654375) scale(0.12 -0.12)">
      <use xlink:href="#TimesNewRomanPSMT-50"/>
      <use xlink:href="#TimesNewRomanPSMT-6f" x="55.615234"/>
      <use xlink:href="#TimesNewRomanPSMT-77" x="105.615234"/>
      <use xlink:href="#TimesNewRomanPSMT-65" x="177.832031"/>
      <use xlink:href="#TimesNewRomanPSMT-72" x="222.216797"/>
      <use xlink:href="#TimesNewRomanPSMT-20" x="255.517578"/>
      <use xlink:href="#TimesNewRomanPSMT-42" x="280.517578"/>
      <use xlink:href="#TimesNewRomanPSMT-61" x="347.216797"/>
      <use xlink:href="#TimesNewRomanPSMT-74" x="391.601562"/>
      <use xlink:href="#TimesNewRomanPSMT-74" x="419.384766"/>
      <use xlink:href="#TimesNewRomanPSMT-65" x="447.167969"/>
      <use xlink:href="#TimesNewRomanPSMT-72" x="491.552734"/>
      <use xlink:href="#TimesNewRomanPSMT-79" x="524.853516"/>
     </g>
    </g>
    <g id="line2d_35">
     <path d="M 438.650625 280.44375 
L 450.650625 280.44375 
L 462.650625 280.44375 
" style="fill: none; stroke: #8a7ab5; stroke-width: 1.5; stroke-linecap: square"/>
    </g>
    <g id="text_23">
     <!-- Battery SOC -->
     <g transform="translate(472.250625 284.64375) scale(0.12 -0.12)">
      <use xlink:href="#TimesNewRomanPSMT-42"/>
      <use xlink:href="#TimesNewRomanPSMT-61" x="66.699219"/>
      <use xlink:href="#TimesNewRomanPSMT-74" x="111.083984"/>
      <use xlink:href="#TimesNewRomanPSMT-74" x="138.867188"/>
      <use xlink:href="#TimesNewRomanPSMT-65" x="166.650391"/>
      <use xlink:href="#TimesNewRomanPSMT-72" x="211.035156"/>
      <use xlink:href="#TimesNewRomanPSMT-79" x="244.335938"/>
      <use xlink:href="#TimesNewRomanPSMT-20" x="294.335938"/>
      <use xlink:href="#TimesNewRomanPSMT-53" x="319.335938"/>
      <use xlink:href="#TimesNewRomanPSMT-4f" x="374.951172"/>
      <use xlink:href="#TimesNewRomanPSMT-43" x="447.167969"/>
     </g>
    </g>
    <g id="line2d_36">
     <path d="M 438.650625 297.433125 
L 450.650625 297.433125 
L 462.650625 297.433125 
" style="fill: none; stroke: #3570a8; stroke-width: 1.5; stroke-linecap: square"/>
    </g>
    <g id="text_24">
     <!-- Environment Temperature -->
     <g transform="translate(472.250625 301.633125) scale(0.12 -0.12)">
      <defs>
       <path id="TimesNewRomanPSMT-45" d="M 1338 4006 
L 1338 2331 
L 2269 2331 
Q 2631 2331 2753 2441 
Q 2916 2584 2934 2947 
L 3050 2947 
L 3050 1472 
L 2934 1472 
Q 2891 1781 2847 1869 
Q 2791 1978 2662 2040 
Q 2534 2103 2269 2103 
L 1338 2103 
L 1338 706 
Q 1338 425 1363 364 
Q 1388 303 1450 267 
Q 1513 231 1688 231 
L 2406 231 
Q 2766 231 2928 281 
Q 3091 331 3241 478 
Q 3434 672 3638 1063 
L 3763 1063 
L 3397 0 
L 131 0 
L 131 116 
L 281 116 
Q 431 116 566 188 
Q 666 238 702 338 
Q 738 438 738 747 
L 738 3500 
Q 738 3903 656 3997 
Q 544 4122 281 4122 
L 131 4122 
L 131 4238 
L 3397 4238 
L 3444 3309 
L 3322 3309 
Q 3256 3644 3176 3769 
Q 3097 3894 2941 3959 
Q 2816 4006 2500 4006 
L 1338 4006 
z
" transform="scale(0.015625)"/>
       <path id="TimesNewRomanPSMT-76" d="M 53 2863 
L 1400 2863 
L 1400 2747 
L 1313 2747 
Q 1191 2747 1127 2687 
Q 1063 2628 1063 2528 
Q 1063 2419 1128 2269 
L 1794 688 
L 2463 2328 
Q 2534 2503 2534 2594 
Q 2534 2638 2509 2666 
Q 2475 2713 2422 2730 
Q 2369 2747 2206 2747 
L 2206 2863 
L 3141 2863 
L 3141 2747 
Q 2978 2734 2916 2681 
Q 2806 2588 2719 2369 
L 1703 -88 
L 1575 -88 
L 553 2328 
Q 484 2497 421 2570 
Q 359 2644 263 2694 
Q 209 2722 53 2747 
L 53 2863 
z
" transform="scale(0.015625)"/>
       <path id="TimesNewRomanPSMT-70" d="M -6 2578 
L 875 2934 
L 994 2934 
L 994 2266 
Q 1216 2644 1439 2795 
Q 1663 2947 1909 2947 
Q 2341 2947 2628 2609 
Q 2981 2197 2981 1534 
Q 2981 794 2556 309 
Q 2206 -88 1675 -88 
Q 1444 -88 1275 -22 
Q 1150 25 994 166 
L 994 -706 
Q 994 -1000 1030 -1079 
Q 1066 -1159 1155 -1206 
Q 1244 -1253 1478 -1253 
L 1478 -1369 
L -22 -1369 
L -22 -1253 
L 56 -1253 
Q 228 -1256 350 -1188 
Q 409 -1153 442 -1076 
Q 475 -1000 475 -688 
L 475 2019 
Q 475 2297 450 2372 
Q 425 2447 370 2484 
Q 316 2522 222 2522 
Q 147 2522 31 2478 
L -6 2578 
z
M 994 2081 
L 994 1013 
Q 994 666 1022 556 
Q 1066 375 1236 237 
Q 1406 100 1666 100 
Q 1978 100 2172 344 
Q 2425 663 2425 1241 
Q 2425 1897 2138 2250 
Q 1938 2494 1663 2494 
Q 1513 2494 1366 2419 
Q 1253 2363 994 2081 
z
" transform="scale(0.015625)"/>
      </defs>
      <use xlink:href="#TimesNewRomanPSMT-45"/>
      <use xlink:href="#TimesNewRomanPSMT-6e" x="61.083984"/>
      <use xlink:href="#TimesNewRomanPSMT-76" x="111.083984"/>
      <use xlink:href="#TimesNewRomanPSMT-69" x="161.083984"/>
      <use xlink:href="#TimesNewRomanPSMT-72" x="188.867188"/>
      <use xlink:href="#TimesNewRomanPSMT-6f" x="222.167969"/>
      <use xlink:href="#TimesNewRomanPSMT-6e" x="272.167969"/>
      <use xlink:href="#TimesNewRomanPSMT-6d" x="322.167969"/>
      <use xlink:href="#TimesNewRomanPSMT-65" x="399.951172"/>
      <use xlink:href="#TimesNewRomanPSMT-6e" x="444.335938"/>
      <use xlink:href="#TimesNewRomanPSMT-74" x="494.335938"/>
      <use xlink:href="#TimesNewRomanPSMT-20" x="522.119141"/>
      <use xlink:href="#TimesNewRomanPSMT-54" x="545.369141"/>
      <use xlink:href="#TimesNewRomanPSMT-65" x="599.453125"/>
      <use xlink:href="#TimesNewRomanPSMT-6d" x="643.837891"/>
      <use xlink:href="#TimesNewRomanPSMT-70" x="721.621094"/>
      <use xlink:href="#TimesNewRomanPSMT-65" x="771.621094"/>
      <use xlink:href="#TimesNewRomanPSMT-72" x="816.005859"/>
      <use xlink:href="#TimesNewRomanPSMT-61" x="849.306641"/>
      <use xlink:href="#TimesNewRomanPSMT-74" x="893.691406"/>
      <use xlink:href="#TimesNewRomanPSMT-75" x="921.474609"/>
      <use xlink:href="#TimesNewRomanPSMT-72" x="971.474609"/>
      <use xlink:href="#TimesNewRomanPSMT-65" x="1004.775391"/>
     </g>
    </g>
   </g>
  </g>
  <g id="axes_3">
   <g id="matplotlib.axis_4">
    <g id="ytick_10">
     <g id="line2d_37">
      <g>
       <use xlink:href="#m4e21552fca" x="1010" y="12.6" style="stroke: #000000; stroke-width: 0.8"/>
      </g>
     </g>
     <g id="text_25">
      <!-- 100 -->
      <g style="fill: #3570a8" transform="translate(1017 18.849375) scale(0.18 -0.18)">
       <defs>
        <path id="TimesNewRomanPSMT-2212" d="M 3484 2000 
L 116 2000 
L 116 2256 
L 3484 2256 
L 3484 2000 
z
" transform="scale(0.015625)"/>
       </defs>
       <use xlink:href="#TimesNewRomanPSMT-2212"/>
       <use xlink:href="#TimesNewRomanPSMT-31" x="56.396484"/>
       <use xlink:href="#TimesNewRomanPSMT-30" x="106.396484"/>
       <use xlink:href="#TimesNewRomanPSMT-30" x="156.396484"/>
      </g>
     </g>
    </g>
    <g id="ytick_11">
     <g id="line2d_38">
      <g>
       <use xlink:href="#m4e21552fca" x="1010" y="59.123077" style="stroke: #000000; stroke-width: 0.8"/>
      </g>
     </g>
     <g id="text_26">
      <!-- 80 -->
      <g style="fill: #3570a8" transform="translate(1017 65.372452) scale(0.18 -0.18)">
       <use xlink:href="#TimesNewRomanPSMT-2212"/>
       <use xlink:href="#TimesNewRomanPSMT-38" x="56.396484"/>
       <use xlink:href="#TimesNewRomanPSMT-30" x="106.396484"/>
      </g>
     </g>
    </g>
    <g id="ytick_12">
     <g id="line2d_39">
      <g>
       <use xlink:href="#m4e21552fca" x="1010" y="105.646154" style="stroke: #000000; stroke-width: 0.8"/>
      </g>
     </g>
     <g id="text_27">
      <!-- 60 -->
      <g style="fill: #3570a8" transform="translate(1017 111.895529) scale(0.18 -0.18)">
       <use xlink:href="#TimesNewRomanPSMT-2212"/>
       <use xlink:href="#TimesNewRomanPSMT-36" x="56.396484"/>
       <use xlink:href="#TimesNewRomanPSMT-30" x="106.396484"/>
      </g>
     </g>
    </g>
    <g id="ytick_13">
     <g id="line2d_40">
      <g>
       <use xlink:href="#m4e21552fca" x="1010" y="152.169231" style="stroke: #000000; stroke-width: 0.8"/>
      </g>
     </g>
     <g id="text_28">
      <!-- 40 -->
      <g style="fill: #3570a8" transform="translate(1017 158.418606) scale(0.18 -0.18)">
       <use xlink:href="#TimesNewRomanPSMT-2212"/>
       <use xlink:href="#TimesNewRomanPSMT-34" x="56.396484"/>
       <use xlink:href="#TimesNewRomanPSMT-30" x="106.396484"/>
      </g>
     </g>
    </g>
    <g id="ytick_14">
     <g id="line2d_41">
      <g>
       <use xlink:href="#m4e21552fca" x="1010" y="198.692308" style="stroke: #000000; stroke-width: 0.8"/>
      </g>
     </g>
     <g id="text_29">
      <!-- 20 -->
      <g style="fill: #3570a8" transform="translate(1017 204.941683) scale(0.18 -0.18)">
       <use xlink:href="#TimesNewRomanPSMT-2212"/>
       <use xlink:href="#TimesNewRomanPSMT-32" x="56.396484"/>
       <use xlink:href="#TimesNewRomanPSMT-30" x="106.396484"/>
      </g>
     </g>
    </g>
    <g id="ytick_15">
     <g id="line2d_42">
      <g>
       <use xlink:href="#m4e21552fca" x="1010" y="245.215385" style="stroke: #000000; stroke-width: 0.8"/>
      </g>
     </g>
     <g id="text_30">
      <!-- 0 -->
      <g style="fill: #3570a8" transform="translate(1017 251.46476) scale(0.18 -0.18)">
       <use xlink:href="#TimesNewRomanPSMT-30"/>
      </g>
     </g>
    </g>
    <g id="ytick_16">
     <g id="line2d_43">
      <g>
       <use xlink:href="#m4e21552fca" x="1010" y="291.738462" style="stroke: #000000; stroke-width: 0.8"/>
      </g>
     </g>
     <g id="text_31">
      <!-- 20 -->
      <g style="fill: #3570a8" transform="translate(1017 297.987837) scale(0.18 -0.18)">
       <use xlink:href="#TimesNewRomanPSMT-32"/>
       <use xlink:href="#TimesNewRomanPSMT-30" x="50"/>
      </g>
     </g>
    </g>
    <g id="text_32">
     <!-- Environment Temperature/ -->
     <g style="fill: #3570a8" transform="translate(1070.649062 269.939531) rotate(-90) scale(0.18 -0.18)">
      <defs>
       <path id="TimesNewRomanPSMT-2103" d="M 6138 4334 
L 6234 2894 
L 6138 2894 
Q 5944 3541 5584 3825 
Q 5225 4109 4722 4109 
Q 4034 4109 3631 3581 
Q 3228 3053 3228 2047 
Q 3228 1138 3664 658 
Q 4100 178 4813 178 
Q 5225 178 5540 354 
Q 5856 531 6234 1056 
L 6331 994 
Q 6013 428 5588 165 
Q 5163 -97 4578 -97 
Q 3634 -97 3075 529 
Q 2516 1156 2516 2053 
Q 2516 2688 2800 3219 
Q 3084 3750 3582 4042 
Q 4081 4334 4672 4334 
Q 4903 4334 5129 4278 
Q 5356 4222 5578 4109 
Q 5709 4041 5766 4041 
Q 5866 4041 5931 4122 
Q 5997 4203 6028 4334 
L 6138 4334 
z
M 2228 3369 
Q 2228 2972 1947 2690 
Q 1666 2409 1266 2409 
Q 869 2409 587 2690 
Q 306 2972 306 3369 
Q 306 3769 586 4050 
Q 866 4331 1266 4331 
Q 1669 4331 1948 4050 
Q 2228 3769 2228 3369 
z
M 569 3372 
Q 569 3084 772 2879 
Q 975 2675 1266 2675 
Q 1553 2675 1758 2879 
Q 1963 3084 1963 3372 
Q 1963 3663 1759 3866 
Q 1556 4069 1266 4069 
Q 975 4069 772 3866 
Q 569 3663 569 3372 
z
" transform="scale(0.015625)"/>
      </defs>
      <use xlink:href="#TimesNewRomanPSMT-45"/>
      <use xlink:href="#TimesNewRomanPSMT-6e" x="61.083984"/>
      <use xlink:href="#TimesNewRomanPSMT-76" x="111.083984"/>
      <use xlink:href="#TimesNewRomanPSMT-69" x="161.083984"/>
      <use xlink:href="#TimesNewRomanPSMT-72" x="188.867188"/>
      <use xlink:href="#TimesNewRomanPSMT-6f" x="222.167969"/>
      <use xlink:href="#TimesNewRomanPSMT-6e" x="272.167969"/>
      <use xlink:href="#TimesNewRomanPSMT-6d" x="322.167969"/>
      <use xlink:href="#TimesNewRomanPSMT-65" x="399.951172"/>
      <use xlink:href="#TimesNewRomanPSMT-6e" x="444.335938"/>
      <use xlink:href="#TimesNewRomanPSMT-74" x="494.335938"/>
      <use xlink:href="#TimesNewRomanPSMT-20" x="522.119141"/>
      <use xlink:href="#TimesNewRomanPSMT-54" x="545.369141"/>
      <use xlink:href="#TimesNewRomanPSMT-65" x="599.453125"/>
      <use xlink:href="#TimesNewRomanPSMT-6d" x="643.837891"/>
      <use xlink:href="#TimesNewRomanPSMT-70" x="721.621094"/>
      <use xlink:href="#TimesNewRomanPSMT-65" x="771.621094"/>
      <use xlink:href="#TimesNewRomanPSMT-72" x="816.005859"/>
      <use xlink:href="#TimesNewRomanPSMT-61" x="849.306641"/>
      <use xlink:href="#TimesNewRomanPSMT-74" x="893.691406"/>
      <use xlink:href="#TimesNewRomanPSMT-75" x="921.474609"/>
      <use xlink:href="#TimesNewRomanPSMT-72" x="971.474609"/>
      <use xlink:href="#TimesNewRomanPSMT-65" x="1004.775391"/>
      <use xlink:href="#TimesNewRomanPSMT-2f" x="1049.160156"/>
      <use xlink:href="#TimesNewRomanPSMT-2103" x="1076.943359"/>
     </g>
    </g>
   </g>
   <g id="line2d_44">
    <path d="M 91.8 303.369231 
L 303.678 70.753846 
L 731.7 70.753846 
L 942.156 301.808054 
L 942.156 301.808054 
" clip-path="url(#p57f4ca2df6)" style="fill: none; stroke: #3570a8; stroke-width: 1.5; stroke-linecap: square"/>
   </g>
   <g id="patch_15">
    <path d="M 91.8 315 
L 91.8 12.6 
" style="fill: none; stroke: #000000; stroke-width: 0.8; stroke-linejoin: miter; stroke-linecap: square"/>
   </g>
   <g id="patch_16">
    <path d="M 1010 315 
L 1010 12.6 
" style="fill: none; stroke: #000000; stroke-width: 0.8; stroke-linejoin: miter; stroke-linecap: square"/>
   </g>
   <g id="patch_17">
    <path d="M 91.8 315 
L 945 315 
" style="fill: none; stroke: #000000; stroke-width: 0.8; stroke-linejoin: miter; stroke-linecap: square"/>
   </g>
   <g id="patch_18">
    <path d="M 91.8 12.6 
L 945 12.6 
" style="fill: none; stroke: #000000; stroke-width: 0.8; stroke-linejoin: miter; stroke-linecap: square"/>
   </g>
   <g id="legend_2">
    <g id="patch_19">
     <path d="M 756.48825 85.28175 
L 934.92 85.28175 
Q 937.8 85.28175 937.8 82.40175 
L 937.8 22.68 
Q 937.8 19.8 934.92 19.8 
L 756.48825 19.8 
Q 753.60825 19.8 753.60825 22.68 
L 753.60825 82.40175 
Q 753.60825 85.28175 756.48825 85.28175 
z
" style="fill: #ffffff; opacity: 0.8; stroke: #000000; stroke-linejoin: miter"/>
    </g>
    <g id="patch_20">
     <path d="M 759.36825 35.64 
L 788.16825 35.64 
L 788.16825 25.56 
L 759.36825 25.56 
z
" style="fill: #add8e6; opacity: 0.2; stroke: #add8e6; stroke-linejoin: miter"/>
    </g>
    <g id="text_33">
     <!-- Air flight -->
     <g transform="translate(799.68825 35.64) scale(0.144 -0.144)">
      <defs>
       <path id="TimesNewRomanPSMT-41" d="M 2928 1419 
L 1288 1419 
L 1000 750 
Q 894 503 894 381 
Q 894 284 986 211 
Q 1078 138 1384 116 
L 1384 0 
L 50 0 
L 50 116 
Q 316 163 394 238 
Q 553 388 747 847 
L 2238 4334 
L 2347 4334 
L 3822 809 
Q 4000 384 4145 257 
Q 4291 131 4550 116 
L 4550 0 
L 2878 0 
L 2878 116 
Q 3131 128 3220 200 
Q 3309 272 3309 375 
Q 3309 513 3184 809 
L 2928 1419 
z
M 2841 1650 
L 2122 3363 
L 1384 1650 
L 2841 1650 
z
" transform="scale(0.015625)"/>
       <path id="TimesNewRomanPSMT-66" d="M 1319 2638 
L 1319 756 
Q 1319 356 1406 250 
Q 1522 113 1716 113 
L 1975 113 
L 1975 0 
L 266 0 
L 266 113 
L 394 113 
Q 519 113 622 175 
Q 725 238 764 344 
Q 803 450 803 756 
L 803 2638 
L 247 2638 
L 247 2863 
L 803 2863 
L 803 3050 
Q 803 3478 940 3775 
Q 1078 4072 1361 4255 
Q 1644 4438 1997 4438 
Q 2325 4438 2600 4225 
Q 2781 4084 2781 3909 
Q 2781 3816 2700 3733 
Q 2619 3650 2525 3650 
Q 2453 3650 2373 3701 
Q 2294 3753 2178 3923 
Q 2063 4094 1966 4153 
Q 1869 4213 1750 4213 
Q 1606 4213 1506 4136 
Q 1406 4059 1362 3898 
Q 1319 3738 1319 3069 
L 1319 2863 
L 2056 2863 
L 2056 2638 
L 1319 2638 
z
" transform="scale(0.015625)"/>
       <path id="TimesNewRomanPSMT-67" d="M 966 1044 
Q 703 1172 562 1401 
Q 422 1631 422 1909 
Q 422 2334 742 2640 
Q 1063 2947 1563 2947 
Q 1972 2947 2272 2747 
L 2878 2747 
Q 3013 2747 3034 2739 
Q 3056 2731 3066 2713 
Q 3084 2684 3084 2613 
Q 3084 2531 3069 2500 
Q 3059 2484 3036 2475 
Q 3013 2466 2878 2466 
L 2506 2466 
Q 2681 2241 2681 1891 
Q 2681 1491 2375 1206 
Q 2069 922 1553 922 
Q 1341 922 1119 984 
Q 981 866 932 777 
Q 884 688 884 625 
Q 884 572 936 522 
Q 988 472 1138 450 
Q 1225 438 1575 428 
Q 2219 413 2409 384 
Q 2700 344 2873 169 
Q 3047 -6 3047 -263 
Q 3047 -616 2716 -925 
Q 2228 -1381 1444 -1381 
Q 841 -1381 425 -1109 
Q 191 -953 191 -784 
Q 191 -709 225 -634 
Q 278 -519 444 -313 
Q 466 -284 763 25 
Q 600 122 533 198 
Q 466 275 466 372 
Q 466 481 555 628 
Q 644 775 966 1044 
z
M 1509 2797 
Q 1278 2797 1122 2612 
Q 966 2428 966 2047 
Q 966 1553 1178 1281 
Q 1341 1075 1591 1075 
Q 1828 1075 1981 1253 
Q 2134 1431 2134 1813 
Q 2134 2309 1919 2591 
Q 1759 2797 1509 2797 
z
M 934 0 
Q 788 -159 713 -296 
Q 638 -434 638 -550 
Q 638 -700 819 -813 
Q 1131 -1006 1722 -1006 
Q 2284 -1006 2551 -807 
Q 2819 -609 2819 -384 
Q 2819 -222 2659 -153 
Q 2497 -84 2016 -72 
Q 1313 -53 934 0 
z
" transform="scale(0.015625)"/>
       <path id="TimesNewRomanPSMT-68" d="M 1041 4444 
L 1041 2350 
Q 1388 2731 1591 2839 
Q 1794 2947 1997 2947 
Q 2241 2947 2416 2812 
Q 2591 2678 2675 2391 
Q 2734 2191 2734 1659 
L 2734 647 
Q 2734 375 2778 275 
Q 2809 200 2884 156 
Q 2959 113 3159 113 
L 3159 0 
L 1753 0 
L 1753 113 
L 1819 113 
Q 2019 113 2097 173 
Q 2175 234 2206 353 
Q 2216 403 2216 647 
L 2216 1659 
Q 2216 2128 2167 2275 
Q 2119 2422 2012 2495 
Q 1906 2569 1756 2569 
Q 1603 2569 1437 2487 
Q 1272 2406 1041 2159 
L 1041 647 
Q 1041 353 1073 281 
Q 1106 209 1195 161 
Q 1284 113 1503 113 
L 1503 0 
L 84 0 
L 84 113 
Q 275 113 384 172 
Q 447 203 484 290 
Q 522 378 522 647 
L 522 3238 
Q 522 3728 498 3840 
Q 475 3953 426 3993 
Q 378 4034 297 4034 
Q 231 4034 84 3984 
L 41 4094 
L 897 4444 
L 1041 4444 
z
" transform="scale(0.015625)"/>
      </defs>
      <use xlink:href="#TimesNewRomanPSMT-41"/>
      <use xlink:href="#TimesNewRomanPSMT-69" x="72.216797"/>
      <use xlink:href="#TimesNewRomanPSMT-72" x="100"/>
      <use xlink:href="#TimesNewRomanPSMT-20" x="133.300781"/>
      <use xlink:href="#TimesNewRomanPSMT-66" x="158.300781"/>
      <use xlink:href="#TimesNewRomanPSMT-6c" x="191.601562"/>
      <use xlink:href="#TimesNewRomanPSMT-69" x="219.384766"/>
      <use xlink:href="#TimesNewRomanPSMT-67" x="247.167969"/>
      <use xlink:href="#TimesNewRomanPSMT-68" x="297.167969"/>
      <use xlink:href="#TimesNewRomanPSMT-74" x="347.167969"/>
     </g>
    </g>
    <g id="patch_21">
     <path d="M 759.36825 56.02725 
L 788.16825 56.02725 
L 788.16825 45.94725 
L 759.36825 45.94725 
z
" style="fill: #90ee90; opacity: 0.2; stroke: #90ee90; stroke-linejoin: miter"/>
    </g>
    <g id="text_34">
     <!-- Surface navigation -->
     <g transform="translate(799.68825 56.02725) scale(0.144 -0.144)">
      <defs>
       <path id="TimesNewRomanPSMT-63" d="M 2631 1088 
Q 2516 522 2178 217 
Q 1841 -88 1431 -88 
Q 944 -88 581 321 
Q 219 731 219 1428 
Q 219 2103 620 2525 
Q 1022 2947 1584 2947 
Q 2006 2947 2278 2723 
Q 2550 2500 2550 2259 
Q 2550 2141 2473 2067 
Q 2397 1994 2259 1994 
Q 2075 1994 1981 2113 
Q 1928 2178 1911 2362 
Q 1894 2547 1784 2644 
Q 1675 2738 1481 2738 
Q 1169 2738 978 2506 
Q 725 2200 725 1697 
Q 725 1184 976 792 
Q 1228 400 1656 400 
Q 1963 400 2206 609 
Q 2378 753 2541 1131 
L 2631 1088 
z
" transform="scale(0.015625)"/>
      </defs>
      <use xlink:href="#TimesNewRomanPSMT-53"/>
      <use xlink:href="#TimesNewRomanPSMT-75" x="55.615234"/>
      <use xlink:href="#TimesNewRomanPSMT-72" x="105.615234"/>
      <use xlink:href="#TimesNewRomanPSMT-66" x="138.916016"/>
      <use xlink:href="#TimesNewRomanPSMT-61" x="172.216797"/>
      <use xlink:href="#TimesNewRomanPSMT-63" x="216.601562"/>
      <use xlink:href="#TimesNewRomanPSMT-65" x="260.986328"/>
      <use xlink:href="#TimesNewRomanPSMT-20" x="305.371094"/>
      <use xlink:href="#TimesNewRomanPSMT-6e" x="330.371094"/>
      <use xlink:href="#TimesNewRomanPSMT-61" x="380.371094"/>
      <use xlink:href="#TimesNewRomanPSMT-76" x="424.755859"/>
      <use xlink:href="#TimesNewRomanPSMT-69" x="474.755859"/>
      <use xlink:href="#TimesNewRomanPSMT-67" x="502.539062"/>
      <use xlink:href="#TimesNewRomanPSMT-61" x="552.539062"/>
      <use xlink:href="#TimesNewRomanPSMT-74" x="596.923828"/>
      <use xlink:href="#TimesNewRomanPSMT-69" x="624.707031"/>
      <use xlink:href="#TimesNewRomanPSMT-6f" x="652.490234"/>
      <use xlink:href="#TimesNewRomanPSMT-6e" x="702.490234"/>
     </g>
    </g>
    <g id="patch_22">
     <path d="M 759.36825 76.4145 
L 788.16825 76.4145 
L 788.16825 66.3345 
L 759.36825 66.3345 
z
" style="fill: #fa8072; opacity: 0.2; stroke: #fa8072; stroke-linejoin: miter"/>
    </g>
    <g id="text_35">
     <!-- Underwater navigation -->
     <g transform="translate(799.68825 76.4145) scale(0.144 -0.144)">
      <defs>
       <path id="TimesNewRomanPSMT-55" d="M 3053 4122 
L 3053 4238 
L 4553 4238 
L 4553 4122 
L 4394 4122 
Q 4144 4122 4009 3913 
Q 3944 3816 3944 3463 
L 3944 1744 
Q 3944 1106 3817 754 
Q 3691 403 3320 151 
Q 2950 -100 2313 -100 
Q 1619 -100 1259 140 
Q 900 381 750 788 
Q 650 1066 650 1831 
L 650 3488 
Q 650 3878 542 4000 
Q 434 4122 194 4122 
L 34 4122 
L 34 4238 
L 1866 4238 
L 1866 4122 
L 1703 4122 
Q 1441 4122 1328 3956 
Q 1250 3844 1250 3488 
L 1250 1641 
Q 1250 1394 1295 1075 
Q 1341 756 1459 578 
Q 1578 400 1801 284 
Q 2025 169 2350 169 
Q 2766 169 3094 350 
Q 3422 531 3542 814 
Q 3663 1097 3663 1772 
L 3663 3488 
Q 3663 3884 3575 3984 
Q 3453 4122 3213 4122 
L 3053 4122 
z
" transform="scale(0.015625)"/>
      </defs>
      <use xlink:href="#TimesNewRomanPSMT-55"/>
      <use xlink:href="#TimesNewRomanPSMT-6e" x="72.216797"/>
      <use xlink:href="#TimesNewRomanPSMT-64" x="122.216797"/>
      <use xlink:href="#TimesNewRomanPSMT-65" x="172.216797"/>
      <use xlink:href="#TimesNewRomanPSMT-72" x="216.601562"/>
      <use xlink:href="#TimesNewRomanPSMT-77" x="249.902344"/>
      <use xlink:href="#TimesNewRomanPSMT-61" x="322.119141"/>
      <use xlink:href="#TimesNewRomanPSMT-74" x="366.503906"/>
      <use xlink:href="#TimesNewRomanPSMT-65" x="394.287109"/>
      <use xlink:href="#TimesNewRomanPSMT-72" x="438.671875"/>
      <use xlink:href="#TimesNewRomanPSMT-20" x="471.972656"/>
      <use xlink:href="#TimesNewRomanPSMT-6e" x="496.972656"/>
      <use xlink:href="#TimesNewRomanPSMT-61" x="546.972656"/>
      <use xlink:href="#TimesNewRomanPSMT-76" x="591.357422"/>
      <use xlink:href="#TimesNewRomanPSMT-69" x="641.357422"/>
      <use xlink:href="#TimesNewRomanPSMT-67" x="669.140625"/>
      <use xlink:href="#TimesNewRomanPSMT-61" x="719.140625"/>
      <use xlink:href="#TimesNewRomanPSMT-74" x="763.525391"/>
      <use xlink:href="#TimesNewRomanPSMT-69" x="791.308594"/>
      <use xlink:href="#TimesNewRomanPSMT-6f" x="819.091797"/>
      <use xlink:href="#TimesNewRomanPSMT-6e" x="869.091797"/>
     </g>
    </g>
   </g>
  </g>
 </g>
 <defs>
  <clipPath id="p57f4ca2df6">
   <rect x="91.8" y="12.6" width="853.2" height="302.4"/>
  </clipPath>
 </defs>
</svg>
