<?xml version="1.0" encoding="utf-8" standalone="no"?>
<!DOCTYPE svg PUBLIC "-//W3C//DTD SVG 1.1//EN"
  "http://www.w3.org/Graphics/SVG/1.1/DTD/svg11.dtd">
<svg xmlns:xlink="http://www.w3.org/1999/xlink" width="711.596719pt" height="347.801562pt" viewBox="0 0 711.596719 347.801562" xmlns="http://www.w3.org/2000/svg" version="1.1">
 <metadata>
  <rdf:RDF xmlns:dc="http://purl.org/dc/elements/1.1/" xmlns:cc="http://creativecommons.org/ns#" xmlns:rdf="http://www.w3.org/1999/02/22-rdf-syntax-ns#">
   <cc:Work>
    <dc:type rdf:resource="http://purl.org/dc/dcmitype/StillImage"/>
    <dc:date>2025-12-29T21:05:15.355187</dc:date>
    <dc:format>image/svg+xml</dc:format>
    <dc:creator>
     <cc:Agent>
      <dc:title>Matplotlib v3.10.7, https://matplotlib.org/</dc:title>
     </cc:Agent>
    </dc:creator>
   </cc:Work>
  </rdf:RDF>
 </metadata>
 <defs>
  <style type="text/css">*{stroke-linejoin: round; stroke-linecap: butt}</style>
 </defs>
 <g id="figure_1">
  <g id="patch_1">
   <path d="M 0 347.801562 
L 711.596719 347.801562 
L 711.596719 0 
L 0 0 
z
" style="fill: #ffffff"/>
  </g>
  <g id="axes_1">
   <g id="patch_2">
    <path d="M 57.415938 303.48625 
L 511.365937 303.48625 
L 511.365937 38.31 
L 57.415938 38.31 
z
" style="fill: #ffffff"/>
   </g>
   <g id="patch_3">
    <path d="M 57.415938 303.48625 
L 148.205937 303.48625 
L 148.205937 38.31 
L 57.415938 38.31 
z
" clip-path="url(#pd23555bd49)" style="fill: #808080; opacity: 0.1; stroke: #808080; stroke-linejoin: miter"/>
   </g>
   <g id="patch_4">
    <path d="M 148.205937 303.48625 
L 420.575937 303.48625 
L 420.575937 38.31 
L 148.205937 38.31 
z
" clip-path="url(#pd23555bd49)" style="fill: #ffff00; opacity: 0.2; stroke: #ffff00; stroke-linejoin: miter"/>
   </g>
   <g id="patch_5">
    <path d="M 420.575937 303.48625 
L 511.365937 303.48625 
L 511.365937 38.31 
L 420.575937 38.31 
z
" clip-path="url(#pd23555bd49)" style="fill: #008000; opacity: 0.1; stroke: #008000; stroke-linejoin: miter"/>
   </g>
   <g id="matplotlib.axis_1">
    <g id="xtick_1">
     <g id="line2d_1">
      <path d="M 57.415938 303.48625 
L 57.415938 38.31 
" clip-path="url(#pd23555bd49)" style="fill: none; stroke-dasharray: 2.96,1.28; stroke-dashoffset: 0; stroke: #b0b0b0; stroke-opacity: 0.7; stroke-width: 0.8"/>
     </g>
     <g id="line2d_2">
      <defs>
       <path id="mec9a18ca84" d="M 0 0 
L 0 6 
" style="stroke: #000000; stroke-width: 1.2"/>
      </defs>
      <g>
       <use xlink:href="#mec9a18ca84" x="57.415938" y="303.48625" style="stroke: #000000; stroke-width: 1.2"/>
      </g>
     </g>
     <g id="text_1">
      <!-- 0 -->
      <g transform="translate(54.415938 321.31875) scale(0.12 -0.12)">
       <defs>
        <path id="TimesNewRomanPSMT-30" d="M 231 2094 
Q 231 2819 450 3342 
Q 669 3866 1031 4122 
Q 1313 4325 1613 4325 
Q 2100 4325 2488 3828 
Q 2972 3213 2972 2159 
Q 2972 1422 2759 906 
Q 2547 391 2217 158 
Q 1888 -75 1581 -75 
Q 975 -75 572 641 
Q 231 1244 231 2094 
z
M 844 2016 
Q 844 1141 1059 588 
Q 1238 122 1591 122 
Q 1759 122 1940 273 
Q 2122 425 2216 781 
Q 2359 1319 2359 2297 
Q 2359 3022 2209 3506 
Q 2097 3866 1919 4016 
Q 1791 4119 1609 4119 
Q 1397 4119 1231 3928 
Q 1006 3669 925 3112 
Q 844 2556 844 2016 
z
" transform="scale(0.015625)"/>
       </defs>
       <use xlink:href="#TimesNewRomanPSMT-30"/>
      </g>
     </g>
    </g>
    <g id="xtick_2">
     <g id="line2d_3">
      <path d="M 148.205937 303.48625 
L 148.205937 38.31 
" clip-path="url(#pd23555bd49)" style="fill: none; stroke-dasharray: 2.96,1.28; stroke-dashoffset: 0; stroke: #b0b0b0; stroke-opacity: 0.7; stroke-width: 0.8"/>
     </g>
     <g id="line2d_4">
      <g>
       <use xlink:href="#mec9a18ca84" x="148.205937" y="303.48625" style="stroke: #000000; stroke-width: 1.2"/>
      </g>
     </g>
     <g id="text_2">
      <!-- 10 -->
      <g transform="translate(142.205937 321.31875) scale(0.12 -0.12)">
       <defs>
        <path id="TimesNewRomanPSMT-31" d="M 750 3822 
L 1781 4325 
L 1884 4325 
L 1884 747 
Q 1884 391 1914 303 
Q 1944 216 2037 169 
Q 2131 122 2419 116 
L 2419 0 
L 825 0 
L 825 116 
Q 1125 122 1212 167 
Q 1300 213 1334 289 
Q 1369 366 1369 747 
L 1369 3034 
Q 1369 3497 1338 3628 
Q 1316 3728 1258 3775 
Q 1200 3822 1119 3822 
Q 1003 3822 797 3725 
L 750 3822 
z
" transform="scale(0.015625)"/>
       </defs>
       <use xlink:href="#TimesNewRomanPSMT-31"/>
       <use xlink:href="#TimesNewRomanPSMT-30" transform="translate(50 0)"/>
      </g>
     </g>
    </g>
    <g id="xtick_3">
     <g id="line2d_5">
      <path d="M 238.995937 303.48625 
L 238.995937 38.31 
" clip-path="url(#pd23555bd49)" style="fill: none; stroke-dasharray: 2.96,1.28; stroke-dashoffset: 0; stroke: #b0b0b0; stroke-opacity: 0.7; stroke-width: 0.8"/>
     </g>
     <g id="line2d_6">
      <g>
       <use xlink:href="#mec9a18ca84" x="238.995937" y="303.48625" style="stroke: #000000; stroke-width: 1.2"/>
      </g>
     </g>
     <g id="text_3">
      <!-- 20 -->
      <g transform="translate(232.995937 321.31875) scale(0.12 -0.12)">
       <defs>
        <path id="TimesNewRomanPSMT-32" d="M 2934 816 
L 2638 0 
L 138 0 
L 138 116 
Q 1241 1122 1691 1759 
Q 2141 2397 2141 2925 
Q 2141 3328 1894 3587 
Q 1647 3847 1303 3847 
Q 991 3847 742 3664 
Q 494 3481 375 3128 
L 259 3128 
Q 338 3706 661 4015 
Q 984 4325 1469 4325 
Q 1984 4325 2329 3994 
Q 2675 3663 2675 3213 
Q 2675 2891 2525 2569 
Q 2294 2063 1775 1497 
Q 997 647 803 472 
L 1909 472 
Q 2247 472 2383 497 
Q 2519 522 2628 598 
Q 2738 675 2819 816 
L 2934 816 
z
" transform="scale(0.015625)"/>
       </defs>
       <use xlink:href="#TimesNewRomanPSMT-32"/>
       <use xlink:href="#TimesNewRomanPSMT-30" transform="translate(50 0)"/>
      </g>
     </g>
    </g>
    <g id="xtick_4">
     <g id="line2d_7">
      <path d="M 329.785937 303.48625 
L 329.785937 38.31 
" clip-path="url(#pd23555bd49)" style="fill: none; stroke-dasharray: 2.96,1.28; stroke-dashoffset: 0; stroke: #b0b0b0; stroke-opacity: 0.7; stroke-width: 0.8"/>
     </g>
     <g id="line2d_8">
      <g>
       <use xlink:href="#mec9a18ca84" x="329.785937" y="303.48625" style="stroke: #000000; stroke-width: 1.2"/>
      </g>
     </g>
     <g id="text_4">
      <!-- 30 -->
      <g transform="translate(323.785937 321.31875) scale(0.12 -0.12)">
       <defs>
        <path id="TimesNewRomanPSMT-33" d="M 325 3431 
Q 506 3859 782 4092 
Q 1059 4325 1472 4325 
Q 1981 4325 2253 3994 
Q 2459 3747 2459 3466 
Q 2459 3003 1878 2509 
Q 2269 2356 2469 2072 
Q 2669 1788 2669 1403 
Q 2669 853 2319 450 
Q 1863 -75 997 -75 
Q 569 -75 414 31 
Q 259 138 259 259 
Q 259 350 332 419 
Q 406 488 509 488 
Q 588 488 669 463 
Q 722 447 909 348 
Q 1097 250 1169 231 
Q 1284 197 1416 197 
Q 1734 197 1970 444 
Q 2206 691 2206 1028 
Q 2206 1275 2097 1509 
Q 2016 1684 1919 1775 
Q 1784 1900 1550 2001 
Q 1316 2103 1072 2103 
L 972 2103 
L 972 2197 
Q 1219 2228 1467 2375 
Q 1716 2522 1828 2728 
Q 1941 2934 1941 3181 
Q 1941 3503 1739 3701 
Q 1538 3900 1238 3900 
Q 753 3900 428 3381 
L 325 3431 
z
" transform="scale(0.015625)"/>
       </defs>
       <use xlink:href="#TimesNewRomanPSMT-33"/>
       <use xlink:href="#TimesNewRomanPSMT-30" transform="translate(50 0)"/>
      </g>
     </g>
    </g>
    <g id="xtick_5">
     <g id="line2d_9">
      <path d="M 420.575937 303.48625 
L 420.575937 38.31 
" clip-path="url(#pd23555bd49)" style="fill: none; stroke-dasharray: 2.96,1.28; stroke-dashoffset: 0; stroke: #b0b0b0; stroke-opacity: 0.7; stroke-width: 0.8"/>
     </g>
     <g id="line2d_10">
      <g>
       <use xlink:href="#mec9a18ca84" x="420.575937" y="303.48625" style="stroke: #000000; stroke-width: 1.2"/>
      </g>
     </g>
     <g id="text_5">
      <!-- 40 -->
      <g transform="translate(414.575937 321.31875) scale(0.12 -0.12)">
       <defs>
        <path id="TimesNewRomanPSMT-34" d="M 2978 1563 
L 2978 1119 
L 2409 1119 
L 2409 0 
L 1894 0 
L 1894 1119 
L 100 1119 
L 100 1519 
L 2066 4325 
L 2409 4325 
L 2409 1563 
L 2978 1563 
z
M 1894 1563 
L 1894 3666 
L 406 1563 
L 1894 1563 
z
" transform="scale(0.015625)"/>
       </defs>
       <use xlink:href="#TimesNewRomanPSMT-34"/>
       <use xlink:href="#TimesNewRomanPSMT-30" transform="translate(50 0)"/>
      </g>
     </g>
    </g>
    <g id="xtick_6">
     <g id="line2d_11">
      <path d="M 511.365937 303.48625 
L 511.365937 38.31 
" clip-path="url(#pd23555bd49)" style="fill: none; stroke-dasharray: 2.96,1.28; stroke-dashoffset: 0; stroke: #b0b0b0; stroke-opacity: 0.7; stroke-width: 0.8"/>
     </g>
     <g id="line2d_12">
      <g>
       <use xlink:href="#mec9a18ca84" x="511.365937" y="303.48625" style="stroke: #000000; stroke-width: 1.2"/>
      </g>
     </g>
     <g id="text_6">
      <!-- 50 -->
      <g transform="translate(505.365937 321.31875) scale(0.12 -0.12)">
       <defs>
        <path id="TimesNewRomanPSMT-35" d="M 2778 4238 
L 2534 3706 
L 1259 3706 
L 981 3138 
Q 1809 3016 2294 2522 
Q 2709 2097 2709 1522 
Q 2709 1188 2573 903 
Q 2438 619 2231 419 
Q 2025 219 1772 97 
Q 1413 -75 1034 -75 
Q 653 -75 479 54 
Q 306 184 306 341 
Q 306 428 378 495 
Q 450 563 559 563 
Q 641 563 702 538 
Q 763 513 909 409 
Q 1144 247 1384 247 
Q 1750 247 2026 523 
Q 2303 800 2303 1197 
Q 2303 1581 2056 1914 
Q 1809 2247 1375 2428 
Q 1034 2569 447 2591 
L 1259 4238 
L 2778 4238 
z
" transform="scale(0.015625)"/>
       </defs>
       <use xlink:href="#TimesNewRomanPSMT-35"/>
       <use xlink:href="#TimesNewRomanPSMT-30" transform="translate(50 0)"/>
      </g>
     </g>
    </g>
    <g id="text_7">
     <!-- Time (s) -->
     <g transform="translate(260.727656 337.606875) scale(0.14 -0.14)">
      <defs>
       <path id="TimesNewRomanPSMT-54" d="M 3703 4238 
L 3750 3244 
L 3631 3244 
Q 3597 3506 3538 3619 
Q 3441 3800 3280 3886 
Q 3119 3972 2856 3972 
L 2259 3972 
L 2259 734 
Q 2259 344 2344 247 
Q 2463 116 2709 116 
L 2856 116 
L 2856 0 
L 1059 0 
L 1059 116 
L 1209 116 
Q 1478 116 1591 278 
Q 1659 378 1659 734 
L 1659 3972 
L 1150 3972 
Q 853 3972 728 3928 
Q 566 3869 450 3700 
Q 334 3531 313 3244 
L 194 3244 
L 244 4238 
L 3703 4238 
z
" transform="scale(0.015625)"/>
       <path id="TimesNewRomanPSMT-69" d="M 928 4444 
Q 1059 4444 1151 4351 
Q 1244 4259 1244 4128 
Q 1244 3997 1151 3903 
Q 1059 3809 928 3809 
Q 797 3809 703 3903 
Q 609 3997 609 4128 
Q 609 4259 701 4351 
Q 794 4444 928 4444 
z
M 1188 2947 
L 1188 647 
Q 1188 378 1227 289 
Q 1266 200 1342 156 
Q 1419 113 1622 113 
L 1622 0 
L 231 0 
L 231 113 
Q 441 113 512 153 
Q 584 194 626 287 
Q 669 381 669 647 
L 669 1750 
Q 669 2216 641 2353 
Q 619 2453 572 2492 
Q 525 2531 444 2531 
Q 356 2531 231 2484 
L 188 2597 
L 1050 2947 
L 1188 2947 
z
" transform="scale(0.015625)"/>
       <path id="TimesNewRomanPSMT-6d" d="M 1050 2338 
Q 1363 2650 1419 2697 
Q 1559 2816 1721 2881 
Q 1884 2947 2044 2947 
Q 2313 2947 2506 2790 
Q 2700 2634 2766 2338 
Q 3088 2713 3309 2830 
Q 3531 2947 3766 2947 
Q 3994 2947 4170 2830 
Q 4347 2713 4450 2447 
Q 4519 2266 4519 1878 
L 4519 647 
Q 4519 378 4559 278 
Q 4591 209 4675 161 
Q 4759 113 4950 113 
L 4950 0 
L 3538 0 
L 3538 113 
L 3597 113 
Q 3781 113 3884 184 
Q 3956 234 3988 344 
Q 4000 397 4000 647 
L 4000 1878 
Q 4000 2228 3916 2372 
Q 3794 2572 3525 2572 
Q 3359 2572 3192 2489 
Q 3025 2406 2788 2181 
L 2781 2147 
L 2788 2013 
L 2788 647 
Q 2788 353 2820 281 
Q 2853 209 2943 161 
Q 3034 113 3253 113 
L 3253 0 
L 1806 0 
L 1806 113 
Q 2044 113 2133 169 
Q 2222 225 2256 338 
Q 2272 391 2272 647 
L 2272 1878 
Q 2272 2228 2169 2381 
Q 2031 2581 1784 2581 
Q 1616 2581 1450 2491 
Q 1191 2353 1050 2181 
L 1050 647 
Q 1050 366 1089 281 
Q 1128 197 1204 155 
Q 1281 113 1516 113 
L 1516 0 
L 100 0 
L 100 113 
Q 297 113 375 155 
Q 453 197 493 289 
Q 534 381 534 647 
L 534 1741 
Q 534 2213 506 2350 
Q 484 2453 437 2492 
Q 391 2531 309 2531 
Q 222 2531 100 2484 
L 53 2597 
L 916 2947 
L 1050 2947 
L 1050 2338 
z
" transform="scale(0.015625)"/>
       <path id="TimesNewRomanPSMT-65" d="M 681 1784 
Q 678 1147 991 784 
Q 1303 422 1725 422 
Q 2006 422 2214 576 
Q 2422 731 2563 1106 
L 2659 1044 
Q 2594 616 2278 264 
Q 1963 -88 1488 -88 
Q 972 -88 605 314 
Q 238 716 238 1394 
Q 238 2128 614 2539 
Q 991 2950 1559 2950 
Q 2041 2950 2350 2633 
Q 2659 2316 2659 1784 
L 681 1784 
z
M 681 1966 
L 2006 1966 
Q 1991 2241 1941 2353 
Q 1863 2528 1708 2628 
Q 1553 2728 1384 2728 
Q 1125 2728 920 2526 
Q 716 2325 681 1966 
z
" transform="scale(0.015625)"/>
       <path id="TimesNewRomanPSMT-20" transform="scale(0.015625)"/>
       <path id="TimesNewRomanPSMT-28" d="M 1988 -1253 
L 1988 -1369 
Q 1516 -1131 1200 -813 
Q 750 -359 506 256 
Q 263 872 263 1534 
Q 263 2503 741 3301 
Q 1219 4100 1988 4444 
L 1988 4313 
Q 1603 4100 1356 3731 
Q 1109 3363 987 2797 
Q 866 2231 866 1616 
Q 866 947 969 400 
Q 1050 -31 1165 -292 
Q 1281 -553 1476 -793 
Q 1672 -1034 1988 -1253 
z
" transform="scale(0.015625)"/>
       <path id="TimesNewRomanPSMT-73" d="M 2050 2947 
L 2050 1972 
L 1947 1972 
Q 1828 2431 1642 2597 
Q 1456 2763 1169 2763 
Q 950 2763 815 2647 
Q 681 2531 681 2391 
Q 681 2216 781 2091 
Q 878 1963 1175 1819 
L 1631 1597 
Q 2266 1288 2266 781 
Q 2266 391 1970 151 
Q 1675 -88 1309 -88 
Q 1047 -88 709 6 
Q 606 38 541 38 
Q 469 38 428 -44 
L 325 -44 
L 325 978 
L 428 978 
Q 516 541 762 319 
Q 1009 97 1316 97 
Q 1531 97 1667 223 
Q 1803 350 1803 528 
Q 1803 744 1651 891 
Q 1500 1038 1047 1263 
Q 594 1488 453 1669 
Q 313 1847 313 2119 
Q 313 2472 555 2709 
Q 797 2947 1181 2947 
Q 1350 2947 1591 2875 
Q 1750 2828 1803 2828 
Q 1853 2828 1881 2850 
Q 1909 2872 1947 2947 
L 2050 2947 
z
" transform="scale(0.015625)"/>
       <path id="TimesNewRomanPSMT-29" d="M 144 4313 
L 144 4444 
Q 619 4209 934 3891 
Q 1381 3434 1625 2820 
Q 1869 2206 1869 1541 
Q 1869 572 1392 -226 
Q 916 -1025 144 -1369 
L 144 -1253 
Q 528 -1038 776 -670 
Q 1025 -303 1145 264 
Q 1266 831 1266 1447 
Q 1266 2113 1163 2663 
Q 1084 3094 967 3353 
Q 850 3613 656 3853 
Q 463 4094 144 4313 
z
" transform="scale(0.015625)"/>
      </defs>
      <use xlink:href="#TimesNewRomanPSMT-54"/>
      <use xlink:href="#TimesNewRomanPSMT-69" transform="translate(57.583984 0)"/>
      <use xlink:href="#TimesNewRomanPSMT-6d" transform="translate(85.367188 0)"/>
      <use xlink:href="#TimesNewRomanPSMT-65" transform="translate(163.150391 0)"/>
      <use xlink:href="#TimesNewRomanPSMT-20" transform="translate(207.535156 0)"/>
      <use xlink:href="#TimesNewRomanPSMT-28" transform="translate(232.535156 0)"/>
      <use xlink:href="#TimesNewRomanPSMT-73" transform="translate(265.835938 0)"/>
      <use xlink:href="#TimesNewRomanPSMT-29" transform="translate(304.751953 0)"/>
     </g>
    </g>
   </g>
   <g id="matplotlib.axis_2">
    <g id="ytick_1">
     <g id="line2d_13">
      <path d="M 57.415938 303.48625 
L 511.365937 303.48625 
" clip-path="url(#pd23555bd49)" style="fill: none; stroke-dasharray: 2.96,1.28; stroke-dashoffset: 0; stroke: #b0b0b0; stroke-opacity: 0.7; stroke-width: 0.8"/>
     </g>
     <g id="line2d_14">
      <defs>
       <path id="m3ae713fc0b" d="M 0 0 
L -6 0 
" style="stroke: #000000; stroke-width: 1.2"/>
      </defs>
      <g>
       <use xlink:href="#m3ae713fc0b" x="57.415938" y="303.48625" style="stroke: #000000; stroke-width: 1.2"/>
      </g>
     </g>
     <g id="text_8">
      <!-- 0 -->
      <g transform="translate(41.915938 307.6525) scale(0.12 -0.12)">
       <use xlink:href="#TimesNewRomanPSMT-30"/>
      </g>
     </g>
    </g>
    <g id="ytick_2">
     <g id="line2d_15">
      <path d="M 57.415938 270.339219 
L 511.365937 270.339219 
" clip-path="url(#pd23555bd49)" style="fill: none; stroke-dasharray: 2.96,1.28; stroke-dashoffset: 0; stroke: #b0b0b0; stroke-opacity: 0.7; stroke-width: 0.8"/>
     </g>
     <g id="line2d_16">
      <g>
       <use xlink:href="#m3ae713fc0b" x="57.415938" y="270.339219" style="stroke: #000000; stroke-width: 1.2"/>
      </g>
     </g>
     <g id="text_9">
      <!-- 500 -->
      <g transform="translate(29.915938 274.505469) scale(0.12 -0.12)">
       <use xlink:href="#TimesNewRomanPSMT-35"/>
       <use xlink:href="#TimesNewRomanPSMT-30" transform="translate(50 0)"/>
       <use xlink:href="#TimesNewRomanPSMT-30" transform="translate(100 0)"/>
      </g>
     </g>
    </g>
    <g id="ytick_3">
     <g id="line2d_17">
      <path d="M 57.415938 237.192187 
L 511.365937 237.192187 
" clip-path="url(#pd23555bd49)" style="fill: none; stroke-dasharray: 2.96,1.28; stroke-dashoffset: 0; stroke: #b0b0b0; stroke-opacity: 0.7; stroke-width: 0.8"/>
     </g>
     <g id="line2d_18">
      <g>
       <use xlink:href="#m3ae713fc0b" x="57.415938" y="237.192187" style="stroke: #000000; stroke-width: 1.2"/>
      </g>
     </g>
     <g id="text_10">
      <!-- 1000 -->
      <g transform="translate(23.915938 241.358437) scale(0.12 -0.12)">
       <use xlink:href="#TimesNewRomanPSMT-31"/>
       <use xlink:href="#TimesNewRomanPSMT-30" transform="translate(50 0)"/>
       <use xlink:href="#TimesNewRomanPSMT-30" transform="translate(100 0)"/>
       <use xlink:href="#TimesNewRomanPSMT-30" transform="translate(150 0)"/>
      </g>
     </g>
    </g>
    <g id="ytick_4">
     <g id="line2d_19">
      <path d="M 57.415938 204.045156 
L 511.365937 204.045156 
" clip-path="url(#pd23555bd49)" style="fill: none; stroke-dasharray: 2.96,1.28; stroke-dashoffset: 0; stroke: #b0b0b0; stroke-opacity: 0.7; stroke-width: 0.8"/>
     </g>
     <g id="line2d_20">
      <g>
       <use xlink:href="#m3ae713fc0b" x="57.415938" y="204.045156" style="stroke: #000000; stroke-width: 1.2"/>
      </g>
     </g>
     <g id="text_11">
      <!-- 1500 -->
      <g transform="translate(23.915938 208.211406) scale(0.12 -0.12)">
       <use xlink:href="#TimesNewRomanPSMT-31"/>
       <use xlink:href="#TimesNewRomanPSMT-35" transform="translate(50 0)"/>
       <use xlink:href="#TimesNewRomanPSMT-30" transform="translate(100 0)"/>
       <use xlink:href="#TimesNewRomanPSMT-30" transform="translate(150 0)"/>
      </g>
     </g>
    </g>
    <g id="ytick_5">
     <g id="line2d_21">
      <path d="M 57.415938 170.898125 
L 511.365937 170.898125 
" clip-path="url(#pd23555bd49)" style="fill: none; stroke-dasharray: 2.96,1.28; stroke-dashoffset: 0; stroke: #b0b0b0; stroke-opacity: 0.7; stroke-width: 0.8"/>
     </g>
     <g id="line2d_22">
      <g>
       <use xlink:href="#m3ae713fc0b" x="57.415938" y="170.898125" style="stroke: #000000; stroke-width: 1.2"/>
      </g>
     </g>
     <g id="text_12">
      <!-- 2000 -->
      <g transform="translate(23.915938 175.064375) scale(0.12 -0.12)">
       <use xlink:href="#TimesNewRomanPSMT-32"/>
       <use xlink:href="#TimesNewRomanPSMT-30" transform="translate(50 0)"/>
       <use xlink:href="#TimesNewRomanPSMT-30" transform="translate(100 0)"/>
       <use xlink:href="#TimesNewRomanPSMT-30" transform="translate(150 0)"/>
      </g>
     </g>
    </g>
    <g id="ytick_6">
     <g id="line2d_23">
      <path d="M 57.415938 137.751094 
L 511.365937 137.751094 
" clip-path="url(#pd23555bd49)" style="fill: none; stroke-dasharray: 2.96,1.28; stroke-dashoffset: 0; stroke: #b0b0b0; stroke-opacity: 0.7; stroke-width: 0.8"/>
     </g>
     <g id="line2d_24">
      <g>
       <use xlink:href="#m3ae713fc0b" x="57.415938" y="137.751094" style="stroke: #000000; stroke-width: 1.2"/>
      </g>
     </g>
     <g id="text_13">
      <!-- 2500 -->
      <g transform="translate(23.915938 141.917344) scale(0.12 -0.12)">
       <use xlink:href="#TimesNewRomanPSMT-32"/>
       <use xlink:href="#TimesNewRomanPSMT-35" transform="translate(50 0)"/>
       <use xlink:href="#TimesNewRomanPSMT-30" transform="translate(100 0)"/>
       <use xlink:href="#TimesNewRomanPSMT-30" transform="translate(150 0)"/>
      </g>
     </g>
    </g>
    <g id="ytick_7">
     <g id="line2d_25">
      <path d="M 57.415938 104.604062 
L 511.365937 104.604062 
" clip-path="url(#pd23555bd49)" style="fill: none; stroke-dasharray: 2.96,1.28; stroke-dashoffset: 0; stroke: #b0b0b0; stroke-opacity: 0.7; stroke-width: 0.8"/>
     </g>
     <g id="line2d_26">
      <g>
       <use xlink:href="#m3ae713fc0b" x="57.415938" y="104.604062" style="stroke: #000000; stroke-width: 1.2"/>
      </g>
     </g>
     <g id="text_14">
      <!-- 3000 -->
      <g transform="translate(23.915938 108.770312) scale(0.12 -0.12)">
       <use xlink:href="#TimesNewRomanPSMT-33"/>
       <use xlink:href="#TimesNewRomanPSMT-30" transform="translate(50 0)"/>
       <use xlink:href="#TimesNewRomanPSMT-30" transform="translate(100 0)"/>
       <use xlink:href="#TimesNewRomanPSMT-30" transform="translate(150 0)"/>
      </g>
     </g>
    </g>
    <g id="ytick_8">
     <g id="line2d_27">
      <path d="M 57.415938 71.457031 
L 511.365937 71.457031 
" clip-path="url(#pd23555bd49)" style="fill: none; stroke-dasharray: 2.96,1.28; stroke-dashoffset: 0; stroke: #b0b0b0; stroke-opacity: 0.7; stroke-width: 0.8"/>
     </g>
     <g id="line2d_28">
      <g>
       <use xlink:href="#m3ae713fc0b" x="57.415938" y="71.457031" style="stroke: #000000; stroke-width: 1.2"/>
      </g>
     </g>
     <g id="text_15">
      <!-- 3500 -->
      <g transform="translate(23.915938 75.623281) scale(0.12 -0.12)">
       <use xlink:href="#TimesNewRomanPSMT-33"/>
       <use xlink:href="#TimesNewRomanPSMT-35" transform="translate(50 0)"/>
       <use xlink:href="#TimesNewRomanPSMT-30" transform="translate(100 0)"/>
       <use xlink:href="#TimesNewRomanPSMT-30" transform="translate(150 0)"/>
      </g>
     </g>
    </g>
    <g id="ytick_9">
     <g id="line2d_29">
      <path d="M 57.415938 38.31 
L 511.365937 38.31 
" clip-path="url(#pd23555bd49)" style="fill: none; stroke-dasharray: 2.96,1.28; stroke-dashoffset: 0; stroke: #b0b0b0; stroke-opacity: 0.7; stroke-width: 0.8"/>
     </g>
     <g id="line2d_30">
      <g>
       <use xlink:href="#m3ae713fc0b" x="57.415938" y="38.31" style="stroke: #000000; stroke-width: 1.2"/>
      </g>
     </g>
     <g id="text_16">
      <!-- 4000 -->
      <g transform="translate(23.915938 42.47625) scale(0.12 -0.12)">
       <use xlink:href="#TimesNewRomanPSMT-34"/>
       <use xlink:href="#TimesNewRomanPSMT-30" transform="translate(50 0)"/>
       <use xlink:href="#TimesNewRomanPSMT-30" transform="translate(100 0)"/>
       <use xlink:href="#TimesNewRomanPSMT-30" transform="translate(150 0)"/>
      </g>
     </g>
    </g>
    <g id="text_17">
     <!-- Power (W) -->
     <g transform="translate(16.92125 201.803125) rotate(-90) scale(0.14 -0.14)">
      <defs>
       <path id="TimesNewRomanPSMT-50" d="M 1313 1984 
L 1313 750 
Q 1313 350 1400 253 
Q 1519 116 1759 116 
L 1922 116 
L 1922 0 
L 106 0 
L 106 116 
L 266 116 
Q 534 116 650 291 
Q 713 388 713 750 
L 713 3488 
Q 713 3888 628 3984 
Q 506 4122 266 4122 
L 106 4122 
L 106 4238 
L 1659 4238 
Q 2228 4238 2556 4120 
Q 2884 4003 3109 3725 
Q 3334 3447 3334 3066 
Q 3334 2547 2992 2222 
Q 2650 1897 2025 1897 
Q 1872 1897 1694 1919 
Q 1516 1941 1313 1984 
z
M 1313 2163 
Q 1478 2131 1606 2115 
Q 1734 2100 1825 2100 
Q 2150 2100 2386 2351 
Q 2622 2603 2622 3003 
Q 2622 3278 2509 3514 
Q 2397 3750 2190 3867 
Q 1984 3984 1722 3984 
Q 1563 3984 1313 3925 
L 1313 2163 
z
" transform="scale(0.015625)"/>
       <path id="TimesNewRomanPSMT-6f" d="M 1600 2947 
Q 2250 2947 2644 2453 
Q 2978 2031 2978 1484 
Q 2978 1100 2793 706 
Q 2609 313 2286 112 
Q 1963 -88 1566 -88 
Q 919 -88 538 428 
Q 216 863 216 1403 
Q 216 1797 411 2186 
Q 606 2575 925 2761 
Q 1244 2947 1600 2947 
z
M 1503 2744 
Q 1338 2744 1170 2645 
Q 1003 2547 900 2300 
Q 797 2053 797 1666 
Q 797 1041 1045 587 
Q 1294 134 1700 134 
Q 2003 134 2200 384 
Q 2397 634 2397 1244 
Q 2397 2006 2069 2444 
Q 1847 2744 1503 2744 
z
" transform="scale(0.015625)"/>
       <path id="TimesNewRomanPSMT-77" d="M 41 2863 
L 1241 2863 
L 1241 2747 
Q 1075 2734 1023 2687 
Q 972 2641 972 2553 
Q 972 2456 1025 2319 
L 1638 672 
L 2253 2013 
L 2091 2434 
Q 2016 2622 1894 2694 
Q 1825 2738 1638 2747 
L 1638 2863 
L 3000 2863 
L 3000 2747 
Q 2775 2738 2681 2666 
Q 2619 2616 2619 2506 
Q 2619 2444 2644 2378 
L 3294 734 
L 3897 2319 
Q 3959 2488 3959 2588 
Q 3959 2647 3898 2694 
Q 3838 2741 3659 2747 
L 3659 2863 
L 4563 2863 
L 4563 2747 
Q 4291 2706 4163 2378 
L 3206 -88 
L 3078 -88 
L 2363 1741 
L 1528 -88 
L 1413 -88 
L 494 2319 
Q 403 2547 315 2626 
Q 228 2706 41 2747 
L 41 2863 
z
" transform="scale(0.015625)"/>
       <path id="TimesNewRomanPSMT-72" d="M 1038 2947 
L 1038 2303 
Q 1397 2947 1775 2947 
Q 1947 2947 2059 2842 
Q 2172 2738 2172 2600 
Q 2172 2478 2090 2393 
Q 2009 2309 1897 2309 
Q 1788 2309 1652 2417 
Q 1516 2525 1450 2525 
Q 1394 2525 1328 2463 
Q 1188 2334 1038 2041 
L 1038 669 
Q 1038 431 1097 309 
Q 1138 225 1241 169 
Q 1344 113 1538 113 
L 1538 0 
L 72 0 
L 72 113 
Q 291 113 397 181 
Q 475 231 506 341 
Q 522 394 522 644 
L 522 1753 
Q 522 2253 501 2348 
Q 481 2444 426 2487 
Q 372 2531 291 2531 
Q 194 2531 72 2484 
L 41 2597 
L 906 2947 
L 1038 2947 
z
" transform="scale(0.015625)"/>
       <path id="TimesNewRomanPSMT-57" d="M 5991 4238 
L 5991 4122 
Q 5825 4122 5722 4062 
Q 5619 4003 5525 3841 
Q 5463 3731 5328 3319 
L 4147 -97 
L 4022 -97 
L 3056 2613 
L 2097 -97 
L 1984 -97 
L 725 3422 
Q 584 3816 547 3888 
Q 484 4006 376 4064 
Q 269 4122 84 4122 
L 84 4238 
L 1653 4238 
L 1653 4122 
L 1578 4122 
Q 1413 4122 1325 4047 
Q 1238 3972 1238 3866 
Q 1238 3756 1375 3363 
L 2209 984 
L 2913 3006 
L 2788 3363 
L 2688 3647 
Q 2622 3803 2541 3922 
Q 2500 3981 2441 4022 
Q 2363 4078 2284 4103 
Q 2225 4122 2097 4122 
L 2097 4238 
L 3747 4238 
L 3747 4122 
L 3634 4122 
Q 3459 4122 3378 4047 
Q 3297 3972 3297 3844 
Q 3297 3684 3438 3288 
L 4250 984 
L 5056 3319 
Q 5194 3706 5194 3856 
Q 5194 3928 5148 3990 
Q 5103 4053 5034 4078 
Q 4916 4122 4725 4122 
L 4725 4238 
L 5991 4238 
z
" transform="scale(0.015625)"/>
      </defs>
      <use xlink:href="#TimesNewRomanPSMT-50"/>
      <use xlink:href="#TimesNewRomanPSMT-6f" transform="translate(55.615234 0)"/>
      <use xlink:href="#TimesNewRomanPSMT-77" transform="translate(105.615234 0)"/>
      <use xlink:href="#TimesNewRomanPSMT-65" transform="translate(177.832031 0)"/>
      <use xlink:href="#TimesNewRomanPSMT-72" transform="translate(222.216797 0)"/>
      <use xlink:href="#TimesNewRomanPSMT-20" transform="translate(255.517578 0)"/>
      <use xlink:href="#TimesNewRomanPSMT-28" transform="translate(280.517578 0)"/>
      <use xlink:href="#TimesNewRomanPSMT-57" transform="translate(313.818359 0)"/>
      <use xlink:href="#TimesNewRomanPSMT-29" transform="translate(408.203125 0)"/>
     </g>
    </g>
   </g>
   <g id="line2d_31">
    <path d="M 57.415938 137.751094 
L 148.205937 137.751094 
L 238.995937 121.177578 
L 375.180937 243.821594 
L 420.575937 237.192187 
L 511.365937 237.192187 
L 511.365937 237.192187 
" clip-path="url(#pd23555bd49)" style="fill: none; stroke: #1f77b4; stroke-opacity: 0.8; stroke-width: 2.5; stroke-linecap: square"/>
   </g>
   <g id="line2d_32">
    <path d="M 57.415938 237.192187 
L 149.113837 237.258482 
L 238.995937 243.821594 
L 375.180937 129.464336 
L 420.575937 137.751094 
L 511.365937 137.751094 
L 511.365937 137.751094 
" clip-path="url(#pd23555bd49)" style="fill: none; stroke: #ff7f0e; stroke-opacity: 0.8; stroke-width: 2.5; stroke-linecap: square"/>
   </g>
   <g id="line2d_33">
    <path d="M 57.415938 137.751094 
L 284.390937 137.751094 
L 329.785937 64.827625 
L 420.575937 104.604062 
L 511.365937 104.604062 
L 511.365937 104.604062 
" clip-path="url(#pd23555bd49)" style="fill: none; stroke: #2ca02c; stroke-opacity: 0.8; stroke-width: 2.5; stroke-linecap: square"/>
   </g>
   <g id="line2d_34">
    <path d="M 57.415938 104.604062 
L 148.205937 104.604062 
L 238.995937 84.715844 
L 375.180937 137.751094 
L 511.365937 137.751094 
L 511.365937 137.751094 
" clip-path="url(#pd23555bd49)" style="fill: none; stroke: #d62728; stroke-opacity: 0.8; stroke-width: 2.5; stroke-linecap: square"/>
   </g>
   <g id="line2d_35">
    <path d="M 57.415938 237.192187 
L 152.745437 237.081697 
L 284.390937 233.877484 
L 420.575937 104.604062 
L 511.365937 104.604062 
L 511.365937 104.604062 
" clip-path="url(#pd23555bd49)" style="fill: none; stroke: #9467bd; stroke-opacity: 0.8; stroke-width: 2.5; stroke-linecap: square"/>
   </g>
   <g id="line2d_36">
    <path d="M 57.415938 104.604062 
L 149.113837 104.670357 
L 284.390937 114.548172 
L 375.180937 243.821594 
L 420.575937 237.192187 
L 511.365937 237.192187 
L 511.365937 237.192187 
" clip-path="url(#pd23555bd49)" style="fill: none; stroke: #8c564b; stroke-opacity: 0.8; stroke-width: 2.5; stroke-linecap: square"/>
   </g>
   <g id="line2d_37">
    <path d="M 57.415938 137.751094 
L 511.365937 137.751094 
" clip-path="url(#pd23555bd49)" style="fill: none; stroke-dasharray: 5.55,2.4; stroke-dashoffset: 0; stroke: #0000ff; stroke-opacity: 0.6; stroke-width: 1.5"/>
   </g>
   <g id="line2d_38">
    <path d="M 57.415938 237.192187 
L 511.365937 237.192187 
" clip-path="url(#pd23555bd49)" style="fill: none; stroke-dasharray: 5.55,2.4; stroke-dashoffset: 0; stroke: #ffa500; stroke-opacity: 0.6; stroke-width: 1.5"/>
   </g>
   <g id="line2d_39">
    <path d="M 57.415938 104.604062 
L 511.365937 104.604062 
" clip-path="url(#pd23555bd49)" style="fill: none; stroke-dasharray: 5.55,2.4; stroke-dashoffset: 0; stroke: #008000; stroke-opacity: 0.6; stroke-width: 1.5"/>
   </g>
   <g id="patch_6">
    <path d="M 57.415938 303.48625 
L 57.415938 38.31 
" style="fill: none; stroke: #000000; stroke-width: 1.2; stroke-linejoin: miter; stroke-linecap: square"/>
   </g>
   <g id="patch_7">
    <path d="M 57.415938 303.48625 
L 511.365937 303.48625 
" style="fill: none; stroke: #000000; stroke-width: 1.2; stroke-linejoin: miter; stroke-linecap: square"/>
   </g>
   <g id="text_18">
    <g id="patch_8">
     <path d="M 72.872891 70.480594 
L 132.748984 70.480594 
Q 136.048984 70.480594 136.048984 67.180594 
L 136.048984 45.670781 
Q 136.048984 42.370781 132.748984 42.370781 
L 72.872891 42.370781 
Q 69.572891 42.370781 69.572891 45.670781 
L 69.572891 67.180594 
Q 69.572891 70.480594 72.872891 70.480594 
z
" style="fill: #d3d3d3; opacity: 0.5; stroke: #000000; stroke-linejoin: miter"/>
    </g>
    <!-- Pre-transition -->
    <g style="opacity: 0.8" transform="translate(72.872891 53.308906) scale(0.11 -0.11)">
     <defs>
      <path id="TimesNewRomanPSMT-2d" d="M 259 1672 
L 1875 1672 
L 1875 1200 
L 259 1200 
L 259 1672 
z
" transform="scale(0.015625)"/>
      <path id="TimesNewRomanPSMT-74" d="M 1031 3803 
L 1031 2863 
L 1700 2863 
L 1700 2644 
L 1031 2644 
L 1031 788 
Q 1031 509 1111 412 
Q 1191 316 1316 316 
Q 1419 316 1516 380 
Q 1613 444 1666 569 
L 1788 569 
Q 1678 263 1478 108 
Q 1278 -47 1066 -47 
Q 922 -47 784 33 
Q 647 113 581 261 
Q 516 409 516 719 
L 516 2644 
L 63 2644 
L 63 2747 
Q 234 2816 414 2980 
Q 594 3144 734 3369 
Q 806 3488 934 3803 
L 1031 3803 
z
" transform="scale(0.015625)"/>
      <path id="TimesNewRomanPSMT-61" d="M 1822 413 
Q 1381 72 1269 19 
Q 1100 -59 909 -59 
Q 613 -59 420 144 
Q 228 347 228 678 
Q 228 888 322 1041 
Q 450 1253 767 1440 
Q 1084 1628 1822 1897 
L 1822 2009 
Q 1822 2438 1686 2597 
Q 1550 2756 1291 2756 
Q 1094 2756 978 2650 
Q 859 2544 859 2406 
L 866 2225 
Q 866 2081 792 2003 
Q 719 1925 600 1925 
Q 484 1925 411 2006 
Q 338 2088 338 2228 
Q 338 2497 613 2722 
Q 888 2947 1384 2947 
Q 1766 2947 2009 2819 
Q 2194 2722 2281 2516 
Q 2338 2381 2338 1966 
L 2338 994 
Q 2338 584 2353 492 
Q 2369 400 2405 369 
Q 2441 338 2488 338 
Q 2538 338 2575 359 
Q 2641 400 2828 588 
L 2828 413 
Q 2478 -56 2159 -56 
Q 2006 -56 1915 50 
Q 1825 156 1822 413 
z
M 1822 616 
L 1822 1706 
Q 1350 1519 1213 1441 
Q 966 1303 859 1153 
Q 753 1003 753 825 
Q 753 600 887 451 
Q 1022 303 1197 303 
Q 1434 303 1822 616 
z
" transform="scale(0.015625)"/>
      <path id="TimesNewRomanPSMT-6e" d="M 1034 2341 
Q 1538 2947 1994 2947 
Q 2228 2947 2397 2830 
Q 2566 2713 2666 2444 
Q 2734 2256 2734 1869 
L 2734 647 
Q 2734 375 2778 278 
Q 2813 200 2889 156 
Q 2966 113 3172 113 
L 3172 0 
L 1756 0 
L 1756 113 
L 1816 113 
Q 2016 113 2095 173 
Q 2175 234 2206 353 
Q 2219 400 2219 647 
L 2219 1819 
Q 2219 2209 2117 2386 
Q 2016 2563 1775 2563 
Q 1403 2563 1034 2156 
L 1034 647 
Q 1034 356 1069 288 
Q 1113 197 1189 155 
Q 1266 113 1500 113 
L 1500 0 
L 84 0 
L 84 113 
L 147 113 
Q 366 113 442 223 
Q 519 334 519 647 
L 519 1709 
Q 519 2225 495 2337 
Q 472 2450 423 2490 
Q 375 2531 294 2531 
Q 206 2531 84 2484 
L 38 2597 
L 900 2947 
L 1034 2947 
L 1034 2341 
z
" transform="scale(0.015625)"/>
     </defs>
     <use xlink:href="#TimesNewRomanPSMT-50"/>
     <use xlink:href="#TimesNewRomanPSMT-72" transform="translate(55.615234 0)"/>
     <use xlink:href="#TimesNewRomanPSMT-65" transform="translate(88.916016 0)"/>
     <use xlink:href="#TimesNewRomanPSMT-2d" transform="translate(133.300781 0)"/>
     <use xlink:href="#TimesNewRomanPSMT-74" transform="translate(166.601562 0)"/>
     <use xlink:href="#TimesNewRomanPSMT-72" transform="translate(194.384766 0)"/>
     <use xlink:href="#TimesNewRomanPSMT-61" transform="translate(227.685547 0)"/>
     <use xlink:href="#TimesNewRomanPSMT-6e" transform="translate(272.070312 0)"/>
     <use xlink:href="#TimesNewRomanPSMT-73" transform="translate(322.070312 0)"/>
     <use xlink:href="#TimesNewRomanPSMT-69" transform="translate(360.986328 0)"/>
     <use xlink:href="#TimesNewRomanPSMT-74" transform="translate(388.769531 0)"/>
     <use xlink:href="#TimesNewRomanPSMT-69" transform="translate(416.552734 0)"/>
     <use xlink:href="#TimesNewRomanPSMT-6f" transform="translate(444.335938 0)"/>
     <use xlink:href="#TimesNewRomanPSMT-6e" transform="translate(494.335938 0)"/>
    </g>
    <!-- (0~10s) -->
    <g style="opacity: 0.8" transform="translate(85.781562 64.827625) scale(0.11 -0.11)">
     <defs>
      <path id="TimesNewRomanPSMT-7e" d="M 3256 2109 
L 3397 2109 
Q 3384 1703 3165 1473 
Q 2947 1244 2631 1244 
Q 2488 1244 2322 1292 
Q 2156 1341 1466 1622 
Q 984 1822 781 1822 
Q 563 1822 413 1687 
Q 263 1553 200 1250 
L 63 1250 
Q 81 1672 293 1895 
Q 506 2119 794 2119 
Q 931 2119 1075 2075 
Q 1400 1981 1929 1754 
Q 2459 1528 2675 1528 
Q 2909 1528 3068 1678 
Q 3228 1828 3256 2109 
z
" transform="scale(0.015625)"/>
     </defs>
     <use xlink:href="#TimesNewRomanPSMT-28"/>
     <use xlink:href="#TimesNewRomanPSMT-30" transform="translate(33.300781 0)"/>
     <use xlink:href="#TimesNewRomanPSMT-7e" transform="translate(83.300781 0)"/>
     <use xlink:href="#TimesNewRomanPSMT-31" transform="translate(137.402344 0)"/>
     <use xlink:href="#TimesNewRomanPSMT-30" transform="translate(187.402344 0)"/>
     <use xlink:href="#TimesNewRomanPSMT-73" transform="translate(237.402344 0)"/>
     <use xlink:href="#TimesNewRomanPSMT-29" transform="translate(276.318359 0)"/>
    </g>
   </g>
   <g id="text_19">
    <g id="patch_9">
     <path d="M 261.976719 70.480594 
L 306.805156 70.480594 
Q 310.105156 70.480594 310.105156 67.180594 
L 310.105156 45.670781 
Q 310.105156 42.370781 306.805156 42.370781 
L 261.976719 42.370781 
Q 258.676719 42.370781 258.676719 45.670781 
L 258.676719 67.180594 
Q 258.676719 70.480594 261.976719 70.480594 
z
" style="fill: #d3d3d3; opacity: 0.5; stroke: #000000; stroke-linejoin: miter"/>
    </g>
    <!-- Transition -->
    <g style="opacity: 0.8" transform="translate(261.976719 53.308906) scale(0.11 -0.11)">
     <use xlink:href="#TimesNewRomanPSMT-54"/>
     <use xlink:href="#TimesNewRomanPSMT-72" transform="translate(57.583984 0)"/>
     <use xlink:href="#TimesNewRomanPSMT-61" transform="translate(90.884766 0)"/>
     <use xlink:href="#TimesNewRomanPSMT-6e" transform="translate(135.269531 0)"/>
     <use xlink:href="#TimesNewRomanPSMT-73" transform="translate(185.269531 0)"/>
     <use xlink:href="#TimesNewRomanPSMT-69" transform="translate(224.185547 0)"/>
     <use xlink:href="#TimesNewRomanPSMT-74" transform="translate(251.96875 0)"/>
     <use xlink:href="#TimesNewRomanPSMT-69" transform="translate(279.751953 0)"/>
     <use xlink:href="#TimesNewRomanPSMT-6f" transform="translate(307.535156 0)"/>
     <use xlink:href="#TimesNewRomanPSMT-6e" transform="translate(357.535156 0)"/>
    </g>
    <!-- (11~40s) -->
    <g style="opacity: 0.8" transform="translate(264.817812 64.827625) scale(0.11 -0.11)">
     <use xlink:href="#TimesNewRomanPSMT-28"/>
     <use xlink:href="#TimesNewRomanPSMT-31" transform="translate(33.300781 0)"/>
     <use xlink:href="#TimesNewRomanPSMT-31" transform="translate(79.550781 0)"/>
     <use xlink:href="#TimesNewRomanPSMT-7e" transform="translate(129.550781 0)"/>
     <use xlink:href="#TimesNewRomanPSMT-34" transform="translate(183.652344 0)"/>
     <use xlink:href="#TimesNewRomanPSMT-30" transform="translate(233.652344 0)"/>
     <use xlink:href="#TimesNewRomanPSMT-73" transform="translate(283.652344 0)"/>
     <use xlink:href="#TimesNewRomanPSMT-29" transform="translate(322.568359 0)"/>
    </g>
   </g>
   <g id="text_20">
    <g id="patch_10">
     <path d="M 433.887031 70.480594 
L 498.054844 70.480594 
Q 501.354844 70.480594 501.354844 67.180594 
L 501.354844 45.670781 
Q 501.354844 42.370781 498.054844 42.370781 
L 433.887031 42.370781 
Q 430.587031 42.370781 430.587031 45.670781 
L 430.587031 67.180594 
Q 430.587031 70.480594 433.887031 70.480594 
z
" style="fill: #d3d3d3; opacity: 0.5; stroke: #000000; stroke-linejoin: miter"/>
    </g>
    <!-- Post-transition -->
    <g style="opacity: 0.8" transform="translate(433.887031 53.308906) scale(0.11 -0.11)">
     <use xlink:href="#TimesNewRomanPSMT-50"/>
     <use xlink:href="#TimesNewRomanPSMT-6f" transform="translate(55.615234 0)"/>
     <use xlink:href="#TimesNewRomanPSMT-73" transform="translate(105.615234 0)"/>
     <use xlink:href="#TimesNewRomanPSMT-74" transform="translate(144.53125 0)"/>
     <use xlink:href="#TimesNewRomanPSMT-2d" transform="translate(172.314453 0)"/>
     <use xlink:href="#TimesNewRomanPSMT-74" transform="translate(205.615234 0)"/>
     <use xlink:href="#TimesNewRomanPSMT-72" transform="translate(233.398438 0)"/>
     <use xlink:href="#TimesNewRomanPSMT-61" transform="translate(266.699219 0)"/>
     <use xlink:href="#TimesNewRomanPSMT-6e" transform="translate(311.083984 0)"/>
     <use xlink:href="#TimesNewRomanPSMT-73" transform="translate(361.083984 0)"/>
     <use xlink:href="#TimesNewRomanPSMT-69" transform="translate(400 0)"/>
     <use xlink:href="#TimesNewRomanPSMT-74" transform="translate(427.783203 0)"/>
     <use xlink:href="#TimesNewRomanPSMT-69" transform="translate(455.566406 0)"/>
     <use xlink:href="#TimesNewRomanPSMT-6f" transform="translate(483.349609 0)"/>
     <use xlink:href="#TimesNewRomanPSMT-6e" transform="translate(533.349609 0)"/>
    </g>
    <!-- (41~50s) -->
    <g style="opacity: 0.8" transform="translate(446.191562 64.827625) scale(0.11 -0.11)">
     <use xlink:href="#TimesNewRomanPSMT-28"/>
     <use xlink:href="#TimesNewRomanPSMT-34" transform="translate(33.300781 0)"/>
     <use xlink:href="#TimesNewRomanPSMT-31" transform="translate(83.300781 0)"/>
     <use xlink:href="#TimesNewRomanPSMT-7e" transform="translate(133.300781 0)"/>
     <use xlink:href="#TimesNewRomanPSMT-35" transform="translate(187.402344 0)"/>
     <use xlink:href="#TimesNewRomanPSMT-30" transform="translate(237.402344 0)"/>
     <use xlink:href="#TimesNewRomanPSMT-73" transform="translate(287.402344 0)"/>
     <use xlink:href="#TimesNewRomanPSMT-29" transform="translate(326.318359 0)"/>
    </g>
   </g>
   <g id="text_21">
    <!-- Power Switching Process of Different Modes -->
    <g transform="translate(139.443437 18.31) scale(0.16 -0.16)">
     <defs>
      <path id="TimesNewRomanPSMT-53" d="M 2934 4334 
L 2934 2869 
L 2819 2869 
Q 2763 3291 2617 3541 
Q 2472 3791 2203 3937 
Q 1934 4084 1647 4084 
Q 1322 4084 1109 3886 
Q 897 3688 897 3434 
Q 897 3241 1031 3081 
Q 1225 2847 1953 2456 
Q 2547 2138 2764 1967 
Q 2981 1797 3098 1565 
Q 3216 1334 3216 1081 
Q 3216 600 2842 251 
Q 2469 -97 1881 -97 
Q 1697 -97 1534 -69 
Q 1438 -53 1133 45 
Q 828 144 747 144 
Q 669 144 623 97 
Q 578 50 556 -97 
L 441 -97 
L 441 1356 
L 556 1356 
Q 638 900 775 673 
Q 913 447 1195 297 
Q 1478 147 1816 147 
Q 2206 147 2432 353 
Q 2659 559 2659 841 
Q 2659 997 2573 1156 
Q 2488 1316 2306 1453 
Q 2184 1547 1640 1851 
Q 1097 2156 867 2337 
Q 638 2519 519 2737 
Q 400 2956 400 3219 
Q 400 3675 750 4004 
Q 1100 4334 1641 4334 
Q 1978 4334 2356 4169 
Q 2531 4091 2603 4091 
Q 2684 4091 2736 4139 
Q 2788 4188 2819 4334 
L 2934 4334 
z
" transform="scale(0.015625)"/>
      <path id="TimesNewRomanPSMT-63" d="M 2631 1088 
Q 2516 522 2178 217 
Q 1841 -88 1431 -88 
Q 944 -88 581 321 
Q 219 731 219 1428 
Q 219 2103 620 2525 
Q 1022 2947 1584 2947 
Q 2006 2947 2278 2723 
Q 2550 2500 2550 2259 
Q 2550 2141 2473 2067 
Q 2397 1994 2259 1994 
Q 2075 1994 1981 2113 
Q 1928 2178 1911 2362 
Q 1894 2547 1784 2644 
Q 1675 2738 1481 2738 
Q 1169 2738 978 2506 
Q 725 2200 725 1697 
Q 725 1184 976 792 
Q 1228 400 1656 400 
Q 1963 400 2206 609 
Q 2378 753 2541 1131 
L 2631 1088 
z
" transform="scale(0.015625)"/>
      <path id="TimesNewRomanPSMT-68" d="M 1041 4444 
L 1041 2350 
Q 1388 2731 1591 2839 
Q 1794 2947 1997 2947 
Q 2241 2947 2416 2812 
Q 2591 2678 2675 2391 
Q 2734 2191 2734 1659 
L 2734 647 
Q 2734 375 2778 275 
Q 2809 200 2884 156 
Q 2959 113 3159 113 
L 3159 0 
L 1753 0 
L 1753 113 
L 1819 113 
Q 2019 113 2097 173 
Q 2175 234 2206 353 
Q 2216 403 2216 647 
L 2216 1659 
Q 2216 2128 2167 2275 
Q 2119 2422 2012 2495 
Q 1906 2569 1756 2569 
Q 1603 2569 1437 2487 
Q 1272 2406 1041 2159 
L 1041 647 
Q 1041 353 1073 281 
Q 1106 209 1195 161 
Q 1284 113 1503 113 
L 1503 0 
L 84 0 
L 84 113 
Q 275 113 384 172 
Q 447 203 484 290 
Q 522 378 522 647 
L 522 3238 
Q 522 3728 498 3840 
Q 475 3953 426 3993 
Q 378 4034 297 4034 
Q 231 4034 84 3984 
L 41 4094 
L 897 4444 
L 1041 4444 
z
" transform="scale(0.015625)"/>
      <path id="TimesNewRomanPSMT-67" d="M 966 1044 
Q 703 1172 562 1401 
Q 422 1631 422 1909 
Q 422 2334 742 2640 
Q 1063 2947 1563 2947 
Q 1972 2947 2272 2747 
L 2878 2747 
Q 3013 2747 3034 2739 
Q 3056 2731 3066 2713 
Q 3084 2684 3084 2613 
Q 3084 2531 3069 2500 
Q 3059 2484 3036 2475 
Q 3013 2466 2878 2466 
L 2506 2466 
Q 2681 2241 2681 1891 
Q 2681 1491 2375 1206 
Q 2069 922 1553 922 
Q 1341 922 1119 984 
Q 981 866 932 777 
Q 884 688 884 625 
Q 884 572 936 522 
Q 988 472 1138 450 
Q 1225 438 1575 428 
Q 2219 413 2409 384 
Q 2700 344 2873 169 
Q 3047 -6 3047 -263 
Q 3047 -616 2716 -925 
Q 2228 -1381 1444 -1381 
Q 841 -1381 425 -1109 
Q 191 -953 191 -784 
Q 191 -709 225 -634 
Q 278 -519 444 -313 
Q 466 -284 763 25 
Q 600 122 533 198 
Q 466 275 466 372 
Q 466 481 555 628 
Q 644 775 966 1044 
z
M 1509 2797 
Q 1278 2797 1122 2612 
Q 966 2428 966 2047 
Q 966 1553 1178 1281 
Q 1341 1075 1591 1075 
Q 1828 1075 1981 1253 
Q 2134 1431 2134 1813 
Q 2134 2309 1919 2591 
Q 1759 2797 1509 2797 
z
M 934 0 
Q 788 -159 713 -296 
Q 638 -434 638 -550 
Q 638 -700 819 -813 
Q 1131 -1006 1722 -1006 
Q 2284 -1006 2551 -807 
Q 2819 -609 2819 -384 
Q 2819 -222 2659 -153 
Q 2497 -84 2016 -72 
Q 1313 -53 934 0 
z
" transform="scale(0.015625)"/>
      <path id="TimesNewRomanPSMT-66" d="M 1319 2638 
L 1319 756 
Q 1319 356 1406 250 
Q 1522 113 1716 113 
L 1975 113 
L 1975 0 
L 266 0 
L 266 113 
L 394 113 
Q 519 113 622 175 
Q 725 238 764 344 
Q 803 450 803 756 
L 803 2638 
L 247 2638 
L 247 2863 
L 803 2863 
L 803 3050 
Q 803 3478 940 3775 
Q 1078 4072 1361 4255 
Q 1644 4438 1997 4438 
Q 2325 4438 2600 4225 
Q 2781 4084 2781 3909 
Q 2781 3816 2700 3733 
Q 2619 3650 2525 3650 
Q 2453 3650 2373 3701 
Q 2294 3753 2178 3923 
Q 2063 4094 1966 4153 
Q 1869 4213 1750 4213 
Q 1606 4213 1506 4136 
Q 1406 4059 1362 3898 
Q 1319 3738 1319 3069 
L 1319 2863 
L 2056 2863 
L 2056 2638 
L 1319 2638 
z
" transform="scale(0.015625)"/>
      <path id="TimesNewRomanPSMT-44" d="M 109 0 
L 109 116 
L 269 116 
Q 538 116 650 288 
Q 719 391 719 750 
L 719 3488 
Q 719 3884 631 3984 
Q 509 4122 269 4122 
L 109 4122 
L 109 4238 
L 1834 4238 
Q 2784 4238 3279 4022 
Q 3775 3806 4076 3303 
Q 4378 2800 4378 2141 
Q 4378 1256 3841 663 
Q 3238 0 2003 0 
L 109 0 
z
M 1319 306 
Q 1716 219 1984 219 
Q 2709 219 3187 728 
Q 3666 1238 3666 2109 
Q 3666 2988 3187 3494 
Q 2709 4000 1959 4000 
Q 1678 4000 1319 3909 
L 1319 306 
z
" transform="scale(0.015625)"/>
      <path id="TimesNewRomanPSMT-4d" d="M 2619 0 
L 981 3566 
L 981 734 
Q 981 344 1066 247 
Q 1181 116 1431 116 
L 1581 116 
L 1581 0 
L 106 0 
L 106 116 
L 256 116 
Q 525 116 638 278 
Q 706 378 706 734 
L 706 3503 
Q 706 3784 644 3909 
Q 600 4000 483 4061 
Q 366 4122 106 4122 
L 106 4238 
L 1306 4238 
L 2844 922 
L 4356 4238 
L 5556 4238 
L 5556 4122 
L 5409 4122 
Q 5138 4122 5025 3959 
Q 4956 3859 4956 3503 
L 4956 734 
Q 4956 344 5044 247 
Q 5159 116 5409 116 
L 5556 116 
L 5556 0 
L 3756 0 
L 3756 116 
L 3906 116 
Q 4178 116 4288 278 
Q 4356 378 4356 734 
L 4356 3566 
L 2722 0 
L 2619 0 
z
" transform="scale(0.015625)"/>
      <path id="TimesNewRomanPSMT-64" d="M 2222 322 
Q 2013 103 1813 7 
Q 1613 -88 1381 -88 
Q 913 -88 563 304 
Q 213 697 213 1313 
Q 213 1928 600 2439 
Q 988 2950 1597 2950 
Q 1975 2950 2222 2709 
L 2222 3238 
Q 2222 3728 2198 3840 
Q 2175 3953 2125 3993 
Q 2075 4034 2000 4034 
Q 1919 4034 1784 3984 
L 1744 4094 
L 2597 4444 
L 2738 4444 
L 2738 1134 
Q 2738 631 2761 520 
Q 2784 409 2836 365 
Q 2888 322 2956 322 
Q 3041 322 3181 375 
L 3216 266 
L 2366 -88 
L 2222 -88 
L 2222 322 
z
M 2222 541 
L 2222 2016 
Q 2203 2228 2109 2403 
Q 2016 2578 1861 2667 
Q 1706 2756 1559 2756 
Q 1284 2756 1069 2509 
Q 784 2184 784 1559 
Q 784 928 1059 592 
Q 1334 256 1672 256 
Q 1956 256 2222 541 
z
" transform="scale(0.015625)"/>
     </defs>
     <use xlink:href="#TimesNewRomanPSMT-50"/>
     <use xlink:href="#TimesNewRomanPSMT-6f" transform="translate(55.615234 0)"/>
     <use xlink:href="#TimesNewRomanPSMT-77" transform="translate(105.615234 0)"/>
     <use xlink:href="#TimesNewRomanPSMT-65" transform="translate(177.832031 0)"/>
     <use xlink:href="#TimesNewRomanPSMT-72" transform="translate(222.216797 0)"/>
     <use xlink:href="#TimesNewRomanPSMT-20" transform="translate(255.517578 0)"/>
     <use xlink:href="#TimesNewRomanPSMT-53" transform="translate(280.517578 0)"/>
     <use xlink:href="#TimesNewRomanPSMT-77" transform="translate(336.132812 0)"/>
     <use xlink:href="#TimesNewRomanPSMT-69" transform="translate(408.349609 0)"/>
     <use xlink:href="#TimesNewRomanPSMT-74" transform="translate(436.132812 0)"/>
     <use xlink:href="#TimesNewRomanPSMT-63" transform="translate(463.916016 0)"/>
     <use xlink:href="#TimesNewRomanPSMT-68" transform="translate(508.300781 0)"/>
     <use xlink:href="#TimesNewRomanPSMT-69" transform="translate(558.300781 0)"/>
     <use xlink:href="#TimesNewRomanPSMT-6e" transform="translate(586.083984 0)"/>
     <use xlink:href="#TimesNewRomanPSMT-67" transform="translate(636.083984 0)"/>
     <use xlink:href="#TimesNewRomanPSMT-20" transform="translate(686.083984 0)"/>
     <use xlink:href="#TimesNewRomanPSMT-50" transform="translate(711.083984 0)"/>
     <use xlink:href="#TimesNewRomanPSMT-72" transform="translate(766.699219 0)"/>
     <use xlink:href="#TimesNewRomanPSMT-6f" transform="translate(800 0)"/>
     <use xlink:href="#TimesNewRomanPSMT-63" transform="translate(850 0)"/>
     <use xlink:href="#TimesNewRomanPSMT-65" transform="translate(894.384766 0)"/>
     <use xlink:href="#TimesNewRomanPSMT-73" transform="translate(938.769531 0)"/>
     <use xlink:href="#TimesNewRomanPSMT-73" transform="translate(977.685547 0)"/>
     <use xlink:href="#TimesNewRomanPSMT-20" transform="translate(1016.601562 0)"/>
     <use xlink:href="#TimesNewRomanPSMT-6f" transform="translate(1041.601562 0)"/>
     <use xlink:href="#TimesNewRomanPSMT-66" transform="translate(1091.601562 0)"/>
     <use xlink:href="#TimesNewRomanPSMT-20" transform="translate(1124.902344 0)"/>
     <use xlink:href="#TimesNewRomanPSMT-44" transform="translate(1149.902344 0)"/>
     <use xlink:href="#TimesNewRomanPSMT-69" transform="translate(1222.119141 0)"/>
     <use xlink:href="#TimesNewRomanPSMT-66" transform="translate(1249.902344 0)"/>
     <use xlink:href="#TimesNewRomanPSMT-66" transform="translate(1281.453125 0)"/>
     <use xlink:href="#TimesNewRomanPSMT-65" transform="translate(1314.753906 0)"/>
     <use xlink:href="#TimesNewRomanPSMT-72" transform="translate(1359.138672 0)"/>
     <use xlink:href="#TimesNewRomanPSMT-65" transform="translate(1392.439453 0)"/>
     <use xlink:href="#TimesNewRomanPSMT-6e" transform="translate(1436.824219 0)"/>
     <use xlink:href="#TimesNewRomanPSMT-74" transform="translate(1486.824219 0)"/>
     <use xlink:href="#TimesNewRomanPSMT-20" transform="translate(1514.607422 0)"/>
     <use xlink:href="#TimesNewRomanPSMT-4d" transform="translate(1539.607422 0)"/>
     <use xlink:href="#TimesNewRomanPSMT-6f" transform="translate(1628.523438 0)"/>
     <use xlink:href="#TimesNewRomanPSMT-64" transform="translate(1678.523438 0)"/>
     <use xlink:href="#TimesNewRomanPSMT-65" transform="translate(1728.523438 0)"/>
     <use xlink:href="#TimesNewRomanPSMT-73" transform="translate(1772.908203 0)"/>
    </g>
   </g>
   <g id="legend_1">
    <g id="patch_11">
     <path d="M 543.763437 235.745625 
L 704.196719 235.745625 
Q 706.396719 235.745625 706.396719 233.545625 
L 706.396719 48.01 
Q 706.396719 45.81 704.196719 45.81 
L 543.763437 45.81 
Q 541.563437 45.81 541.563437 48.01 
L 541.563437 233.545625 
Q 541.563437 235.745625 543.763437 235.745625 
z
" style="fill: #4d4d4d; opacity: 0.5; stroke: #4d4d4d; stroke-linejoin: miter"/>
    </g>
    <g id="patch_12">
     <path d="M 541.763437 233.745625 
L 702.196719 233.745625 
Q 704.396719 233.745625 704.396719 231.545625 
L 704.396719 46.01 
Q 704.396719 43.81 702.196719 43.81 
L 541.763437 43.81 
Q 539.563437 43.81 539.563437 46.01 
L 539.563437 231.545625 
Q 539.563437 233.745625 541.763437 233.745625 
z
" style="fill: #ffffff; opacity: 0.9; stroke: #cccccc; stroke-linejoin: miter"/>
    </g>
    <g id="line2d_40">
     <path d="M 543.963437 52.06 
L 554.963437 52.06 
L 565.963437 52.06 
" style="fill: none; stroke: #1f77b4; stroke-opacity: 0.8; stroke-width: 2.5; stroke-linecap: square"/>
    </g>
    <g id="text_22">
     <!-- Air to Surface -->
     <g transform="translate(574.763437 55.91) scale(0.11 -0.11)">
      <defs>
       <path id="TimesNewRomanPSMT-41" d="M 2928 1419 
L 1288 1419 
L 1000 750 
Q 894 503 894 381 
Q 894 284 986 211 
Q 1078 138 1384 116 
L 1384 0 
L 50 0 
L 50 116 
Q 316 163 394 238 
Q 553 388 747 847 
L 2238 4334 
L 2347 4334 
L 3822 809 
Q 4000 384 4145 257 
Q 4291 131 4550 116 
L 4550 0 
L 2878 0 
L 2878 116 
Q 3131 128 3220 200 
Q 3309 272 3309 375 
Q 3309 513 3184 809 
L 2928 1419 
z
M 2841 1650 
L 2122 3363 
L 1384 1650 
L 2841 1650 
z
" transform="scale(0.015625)"/>
       <path id="TimesNewRomanPSMT-75" d="M 2709 2863 
L 2709 1128 
Q 2709 631 2732 520 
Q 2756 409 2807 365 
Q 2859 322 2928 322 
Q 3025 322 3147 375 
L 3191 266 
L 2334 -88 
L 2194 -88 
L 2194 519 
Q 1825 119 1631 15 
Q 1438 -88 1222 -88 
Q 981 -88 804 51 
Q 628 191 559 409 
Q 491 628 491 1028 
L 491 2306 
Q 491 2509 447 2587 
Q 403 2666 317 2708 
Q 231 2750 6 2747 
L 6 2863 
L 1009 2863 
L 1009 947 
Q 1009 547 1148 422 
Q 1288 297 1484 297 
Q 1619 297 1789 381 
Q 1959 466 2194 703 
L 2194 2325 
Q 2194 2569 2105 2655 
Q 2016 2741 1734 2747 
L 1734 2863 
L 2709 2863 
z
" transform="scale(0.015625)"/>
      </defs>
      <use xlink:href="#TimesNewRomanPSMT-41"/>
      <use xlink:href="#TimesNewRomanPSMT-69" transform="translate(72.216797 0)"/>
      <use xlink:href="#TimesNewRomanPSMT-72" transform="translate(100 0)"/>
      <use xlink:href="#TimesNewRomanPSMT-20" transform="translate(133.300781 0)"/>
      <use xlink:href="#TimesNewRomanPSMT-74" transform="translate(158.300781 0)"/>
      <use xlink:href="#TimesNewRomanPSMT-6f" transform="translate(186.083984 0)"/>
      <use xlink:href="#TimesNewRomanPSMT-20" transform="translate(236.083984 0)"/>
      <use xlink:href="#TimesNewRomanPSMT-53" transform="translate(261.083984 0)"/>
      <use xlink:href="#TimesNewRomanPSMT-75" transform="translate(316.699219 0)"/>
      <use xlink:href="#TimesNewRomanPSMT-72" transform="translate(366.699219 0)"/>
      <use xlink:href="#TimesNewRomanPSMT-66" transform="translate(400 0)"/>
      <use xlink:href="#TimesNewRomanPSMT-61" transform="translate(433.300781 0)"/>
      <use xlink:href="#TimesNewRomanPSMT-63" transform="translate(477.685547 0)"/>
      <use xlink:href="#TimesNewRomanPSMT-65" transform="translate(522.070312 0)"/>
     </g>
    </g>
    <g id="line2d_41">
     <path d="M 543.963437 67.612969 
L 554.963437 67.612969 
L 565.963437 67.612969 
" style="fill: none; stroke: #ff7f0e; stroke-opacity: 0.8; stroke-width: 2.5; stroke-linecap: square"/>
    </g>
    <g id="text_23">
     <!-- Surface to Air -->
     <g transform="translate(574.763437 71.462969) scale(0.11 -0.11)">
      <use xlink:href="#TimesNewRomanPSMT-53"/>
      <use xlink:href="#TimesNewRomanPSMT-75" transform="translate(55.615234 0)"/>
      <use xlink:href="#TimesNewRomanPSMT-72" transform="translate(105.615234 0)"/>
      <use xlink:href="#TimesNewRomanPSMT-66" transform="translate(138.916016 0)"/>
      <use xlink:href="#TimesNewRomanPSMT-61" transform="translate(172.216797 0)"/>
      <use xlink:href="#TimesNewRomanPSMT-63" transform="translate(216.601562 0)"/>
      <use xlink:href="#TimesNewRomanPSMT-65" transform="translate(260.986328 0)"/>
      <use xlink:href="#TimesNewRomanPSMT-20" transform="translate(305.371094 0)"/>
      <use xlink:href="#TimesNewRomanPSMT-74" transform="translate(330.371094 0)"/>
      <use xlink:href="#TimesNewRomanPSMT-6f" transform="translate(358.154297 0)"/>
      <use xlink:href="#TimesNewRomanPSMT-20" transform="translate(408.154297 0)"/>
      <use xlink:href="#TimesNewRomanPSMT-41" transform="translate(427.654297 0)"/>
      <use xlink:href="#TimesNewRomanPSMT-69" transform="translate(499.871094 0)"/>
      <use xlink:href="#TimesNewRomanPSMT-72" transform="translate(527.654297 0)"/>
     </g>
    </g>
    <g id="line2d_42">
     <path d="M 543.963437 83.165937 
L 554.963437 83.165937 
L 565.963437 83.165937 
" style="fill: none; stroke: #2ca02c; stroke-opacity: 0.8; stroke-width: 2.5; stroke-linecap: square"/>
    </g>
    <g id="text_24">
     <!-- Air to Underwater -->
     <g transform="translate(574.763437 87.015937) scale(0.11 -0.11)">
      <defs>
       <path id="TimesNewRomanPSMT-55" d="M 3053 4122 
L 3053 4238 
L 4553 4238 
L 4553 4122 
L 4394 4122 
Q 4144 4122 4009 3913 
Q 3944 3816 3944 3463 
L 3944 1744 
Q 3944 1106 3817 754 
Q 3691 403 3320 151 
Q 2950 -100 2313 -100 
Q 1619 -100 1259 140 
Q 900 381 750 788 
Q 650 1066 650 1831 
L 650 3488 
Q 650 3878 542 4000 
Q 434 4122 194 4122 
L 34 4122 
L 34 4238 
L 1866 4238 
L 1866 4122 
L 1703 4122 
Q 1441 4122 1328 3956 
Q 1250 3844 1250 3488 
L 1250 1641 
Q 1250 1394 1295 1075 
Q 1341 756 1459 578 
Q 1578 400 1801 284 
Q 2025 169 2350 169 
Q 2766 169 3094 350 
Q 3422 531 3542 814 
Q 3663 1097 3663 1772 
L 3663 3488 
Q 3663 3884 3575 3984 
Q 3453 4122 3213 4122 
L 3053 4122 
z
" transform="scale(0.015625)"/>
      </defs>
      <use xlink:href="#TimesNewRomanPSMT-41"/>
      <use xlink:href="#TimesNewRomanPSMT-69" transform="translate(72.216797 0)"/>
      <use xlink:href="#TimesNewRomanPSMT-72" transform="translate(100 0)"/>
      <use xlink:href="#TimesNewRomanPSMT-20" transform="translate(133.300781 0)"/>
      <use xlink:href="#TimesNewRomanPSMT-74" transform="translate(158.300781 0)"/>
      <use xlink:href="#TimesNewRomanPSMT-6f" transform="translate(186.083984 0)"/>
      <use xlink:href="#TimesNewRomanPSMT-20" transform="translate(236.083984 0)"/>
      <use xlink:href="#TimesNewRomanPSMT-55" transform="translate(261.083984 0)"/>
      <use xlink:href="#TimesNewRomanPSMT-6e" transform="translate(333.300781 0)"/>
      <use xlink:href="#TimesNewRomanPSMT-64" transform="translate(383.300781 0)"/>
      <use xlink:href="#TimesNewRomanPSMT-65" transform="translate(433.300781 0)"/>
      <use xlink:href="#TimesNewRomanPSMT-72" transform="translate(477.685547 0)"/>
      <use xlink:href="#TimesNewRomanPSMT-77" transform="translate(510.986328 0)"/>
      <use xlink:href="#TimesNewRomanPSMT-61" transform="translate(583.203125 0)"/>
      <use xlink:href="#TimesNewRomanPSMT-74" transform="translate(627.587891 0)"/>
      <use xlink:href="#TimesNewRomanPSMT-65" transform="translate(655.371094 0)"/>
      <use xlink:href="#TimesNewRomanPSMT-72" transform="translate(699.755859 0)"/>
     </g>
    </g>
    <g id="line2d_43">
     <path d="M 543.963437 98.718906 
L 554.963437 98.718906 
L 565.963437 98.718906 
" style="fill: none; stroke: #d62728; stroke-opacity: 0.8; stroke-width: 2.5; stroke-linecap: square"/>
    </g>
    <g id="text_25">
     <!-- Underwater to Air -->
     <g transform="translate(574.763437 102.568906) scale(0.11 -0.11)">
      <use xlink:href="#TimesNewRomanPSMT-55"/>
      <use xlink:href="#TimesNewRomanPSMT-6e" transform="translate(72.216797 0)"/>
      <use xlink:href="#TimesNewRomanPSMT-64" transform="translate(122.216797 0)"/>
      <use xlink:href="#TimesNewRomanPSMT-65" transform="translate(172.216797 0)"/>
      <use xlink:href="#TimesNewRomanPSMT-72" transform="translate(216.601562 0)"/>
      <use xlink:href="#TimesNewRomanPSMT-77" transform="translate(249.902344 0)"/>
      <use xlink:href="#TimesNewRomanPSMT-61" transform="translate(322.119141 0)"/>
      <use xlink:href="#TimesNewRomanPSMT-74" transform="translate(366.503906 0)"/>
      <use xlink:href="#TimesNewRomanPSMT-65" transform="translate(394.287109 0)"/>
      <use xlink:href="#TimesNewRomanPSMT-72" transform="translate(438.671875 0)"/>
      <use xlink:href="#TimesNewRomanPSMT-20" transform="translate(471.972656 0)"/>
      <use xlink:href="#TimesNewRomanPSMT-74" transform="translate(496.972656 0)"/>
      <use xlink:href="#TimesNewRomanPSMT-6f" transform="translate(524.755859 0)"/>
      <use xlink:href="#TimesNewRomanPSMT-20" transform="translate(574.755859 0)"/>
      <use xlink:href="#TimesNewRomanPSMT-41" transform="translate(594.255859 0)"/>
      <use xlink:href="#TimesNewRomanPSMT-69" transform="translate(666.472656 0)"/>
      <use xlink:href="#TimesNewRomanPSMT-72" transform="translate(694.255859 0)"/>
     </g>
    </g>
    <g id="line2d_44">
     <path d="M 543.963437 114.271875 
L 554.963437 114.271875 
L 565.963437 114.271875 
" style="fill: none; stroke: #9467bd; stroke-opacity: 0.8; stroke-width: 2.5; stroke-linecap: square"/>
    </g>
    <g id="text_26">
     <!-- Surface to Underwater -->
     <g transform="translate(574.763437 118.121875) scale(0.11 -0.11)">
      <use xlink:href="#TimesNewRomanPSMT-53"/>
      <use xlink:href="#TimesNewRomanPSMT-75" transform="translate(55.615234 0)"/>
      <use xlink:href="#TimesNewRomanPSMT-72" transform="translate(105.615234 0)"/>
      <use xlink:href="#TimesNewRomanPSMT-66" transform="translate(138.916016 0)"/>
      <use xlink:href="#TimesNewRomanPSMT-61" transform="translate(172.216797 0)"/>
      <use xlink:href="#TimesNewRomanPSMT-63" transform="translate(216.601562 0)"/>
      <use xlink:href="#TimesNewRomanPSMT-65" transform="translate(260.986328 0)"/>
      <use xlink:href="#TimesNewRomanPSMT-20" transform="translate(305.371094 0)"/>
      <use xlink:href="#TimesNewRomanPSMT-74" transform="translate(330.371094 0)"/>
      <use xlink:href="#TimesNewRomanPSMT-6f" transform="translate(358.154297 0)"/>
      <use xlink:href="#TimesNewRomanPSMT-20" transform="translate(408.154297 0)"/>
      <use xlink:href="#TimesNewRomanPSMT-55" transform="translate(433.154297 0)"/>
      <use xlink:href="#TimesNewRomanPSMT-6e" transform="translate(505.371094 0)"/>
      <use xlink:href="#TimesNewRomanPSMT-64" transform="translate(555.371094 0)"/>
      <use xlink:href="#TimesNewRomanPSMT-65" transform="translate(605.371094 0)"/>
      <use xlink:href="#TimesNewRomanPSMT-72" transform="translate(649.755859 0)"/>
      <use xlink:href="#TimesNewRomanPSMT-77" transform="translate(683.056641 0)"/>
      <use xlink:href="#TimesNewRomanPSMT-61" transform="translate(755.273438 0)"/>
      <use xlink:href="#TimesNewRomanPSMT-74" transform="translate(799.658203 0)"/>
      <use xlink:href="#TimesNewRomanPSMT-65" transform="translate(827.441406 0)"/>
      <use xlink:href="#TimesNewRomanPSMT-72" transform="translate(871.826172 0)"/>
     </g>
    </g>
    <g id="line2d_45">
     <path d="M 543.963437 129.824844 
L 554.963437 129.824844 
L 565.963437 129.824844 
" style="fill: none; stroke: #8c564b; stroke-opacity: 0.8; stroke-width: 2.5; stroke-linecap: square"/>
    </g>
    <g id="text_27">
     <!-- Underwater to Surface -->
     <g transform="translate(574.763437 133.674844) scale(0.11 -0.11)">
      <use xlink:href="#TimesNewRomanPSMT-55"/>
      <use xlink:href="#TimesNewRomanPSMT-6e" transform="translate(72.216797 0)"/>
      <use xlink:href="#TimesNewRomanPSMT-64" transform="translate(122.216797 0)"/>
      <use xlink:href="#TimesNewRomanPSMT-65" transform="translate(172.216797 0)"/>
      <use xlink:href="#TimesNewRomanPSMT-72" transform="translate(216.601562 0)"/>
      <use xlink:href="#TimesNewRomanPSMT-77" transform="translate(249.902344 0)"/>
      <use xlink:href="#TimesNewRomanPSMT-61" transform="translate(322.119141 0)"/>
      <use xlink:href="#TimesNewRomanPSMT-74" transform="translate(366.503906 0)"/>
      <use xlink:href="#TimesNewRomanPSMT-65" transform="translate(394.287109 0)"/>
      <use xlink:href="#TimesNewRomanPSMT-72" transform="translate(438.671875 0)"/>
      <use xlink:href="#TimesNewRomanPSMT-20" transform="translate(471.972656 0)"/>
      <use xlink:href="#TimesNewRomanPSMT-74" transform="translate(496.972656 0)"/>
      <use xlink:href="#TimesNewRomanPSMT-6f" transform="translate(524.755859 0)"/>
      <use xlink:href="#TimesNewRomanPSMT-20" transform="translate(574.755859 0)"/>
      <use xlink:href="#TimesNewRomanPSMT-53" transform="translate(599.755859 0)"/>
      <use xlink:href="#TimesNewRomanPSMT-75" transform="translate(655.371094 0)"/>
      <use xlink:href="#TimesNewRomanPSMT-72" transform="translate(705.371094 0)"/>
      <use xlink:href="#TimesNewRomanPSMT-66" transform="translate(738.671875 0)"/>
      <use xlink:href="#TimesNewRomanPSMT-61" transform="translate(771.972656 0)"/>
      <use xlink:href="#TimesNewRomanPSMT-63" transform="translate(816.357422 0)"/>
      <use xlink:href="#TimesNewRomanPSMT-65" transform="translate(860.742188 0)"/>
     </g>
    </g>
    <g id="patch_13">
     <path d="M 543.963437 149.227812 
L 565.963437 149.227812 
L 565.963437 141.527812 
L 543.963437 141.527812 
z
" style="fill: #808080; opacity: 0.1; stroke: #808080; stroke-linejoin: miter"/>
    </g>
    <g id="text_28">
     <!-- Pre-transition -->
     <g transform="translate(574.763437 149.227812) scale(0.11 -0.11)">
      <use xlink:href="#TimesNewRomanPSMT-50"/>
      <use xlink:href="#TimesNewRomanPSMT-72" transform="translate(55.615234 0)"/>
      <use xlink:href="#TimesNewRomanPSMT-65" transform="translate(88.916016 0)"/>
      <use xlink:href="#TimesNewRomanPSMT-2d" transform="translate(133.300781 0)"/>
      <use xlink:href="#TimesNewRomanPSMT-74" transform="translate(166.601562 0)"/>
      <use xlink:href="#TimesNewRomanPSMT-72" transform="translate(194.384766 0)"/>
      <use xlink:href="#TimesNewRomanPSMT-61" transform="translate(227.685547 0)"/>
      <use xlink:href="#TimesNewRomanPSMT-6e" transform="translate(272.070312 0)"/>
      <use xlink:href="#TimesNewRomanPSMT-73" transform="translate(322.070312 0)"/>
      <use xlink:href="#TimesNewRomanPSMT-69" transform="translate(360.986328 0)"/>
      <use xlink:href="#TimesNewRomanPSMT-74" transform="translate(388.769531 0)"/>
      <use xlink:href="#TimesNewRomanPSMT-69" transform="translate(416.552734 0)"/>
      <use xlink:href="#TimesNewRomanPSMT-6f" transform="translate(444.335938 0)"/>
      <use xlink:href="#TimesNewRomanPSMT-6e" transform="translate(494.335938 0)"/>
     </g>
    </g>
    <g id="patch_14">
     <path d="M 543.963437 164.780781 
L 565.963437 164.780781 
L 565.963437 157.080781 
L 543.963437 157.080781 
z
" style="fill: #ffff00; opacity: 0.2; stroke: #ffff00; stroke-linejoin: miter"/>
    </g>
    <g id="text_29">
     <!-- Transition -->
     <g transform="translate(574.763437 164.780781) scale(0.11 -0.11)">
      <use xlink:href="#TimesNewRomanPSMT-54"/>
      <use xlink:href="#TimesNewRomanPSMT-72" transform="translate(57.583984 0)"/>
      <use xlink:href="#TimesNewRomanPSMT-61" transform="translate(90.884766 0)"/>
      <use xlink:href="#TimesNewRomanPSMT-6e" transform="translate(135.269531 0)"/>
      <use xlink:href="#TimesNewRomanPSMT-73" transform="translate(185.269531 0)"/>
      <use xlink:href="#TimesNewRomanPSMT-69" transform="translate(224.185547 0)"/>
      <use xlink:href="#TimesNewRomanPSMT-74" transform="translate(251.96875 0)"/>
      <use xlink:href="#TimesNewRomanPSMT-69" transform="translate(279.751953 0)"/>
      <use xlink:href="#TimesNewRomanPSMT-6f" transform="translate(307.535156 0)"/>
      <use xlink:href="#TimesNewRomanPSMT-6e" transform="translate(357.535156 0)"/>
     </g>
    </g>
    <g id="patch_15">
     <path d="M 543.963437 180.33375 
L 565.963437 180.33375 
L 565.963437 172.63375 
L 543.963437 172.63375 
z
" style="fill: #008000; opacity: 0.1; stroke: #008000; stroke-linejoin: miter"/>
    </g>
    <g id="text_30">
     <!-- Post-transition -->
     <g transform="translate(574.763437 180.33375) scale(0.11 -0.11)">
      <use xlink:href="#TimesNewRomanPSMT-50"/>
      <use xlink:href="#TimesNewRomanPSMT-6f" transform="translate(55.615234 0)"/>
      <use xlink:href="#TimesNewRomanPSMT-73" transform="translate(105.615234 0)"/>
      <use xlink:href="#TimesNewRomanPSMT-74" transform="translate(144.53125 0)"/>
      <use xlink:href="#TimesNewRomanPSMT-2d" transform="translate(172.314453 0)"/>
      <use xlink:href="#TimesNewRomanPSMT-74" transform="translate(205.615234 0)"/>
      <use xlink:href="#TimesNewRomanPSMT-72" transform="translate(233.398438 0)"/>
      <use xlink:href="#TimesNewRomanPSMT-61" transform="translate(266.699219 0)"/>
      <use xlink:href="#TimesNewRomanPSMT-6e" transform="translate(311.083984 0)"/>
      <use xlink:href="#TimesNewRomanPSMT-73" transform="translate(361.083984 0)"/>
      <use xlink:href="#TimesNewRomanPSMT-69" transform="translate(400 0)"/>
      <use xlink:href="#TimesNewRomanPSMT-74" transform="translate(427.783203 0)"/>
      <use xlink:href="#TimesNewRomanPSMT-69" transform="translate(455.566406 0)"/>
      <use xlink:href="#TimesNewRomanPSMT-6f" transform="translate(483.349609 0)"/>
      <use xlink:href="#TimesNewRomanPSMT-6e" transform="translate(533.349609 0)"/>
     </g>
    </g>
    <g id="line2d_46">
     <path d="M 543.963437 192.036719 
L 554.963437 192.036719 
L 565.963437 192.036719 
" style="fill: none; stroke-dasharray: 5.55,2.4; stroke-dashoffset: 0; stroke: #0000ff; stroke-opacity: 0.6; stroke-width: 1.5"/>
    </g>
    <g id="text_31">
     <!-- Air Power (2500W) -->
     <g transform="translate(574.763437 195.886719) scale(0.11 -0.11)">
      <use xlink:href="#TimesNewRomanPSMT-41"/>
      <use xlink:href="#TimesNewRomanPSMT-69" transform="translate(72.216797 0)"/>
      <use xlink:href="#TimesNewRomanPSMT-72" transform="translate(100 0)"/>
      <use xlink:href="#TimesNewRomanPSMT-20" transform="translate(133.300781 0)"/>
      <use xlink:href="#TimesNewRomanPSMT-50" transform="translate(158.300781 0)"/>
      <use xlink:href="#TimesNewRomanPSMT-6f" transform="translate(213.916016 0)"/>
      <use xlink:href="#TimesNewRomanPSMT-77" transform="translate(263.916016 0)"/>
      <use xlink:href="#TimesNewRomanPSMT-65" transform="translate(336.132812 0)"/>
      <use xlink:href="#TimesNewRomanPSMT-72" transform="translate(380.517578 0)"/>
      <use xlink:href="#TimesNewRomanPSMT-20" transform="translate(413.818359 0)"/>
      <use xlink:href="#TimesNewRomanPSMT-28" transform="translate(438.818359 0)"/>
      <use xlink:href="#TimesNewRomanPSMT-32" transform="translate(472.119141 0)"/>
      <use xlink:href="#TimesNewRomanPSMT-35" transform="translate(522.119141 0)"/>
      <use xlink:href="#TimesNewRomanPSMT-30" transform="translate(572.119141 0)"/>
      <use xlink:href="#TimesNewRomanPSMT-30" transform="translate(622.119141 0)"/>
      <use xlink:href="#TimesNewRomanPSMT-57" transform="translate(672.119141 0)"/>
      <use xlink:href="#TimesNewRomanPSMT-29" transform="translate(766.503906 0)"/>
     </g>
    </g>
    <g id="line2d_47">
     <path d="M 543.963437 207.589687 
L 554.963437 207.589687 
L 565.963437 207.589687 
" style="fill: none; stroke-dasharray: 5.55,2.4; stroke-dashoffset: 0; stroke: #ffa500; stroke-opacity: 0.6; stroke-width: 1.5"/>
    </g>
    <g id="text_32">
     <!-- Surface Power (1000W) -->
     <g transform="translate(574.763437 211.439687) scale(0.11 -0.11)">
      <use xlink:href="#TimesNewRomanPSMT-53"/>
      <use xlink:href="#TimesNewRomanPSMT-75" transform="translate(55.615234 0)"/>
      <use xlink:href="#TimesNewRomanPSMT-72" transform="translate(105.615234 0)"/>
      <use xlink:href="#TimesNewRomanPSMT-66" transform="translate(138.916016 0)"/>
      <use xlink:href="#TimesNewRomanPSMT-61" transform="translate(172.216797 0)"/>
      <use xlink:href="#TimesNewRomanPSMT-63" transform="translate(216.601562 0)"/>
      <use xlink:href="#TimesNewRomanPSMT-65" transform="translate(260.986328 0)"/>
      <use xlink:href="#TimesNewRomanPSMT-20" transform="translate(305.371094 0)"/>
      <use xlink:href="#TimesNewRomanPSMT-50" transform="translate(330.371094 0)"/>
      <use xlink:href="#TimesNewRomanPSMT-6f" transform="translate(385.986328 0)"/>
      <use xlink:href="#TimesNewRomanPSMT-77" transform="translate(435.986328 0)"/>
      <use xlink:href="#TimesNewRomanPSMT-65" transform="translate(508.203125 0)"/>
      <use xlink:href="#TimesNewRomanPSMT-72" transform="translate(552.587891 0)"/>
      <use xlink:href="#TimesNewRomanPSMT-20" transform="translate(585.888672 0)"/>
      <use xlink:href="#TimesNewRomanPSMT-28" transform="translate(610.888672 0)"/>
      <use xlink:href="#TimesNewRomanPSMT-31" transform="translate(644.189453 0)"/>
      <use xlink:href="#TimesNewRomanPSMT-30" transform="translate(694.189453 0)"/>
      <use xlink:href="#TimesNewRomanPSMT-30" transform="translate(744.189453 0)"/>
      <use xlink:href="#TimesNewRomanPSMT-30" transform="translate(794.189453 0)"/>
      <use xlink:href="#TimesNewRomanPSMT-57" transform="translate(844.189453 0)"/>
      <use xlink:href="#TimesNewRomanPSMT-29" transform="translate(938.574219 0)"/>
     </g>
    </g>
    <g id="line2d_48">
     <path d="M 543.963437 223.142656 
L 554.963437 223.142656 
L 565.963437 223.142656 
" style="fill: none; stroke-dasharray: 5.55,2.4; stroke-dashoffset: 0; stroke: #008000; stroke-opacity: 0.6; stroke-width: 1.5"/>
    </g>
    <g id="text_33">
     <!-- Underwater Power (3000W) -->
     <g transform="translate(574.763437 226.992656) scale(0.11 -0.11)">
      <use xlink:href="#TimesNewRomanPSMT-55"/>
      <use xlink:href="#TimesNewRomanPSMT-6e" transform="translate(72.216797 0)"/>
      <use xlink:href="#TimesNewRomanPSMT-64" transform="translate(122.216797 0)"/>
      <use xlink:href="#TimesNewRomanPSMT-65" transform="translate(172.216797 0)"/>
      <use xlink:href="#TimesNewRomanPSMT-72" transform="translate(216.601562 0)"/>
      <use xlink:href="#TimesNewRomanPSMT-77" transform="translate(249.902344 0)"/>
      <use xlink:href="#TimesNewRomanPSMT-61" transform="translate(322.119141 0)"/>
      <use xlink:href="#TimesNewRomanPSMT-74" transform="translate(366.503906 0)"/>
      <use xlink:href="#TimesNewRomanPSMT-65" transform="translate(394.287109 0)"/>
      <use xlink:href="#TimesNewRomanPSMT-72" transform="translate(438.671875 0)"/>
      <use xlink:href="#TimesNewRomanPSMT-20" transform="translate(471.972656 0)"/>
      <use xlink:href="#TimesNewRomanPSMT-50" transform="translate(496.972656 0)"/>
      <use xlink:href="#TimesNewRomanPSMT-6f" transform="translate(552.587891 0)"/>
      <use xlink:href="#TimesNewRomanPSMT-77" transform="translate(602.587891 0)"/>
      <use xlink:href="#TimesNewRomanPSMT-65" transform="translate(674.804688 0)"/>
      <use xlink:href="#TimesNewRomanPSMT-72" transform="translate(719.189453 0)"/>
      <use xlink:href="#TimesNewRomanPSMT-20" transform="translate(752.490234 0)"/>
      <use xlink:href="#TimesNewRomanPSMT-28" transform="translate(777.490234 0)"/>
      <use xlink:href="#TimesNewRomanPSMT-33" transform="translate(810.791016 0)"/>
      <use xlink:href="#TimesNewRomanPSMT-30" transform="translate(860.791016 0)"/>
      <use xlink:href="#TimesNewRomanPSMT-30" transform="translate(910.791016 0)"/>
      <use xlink:href="#TimesNewRomanPSMT-30" transform="translate(960.791016 0)"/>
      <use xlink:href="#TimesNewRomanPSMT-57" transform="translate(1010.791016 0)"/>
      <use xlink:href="#TimesNewRomanPSMT-29" transform="translate(1105.175781 0)"/>
     </g>
    </g>
   </g>
  </g>
 </g>
 <defs>
  <clipPath id="pd23555bd49">
   <rect x="57.415938" y="38.31" width="453.95" height="265.17625"/>
  </clipPath>
 </defs>
</svg>
