<?xml version="1.0" encoding="utf-8" standalone="no"?>
<!DOCTYPE svg PUBLIC "-//W3C//DTD SVG 1.1//EN"
  "http://www.w3.org/Graphics/SVG/1.1/DTD/svg11.dtd">
<svg xmlns:xlink="http://www.w3.org/1999/xlink" width="576pt" height="432pt" viewBox="0 0 576 432" xmlns="http://www.w3.org/2000/svg" version="1.1">
 <metadata>
  <rdf:RDF xmlns:dc="http://purl.org/dc/elements/1.1/" xmlns:cc="http://creativecommons.org/ns#" xmlns:rdf="http://www.w3.org/1999/02/22-rdf-syntax-ns#">
   <cc:Work>
    <dc:type rdf:resource="http://purl.org/dc/dcmitype/StillImage"/>
    <dc:date>2025-12-09T17:15:01.108686</dc:date>
    <dc:format>image/svg+xml</dc:format>
    <dc:creator>
     <cc:Agent>
      <dc:title>Matplotlib v3.9.2, https://matplotlib.org/</dc:title>
     </cc:Agent>
    </dc:creator>
   </cc:Work>
  </rdf:RDF>
 </metadata>
 <defs>
  <style type="text/css">*{stroke-linejoin: round; stroke-linecap: butt}</style>
 </defs>
 <g id="figure_1">
  <g id="patch_1">
   <path d="M 0 432 
L 576 432 
L 576 0 
L 0 0 
z
" style="fill: #ffffff"/>
  </g>
  <g id="axes_1">
   <g id="patch_2">
    <path d="M 72 384.48 
L 518.4 384.48 
L 518.4 51.84 
L 72 51.84 
z
" style="fill: #ffffff"/>
   </g>
   <g id="patch_3">
    <path d="M 72 384.48 
L 220.8 384.48 
L 220.8 51.84 
L 72 51.84 
z
" clip-path="url(#p33df6a24c3)" style="fill: #add8e6; opacity: 0.2; stroke: #add8e6; stroke-linejoin: miter"/>
   </g>
   <g id="patch_4">
    <path d="M 220.8 384.48 
L 369.6 384.48 
L 369.6 51.84 
L 220.8 51.84 
z
" clip-path="url(#p33df6a24c3)" style="fill: #90ee90; opacity: 0.2; stroke: #90ee90; stroke-linejoin: miter"/>
   </g>
   <g id="patch_5">
    <path d="M 369.6 384.48 
L 518.4 384.48 
L 518.4 51.84 
L 369.6 51.84 
z
" clip-path="url(#p33df6a24c3)" style="fill: #fa8072; opacity: 0.2; stroke: #fa8072; stroke-linejoin: miter"/>
   </g>
   <g id="patch_6">
    <path d="M 220.8 111.24 
L 369.6 111.24 
L 369.6 63.72 
L 220.8 63.72 
z
" clip-path="url(#p33df6a24c3)" style="fill: #808080; opacity: 0.2"/>
   </g>
   <g id="matplotlib.axis_1">
    <g id="xtick_1">
     <g id="line2d_1">
      <path d="M 72 384.48 
L 72 51.84 
" clip-path="url(#p33df6a24c3)" style="fill: none; stroke-dasharray: 1.85,0.8; stroke-dashoffset: 0; stroke: #b0b0b0; stroke-opacity: 0.5; stroke-width: 0.5"/>
     </g>
     <g id="line2d_2">
      <defs>
       <path id="m9c9efd3f8c" d="M 0 0 
L 0 3.5 
" style="stroke: #000000; stroke-width: 0.8"/>
      </defs>
      <g>
       <use xlink:href="#m9c9efd3f8c" x="72" y="384.48" style="stroke: #000000; stroke-width: 0.8"/>
      </g>
     </g>
     <g id="text_1">
      <!-- 0 -->
      <g transform="translate(69 399.8125) scale(0.12 -0.12)">
       <defs>
        <path id="TimesNewRomanPSMT-30" d="M 231 2094 
Q 231 2819 450 3342 
Q 669 3866 1031 4122 
Q 1313 4325 1613 4325 
Q 2100 4325 2488 3828 
Q 2972 3213 2972 2159 
Q 2972 1422 2759 906 
Q 2547 391 2217 158 
Q 1888 -75 1581 -75 
Q 975 -75 572 641 
Q 231 1244 231 2094 
z
M 844 2016 
Q 844 1141 1059 588 
Q 1238 122 1591 122 
Q 1759 122 1940 273 
Q 2122 425 2216 781 
Q 2359 1319 2359 2297 
Q 2359 3022 2209 3506 
Q 2097 3866 1919 4016 
Q 1791 4119 1609 4119 
Q 1397 4119 1231 3928 
Q 1006 3669 925 3112 
Q 844 2556 844 2016 
z
" transform="scale(0.015625)"/>
       </defs>
       <use xlink:href="#TimesNewRomanPSMT-30"/>
      </g>
     </g>
    </g>
    <g id="xtick_2">
     <g id="line2d_3">
      <path d="M 146.4 384.48 
L 146.4 51.84 
" clip-path="url(#p33df6a24c3)" style="fill: none; stroke-dasharray: 1.85,0.8; stroke-dashoffset: 0; stroke: #b0b0b0; stroke-opacity: 0.5; stroke-width: 0.5"/>
     </g>
     <g id="line2d_4">
      <g>
       <use xlink:href="#m9c9efd3f8c" x="146.4" y="384.48" style="stroke: #000000; stroke-width: 0.8"/>
      </g>
     </g>
     <g id="text_2">
      <!-- 100 -->
      <g transform="translate(137.4 399.8125) scale(0.12 -0.12)">
       <defs>
        <path id="TimesNewRomanPSMT-31" d="M 750 3822 
L 1781 4325 
L 1884 4325 
L 1884 747 
Q 1884 391 1914 303 
Q 1944 216 2037 169 
Q 2131 122 2419 116 
L 2419 0 
L 825 0 
L 825 116 
Q 1125 122 1212 167 
Q 1300 213 1334 289 
Q 1369 366 1369 747 
L 1369 3034 
Q 1369 3497 1338 3628 
Q 1316 3728 1258 3775 
Q 1200 3822 1119 3822 
Q 1003 3822 797 3725 
L 750 3822 
z
" transform="scale(0.015625)"/>
       </defs>
       <use xlink:href="#TimesNewRomanPSMT-31"/>
       <use xlink:href="#TimesNewRomanPSMT-30" x="50"/>
       <use xlink:href="#TimesNewRomanPSMT-30" x="100"/>
      </g>
     </g>
    </g>
    <g id="xtick_3">
     <g id="line2d_5">
      <path d="M 220.8 384.48 
L 220.8 51.84 
" clip-path="url(#p33df6a24c3)" style="fill: none; stroke-dasharray: 1.85,0.8; stroke-dashoffset: 0; stroke: #b0b0b0; stroke-opacity: 0.5; stroke-width: 0.5"/>
     </g>
     <g id="line2d_6">
      <g>
       <use xlink:href="#m9c9efd3f8c" x="220.8" y="384.48" style="stroke: #000000; stroke-width: 0.8"/>
      </g>
     </g>
     <g id="text_3">
      <!-- 200 -->
      <g transform="translate(211.8 399.8125) scale(0.12 -0.12)">
       <defs>
        <path id="TimesNewRomanPSMT-32" d="M 2934 816 
L 2638 0 
L 138 0 
L 138 116 
Q 1241 1122 1691 1759 
Q 2141 2397 2141 2925 
Q 2141 3328 1894 3587 
Q 1647 3847 1303 3847 
Q 991 3847 742 3664 
Q 494 3481 375 3128 
L 259 3128 
Q 338 3706 661 4015 
Q 984 4325 1469 4325 
Q 1984 4325 2329 3994 
Q 2675 3663 2675 3213 
Q 2675 2891 2525 2569 
Q 2294 2063 1775 1497 
Q 997 647 803 472 
L 1909 472 
Q 2247 472 2383 497 
Q 2519 522 2628 598 
Q 2738 675 2819 816 
L 2934 816 
z
" transform="scale(0.015625)"/>
       </defs>
       <use xlink:href="#TimesNewRomanPSMT-32"/>
       <use xlink:href="#TimesNewRomanPSMT-30" x="50"/>
       <use xlink:href="#TimesNewRomanPSMT-30" x="100"/>
      </g>
     </g>
    </g>
    <g id="xtick_4">
     <g id="line2d_7">
      <path d="M 295.2 384.48 
L 295.2 51.84 
" clip-path="url(#p33df6a24c3)" style="fill: none; stroke-dasharray: 1.85,0.8; stroke-dashoffset: 0; stroke: #b0b0b0; stroke-opacity: 0.5; stroke-width: 0.5"/>
     </g>
     <g id="line2d_8">
      <g>
       <use xlink:href="#m9c9efd3f8c" x="295.2" y="384.48" style="stroke: #000000; stroke-width: 0.8"/>
      </g>
     </g>
     <g id="text_4">
      <!-- 300 -->
      <g transform="translate(286.2 399.8125) scale(0.12 -0.12)">
       <defs>
        <path id="TimesNewRomanPSMT-33" d="M 325 3431 
Q 506 3859 782 4092 
Q 1059 4325 1472 4325 
Q 1981 4325 2253 3994 
Q 2459 3747 2459 3466 
Q 2459 3003 1878 2509 
Q 2269 2356 2469 2072 
Q 2669 1788 2669 1403 
Q 2669 853 2319 450 
Q 1863 -75 997 -75 
Q 569 -75 414 31 
Q 259 138 259 259 
Q 259 350 332 419 
Q 406 488 509 488 
Q 588 488 669 463 
Q 722 447 909 348 
Q 1097 250 1169 231 
Q 1284 197 1416 197 
Q 1734 197 1970 444 
Q 2206 691 2206 1028 
Q 2206 1275 2097 1509 
Q 2016 1684 1919 1775 
Q 1784 1900 1550 2001 
Q 1316 2103 1072 2103 
L 972 2103 
L 972 2197 
Q 1219 2228 1467 2375 
Q 1716 2522 1828 2728 
Q 1941 2934 1941 3181 
Q 1941 3503 1739 3701 
Q 1538 3900 1238 3900 
Q 753 3900 428 3381 
L 325 3431 
z
" transform="scale(0.015625)"/>
       </defs>
       <use xlink:href="#TimesNewRomanPSMT-33"/>
       <use xlink:href="#TimesNewRomanPSMT-30" x="50"/>
       <use xlink:href="#TimesNewRomanPSMT-30" x="100"/>
      </g>
     </g>
    </g>
    <g id="xtick_5">
     <g id="line2d_9">
      <path d="M 369.6 384.48 
L 369.6 51.84 
" clip-path="url(#p33df6a24c3)" style="fill: none; stroke-dasharray: 1.85,0.8; stroke-dashoffset: 0; stroke: #b0b0b0; stroke-opacity: 0.5; stroke-width: 0.5"/>
     </g>
     <g id="line2d_10">
      <g>
       <use xlink:href="#m9c9efd3f8c" x="369.6" y="384.48" style="stroke: #000000; stroke-width: 0.8"/>
      </g>
     </g>
     <g id="text_5">
      <!-- 400 -->
      <g transform="translate(360.6 399.8125) scale(0.12 -0.12)">
       <defs>
        <path id="TimesNewRomanPSMT-34" d="M 2978 1563 
L 2978 1119 
L 2409 1119 
L 2409 0 
L 1894 0 
L 1894 1119 
L 100 1119 
L 100 1519 
L 2066 4325 
L 2409 4325 
L 2409 1563 
L 2978 1563 
z
M 1894 1563 
L 1894 3666 
L 406 1563 
L 1894 1563 
z
" transform="scale(0.015625)"/>
       </defs>
       <use xlink:href="#TimesNewRomanPSMT-34"/>
       <use xlink:href="#TimesNewRomanPSMT-30" x="50"/>
       <use xlink:href="#TimesNewRomanPSMT-30" x="100"/>
      </g>
     </g>
    </g>
    <g id="xtick_6">
     <g id="line2d_11">
      <path d="M 444 384.48 
L 444 51.84 
" clip-path="url(#p33df6a24c3)" style="fill: none; stroke-dasharray: 1.85,0.8; stroke-dashoffset: 0; stroke: #b0b0b0; stroke-opacity: 0.5; stroke-width: 0.5"/>
     </g>
     <g id="line2d_12">
      <g>
       <use xlink:href="#m9c9efd3f8c" x="444" y="384.48" style="stroke: #000000; stroke-width: 0.8"/>
      </g>
     </g>
     <g id="text_6">
      <!-- 500 -->
      <g transform="translate(435 399.8125) scale(0.12 -0.12)">
       <defs>
        <path id="TimesNewRomanPSMT-35" d="M 2778 4238 
L 2534 3706 
L 1259 3706 
L 981 3138 
Q 1809 3016 2294 2522 
Q 2709 2097 2709 1522 
Q 2709 1188 2573 903 
Q 2438 619 2231 419 
Q 2025 219 1772 97 
Q 1413 -75 1034 -75 
Q 653 -75 479 54 
Q 306 184 306 341 
Q 306 428 378 495 
Q 450 563 559 563 
Q 641 563 702 538 
Q 763 513 909 409 
Q 1144 247 1384 247 
Q 1750 247 2026 523 
Q 2303 800 2303 1197 
Q 2303 1581 2056 1914 
Q 1809 2247 1375 2428 
Q 1034 2569 447 2591 
L 1259 4238 
L 2778 4238 
z
" transform="scale(0.015625)"/>
       </defs>
       <use xlink:href="#TimesNewRomanPSMT-35"/>
       <use xlink:href="#TimesNewRomanPSMT-30" x="50"/>
       <use xlink:href="#TimesNewRomanPSMT-30" x="100"/>
      </g>
     </g>
    </g>
    <g id="xtick_7">
     <g id="line2d_13">
      <path d="M 518.4 384.48 
L 518.4 51.84 
" clip-path="url(#p33df6a24c3)" style="fill: none; stroke-dasharray: 1.85,0.8; stroke-dashoffset: 0; stroke: #b0b0b0; stroke-opacity: 0.5; stroke-width: 0.5"/>
     </g>
     <g id="line2d_14">
      <g>
       <use xlink:href="#m9c9efd3f8c" x="518.4" y="384.48" style="stroke: #000000; stroke-width: 0.8"/>
      </g>
     </g>
     <g id="text_7">
      <!-- 600 -->
      <g transform="translate(509.4 399.8125) scale(0.12 -0.12)">
       <defs>
        <path id="TimesNewRomanPSMT-36" d="M 2869 4325 
L 2869 4209 
Q 2456 4169 2195 4045 
Q 1934 3922 1679 3669 
Q 1425 3416 1258 3105 
Q 1091 2794 978 2366 
Q 1428 2675 1881 2675 
Q 2316 2675 2634 2325 
Q 2953 1975 2953 1425 
Q 2953 894 2631 456 
Q 2244 -75 1606 -75 
Q 1172 -75 869 213 
Q 275 772 275 1663 
Q 275 2231 503 2743 
Q 731 3256 1154 3653 
Q 1578 4050 1965 4187 
Q 2353 4325 2688 4325 
L 2869 4325 
z
M 925 2138 
Q 869 1716 869 1456 
Q 869 1156 980 804 
Q 1091 453 1309 247 
Q 1469 100 1697 100 
Q 1969 100 2183 356 
Q 2397 613 2397 1088 
Q 2397 1622 2184 2012 
Q 1972 2403 1581 2403 
Q 1463 2403 1327 2353 
Q 1191 2303 925 2138 
z
" transform="scale(0.015625)"/>
       </defs>
       <use xlink:href="#TimesNewRomanPSMT-36"/>
       <use xlink:href="#TimesNewRomanPSMT-30" x="50"/>
       <use xlink:href="#TimesNewRomanPSMT-30" x="100"/>
      </g>
     </g>
    </g>
    <g id="text_8">
     <!-- 时间 (s) -->
     <g transform="translate(275.369062 416.316875) scale(0.12 -0.12)">
      <defs>
       <path id="SimHei-65f6" d="M 2525 4575 
Q 2500 3675 2500 2400 
Q 2500 1125 2525 400 
L 2000 400 
L 2000 875 
L 1000 875 
L 1000 50 
L 475 50 
Q 500 1200 500 2350 
Q 500 3525 475 4575 
L 2525 4575 
z
M 4875 3825 
Q 4875 4575 4850 5225 
L 5400 5225 
Q 5375 4575 5375 3825 
Q 5750 3825 6175 3850 
L 6175 3375 
Q 5750 3400 5375 3400 
L 5375 50 
Q 5375 -325 5075 -425 
Q 4775 -525 4300 -575 
Q 4300 -275 4025 0 
Q 4500 -50 4687 -25 
Q 4875 0 4875 300 
L 4875 3400 
Q 3625 3400 2775 3375 
L 2775 3850 
Q 3575 3825 4875 3825 
z
M 2000 1300 
L 2000 2550 
L 1000 2550 
L 1000 1300 
L 2000 1300 
z
M 2000 2975 
L 2000 4150 
L 1000 4150 
L 1000 2975 
L 2000 2975 
z
M 3550 2725 
Q 3875 2200 4175 1600 
Q 3925 1525 3650 1375 
Q 3450 1975 3075 2500 
Q 3300 2600 3550 2725 
z
" transform="scale(0.015625)"/>
       <path id="SimHei-95f4" d="M 4450 3550 
Q 4425 3075 4425 2725 
L 4425 1400 
Q 4425 1075 4450 625 
L 1925 625 
Q 1950 1075 1950 1425 
L 1950 2725 
Q 1950 3075 1925 3550 
L 4450 3550 
z
M 5800 4875 
Q 5775 4400 5775 3925 
L 5775 250 
Q 5800 -325 5462 -450 
Q 5125 -575 4725 -625 
Q 4700 -325 4525 -25 
Q 5000 -50 5137 25 
Q 5275 100 5275 350 
L 5275 4450 
L 3775 4450 
Q 3175 4450 2650 4425 
L 2650 4900 
Q 3175 4875 3775 4875 
L 5800 4875 
z
M 550 -525 
Q 600 -25 600 525 
L 600 3150 
Q 600 3675 550 4025 
L 1125 4025 
Q 1100 3650 1100 3300 
L 1100 500 
Q 1100 0 1125 -525 
L 550 -525 
z
M 3950 1025 
L 3950 1950 
L 2425 1950 
L 2425 1025 
L 3950 1025 
z
M 3950 2350 
L 3950 3150 
L 2425 3150 
L 2425 2350 
L 3950 2350 
z
M 1525 5300 
Q 1750 5000 2225 4350 
Q 1950 4225 1700 4075 
Q 1450 4575 1075 5025 
Q 1350 5225 1525 5300 
z
" transform="scale(0.015625)"/>
       <path id="TimesNewRomanPSMT-20" transform="scale(0.015625)"/>
       <path id="TimesNewRomanPSMT-28" d="M 1988 -1253 
L 1988 -1369 
Q 1516 -1131 1200 -813 
Q 750 -359 506 256 
Q 263 872 263 1534 
Q 263 2503 741 3301 
Q 1219 4100 1988 4444 
L 1988 4313 
Q 1603 4100 1356 3731 
Q 1109 3363 987 2797 
Q 866 2231 866 1616 
Q 866 947 969 400 
Q 1050 -31 1165 -292 
Q 1281 -553 1476 -793 
Q 1672 -1034 1988 -1253 
z
" transform="scale(0.015625)"/>
       <path id="TimesNewRomanPSMT-73" d="M 2050 2947 
L 2050 1972 
L 1947 1972 
Q 1828 2431 1642 2597 
Q 1456 2763 1169 2763 
Q 950 2763 815 2647 
Q 681 2531 681 2391 
Q 681 2216 781 2091 
Q 878 1963 1175 1819 
L 1631 1597 
Q 2266 1288 2266 781 
Q 2266 391 1970 151 
Q 1675 -88 1309 -88 
Q 1047 -88 709 6 
Q 606 38 541 38 
Q 469 38 428 -44 
L 325 -44 
L 325 978 
L 428 978 
Q 516 541 762 319 
Q 1009 97 1316 97 
Q 1531 97 1667 223 
Q 1803 350 1803 528 
Q 1803 744 1651 891 
Q 1500 1038 1047 1263 
Q 594 1488 453 1669 
Q 313 1847 313 2119 
Q 313 2472 555 2709 
Q 797 2947 1181 2947 
Q 1350 2947 1591 2875 
Q 1750 2828 1803 2828 
Q 1853 2828 1881 2850 
Q 1909 2872 1947 2947 
L 2050 2947 
z
" transform="scale(0.015625)"/>
       <path id="TimesNewRomanPSMT-29" d="M 144 4313 
L 144 4444 
Q 619 4209 934 3891 
Q 1381 3434 1625 2820 
Q 1869 2206 1869 1541 
Q 1869 572 1392 -226 
Q 916 -1025 144 -1369 
L 144 -1253 
Q 528 -1038 776 -670 
Q 1025 -303 1145 264 
Q 1266 831 1266 1447 
Q 1266 2113 1163 2663 
Q 1084 3094 967 3353 
Q 850 3613 656 3853 
Q 463 4094 144 4313 
z
" transform="scale(0.015625)"/>
      </defs>
      <use xlink:href="#SimHei-65f6"/>
      <use xlink:href="#SimHei-95f4" x="100"/>
      <use xlink:href="#TimesNewRomanPSMT-20" x="200"/>
      <use xlink:href="#TimesNewRomanPSMT-28" x="225"/>
      <use xlink:href="#TimesNewRomanPSMT-73" x="258.300781"/>
      <use xlink:href="#TimesNewRomanPSMT-29" x="297.216797"/>
     </g>
    </g>
   </g>
   <g id="matplotlib.axis_2">
    <g id="ytick_1">
     <g id="line2d_15">
      <path d="M 72 384.48 
L 518.4 384.48 
" clip-path="url(#p33df6a24c3)" style="fill: none; stroke-dasharray: 1.85,0.8; stroke-dashoffset: 0; stroke: #b0b0b0; stroke-opacity: 0.5; stroke-width: 0.5"/>
     </g>
     <g id="line2d_16">
      <defs>
       <path id="m23160d3ed2" d="M 0 0 
L -3.5 0 
" style="stroke: #000000; stroke-width: 0.8"/>
      </defs>
      <g>
       <use xlink:href="#m23160d3ed2" x="72" y="384.48" style="stroke: #000000; stroke-width: 0.8"/>
      </g>
     </g>
     <g id="text_9">
      <!-- −100 -->
      <g style="fill: #1f77b4" transform="translate(40.233125 388.64625) scale(0.12 -0.12)">
       <defs>
        <path id="TimesNewRomanPSMT-2212" d="M 3484 2000 
L 116 2000 
L 116 2256 
L 3484 2256 
L 3484 2000 
z
" transform="scale(0.015625)"/>
       </defs>
       <use xlink:href="#TimesNewRomanPSMT-2212"/>
       <use xlink:href="#TimesNewRomanPSMT-31" x="56.396484"/>
       <use xlink:href="#TimesNewRomanPSMT-30" x="106.396484"/>
       <use xlink:href="#TimesNewRomanPSMT-30" x="156.396484"/>
      </g>
     </g>
    </g>
    <g id="ytick_2">
     <g id="line2d_17">
      <path d="M 72 336.96 
L 518.4 336.96 
" clip-path="url(#p33df6a24c3)" style="fill: none; stroke-dasharray: 1.85,0.8; stroke-dashoffset: 0; stroke: #b0b0b0; stroke-opacity: 0.5; stroke-width: 0.5"/>
     </g>
     <g id="line2d_18">
      <g>
       <use xlink:href="#m23160d3ed2" x="72" y="336.96" style="stroke: #000000; stroke-width: 0.8"/>
      </g>
     </g>
     <g id="text_10">
      <!-- −80 -->
      <g style="fill: #1f77b4" transform="translate(46.233125 341.12625) scale(0.12 -0.12)">
       <defs>
        <path id="TimesNewRomanPSMT-38" d="M 1228 2134 
Q 725 2547 579 2797 
Q 434 3047 434 3316 
Q 434 3728 753 4026 
Q 1072 4325 1600 4325 
Q 2113 4325 2425 4047 
Q 2738 3769 2738 3413 
Q 2738 3175 2569 2928 
Q 2400 2681 1866 2347 
Q 2416 1922 2594 1678 
Q 2831 1359 2831 1006 
Q 2831 559 2490 242 
Q 2150 -75 1597 -75 
Q 994 -75 656 303 
Q 388 606 388 966 
Q 388 1247 577 1523 
Q 766 1800 1228 2134 
z
M 1719 2469 
Q 2094 2806 2194 3001 
Q 2294 3197 2294 3444 
Q 2294 3772 2109 3958 
Q 1925 4144 1606 4144 
Q 1288 4144 1088 3959 
Q 888 3775 888 3528 
Q 888 3366 970 3203 
Q 1053 3041 1206 2894 
L 1719 2469 
z
M 1375 2016 
Q 1116 1797 991 1539 
Q 866 1281 866 981 
Q 866 578 1086 336 
Q 1306 94 1647 94 
Q 1984 94 2187 284 
Q 2391 475 2391 747 
Q 2391 972 2272 1150 
Q 2050 1481 1375 2016 
z
" transform="scale(0.015625)"/>
       </defs>
       <use xlink:href="#TimesNewRomanPSMT-2212"/>
       <use xlink:href="#TimesNewRomanPSMT-38" x="56.396484"/>
       <use xlink:href="#TimesNewRomanPSMT-30" x="106.396484"/>
      </g>
     </g>
    </g>
    <g id="ytick_3">
     <g id="line2d_19">
      <path d="M 72 289.44 
L 518.4 289.44 
" clip-path="url(#p33df6a24c3)" style="fill: none; stroke-dasharray: 1.85,0.8; stroke-dashoffset: 0; stroke: #b0b0b0; stroke-opacity: 0.5; stroke-width: 0.5"/>
     </g>
     <g id="line2d_20">
      <g>
       <use xlink:href="#m23160d3ed2" x="72" y="289.44" style="stroke: #000000; stroke-width: 0.8"/>
      </g>
     </g>
     <g id="text_11">
      <!-- −60 -->
      <g style="fill: #1f77b4" transform="translate(46.233125 293.60625) scale(0.12 -0.12)">
       <use xlink:href="#TimesNewRomanPSMT-2212"/>
       <use xlink:href="#TimesNewRomanPSMT-36" x="56.396484"/>
       <use xlink:href="#TimesNewRomanPSMT-30" x="106.396484"/>
      </g>
     </g>
    </g>
    <g id="ytick_4">
     <g id="line2d_21">
      <path d="M 72 241.92 
L 518.4 241.92 
" clip-path="url(#p33df6a24c3)" style="fill: none; stroke-dasharray: 1.85,0.8; stroke-dashoffset: 0; stroke: #b0b0b0; stroke-opacity: 0.5; stroke-width: 0.5"/>
     </g>
     <g id="line2d_22">
      <g>
       <use xlink:href="#m23160d3ed2" x="72" y="241.92" style="stroke: #000000; stroke-width: 0.8"/>
      </g>
     </g>
     <g id="text_12">
      <!-- −40 -->
      <g style="fill: #1f77b4" transform="translate(46.233125 246.08625) scale(0.12 -0.12)">
       <use xlink:href="#TimesNewRomanPSMT-2212"/>
       <use xlink:href="#TimesNewRomanPSMT-34" x="56.396484"/>
       <use xlink:href="#TimesNewRomanPSMT-30" x="106.396484"/>
      </g>
     </g>
    </g>
    <g id="ytick_5">
     <g id="line2d_23">
      <path d="M 72 194.4 
L 518.4 194.4 
" clip-path="url(#p33df6a24c3)" style="fill: none; stroke-dasharray: 1.85,0.8; stroke-dashoffset: 0; stroke: #b0b0b0; stroke-opacity: 0.5; stroke-width: 0.5"/>
     </g>
     <g id="line2d_24">
      <g>
       <use xlink:href="#m23160d3ed2" x="72" y="194.4" style="stroke: #000000; stroke-width: 0.8"/>
      </g>
     </g>
     <g id="text_13">
      <!-- −20 -->
      <g style="fill: #1f77b4" transform="translate(46.233125 198.56625) scale(0.12 -0.12)">
       <use xlink:href="#TimesNewRomanPSMT-2212"/>
       <use xlink:href="#TimesNewRomanPSMT-32" x="56.396484"/>
       <use xlink:href="#TimesNewRomanPSMT-30" x="106.396484"/>
      </g>
     </g>
    </g>
    <g id="ytick_6">
     <g id="line2d_25">
      <path d="M 72 146.88 
L 518.4 146.88 
" clip-path="url(#p33df6a24c3)" style="fill: none; stroke-dasharray: 1.85,0.8; stroke-dashoffset: 0; stroke: #b0b0b0; stroke-opacity: 0.5; stroke-width: 0.5"/>
     </g>
     <g id="line2d_26">
      <g>
       <use xlink:href="#m23160d3ed2" x="72" y="146.88" style="stroke: #000000; stroke-width: 0.8"/>
      </g>
     </g>
     <g id="text_14">
      <!-- 0 -->
      <g style="fill: #1f77b4" transform="translate(59 151.04625) scale(0.12 -0.12)">
       <use xlink:href="#TimesNewRomanPSMT-30"/>
      </g>
     </g>
    </g>
    <g id="ytick_7">
     <g id="line2d_27">
      <path d="M 72 99.36 
L 518.4 99.36 
" clip-path="url(#p33df6a24c3)" style="fill: none; stroke-dasharray: 1.85,0.8; stroke-dashoffset: 0; stroke: #b0b0b0; stroke-opacity: 0.5; stroke-width: 0.5"/>
     </g>
     <g id="line2d_28">
      <g>
       <use xlink:href="#m23160d3ed2" x="72" y="99.36" style="stroke: #000000; stroke-width: 0.8"/>
      </g>
     </g>
     <g id="text_15">
      <!-- 20 -->
      <g style="fill: #1f77b4" transform="translate(53 103.52625) scale(0.12 -0.12)">
       <use xlink:href="#TimesNewRomanPSMT-32"/>
       <use xlink:href="#TimesNewRomanPSMT-30" x="50"/>
      </g>
     </g>
    </g>
    <g id="ytick_8">
     <g id="line2d_29">
      <path d="M 72 51.84 
L 518.4 51.84 
" clip-path="url(#p33df6a24c3)" style="fill: none; stroke-dasharray: 1.85,0.8; stroke-dashoffset: 0; stroke: #b0b0b0; stroke-opacity: 0.5; stroke-width: 0.5"/>
     </g>
     <g id="line2d_30">
      <g>
       <use xlink:href="#m23160d3ed2" x="72" y="51.84" style="stroke: #000000; stroke-width: 0.8"/>
      </g>
     </g>
     <g id="text_16">
      <!-- 40 -->
      <g style="fill: #1f77b4" transform="translate(53 56.00625) scale(0.12 -0.12)">
       <use xlink:href="#TimesNewRomanPSMT-34"/>
       <use xlink:href="#TimesNewRomanPSMT-30" x="50"/>
      </g>
     </g>
    </g>
    <g id="text_17">
     <!-- 环境温度 (℃) -->
     <g style="fill: #1f77b4" transform="translate(33.66625 253.799062) rotate(-90) scale(0.12 -0.12)">
      <defs>
       <path id="SimHei-73af" d="M 5175 4850 
Q 5550 4850 6025 4875 
L 6025 4400 
Q 5600 4425 5175 4425 
L 4700 4425 
Q 4475 3625 4400 3325 
L 4400 275 
Q 4400 -225 4425 -625 
L 3900 -625 
Q 3925 -250 3925 275 
L 3925 2275 
Q 3400 1250 2650 550 
Q 2500 700 2200 875 
Q 2550 1125 2862 1512 
Q 3175 1900 3475 2425 
Q 3775 2950 3912 3400 
Q 4050 3850 4175 4425 
L 3475 4425 
Q 3075 4425 2650 4400 
L 2650 4875 
Q 3075 4850 3475 4850 
L 5175 4850 
z
M 1875 4850 
Q 2125 4850 2450 4875 
L 2450 4425 
Q 2125 4450 1875 4450 
L 1700 4450 
L 1700 3250 
Q 2050 3250 2475 3275 
L 2475 2825 
Q 2025 2850 1700 2850 
L 1700 1425 
Q 1925 1475 2450 1725 
Q 2450 1525 2475 1250 
Q 1725 975 1337 850 
Q 950 725 500 525 
Q 400 775 250 1050 
Q 425 1050 1250 1275 
L 1250 2850 
Q 825 2850 450 2800 
L 450 3275 
Q 825 3250 1250 3250 
L 1250 4450 
L 1025 4450 
Q 700 4450 375 4425 
L 375 4875 
Q 700 4850 1000 4850 
L 1875 4850 
z
M 5000 3125 
Q 5775 2075 6175 1425 
Q 5925 1275 5700 1125 
Q 5325 1800 5112 2125 
Q 4900 2450 4600 2825 
Q 4825 2950 5000 3125 
z
" transform="scale(0.015625)"/>
       <path id="SimHei-5883" d="M 5300 -150 
Q 5475 -150 5525 37 
Q 5575 225 5625 425 
Q 5850 225 6150 175 
Q 5950 -500 5737 -537 
Q 5525 -575 5375 -575 
L 4650 -575 
Q 4075 -575 4100 -25 
L 4100 975 
L 3600 975 
Q 3500 325 3037 -50 
Q 2575 -425 1750 -675 
Q 1675 -425 1475 -175 
Q 2375 -50 2725 262 
Q 3075 575 3150 975 
L 2375 975 
Q 2400 1500 2400 1925 
Q 2400 2375 2375 2825 
L 5500 2825 
Q 5475 2450 5475 1975 
Q 5475 1500 5500 975 
L 4575 975 
L 4575 175 
Q 4550 -175 4825 -150 
L 5300 -150 
z
M 3300 4250 
Q 3425 4050 3600 3725 
Q 3400 3625 3200 3525 
L 4250 3525 
Q 4350 3800 4450 4300 
L 3125 4300 
Q 2575 4300 2225 4275 
L 2225 4700 
Q 2550 4675 3125 4675 
L 3775 4675 
Q 3750 4950 3650 5200 
Q 3850 5225 4200 5300 
Q 4275 4950 4325 4675 
L 4875 4675 
Q 5325 4675 5725 4700 
L 5725 4275 
Q 5325 4300 4900 4300 
L 4500 4300 
Q 4725 4200 5000 4075 
Q 4825 3850 4700 3525 
L 5225 3525 
Q 5625 3525 6000 3550 
L 6000 3100 
Q 5625 3150 5225 3150 
L 2950 3150 
Q 2500 3150 2125 3100 
L 2125 3550 
Q 2500 3525 2925 3525 
L 3150 3525 
Q 3050 3850 2900 4025 
Q 3100 4125 3300 4250 
z
M 2125 1025 
Q 1675 875 1200 687 
Q 725 500 450 325 
Q 325 650 250 875 
Q 475 900 637 950 
Q 800 1000 950 1050 
L 950 3150 
Q 700 3150 350 3100 
L 350 3550 
Q 700 3525 950 3525 
L 950 4425 
Q 950 4675 925 5025 
L 1400 5025 
Q 1375 4650 1375 4425 
L 1375 3525 
Q 1575 3525 1925 3550 
L 1925 3100 
Q 1575 3150 1375 3150 
L 1375 1200 
Q 1750 1325 2050 1450 
Q 2075 1275 2125 1025 
z
M 5050 2075 
L 5050 2475 
L 2875 2475 
L 2875 2075 
L 5050 2075 
z
M 5050 1325 
L 5050 1725 
L 2875 1725 
L 2875 1325 
L 5050 1325 
z
" transform="scale(0.015625)"/>
       <path id="SimHei-6e29" d="M 5625 1925 
Q 5600 1475 5600 0 
Q 5875 0 6125 25 
L 6125 -425 
Q 5725 -400 5325 -400 
L 2275 -400 
Q 1825 -400 1400 -425 
L 1400 25 
Q 1725 0 2000 0 
Q 2000 1425 1975 1925 
L 5625 1925 
z
M 5325 2525 
L 2250 2525 
Q 2275 2950 2275 3675 
Q 2275 4400 2250 4925 
L 5325 4925 
L 5325 2525 
z
M 4875 2950 
L 4875 3500 
L 2725 3500 
L 2725 2950 
L 4875 2950 
z
M 1550 1775 
Q 1375 1300 1162 600 
Q 950 -100 800 -500 
Q 550 -275 275 -175 
Q 525 250 787 950 
Q 1050 1650 1100 2075 
Q 1300 1875 1550 1775 
z
M 4875 3925 
L 4875 4450 
L 2725 4450 
L 2725 3925 
L 4875 3925 
z
M 5150 0 
L 5150 1500 
L 4525 1500 
L 4525 0 
L 5150 0 
z
M 4075 0 
L 4075 1500 
L 3475 1500 
L 3475 0 
L 4075 0 
z
M 3075 0 
L 3075 1500 
L 2475 1500 
L 2475 0 
L 3075 0 
z
M 875 5050 
Q 1475 4600 1825 4325 
Q 1675 4100 1525 3925 
Q 1300 4200 575 4700 
Q 750 4875 875 5050 
z
M 575 3625 
Q 1000 3400 1550 2900 
Q 1350 2750 1225 2550 
Q 975 2825 325 3300 
Q 425 3400 575 3625 
z
" transform="scale(0.015625)"/>
       <path id="SimHei-5ea6" d="M 1750 1675 
Q 2450 1650 2875 1650 
L 5200 1650 
Q 4975 1250 4650 850 
Q 4325 450 4025 200 
Q 4350 50 4950 -50 
Q 5550 -150 6100 -150 
Q 5950 -300 5825 -650 
Q 5100 -550 4550 -412 
Q 4000 -275 3625 -100 
Q 3100 -325 2587 -462 
Q 2075 -600 1525 -675 
Q 1450 -475 1225 -250 
Q 1675 -250 2250 -125 
Q 2825 0 3250 200 
Q 2825 550 2400 1275 
L 1750 1250 
L 1750 1675 
z
M 2975 5075 
Q 3250 5150 3475 5250 
Q 3625 4975 3775 4525 
L 4700 4525 
Q 4975 4525 5700 4550 
L 5700 4100 
Q 5000 4125 4650 4125 
L 1375 4125 
Q 1375 3000 1350 2312 
Q 1325 1625 1212 950 
Q 1100 275 725 -525 
Q 500 -375 250 -300 
Q 650 400 762 1075 
Q 875 1750 887 2800 
Q 900 3850 875 4525 
L 3200 4525 
Q 3100 4850 2975 5075 
z
M 2475 3300 
Q 2475 3700 2450 3925 
L 2975 3925 
Q 2950 3725 2950 3300 
L 4300 3300 
Q 4300 3700 4275 3950 
L 4800 3950 
Q 4775 3650 4775 3300 
Q 5325 3300 5725 3325 
L 5725 2900 
Q 5350 2925 4775 2925 
Q 4775 2250 4800 1950 
L 2450 1950 
Q 2475 2350 2475 2925 
Q 2175 2925 1600 2900 
L 1600 3325 
Q 2175 3300 2475 3300 
z
M 4300 2350 
L 4300 2925 
L 2950 2925 
L 2950 2350 
L 4300 2350 
z
M 2875 1275 
Q 3200 775 3650 425 
Q 4025 700 4425 1275 
L 2900 1275 
L 2875 1275 
z
" transform="scale(0.015625)"/>
       <path id="TimesNewRomanPSMT-2103" d="M 6138 4334 
L 6234 2894 
L 6138 2894 
Q 5944 3541 5584 3825 
Q 5225 4109 4722 4109 
Q 4034 4109 3631 3581 
Q 3228 3053 3228 2047 
Q 3228 1138 3664 658 
Q 4100 178 4813 178 
Q 5225 178 5540 354 
Q 5856 531 6234 1056 
L 6331 994 
Q 6013 428 5588 165 
Q 5163 -97 4578 -97 
Q 3634 -97 3075 529 
Q 2516 1156 2516 2053 
Q 2516 2688 2800 3219 
Q 3084 3750 3582 4042 
Q 4081 4334 4672 4334 
Q 4903 4334 5129 4278 
Q 5356 4222 5578 4109 
Q 5709 4041 5766 4041 
Q 5866 4041 5931 4122 
Q 5997 4203 6028 4334 
L 6138 4334 
z
M 2228 3369 
Q 2228 2972 1947 2690 
Q 1666 2409 1266 2409 
Q 869 2409 587 2690 
Q 306 2972 306 3369 
Q 306 3769 586 4050 
Q 866 4331 1266 4331 
Q 1669 4331 1948 4050 
Q 2228 3769 2228 3369 
z
M 569 3372 
Q 569 3084 772 2879 
Q 975 2675 1266 2675 
Q 1553 2675 1758 2879 
Q 1963 3084 1963 3372 
Q 1963 3663 1759 3866 
Q 1556 4069 1266 4069 
Q 975 4069 772 3866 
Q 569 3663 569 3372 
z
" transform="scale(0.015625)"/>
      </defs>
      <use xlink:href="#SimHei-73af"/>
      <use xlink:href="#SimHei-5883" x="100"/>
      <use xlink:href="#SimHei-6e29" x="200"/>
      <use xlink:href="#SimHei-5ea6" x="300"/>
      <use xlink:href="#TimesNewRomanPSMT-20" x="400"/>
      <use xlink:href="#TimesNewRomanPSMT-28" x="425"/>
      <use xlink:href="#TimesNewRomanPSMT-2103" x="458.300781"/>
      <use xlink:href="#TimesNewRomanPSMT-29" x="560.693359"/>
     </g>
    </g>
   </g>
   <g id="line2d_31">
    <path d="M 72 313.501659 
L 72.747739 329.440592 
L 73.495477 328.844816 
L 74.243216 332.728113 
L 74.990955 318.911377 
L 75.738693 341.485371 
L 76.486432 312.64298 
L 77.234171 330.505888 
L 77.98191 322.805894 
L 78.729648 326.857504 
L 79.477387 314.658099 
L 80.225125 339.764678 
L 80.972865 327.378197 
L 81.720603 327.817534 
L 82.468342 316.998497 
L 83.21608 332.920028 
L 83.963819 326.309077 
L 84.711557 331.337375 
L 85.459296 324.779103 
L 86.207036 320.925698 
L 86.954773 332.925212 
L 87.702513 316.920404 
L 88.450251 318.653459 
L 89.19799 321.498217 
L 89.945729 318.658698 
L 90.693467 329.953617 
L 91.441206 325.955954 
L 92.188945 331.750173 
L 92.936683 326.989508 
L 93.684422 321.299631 
L 94.43216 330.010156 
L 95.179899 327.908062 
L 95.927639 329.978162 
L 96.675377 331.104619 
L 97.423114 329.864648 
L 98.170855 325.170275 
L 98.918593 333.044183 
L 100.414071 313.248926 
L 101.909547 326.447407 
L 102.657288 331.407021 
L 103.405025 330.405752 
L 104.152763 313.016188 
L 104.900501 324.71785 
L 105.648242 329.620507 
L 106.39598 323.719155 
L 107.143717 310.10938 
L 107.891458 324.223515 
L 108.639196 320.680579 
L 109.386934 322.940382 
L 110.134674 327.590832 
L 110.882412 333.223862 
L 111.63015 327.570112 
L 112.377891 326.569006 
L 113.125629 320.898543 
L 113.873366 319.099721 
L 114.621104 318.443109 
L 115.368845 323.044325 
L 116.116583 318.770708 
L 116.86432 330.457342 
L 117.612061 316.149552 
L 119.107537 327.204808 
L 119.855277 321.597845 
L 120.603012 325.618675 
L 121.350753 317.013742 
L 122.098494 314.246751 
L 122.846229 309.501222 
L 123.593969 335.034231 
L 124.34171 335.373649 
L 125.089445 328.675832 
L 126.584926 318.834661 
L 127.332661 322.830149 
L 128.080402 339.494253 
L 128.828143 327.262616 
L 129.575878 319.178195 
L 130.323618 323.439883 
L 131.071359 319.648384 
L 131.819094 326.664755 
L 132.566835 326.510998 
L 133.314575 323.750189 
L 134.06231 322.157149 
L 134.810051 323.666513 
L 135.557792 324.231708 
L 136.305527 329.860478 
L 137.053267 322.388728 
L 137.801002 324.211659 
L 138.548743 317.029041 
L 139.296484 316.534108 
L 140.044219 323.760214 
L 140.791959 327.75503 
L 141.5397 329.63287 
L 142.287435 322.061328 
L 143.035176 324.528726 
L 143.782916 327.530993 
L 144.530651 324.769241 
L 145.278392 329.499361 
L 146.026133 320.104434 
L 146.773867 328.26713 
L 147.521608 316.420231 
L 148.269349 322.402468 
L 149.017084 321.232251 
L 149.764824 333.500505 
L 150.512565 324.762715 
L 151.2603 321.000437 
L 152.008041 333.414853 
L 152.755781 328.87478 
L 153.503516 327.121531 
L 154.251257 337.529093 
L 154.998998 325.887523 
L 155.746733 322.494392 
L 156.494473 335.038237 
L 157.242208 326.787351 
L 157.989949 338.997923 
L 158.73769 330.256164 
L 159.485425 341.807568 
L 160.233165 322.575748 
L 160.980906 327.897711 
L 161.728641 331.190797 
L 162.476382 336.699164 
L 163.224122 322.204335 
L 163.971857 317.319334 
L 164.719598 344.585145 
L 165.467339 322.47041 
L 166.215074 319.556315 
L 166.962814 328.557913 
L 167.710555 339.254028 
L 168.45829 324.216246 
L 169.206025 331.247409 
L 169.953771 333.770386 
L 170.701506 337.658795 
L 171.449241 324.306846 
L 172.196988 321.832469 
L 172.944723 331.090661 
L 173.692458 322.005876 
L 174.440204 332.849603 
L 175.187939 317.857175 
L 175.935674 322.023133 
L 176.68342 322.367682 
L 177.431155 320.344804 
L 178.17889 311.905574 
L 178.926636 311.125985 
L 179.674371 310.972228 
L 180.422106 311.930572 
L 181.169853 310.416966 
L 181.917588 304.516521 
L 182.665323 305.11237 
L 183.413069 299.64187 
L 184.160804 304.278616 
L 184.908539 316.815065 
L 185.656285 289.283605 
L 186.40402 278.172626 
L 187.151755 287.539646 
L 187.899502 288.181983 
L 188.647237 285.088091 
L 189.394972 281.483512 
L 190.142718 276.909071 
L 190.890453 281.314991 
L 191.638188 273.179884 
L 192.385934 272.677283 
L 193.133669 259.780034 
L 193.881404 259.564427 
L 194.629151 249.737006 
L 195.376886 250.256384 
L 196.124621 237.658973 
L 196.872367 238.787152 
L 197.620102 220.261655 
L 198.367837 244.916974 
L 199.115583 231.495624 
L 200.611053 199.745356 
L 201.3588 214.951547 
L 202.106535 208.269641 
L 202.85427 205.592254 
L 203.602005 189.890097 
L 204.349751 196.840665 
L 205.097486 185.374519 
L 206.592967 190.231083 
L 207.340702 174.44807 
L 208.088437 168.664077 
L 208.836183 158.652312 
L 209.583918 164.33617 
L 210.331653 163.693688 
L 211.0794 151.098669 
L 211.827135 149.290547 
L 212.57487 144.988945 
L 213.322616 143.587113 
L 214.070351 130.971867 
L 214.818086 132.893088 
L 215.565832 118.348694 
L 216.313567 120.524878 
L 217.061302 120.394213 
L 217.809049 133.47469 
L 218.556784 114.505248 
L 219.304519 112.875884 
L 220.052265 107.319991 
L 220.8 103.047117 
L 220.8 110.910371 
L 221.547735 99.916898 
L 222.295481 107.643778 
L 223.043216 87.653955 
L 223.790951 109.142045 
L 224.538698 110.363926 
L 225.286433 107.851419 
L 226.034168 100.808877 
L 226.781914 100.917492 
L 227.529649 77.579263 
L 228.277384 92.532218 
L 229.02513 98.557752 
L 229.772865 79.923934 
L 230.5206 91.0242 
L 231.268347 94.730147 
L 232.016082 78.833428 
L 232.763817 79.88559 
L 233.511563 86.769427 
L 234.259298 73.061406 
L 235.007033 81.681956 
L 235.754779 70.664206 
L 236.502514 78.270811 
L 237.250249 70.481563 
L 238.74573 89.972555 
L 239.493465 63.759445 
L 240.2412 85.109443 
L 240.988947 82.693653 
L 241.736682 86.378627 
L 243.232163 80.017902 
L 243.979898 80.552145 
L 244.727633 77.557904 
L 245.475379 69.805146 
L 246.223114 83.774715 
L 246.970849 92.063646 
L 247.718596 92.075954 
L 248.466331 88.779674 
L 249.214066 96.359691 
L 249.961812 78.937679 
L 250.709547 88.757269 
L 251.457282 87.799532 
L 252.205028 85.956606 
L 252.952763 96.235985 
L 253.700498 92.729399 
L 254.448245 82.054679 
L 255.19598 82.687766 
L 255.943715 90.440365 
L 256.691461 74.505986 
L 257.439196 96.787222 
L 258.186931 89.939069 
L 258.934677 89.125428 
L 259.682412 107.389111 
L 260.430147 73.669296 
L 261.925629 94.925833 
L 262.673364 72.859235 
L 263.42111 83.3054 
L 264.168833 84.418339 
L 264.91658 91.806685 
L 265.664326 86.722844 
L 266.41205 98.355051 
L 267.159796 81.813054 
L 267.907542 90.148998 
L 268.655266 86.524503 
L 269.403012 78.911752 
L 270.150759 85.450316 
L 270.898482 85.60913 
L 271.646229 85.509112 
L 272.393975 92.706762 
L 273.141699 81.520957 
L 273.889445 76.478936 
L 274.637191 82.071234 
L 275.384915 81.172371 
L 276.132661 93.733265 
L 276.880408 93.665586 
L 277.628131 97.750564 
L 278.375878 78.696502 
L 279.123624 89.291792 
L 279.871348 77.501913 
L 280.619094 93.053468 
L 281.36684 90.598563 
L 282.114564 86.799809 
L 282.86231 80.911902 
L 283.610057 87.046972 
L 284.35778 85.975101 
L 285.105527 87.36219 
L 285.853273 86.217007 
L 286.600997 95.438196 
L 287.348743 86.903153 
L 288.096489 88.809933 
L 288.844213 87.885044 
L 289.591959 83.970627 
L 290.339706 92.331873 
L 291.087429 88.082375 
L 291.835176 89.599596 
L 292.582922 84.505473 
L 293.330646 81.886153 
L 294.078392 94.290271 
L 295.573862 72.755097 
L 296.321608 97.966408 
L 297.069354 93.397463 
L 297.817078 93.756758 
L 298.564824 89.46941 
L 299.312571 75.912331 
L 300.060294 87.384822 
L 300.808041 92.431778 
L 301.555787 83.047786 
L 302.303511 91.755407 
L 303.051257 79.472316 
L 303.799003 85.304054 
L 304.546727 77.580781 
L 305.294473 92.194064 
L 306.04222 65.876051 
L 306.789943 81.602363 
L 307.53769 82.814151 
L 309.03316 92.652058 
L 309.780906 93.665455 
L 310.528652 88.449247 
L 311.276376 93.162939 
L 312.024122 85.46509 
L 312.771869 93.368423 
L 313.519592 83.052921 
L 314.267339 80.664766 
L 315.015085 92.511231 
L 315.762809 78.978534 
L 316.510555 89.176049 
L 317.258301 79.245107 
L 318.006025 84.356751 
L 318.753771 79.480043 
L 319.501518 94.586759 
L 320.249241 88.241226 
L 320.996988 77.134211 
L 321.744734 91.885367 
L 322.492458 102.001168 
L 323.240204 101.326778 
L 323.98795 105.345908 
L 324.735674 102.549759 
L 326.231167 78.366651 
L 326.97889 90.632213 
L 327.726636 85.173895 
L 328.474383 88.264021 
L 329.222106 87.419065 
L 329.969853 88.678922 
L 330.717599 88.721558 
L 331.465323 84.192824 
L 332.213069 95.862405 
L 332.960793 80.279812 
L 333.708539 80.898959 
L 334.456285 88.803267 
L 335.204009 81.609632 
L 335.951755 92.271024 
L 336.699502 91.008547 
L 337.447225 85.960929 
L 338.194972 88.316536 
L 339.690442 91.504754 
L 340.438188 90.554414 
L 341.185934 79.753572 
L 341.933658 100.167559 
L 342.681404 83.672598 
L 343.429151 87.743972 
L 344.176874 80.749843 
L 344.924621 82.152576 
L 345.672367 105.553168 
L 346.420091 81.457665 
L 347.167837 83.231435 
L 347.915583 85.318434 
L 348.663307 88.76142 
L 349.411053 79.301401 
L 350.1588 88.308342 
L 350.906523 72.28619 
L 351.65427 81.361304 
L 352.402016 70.187545 
L 353.14974 91.089794 
L 353.897486 98.095158 
L 354.645232 80.597264 
L 355.392956 79.776717 
L 356.140702 85.81301 
L 356.888448 97.290204 
L 358.383918 82.56353 
L 359.131665 88.668784 
L 359.879388 88.610994 
L 360.627135 89.502651 
L 361.374881 95.414712 
L 362.122605 93.099611 
L 362.870351 100.046504 
L 363.618097 77.887683 
L 364.365821 94.522375 
L 365.113567 88.404871 
L 365.861314 99.798399 
L 366.609037 87.584491 
L 367.356784 107.36027 
L 368.10453 88.23233 
L 368.852254 95.856899 
L 369.6 81.393562 
L 369.6 106.605543 
L 370.347746 97.622816 
L 371.09547 96.443 
L 371.843216 91.183201 
L 372.590963 103.912023 
L 373.338686 101.222708 
L 374.086433 118.064809 
L 375.581903 101.516658 
L 376.329649 97.850646 
L 377.077395 108.722452 
L 377.825119 93.055802 
L 378.572865 96.170554 
L 379.320612 110.157513 
L 380.068335 127.93828 
L 380.816082 124.415663 
L 381.563828 118.299394 
L 382.311552 105.808674 
L 383.059298 112.554876 
L 383.807044 130.693562 
L 385.302514 106.244186 
L 386.05026 121.392258 
L 386.797984 125.032477 
L 387.54573 105.995613 
L 388.293477 121.201398 
L 389.0412 125.924127 
L 389.788947 120.92338 
L 390.536693 124.190394 
L 391.284417 128.246357 
L 392.032163 117.428169 
L 392.779909 118.922482 
L 393.527633 121.691864 
L 394.275379 129.205001 
L 395.023126 121.057004 
L 395.770849 130.319886 
L 397.266342 123.977965 
L 398.014066 126.224857 
L 398.761812 119.844614 
L 399.509558 129.963004 
L 400.257282 145.72621 
L 401.005028 142.497715 
L 401.752775 125.072187 
L 402.500498 137.485412 
L 403.248245 132.756217 
L 403.995991 141.925867 
L 404.743715 129.024029 
L 405.491461 139.15803 
L 406.239207 126.231813 
L 406.986931 140.581479 
L 407.734677 128.931028 
L 408.482401 132.182395 
L 409.230147 142.203224 
L 409.977894 129.262129 
L 410.725617 143.542792 
L 411.473364 142.978278 
L 412.22111 131.952052 
L 412.968833 141.516726 
L 413.71658 141.238642 
L 414.464326 139.388463 
L 415.21205 143.98418 
L 415.959796 129.312017 
L 416.707542 132.318488 
L 417.455266 137.036478 
L 418.203012 137.19397 
L 418.950759 133.086112 
L 419.698482 123.581142 
L 420.446229 129.82376 
L 421.193975 139.523689 
L 421.941699 130.227011 
L 422.689445 136.487712 
L 423.437191 136.937817 
L 424.184915 122.101013 
L 424.932661 138.28697 
L 425.680408 138.623788 
L 426.428131 149.044131 
L 427.175878 145.062903 
L 427.923624 131.80755 
L 428.671348 139.953396 
L 429.419094 131.326131 
L 430.16684 142.946801 
L 430.914564 140.469384 
L 431.66231 130.19166 
L 432.410057 124.586759 
L 433.15778 130.776853 
L 433.905527 126.461862 
L 434.653273 122.849652 
L 435.400997 127.586244 
L 436.148743 141.54664 
L 437.644213 130.507966 
L 438.391959 137.957029 
L 439.139706 131.778528 
L 439.887429 146.256226 
L 440.635176 140.90646 
L 441.382922 131.230145 
L 442.130646 150.945953 
L 443.626138 135.126296 
L 444.373862 147.255844 
L 445.121608 134.592842 
L 445.869354 140.699175 
L 446.617078 137.078487 
L 447.364824 136.84603 
L 448.112571 133.650718 
L 448.860294 139.018686 
L 449.608041 134.360715 
L 450.355787 139.285046 
L 451.851257 122.926528 
L 452.599003 133.596712 
L 453.346727 133.789172 
L 454.094451 143.297049 
L 454.84222 130.057686 
L 455.589943 140.403504 
L 456.337667 140.765463 
L 457.085436 131.026571 
L 457.83316 133.709556 
L 458.580883 127.108053 
L 459.328652 124.715174 
L 460.076376 138.84685 
L 460.8241 134.084929 
L 461.571869 122.451761 
L 462.319592 128.110508 
L 463.067316 129.917386 
L 463.815085 125.689363 
L 464.562809 139.30961 
L 465.310532 130.462433 
L 466.058301 124.954841 
L 466.806025 123.446138 
L 467.553749 140.746486 
L 469.049241 132.272006 
L 469.796965 137.059973 
L 470.544734 137.792866 
L 471.292458 130.124439 
L 472.040181 137.519107 
L 472.78795 147.744243 
L 473.535674 132.420753 
L 474.283397 138.025784 
L 475.031167 140.214353 
L 475.77889 146.160582 
L 476.526614 127.773473 
L 477.274383 150.874859 
L 478.022106 147.11285 
L 479.517599 126.240005 
L 480.265323 125.664415 
L 481.013046 143.232716 
L 481.760815 136.266162 
L 482.508539 145.766533 
L 483.256263 127.792117 
L 484.004032 145.524939 
L 485.499479 127.636892 
L 486.247248 136.585367 
L 486.994972 124.520696 
L 487.742695 141.201419 
L 488.490464 132.36841 
L 489.238188 128.917805 
L 489.985912 135.995865 
L 490.733681 125.118351 
L 491.481404 131.092933 
L 492.229128 146.671741 
L 492.976897 106.783078 
L 493.724621 130.376468 
L 494.472344 134.234857 
L 495.220113 144.970738 
L 495.967837 134.417159 
L 496.715561 138.278472 
L 497.46333 130.407047 
L 498.211053 132.350734 
L 498.958777 121.791748 
L 499.706546 133.986033 
L 500.45427 131.339733 
L 501.201993 132.345127 
L 501.949762 136.058435 
L 502.697486 136.307276 
L 503.445209 127.152071 
L 504.192979 129.439967 
L 504.940702 139.48666 
L 505.688426 142.936573 
L 506.436195 135.480498 
L 507.183918 126.721256 
L 507.931642 135.19623 
L 508.679411 122.55141 
L 509.427135 140.524701 
L 510.174858 133.990386 
L 510.922627 152.936214 
L 511.670351 139.245921 
L 512.418075 137.203417 
L 513.165844 131.358035 
L 513.913567 122.806402 
L 514.661291 134.750922 
L 515.40906 124.636476 
L 516.156784 130.283538 
L 516.904507 127.969282 
L 517.652276 138.322752 
L 518.4 125.127782 
L 518.4 125.127782 
" clip-path="url(#p33df6a24c3)" style="fill: none; stroke: #1f77b4; stroke-width: 1.5; stroke-linecap: square"/>
   </g>
   <g id="patch_7">
    <path d="M 72 384.48 
L 72 51.84 
" style="fill: none; stroke: #000000; stroke-width: 0.8; stroke-linejoin: miter; stroke-linecap: square"/>
   </g>
   <g id="patch_8">
    <path d="M 518.4 384.48 
L 518.4 51.84 
" style="fill: none; stroke: #000000; stroke-width: 0.8; stroke-linejoin: miter; stroke-linecap: square"/>
   </g>
   <g id="patch_9">
    <path d="M 72 384.48 
L 518.4 384.48 
" style="fill: none; stroke: #000000; stroke-width: 0.8; stroke-linejoin: miter; stroke-linecap: square"/>
   </g>
   <g id="patch_10">
    <path d="M 72 51.84 
L 518.4 51.84 
" style="fill: none; stroke: #000000; stroke-width: 0.8; stroke-linejoin: miter; stroke-linecap: square"/>
   </g>
   <g id="patch_11">
    <path d="M 295.573862 67.954437 
Q 295.573862 87.480343 295.573862 107.006248 
" style="fill: none; stroke: #16344c; stroke-width: 2; stroke-linecap: round"/>
    <path d="M 293.173862 72.754437 
L 295.573862 67.954437 
L 297.973862 72.754437 
" style="fill: none; stroke: #16344c; stroke-width: 2; stroke-linecap: round"/>
    <path d="M 297.973862 102.206248 
L 295.573862 107.006248 
L 293.173862 102.206248 
" style="fill: none; stroke: #16344c; stroke-width: 2; stroke-linecap: round"/>
   </g>
   <g id="text_18">
    <!-- 25 ± 10℃ -->
    <g transform="translate(295.573862 135) scale(0.16 -0.16)">
     <defs>
      <path id="TimesNewRomanPSMT-b1" d="M 25 441 
L 25 694 
L 1581 694 
L 1581 2000 
L 25 2000 
L 25 2256 
L 1581 2256 
L 1581 3809 
L 1831 3809 
L 1831 2256 
L 3394 2256 
L 3394 2000 
L 1831 2000 
L 1831 694 
L 3397 694 
L 3397 441 
L 25 441 
z
" transform="scale(0.015625)"/>
     </defs>
     <use xlink:href="#TimesNewRomanPSMT-32"/>
     <use xlink:href="#TimesNewRomanPSMT-35" x="50"/>
     <use xlink:href="#TimesNewRomanPSMT-20" x="100"/>
     <use xlink:href="#TimesNewRomanPSMT-b1" x="125"/>
     <use xlink:href="#TimesNewRomanPSMT-20" x="179.882812"/>
     <use xlink:href="#TimesNewRomanPSMT-31" x="204.882812"/>
     <use xlink:href="#TimesNewRomanPSMT-30" x="254.882812"/>
     <use xlink:href="#TimesNewRomanPSMT-2103" x="304.882812"/>
    </g>
   </g>
   <g id="legend_1">
    <g id="patch_12">
     <path d="M 407.8 377.48 
L 508.6 377.48 
Q 511.4 377.48 511.4 374.68 
L 511.4 276.168125 
Q 511.4 273.368125 508.6 273.368125 
L 407.8 273.368125 
Q 405 273.368125 405 276.168125 
L 405 374.68 
Q 405 377.48 407.8 377.48 
z
" style="fill: #ffffff; opacity: 0.8; stroke: #000000; stroke-linejoin: miter"/>
    </g>
    <g id="line2d_32">
     <path d="M 410.6 283.868125 
L 424.6 283.868125 
L 438.6 283.868125 
" style="fill: none; stroke-dasharray: 5.55,2.4; stroke-dashoffset: 0; stroke: #ff7f0e; stroke-width: 1.5"/>
    </g>
    <g id="text_19">
     <!-- 功率需求 -->
     <g transform="translate(449.8 288.768125) scale(0.14 -0.14)">
      <defs>
       <path id="SimHei-529f" d="M 5675 275 
Q 5575 -200 5225 -312 
Q 4875 -425 4450 -475 
Q 4400 -175 4200 100 
Q 4725 75 4937 137 
Q 5150 200 5175 425 
Q 5300 1775 5375 3275 
L 4250 3275 
Q 4225 2550 4125 1925 
Q 4025 1300 3787 850 
Q 3550 400 3250 50 
Q 2950 -300 2550 -650 
Q 2375 -400 2100 -250 
Q 2650 100 2925 425 
Q 3200 750 3400 1162 
Q 3600 1575 3675 2075 
Q 3750 2575 3775 3275 
L 3400 3275 
Q 3100 3275 2800 3250 
L 2800 3725 
Q 3125 3700 3450 3700 
L 3775 3700 
L 3775 4575 
Q 3775 4875 3750 5175 
Q 4075 5100 4325 5075 
Q 4275 4900 4262 4525 
Q 4250 4150 4250 3700 
L 5900 3700 
Q 5875 3350 5850 3037 
Q 5825 2725 5675 275 
z
M 2900 1000 
Q 2475 900 2200 837 
Q 1925 775 1337 600 
Q 750 425 500 350 
Q 400 700 300 900 
Q 450 900 1375 1100 
L 1375 3900 
L 1175 3900 
Q 875 3900 450 3875 
L 450 4350 
Q 850 4325 1175 4325 
L 2100 4325 
Q 2450 4325 2725 4350 
L 2725 3875 
Q 2425 3900 2125 3900 
L 1875 3900 
L 1875 1200 
L 2375 1325 
Q 2575 1375 2850 1450 
L 2900 1000 
z
" transform="scale(0.015625)"/>
       <path id="SimHei-7387" d="M 3325 5150 
Q 3425 4900 3550 4525 
L 4800 4525 
Q 5250 4525 5800 4550 
L 5800 4125 
Q 5250 4175 4775 4175 
L 2800 4175 
Q 2975 4050 3300 3900 
Q 3075 3750 2875 3537 
Q 2675 3325 2475 3125 
L 3275 3125 
Q 3575 3425 3775 3775 
Q 4000 3600 4275 3425 
Q 3950 3250 3600 2875 
Q 3250 2500 2625 2000 
L 3850 2100 
Q 3725 2250 3600 2425 
Q 3750 2475 4000 2650 
Q 4250 2350 4700 1700 
Q 4475 1625 4225 1450 
Q 4175 1600 4025 1775 
Q 3700 1750 3425 1750 
L 3425 1050 
L 5150 1050 
Q 5675 1050 6100 1075 
L 6100 650 
Q 5700 675 5125 675 
L 3425 675 
L 3425 175 
Q 3425 -300 3450 -625 
L 2900 -625 
Q 2925 -300 2925 175 
L 2925 675 
L 1325 675 
Q 825 675 325 650 
L 325 1075 
Q 825 1050 1350 1050 
L 2925 1050 
L 2925 1700 
Q 2700 1675 2475 1637 
Q 2250 1600 2025 1525 
Q 1950 1775 1850 2000 
Q 2075 2025 2325 2200 
Q 2575 2375 2975 2800 
Q 2300 2725 2025 2625 
Q 1975 2875 1850 3175 
Q 2075 3175 2325 3487 
Q 2575 3800 2750 4175 
L 1700 4175 
Q 1150 4175 650 4125 
L 650 4550 
Q 1150 4525 1550 4525 
L 2975 4525 
Q 2900 4825 2800 5025 
Q 3025 5075 3325 5150 
z
M 1625 2575 
Q 1725 2400 1825 2200 
Q 1575 2050 1325 1862 
Q 1075 1675 800 1425 
Q 625 1675 475 1875 
Q 800 2025 1100 2212 
Q 1400 2400 1625 2575 
z
M 4850 2650 
Q 5125 2475 5337 2337 
Q 5550 2200 5875 1950 
Q 5675 1800 5500 1600 
Q 5300 1775 5062 1975 
Q 4825 2175 4575 2325 
Q 4725 2475 4850 2650 
z
M 5725 3525 
Q 5550 3450 5300 3262 
Q 5050 3075 4800 2825 
Q 4625 3050 4475 3175 
Q 4700 3325 4875 3487 
Q 5050 3650 5300 3925 
Q 5525 3700 5725 3525 
z
M 1050 3850 
Q 1425 3600 1775 3275 
Q 1575 3100 1425 2925 
Q 1075 3300 675 3525 
Q 875 3700 1050 3850 
z
" transform="scale(0.015625)"/>
       <path id="SimHei-9700" d="M 5150 2100 
Q 5500 2100 5975 2125 
L 5975 1700 
Q 5500 1725 5150 1725 
L 3425 1725 
Q 3300 1500 3250 1275 
L 5600 1275 
Q 5575 950 5575 700 
L 5575 -50 
Q 5575 -350 5425 -437 
Q 5275 -525 4775 -625 
Q 4750 -400 4550 -100 
Q 4950 -100 5025 -50 
Q 5100 0 5100 200 
L 5100 900 
L 4125 900 
L 4125 -375 
L 3650 -375 
L 3650 900 
L 2775 900 
L 2775 -375 
L 2300 -375 
L 2300 900 
L 1350 900 
L 1350 -575 
L 875 -575 
Q 900 -225 900 175 
L 900 575 
Q 900 900 875 1275 
L 2800 1275 
Q 2875 1500 2925 1725 
L 1350 1725 
Q 925 1725 525 1700 
L 525 2125 
Q 900 2100 1325 2100 
L 5150 2100 
z
M 4700 5075 
Q 5075 5075 5550 5100 
L 5550 4675 
Q 5075 4700 4700 4700 
L 3475 4700 
L 3475 4275 
L 5975 4275 
L 5975 3100 
L 5500 3100 
L 5500 3900 
L 3475 3900 
L 3475 3200 
Q 3475 2775 3500 2425 
L 2975 2425 
Q 3000 2750 3000 3175 
L 3000 3900 
L 950 3900 
L 950 3100 
L 450 3100 
Q 450 3375 462 3650 
Q 475 3925 450 4275 
L 3000 4275 
L 3000 4700 
L 1775 4700 
Q 1400 4700 1025 4675 
L 1025 5100 
Q 1400 5075 1750 5075 
L 4700 5075 
z
M 2475 2450 
L 1250 2450 
L 1250 2800 
L 2475 2800 
L 2475 2450 
z
M 2500 3150 
L 1325 3150 
L 1325 3500 
L 2500 3500 
L 2500 3150 
z
M 5000 3175 
L 3825 3175 
L 3825 3525 
L 5000 3525 
L 5000 3175 
z
M 5025 2500 
L 3850 2500 
L 3850 2850 
L 5025 2850 
L 5025 2500 
z
" transform="scale(0.015625)"/>
       <path id="SimHei-6c42" d="M 475 4025 
Q 875 4000 1325 4000 
L 2875 4000 
Q 2875 4725 2850 5125 
L 3400 5125 
Q 3375 4725 3375 4000 
L 5150 4000 
Q 5500 4000 5925 4025 
L 5925 3575 
Q 5475 3600 5150 3600 
L 3375 3600 
Q 3400 3200 3612 2750 
Q 3825 2300 4050 2000 
Q 4600 2450 5075 3150 
Q 5250 2950 5575 2750 
Q 5275 2600 4250 1650 
Q 4575 1225 5037 850 
Q 5500 475 6050 325 
Q 5700 125 5550 -150 
Q 5000 150 4437 687 
Q 3875 1225 3375 2375 
L 3375 150 
Q 3400 -225 3137 -350 
Q 2875 -475 2375 -525 
Q 2325 -275 2150 25 
Q 2575 0 2737 37 
Q 2900 75 2875 300 
L 2875 1675 
Q 1875 900 1437 550 
Q 1000 200 725 -50 
Q 500 200 300 400 
Q 650 575 1200 937 
Q 1750 1300 2875 2250 
L 2875 3600 
L 1325 3600 
Q 875 3600 475 3575 
L 475 4025 
z
M 1225 3175 
Q 1775 2725 2250 2325 
L 1825 1950 
Q 1450 2375 825 2825 
L 1225 3175 
z
M 4500 5100 
Q 4900 4825 5300 4425 
Q 5125 4300 4925 4100 
Q 4650 4400 4125 4825 
Q 4275 4950 4500 5100 
z
" transform="scale(0.015625)"/>
      </defs>
      <use xlink:href="#SimHei-529f"/>
      <use xlink:href="#SimHei-7387" x="100"/>
      <use xlink:href="#SimHei-9700" x="200"/>
      <use xlink:href="#SimHei-6c42" x="300"/>
     </g>
    </g>
    <g id="line2d_33">
     <path d="M 410.6 303.938438 
L 424.6 303.938438 
L 438.6 303.938438 
" style="fill: none; stroke: #1f77b4; stroke-width: 1.5; stroke-linecap: square"/>
    </g>
    <g id="text_20">
     <!-- 环境温度 -->
     <g transform="translate(449.8 308.838437) scale(0.14 -0.14)">
      <use xlink:href="#SimHei-73af"/>
      <use xlink:href="#SimHei-5883" x="100"/>
      <use xlink:href="#SimHei-6e29" x="200"/>
      <use xlink:href="#SimHei-5ea6" x="300"/>
     </g>
    </g>
    <g id="patch_13">
     <path d="M 410.6 328.90875 
L 438.6 328.90875 
L 438.6 319.10875 
L 410.6 319.10875 
z
" style="fill: #add8e6; opacity: 0.2; stroke: #add8e6; stroke-linejoin: miter"/>
    </g>
    <g id="text_21">
     <!-- 飞行阶段 -->
     <g transform="translate(449.8 328.90875) scale(0.14 -0.14)">
      <defs>
       <path id="SimHei-98de" d="M 3925 3025 
Q 4500 3575 5000 4425 
Q 5250 4200 5550 3950 
Q 5300 3825 4975 3475 
Q 4650 3125 4350 2800 
Q 4825 2475 5050 2337 
Q 5275 2200 5675 1925 
Q 5450 1725 5275 1425 
Q 5025 1675 4650 1962 
Q 4275 2250 3950 2475 
Q 3975 1950 4100 1500 
Q 4225 1050 4475 687 
Q 4725 325 5000 187 
Q 5275 50 5362 250 
Q 5450 450 5500 875 
Q 5775 675 6050 550 
Q 5875 -75 5700 -312 
Q 5525 -550 5125 -475 
Q 4725 -400 4325 -12 
Q 3925 375 3712 1025 
Q 3500 1675 3462 2500 
Q 3425 3325 3450 4325 
L 1250 4325 
Q 925 4325 500 4300 
L 500 4800 
Q 925 4775 1225 4775 
L 3975 4775 
Q 3925 4275 3925 3850 
L 3925 3025 
z
" transform="scale(0.015625)"/>
       <path id="SimHei-884c" d="M 5300 3100 
Q 5775 3100 6175 3125 
L 6175 2625 
Q 5775 2650 5325 2650 
L 4975 2650 
L 4975 -75 
Q 5000 -375 4787 -487 
Q 4575 -600 3950 -675 
Q 3900 -375 3675 -75 
Q 4100 -125 4275 -112 
Q 4450 -100 4475 150 
L 4475 2650 
L 3475 2650 
Q 3000 2650 2575 2625 
L 2575 3125 
Q 3025 3100 3475 3100 
L 5300 3100 
z
M 2300 3400 
Q 2075 3275 1962 3075 
Q 1850 2875 1650 2575 
L 1650 325 
Q 1650 0 1675 -675 
L 1150 -675 
Q 1175 75 1175 450 
L 1175 2050 
Q 950 1675 575 1300 
Q 400 1550 250 1725 
Q 825 2275 1150 2775 
Q 1475 3275 1725 3725 
Q 1975 3575 2300 3400 
z
M 4875 4800 
Q 5300 4800 5750 4825 
L 5750 4350 
Q 5300 4375 4825 4375 
L 3900 4375 
Q 3350 4375 2950 4350 
L 2950 4825 
Q 3350 4800 3900 4800 
L 4875 4800 
z
M 2075 4925 
Q 1875 4900 1550 4387 
Q 1225 3875 650 3250 
Q 500 3450 325 3625 
Q 725 4025 1050 4487 
Q 1375 4950 1525 5300 
Q 1775 5150 2075 4925 
z
" transform="scale(0.015625)"/>
       <path id="SimHei-9636" d="M 2450 4850 
Q 2350 4575 2175 3962 
Q 2000 3350 1825 2800 
Q 2225 2225 2312 1912 
Q 2400 1600 2375 1250 
Q 2350 900 2137 725 
Q 1925 550 1400 475 
Q 1300 925 1200 1075 
Q 1725 1025 1837 1225 
Q 1950 1425 1875 1775 
Q 1800 2125 1350 2725 
Q 1700 3825 1825 4400 
L 975 4400 
L 975 -500 
L 500 -500 
Q 525 175 525 675 
L 525 3650 
Q 525 4225 500 4850 
L 2450 4850 
z
M 4250 4825 
Q 4600 4100 5187 3637 
Q 5775 3175 6200 3025 
Q 5950 2775 5800 2500 
Q 4975 3075 4600 3512 
Q 4225 3950 4025 4400 
Q 3850 4025 3512 3487 
Q 3175 2950 2625 2350 
Q 2425 2575 2175 2700 
Q 2700 3075 3150 3787 
Q 3600 4500 3850 5275 
Q 4050 5150 4375 5075 
Q 4275 4900 4250 4825 
z
M 3750 2700 
Q 3650 2325 3575 1512 
Q 3500 700 3250 225 
Q 3000 -250 2650 -575 
Q 2425 -400 2175 -300 
Q 2550 -25 2762 337 
Q 2975 700 3087 1200 
Q 3200 1700 3200 2800 
Q 3350 2725 3750 2700 
z
M 5025 2775 
Q 4975 2425 4975 2025 
L 4975 350 
Q 4975 100 5000 -525 
L 4475 -525 
Q 4500 150 4500 375 
L 4500 2025 
Q 4500 2375 4475 2775 
L 5025 2775 
z
" transform="scale(0.015625)"/>
       <path id="SimHei-6bb5" d="M 5500 2475 
Q 5350 1775 5100 1237 
Q 4850 700 4600 400 
Q 4825 225 5250 87 
Q 5675 -50 6125 -125 
Q 5950 -275 5825 -650 
Q 5150 -450 4825 -287 
Q 4500 -125 4225 75 
Q 3825 -175 3450 -337 
Q 3075 -500 2625 -650 
Q 2525 -400 2325 -225 
Q 2675 -150 3100 0 
Q 3525 150 3925 425 
Q 3725 675 3525 1150 
Q 3325 1600 3225 2075 
Q 3050 2075 2900 2075 
L 2900 2500 
Q 3375 2475 3800 2475 
L 5500 2475 
z
M 2650 4625 
Q 2300 4550 1887 4475 
Q 1475 4400 1300 4375 
L 1300 3550 
Q 2050 3550 2525 3600 
L 2525 3125 
Q 2050 3150 1300 3150 
L 1300 2350 
Q 2050 2350 2525 2375 
L 2525 1900 
Q 2050 1925 1300 1925 
L 1300 975 
Q 1950 1075 2625 1250 
Q 2600 1000 2600 775 
Q 1900 675 1300 525 
L 1300 100 
Q 1300 -200 1325 -625 
L 800 -625 
Q 825 -200 825 100 
L 825 425 
Q 575 375 350 300 
Q 300 650 250 825 
Q 500 850 825 900 
L 825 3800 
Q 825 4225 800 4725 
Q 1100 4725 1575 4825 
Q 2050 4925 2375 5125 
Q 2475 4850 2650 4625 
z
M 5100 4975 
Q 5075 4600 5075 4275 
L 5075 3650 
Q 5075 3425 5237 3387 
Q 5400 3350 5975 3400 
Q 5875 3225 5850 2950 
L 5075 2950 
Q 4650 2950 4625 3375 
L 4625 4575 
L 3775 4575 
Q 3775 3925 3675 3525 
Q 3575 3125 3200 2725 
Q 3025 2900 2800 3050 
Q 3275 3400 3300 3937 
Q 3325 4475 3300 4975 
L 5100 4975 
z
M 3675 2100 
Q 3775 1675 3962 1287 
Q 4150 900 4275 775 
Q 4450 950 4625 1312 
Q 4800 1675 4900 2100 
L 3800 2100 
L 3675 2100 
z
" transform="scale(0.015625)"/>
      </defs>
      <use xlink:href="#SimHei-98de"/>
      <use xlink:href="#SimHei-884c" x="100"/>
      <use xlink:href="#SimHei-9636" x="200"/>
      <use xlink:href="#SimHei-6bb5" x="300"/>
     </g>
    </g>
    <g id="patch_14">
     <path d="M 410.6 348.979062 
L 438.6 348.979062 
L 438.6 339.179062 
L 410.6 339.179062 
z
" style="fill: #90ee90; opacity: 0.2; stroke: #90ee90; stroke-linejoin: miter"/>
    </g>
    <g id="text_22">
     <!-- 水面滑行 -->
     <g transform="translate(449.8 348.979062) scale(0.14 -0.14)">
      <defs>
       <path id="SimHei-6c34" d="M 3450 5175 
Q 3450 4800 3437 4500 
Q 3425 4200 3487 3762 
Q 3550 3325 3950 2725 
Q 4975 3575 5175 4050 
Q 5450 3800 5675 3575 
Q 5350 3350 5037 3075 
Q 4725 2800 4175 2325 
Q 4375 1900 4900 1375 
Q 5425 850 6175 625 
Q 5750 425 5675 125 
Q 4725 700 4212 1400 
Q 3700 2100 3425 2800 
L 3425 25 
Q 3450 -325 3162 -475 
Q 2875 -625 2400 -675 
Q 2375 -400 2175 -75 
Q 2575 -150 2750 -100 
Q 2925 -50 2925 225 
L 2925 4175 
Q 2925 4800 2875 5175 
L 3450 5175 
z
M 2550 3575 
Q 2425 2900 2237 2362 
Q 2050 1825 1737 1300 
Q 1425 775 750 100 
Q 575 325 225 450 
Q 925 950 1337 1600 
Q 1750 2250 1950 3125 
L 1275 3125 
Q 900 3125 425 3075 
L 425 3600 
Q 875 3575 1250 3575 
L 2550 3575 
z
" transform="scale(0.015625)"/>
       <path id="SimHei-9762" d="M 5275 4850 
Q 5650 4850 5950 4875 
L 5950 4400 
Q 5600 4425 5275 4425 
L 3275 4425 
Q 3175 4200 2950 3575 
L 5525 3575 
Q 5500 3100 5500 2600 
L 5500 450 
Q 5500 -100 5525 -525 
L 5025 -525 
L 5025 -175 
L 1350 -175 
L 1350 -525 
L 850 -525 
Q 875 -200 875 425 
L 875 2650 
Q 875 3125 850 3575 
L 2475 3575 
Q 2700 4150 2750 4425 
L 1175 4425 
Q 800 4425 425 4400 
L 425 4875 
Q 825 4850 1175 4850 
L 5275 4850 
z
M 2200 225 
L 2200 3175 
L 1350 3175 
L 1350 225 
L 2200 225 
z
M 5025 225 
L 5025 3175 
L 4175 3175 
L 4175 225 
L 5025 225 
z
M 3750 225 
L 3750 1050 
L 2625 1050 
L 2625 225 
L 3750 225 
z
M 3750 2475 
L 3750 3175 
L 2625 3175 
L 2625 2475 
L 3750 2475 
z
M 3750 1425 
L 3750 2100 
L 2625 2100 
L 2625 1425 
L 3750 1425 
z
" transform="scale(0.015625)"/>
       <path id="SimHei-6ed1" d="M 5350 5100 
Q 5325 4725 5325 4400 
L 5325 3325 
L 6125 3325 
Q 6100 3050 6100 2775 
Q 6100 2500 6125 2275 
L 5650 2275 
L 5650 2925 
L 2150 2925 
L 2150 2275 
L 1700 2275 
Q 1725 2550 1725 2800 
Q 1725 3075 1700 3325 
L 2475 3325 
L 2475 4375 
Q 2475 4675 2450 5100 
L 5350 5100 
z
M 5275 2500 
Q 5250 2150 5250 1725 
L 5250 -75 
Q 5250 -375 5025 -475 
Q 4800 -575 4375 -625 
Q 4375 -400 4225 -75 
Q 4775 -175 4775 75 
L 4775 425 
L 3000 425 
L 3000 -625 
L 2525 -625 
Q 2550 -125 2550 225 
L 2550 1750 
Q 2550 2125 2525 2500 
L 5275 2500 
z
M 4300 4225 
L 4300 3325 
L 4900 3325 
L 4900 4700 
L 2925 4700 
L 2925 4225 
L 4300 4225 
z
M 1675 1900 
Q 1525 1675 1375 1262 
Q 1225 850 1062 437 
Q 900 25 775 -300 
Q 500 -100 200 50 
Q 375 250 525 525 
Q 675 800 875 1275 
Q 1075 1750 1175 2125 
Q 1375 2000 1675 1900 
z
M 4775 1625 
L 4775 2125 
L 3000 2125 
L 3000 1625 
L 4775 1625 
z
M 4775 800 
L 4775 1250 
L 3000 1250 
L 3000 800 
L 4775 800 
z
M 950 5125 
Q 1100 5025 1362 4825 
Q 1625 4625 1850 4450 
Q 1700 4275 1550 4000 
Q 1325 4225 1112 4400 
Q 900 4575 650 4725 
Q 825 4950 950 5125 
z
M 1000 3375 
Q 1225 3225 1475 3025 
Q 1325 2875 1175 2625 
Q 950 2800 750 2950 
Q 550 3100 250 3275 
L 550 3675 
L 1000 3375 
z
M 3900 3325 
L 3900 3825 
L 2925 3825 
L 2925 3325 
L 3900 3325 
z
" transform="scale(0.015625)"/>
      </defs>
      <use xlink:href="#SimHei-6c34"/>
      <use xlink:href="#SimHei-9762" x="100"/>
      <use xlink:href="#SimHei-6ed1" x="200"/>
      <use xlink:href="#SimHei-884c" x="300"/>
     </g>
    </g>
    <g id="patch_15">
     <path d="M 410.6 368.885312 
L 438.6 368.885312 
L 438.6 359.085312 
L 410.6 359.085312 
z
" style="fill: #fa8072; opacity: 0.2; stroke: #fa8072; stroke-linejoin: miter"/>
    </g>
    <g id="text_23">
     <!-- 水下潜航 -->
     <g transform="translate(449.8 368.885312) scale(0.14 -0.14)">
      <defs>
       <path id="SimHei-4e0b" d="M 5000 4700 
Q 5475 4700 5975 4725 
L 5975 4200 
Q 5425 4225 5000 4225 
L 3275 4225 
L 3275 375 
Q 3275 50 3300 -450 
L 2725 -450 
Q 2750 0 2750 375 
L 2750 4225 
L 1375 4225 
Q 875 4225 400 4200 
L 400 4725 
Q 875 4700 1375 4700 
L 5000 4700 
z
M 5650 1400 
Q 5400 1225 5200 1000 
Q 4800 1525 3650 2575 
L 4025 2950 
Q 4700 2400 5650 1400 
z
" transform="scale(0.015625)"/>
       <path id="SimHei-6f5c" d="M 5475 1975 
Q 5450 1350 5450 575 
Q 5450 -200 5475 -600 
L 5000 -600 
L 5000 -250 
L 2775 -250 
L 2775 -650 
L 2275 -650 
Q 2300 -200 2300 525 
Q 2300 1275 2275 1975 
L 4025 1975 
Q 3925 2125 3650 2275 
Q 4325 2625 4575 3350 
Q 4200 3350 3850 3325 
L 3850 3725 
Q 4225 3700 4650 3700 
Q 4675 3900 4675 4225 
Q 4350 4225 3975 4200 
L 3975 4600 
Q 4325 4575 4675 4575 
Q 4675 4900 4650 5225 
Q 4900 5200 5150 5200 
Q 5075 4900 5075 4575 
Q 5450 4575 5850 4600 
L 5850 4200 
Q 5500 4225 5075 4225 
Q 5050 3750 5050 3700 
Q 5525 3700 5975 3725 
L 5975 3325 
Q 5650 3350 5150 3350 
Q 5475 2700 6200 2350 
Q 5975 2225 5850 1975 
Q 5200 2375 4900 3025 
Q 4650 2475 4100 1975 
L 5475 1975 
z
M 3350 2275 
Q 3175 2600 2850 2925 
Q 2525 2350 2000 1925 
Q 1875 2050 1575 2200 
Q 2250 2625 2550 3350 
L 1775 3350 
L 1775 3700 
L 2625 3700 
Q 2625 3925 2650 4225 
L 2000 4225 
L 2000 4575 
L 2650 4575 
Q 2650 4900 2625 5225 
Q 2825 5175 3125 5175 
Q 3050 4900 3050 4575 
L 3600 4575 
L 3600 4225 
L 3050 4225 
Q 3050 3925 3025 3700 
L 3625 3700 
L 3625 3350 
L 3000 3350 
Q 3475 2900 3725 2600 
Q 3525 2475 3350 2275 
z
M 5000 125 
L 5000 675 
L 2775 675 
L 2775 125 
L 5000 125 
z
M 5000 1075 
L 5000 1600 
L 2775 1600 
L 2775 1075 
L 5000 1075 
z
M 1625 1450 
Q 1525 1300 1237 625 
Q 950 -50 750 -550 
Q 525 -375 225 -200 
Q 525 175 812 762 
Q 1100 1350 1250 1775 
Q 1425 1600 1625 1450 
z
M 1400 4050 
Q 1050 4375 475 4675 
Q 625 4850 750 5050 
Q 1325 4775 1700 4475 
Q 1525 4300 1400 4050 
z
M 575 3500 
Q 1100 3225 1525 2875 
Q 1350 2675 1250 2450 
Q 950 2775 325 3125 
Q 475 3300 575 3500 
z
" transform="scale(0.015625)"/>
       <path id="SimHei-822a" d="M 2000 5000 
Q 1850 4725 1650 4275 
L 2600 4275 
L 2600 150 
Q 2600 -250 2425 -350 
Q 2250 -450 1750 -525 
Q 1700 -250 1550 25 
Q 1950 0 2062 25 
Q 2175 50 2175 350 
L 2175 1975 
L 1125 1975 
Q 1125 1400 1087 962 
Q 1050 525 950 137 
Q 850 -250 650 -675 
Q 450 -500 200 -450 
Q 525 125 612 662 
Q 700 1200 700 1975 
Q 525 1975 275 1950 
L 275 2375 
Q 550 2350 700 2350 
L 700 3450 
Q 700 3825 675 4275 
L 1200 4275 
Q 1400 4750 1475 5175 
Q 1750 5075 2000 5000 
z
M 5200 2975 
Q 5175 2650 5175 2075 
L 5175 300 
Q 5175 0 5325 0 
L 5450 0 
Q 5575 0 5625 150 
Q 5675 300 5675 625 
Q 5900 475 6175 425 
Q 6075 -50 5975 -225 
Q 5875 -400 5550 -400 
L 5150 -400 
Q 4725 -400 4725 100 
L 4725 2575 
L 3825 2575 
Q 3825 1725 3800 1237 
Q 3775 750 3587 287 
Q 3400 -175 2950 -675 
Q 2800 -450 2550 -350 
Q 3075 125 3212 575 
Q 3350 1025 3362 1362 
Q 3375 1700 3375 2125 
Q 3375 2550 3350 2975 
L 5200 2975 
z
M 2175 2350 
L 2175 3900 
L 1125 3900 
L 1125 2350 
L 2175 2350 
z
M 5925 3675 
Q 5625 3700 5300 3700 
L 3500 3700 
Q 3225 3700 2975 3675 
L 2975 4125 
Q 3250 4100 3475 4100 
L 5325 4100 
Q 5625 4100 5925 4125 
L 5925 3675 
z
M 4125 5225 
Q 4450 4725 4625 4375 
Q 4325 4250 4150 4150 
Q 4000 4525 3700 5000 
Q 3950 5125 4125 5225 
z
M 1550 1675 
Q 1800 1250 2025 825 
Q 1850 725 1650 600 
Q 1425 1125 1225 1450 
Q 1400 1550 1550 1675 
z
M 2000 2800 
Q 1800 2725 1625 2625 
Q 1525 2925 1275 3425 
Q 1425 3500 1625 3625 
L 2000 2800 
z
" transform="scale(0.015625)"/>
      </defs>
      <use xlink:href="#SimHei-6c34"/>
      <use xlink:href="#SimHei-4e0b" x="100"/>
      <use xlink:href="#SimHei-6f5c" x="200"/>
      <use xlink:href="#SimHei-822a" x="300"/>
     </g>
    </g>
   </g>
  </g>
  <g id="axes_2">
   <g id="patch_16">
    <path d="M 220.8 365.855991 
L 369.6 365.855991 
L 369.6 334.217905 
L 220.8 334.217905 
z
" clip-path="url(#p33df6a24c3)" style="fill: #808080; opacity: 0.2"/>
   </g>
   <g id="matplotlib.axis_3">
    <g id="ytick_9">
     <g id="line2d_34">
      <defs>
       <path id="m2d115180f9" d="M 0 0 
L 3.5 0 
" style="stroke: #000000; stroke-width: 0.8"/>
      </defs>
      <g>
       <use xlink:href="#m2d115180f9" x="518.4" y="350.036948" style="stroke: #000000; stroke-width: 0.8"/>
      </g>
     </g>
     <g id="text_24">
      <!-- 1000 -->
      <g style="fill: #ff7f0e" transform="translate(525.4 354.203198) scale(0.12 -0.12)">
       <use xlink:href="#TimesNewRomanPSMT-31"/>
       <use xlink:href="#TimesNewRomanPSMT-30" x="50"/>
       <use xlink:href="#TimesNewRomanPSMT-30" x="100"/>
       <use xlink:href="#TimesNewRomanPSMT-30" x="150"/>
      </g>
     </g>
    </g>
    <g id="ytick_10">
     <g id="line2d_35">
      <g>
       <use xlink:href="#m2d115180f9" x="518.4" y="310.48934" style="stroke: #000000; stroke-width: 0.8"/>
      </g>
     </g>
     <g id="text_25">
      <!-- 1500 -->
      <g style="fill: #ff7f0e" transform="translate(525.4 314.65559) scale(0.12 -0.12)">
       <use xlink:href="#TimesNewRomanPSMT-31"/>
       <use xlink:href="#TimesNewRomanPSMT-35" x="50"/>
       <use xlink:href="#TimesNewRomanPSMT-30" x="100"/>
       <use xlink:href="#TimesNewRomanPSMT-30" x="150"/>
      </g>
     </g>
    </g>
    <g id="ytick_11">
     <g id="line2d_36">
      <g>
       <use xlink:href="#m2d115180f9" x="518.4" y="270.941733" style="stroke: #000000; stroke-width: 0.8"/>
      </g>
     </g>
     <g id="text_26">
      <!-- 2000 -->
      <g style="fill: #ff7f0e" transform="translate(525.4 275.107983) scale(0.12 -0.12)">
       <use xlink:href="#TimesNewRomanPSMT-32"/>
       <use xlink:href="#TimesNewRomanPSMT-30" x="50"/>
       <use xlink:href="#TimesNewRomanPSMT-30" x="100"/>
       <use xlink:href="#TimesNewRomanPSMT-30" x="150"/>
      </g>
     </g>
    </g>
    <g id="ytick_12">
     <g id="line2d_37">
      <g>
       <use xlink:href="#m2d115180f9" x="518.4" y="231.394125" style="stroke: #000000; stroke-width: 0.8"/>
      </g>
     </g>
     <g id="text_27">
      <!-- 2500 -->
      <g style="fill: #ff7f0e" transform="translate(525.4 235.560375) scale(0.12 -0.12)">
       <use xlink:href="#TimesNewRomanPSMT-32"/>
       <use xlink:href="#TimesNewRomanPSMT-35" x="50"/>
       <use xlink:href="#TimesNewRomanPSMT-30" x="100"/>
       <use xlink:href="#TimesNewRomanPSMT-30" x="150"/>
      </g>
     </g>
    </g>
    <g id="ytick_13">
     <g id="line2d_38">
      <g>
       <use xlink:href="#m2d115180f9" x="518.4" y="191.846517" style="stroke: #000000; stroke-width: 0.8"/>
      </g>
     </g>
     <g id="text_28">
      <!-- 3000 -->
      <g style="fill: #ff7f0e" transform="translate(525.4 196.012767) scale(0.12 -0.12)">
       <use xlink:href="#TimesNewRomanPSMT-33"/>
       <use xlink:href="#TimesNewRomanPSMT-30" x="50"/>
       <use xlink:href="#TimesNewRomanPSMT-30" x="100"/>
       <use xlink:href="#TimesNewRomanPSMT-30" x="150"/>
      </g>
     </g>
    </g>
    <g id="ytick_14">
     <g id="line2d_39">
      <g>
       <use xlink:href="#m2d115180f9" x="518.4" y="152.29891" style="stroke: #000000; stroke-width: 0.8"/>
      </g>
     </g>
     <g id="text_29">
      <!-- 3500 -->
      <g style="fill: #ff7f0e" transform="translate(525.4 156.46516) scale(0.12 -0.12)">
       <use xlink:href="#TimesNewRomanPSMT-33"/>
       <use xlink:href="#TimesNewRomanPSMT-35" x="50"/>
       <use xlink:href="#TimesNewRomanPSMT-30" x="100"/>
       <use xlink:href="#TimesNewRomanPSMT-30" x="150"/>
      </g>
     </g>
    </g>
    <g id="ytick_15">
     <g id="line2d_40">
      <g>
       <use xlink:href="#m2d115180f9" x="518.4" y="112.751302" style="stroke: #000000; stroke-width: 0.8"/>
      </g>
     </g>
     <g id="text_30">
      <!-- 4000 -->
      <g style="fill: #ff7f0e" transform="translate(525.4 116.917552) scale(0.12 -0.12)">
       <use xlink:href="#TimesNewRomanPSMT-34"/>
       <use xlink:href="#TimesNewRomanPSMT-30" x="50"/>
       <use xlink:href="#TimesNewRomanPSMT-30" x="100"/>
       <use xlink:href="#TimesNewRomanPSMT-30" x="150"/>
      </g>
     </g>
    </g>
    <g id="ytick_16">
     <g id="line2d_41">
      <g>
       <use xlink:href="#m2d115180f9" x="518.4" y="73.203694" style="stroke: #000000; stroke-width: 0.8"/>
      </g>
     </g>
     <g id="text_31">
      <!-- 4500 -->
      <g style="fill: #ff7f0e" transform="translate(525.4 77.369944) scale(0.12 -0.12)">
       <use xlink:href="#TimesNewRomanPSMT-34"/>
       <use xlink:href="#TimesNewRomanPSMT-35" x="50"/>
       <use xlink:href="#TimesNewRomanPSMT-30" x="100"/>
       <use xlink:href="#TimesNewRomanPSMT-30" x="150"/>
      </g>
     </g>
    </g>
    <g id="text_32">
     <!-- 功率需求 (W) -->
     <g style="fill: #ff7f0e" transform="translate(563.103125 253.319062) rotate(-90) scale(0.12 -0.12)">
      <defs>
       <path id="TimesNewRomanPSMT-57" d="M 5991 4238 
L 5991 4122 
Q 5825 4122 5722 4062 
Q 5619 4003 5525 3841 
Q 5463 3731 5328 3319 
L 4147 -97 
L 4022 -97 
L 3056 2613 
L 2097 -97 
L 1984 -97 
L 725 3422 
Q 584 3816 547 3888 
Q 484 4006 376 4064 
Q 269 4122 84 4122 
L 84 4238 
L 1653 4238 
L 1653 4122 
L 1578 4122 
Q 1413 4122 1325 4047 
Q 1238 3972 1238 3866 
Q 1238 3756 1375 3363 
L 2209 984 
L 2913 3006 
L 2788 3363 
L 2688 3647 
Q 2622 3803 2541 3922 
Q 2500 3981 2441 4022 
Q 2363 4078 2284 4103 
Q 2225 4122 2097 4122 
L 2097 4238 
L 3747 4238 
L 3747 4122 
L 3634 4122 
Q 3459 4122 3378 4047 
Q 3297 3972 3297 3844 
Q 3297 3684 3438 3288 
L 4250 984 
L 5056 3319 
Q 5194 3706 5194 3856 
Q 5194 3928 5148 3990 
Q 5103 4053 5034 4078 
Q 4916 4122 4725 4122 
L 4725 4238 
L 5991 4238 
z
" transform="scale(0.015625)"/>
      </defs>
      <use xlink:href="#SimHei-529f"/>
      <use xlink:href="#SimHei-7387" x="100"/>
      <use xlink:href="#SimHei-9700" x="200"/>
      <use xlink:href="#SimHei-6c42" x="300"/>
      <use xlink:href="#TimesNewRomanPSMT-20" x="400"/>
      <use xlink:href="#TimesNewRomanPSMT-28" x="425"/>
      <use xlink:href="#TimesNewRomanPSMT-57" x="458.300781"/>
      <use xlink:href="#TimesNewRomanPSMT-29" x="552.685547"/>
     </g>
    </g>
   </g>
   <g id="line2d_42">
    <path d="M 72 119.540611 
L 72.747739 109.61812 
L 73.495477 118.775592 
L 74.243216 116.02993 
L 74.990955 121.99851 
L 76.486432 110.529568 
L 77.234171 113.186461 
L 77.98191 121.27945 
L 78.729648 103.445024 
L 79.477387 110.617489 
L 80.225125 106.372648 
L 80.972865 107.78269 
L 82.468342 125.058815 
L 83.21608 118.543752 
L 83.963819 104.998967 
L 84.711557 119.417739 
L 85.459296 107.587694 
L 86.207036 116.626388 
L 86.954773 110.263858 
L 87.702513 124.292368 
L 88.450251 105.366501 
L 89.19799 113.002317 
L 89.945729 107.146143 
L 90.693467 111.549928 
L 91.441206 107.701451 
L 92.188945 113.396287 
L 92.936683 108.047628 
L 93.684422 122.303305 
L 94.43216 119.58962 
L 95.179899 108.160787 
L 95.927639 112.999208 
L 96.675377 114.198768 
L 97.423114 113.887813 
L 98.170855 109.576583 
L 98.918593 116.505757 
L 99.666331 109.522263 
L 100.414071 118.546089 
L 101.161809 115.32823 
L 101.909547 106.518904 
L 102.657288 105.972827 
L 103.405025 119.693684 
L 104.152763 107.444739 
L 104.900501 119.326845 
L 105.648242 108.113013 
L 106.39598 124.766263 
L 107.143717 119.819954 
L 107.891458 115.971883 
L 108.639196 113.804759 
L 109.386934 103.743214 
L 110.134674 107.03115 
L 110.882412 102.782331 
L 111.63015 105.116335 
L 112.377891 114.54116 
L 113.125629 114.436517 
L 113.873366 105.987252 
L 114.621104 112.495845 
L 115.368845 113.744704 
L 116.116583 121.199949 
L 116.86432 113.424944 
L 117.612061 130.411665 
L 118.359799 115.637447 
L 119.107537 118.951664 
L 119.855277 108.368952 
L 120.603012 115.780151 
L 121.350753 114.833422 
L 122.098494 104.227325 
L 122.846229 119.389411 
L 123.593969 110.747602 
L 124.34171 124.743824 
L 125.089445 112.183539 
L 125.837186 110.155295 
L 126.584926 107.310358 
L 127.332661 118.437835 
L 128.080402 110.728639 
L 128.828143 110.73814 
L 129.575878 112.872996 
L 130.323618 111.802063 
L 131.071359 109.818233 
L 131.819094 110.233676 
L 132.566835 119.053681 
L 133.314575 120.318258 
L 134.06231 96.894411 
L 134.810051 100.603582 
L 135.557792 121.557403 
L 136.305527 109.902503 
L 137.053267 108.781112 
L 137.801002 107.997131 
L 138.548743 111.862929 
L 139.296484 118.616185 
L 140.044219 113.905598 
L 140.791959 115.858956 
L 141.5397 111.901048 
L 142.287435 114.449455 
L 143.035176 113.584486 
L 143.782916 106.306297 
L 144.530651 104.964788 
L 145.278392 120.224873 
L 146.026133 115.661566 
L 146.773867 117.755175 
L 147.521608 104.954283 
L 148.269349 112.980979 
L 149.017084 103.3197 
L 149.764824 115.380504 
L 150.512565 112.061845 
L 151.2603 120.634774 
L 152.008041 103.74727 
L 152.755781 114.192434 
L 153.503516 121.229533 
L 154.251257 115.544062 
L 154.998998 126.374777 
L 155.746733 112.020096 
L 157.242208 110.155894 
L 157.989949 102.629702 
L 158.73769 114.175673 
L 159.485425 107.353324 
L 160.980906 114.144216 
L 161.728641 126.63089 
L 162.476382 108.201396 
L 163.224122 118.175832 
L 163.971857 115.696711 
L 164.719598 124.662431 
L 165.467339 115.597243 
L 166.215074 117.3871 
L 166.962814 118.457377 
L 167.710555 119.935836 
L 168.45829 112.730698 
L 169.206025 113.3752 
L 169.953771 114.836473 
L 170.701506 98.170053 
L 171.449241 122.547349 
L 172.196988 120.524879 
L 172.944723 123.73032 
L 173.692458 113.552315 
L 174.440204 119.487237 
L 175.187939 130.871097 
L 176.68342 110.210581 
L 177.431155 102.518783 
L 178.17889 116.893161 
L 178.926636 108.960872 
L 179.674371 103.942304 
L 180.422106 105.597009 
L 181.169853 95.525847 
L 181.917588 96.756844 
L 182.665323 92.66301 
L 183.413069 97.240066 
L 184.160804 80.790424 
L 184.908539 88.352707 
L 185.656285 78.041749 
L 186.40402 86.979045 
L 187.151755 78.593794 
L 187.899502 84.953119 
L 188.647237 85.243276 
L 189.394972 82.54029 
L 190.142718 77.551421 
L 190.890453 78.174914 
L 191.638188 66.96 
L 192.385934 84.278917 
L 193.133669 84.641874 
L 193.881404 68.153728 
L 194.629151 76.677859 
L 195.376886 94.510316 
L 196.124621 81.996819 
L 196.872367 86.64374 
L 197.620102 105.179886 
L 198.367837 97.87306 
L 199.115583 100.020757 
L 199.863318 100.099968 
L 200.611053 103.935584 
L 201.3588 115.03145 
L 202.106535 115.157681 
L 202.85427 129.060461 
L 203.602005 140.35559 
L 204.349751 147.969084 
L 205.097486 146.060835 
L 205.845221 169.602977 
L 206.592967 160.894432 
L 207.340702 180.379314 
L 208.088437 184.036309 
L 208.836183 187.110923 
L 209.583918 191.273792 
L 210.331653 220.02386 
L 211.0794 221.665433 
L 211.827135 225.095068 
L 212.57487 238.003229 
L 213.322616 237.553279 
L 214.070351 264.89203 
L 214.818086 257.959497 
L 215.565832 265.949118 
L 216.313567 276.528576 
L 217.061302 277.82237 
L 217.809049 300.261282 
L 218.556784 292.840583 
L 219.304519 311.332817 
L 220.052265 308.943962 
L 220.8 321.82309 
L 220.8 320.409485 
L 221.547735 325.936939 
L 222.295481 345.015619 
L 223.043216 341.158655 
L 223.790951 344.742396 
L 224.538698 349.183537 
L 225.286433 355.526578 
L 226.034168 341.648008 
L 226.781914 354.219808 
L 227.529649 347.459296 
L 228.277384 362.252003 
L 229.02513 366.341695 
L 229.772865 359.40933 
L 230.5206 364.119551 
L 231.268347 345.469035 
L 232.016082 358.852883 
L 232.763817 352.754895 
L 233.511563 360.999157 
L 234.259298 361.132842 
L 235.007033 358.786166 
L 235.754779 355.973844 
L 236.502514 352.277263 
L 237.250249 357.763852 
L 237.997995 360.564312 
L 238.74573 362.223887 
L 239.493465 355.125661 
L 240.2412 350.168992 
L 240.988947 350.047834 
L 241.736682 352.222446 
L 242.484417 355.099607 
L 243.232163 349.608461 
L 243.979898 346.209578 
L 244.727633 349.418722 
L 245.475379 347.910501 
L 246.223114 349.096061 
L 246.970849 341.96632 
L 247.718596 350.245732 
L 248.466331 346.113576 
L 249.214066 344.70758 
L 249.961812 342.627265 
L 250.709547 337.861296 
L 251.457282 343.24708 
L 252.205028 343.998484 
L 252.952763 357.42202 
L 253.700498 344.652217 
L 254.448245 334.365243 
L 255.19598 354.513648 
L 255.943715 356.05769 
L 256.691461 351.236633 
L 257.439196 343.574883 
L 258.186931 346.716533 
L 258.934677 353.056006 
L 259.682412 350.26468 
L 260.430147 343.474961 
L 261.177894 345.780869 
L 261.925629 334.667943 
L 262.673364 343.673346 
L 263.42111 347.799708 
L 264.168833 346.147196 
L 264.91658 352.245189 
L 265.664326 356.223923 
L 266.41205 348.948868 
L 267.159796 346.932866 
L 267.907542 358.865763 
L 268.655266 353.34222 
L 269.403012 352.373458 
L 270.150759 348.356064 
L 270.898482 351.685077 
L 271.646229 347.220542 
L 272.393975 349.41613 
L 273.141699 343.327604 
L 273.889445 360.864564 
L 274.637191 339.5513 
L 275.384915 341.066448 
L 276.132661 349.718559 
L 276.880408 345.92195 
L 277.628131 346.198938 
L 278.375878 354.702233 
L 279.123624 348.99501 
L 279.871348 345.112962 
L 280.619094 348.076542 
L 281.36684 343.384589 
L 282.114564 349.435851 
L 282.86231 349.525986 
L 283.610057 354.895318 
L 284.35778 352.343604 
L 285.105527 352.945865 
L 285.853273 339.245298 
L 286.600997 348.515123 
L 287.348743 356.360935 
L 288.096489 347.514774 
L 288.844213 351.251874 
L 289.591959 369.36 
L 290.339706 347.000626 
L 291.087429 359.86183 
L 291.835176 346.376651 
L 292.582922 356.119454 
L 293.330646 359.264667 
L 294.078392 346.908941 
L 294.826138 359.491636 
L 295.573862 352.863492 
L 296.321608 348.743724 
L 297.069354 346.162972 
L 297.817078 345.323599 
L 299.312571 355.304026 
L 300.060294 337.863777 
L 300.808041 353.871367 
L 301.555787 338.624528 
L 302.303511 352.900355 
L 303.051257 342.688779 
L 303.799003 343.266612 
L 304.546727 356.65269 
L 305.294473 347.788846 
L 306.04222 345.257114 
L 306.789943 345.601398 
L 307.53769 351.295747 
L 308.285436 348.126256 
L 309.780906 357.451734 
L 310.528652 343.810498 
L 311.276376 353.5784 
L 312.024122 341.30637 
L 312.771869 346.224872 
L 313.519592 355.685275 
L 314.267339 351.05695 
L 315.015085 351.84908 
L 315.762809 355.547593 
L 316.510555 346.864093 
L 317.258301 353.065435 
L 318.006025 339.712232 
L 318.753771 344.589555 
L 319.501518 355.606446 
L 320.249241 350.157174 
L 320.996988 351.471799 
L 321.744734 359.936556 
L 322.492458 344.144316 
L 323.240204 344.026919 
L 323.98795 344.180735 
L 324.735674 352.928592 
L 325.48342 343.272811 
L 326.231167 351.364183 
L 326.97889 344.119695 
L 327.726636 338.567968 
L 329.222106 359.01678 
L 330.717599 345.98103 
L 331.465323 342.318049 
L 332.213069 357.211151 
L 332.960793 351.242663 
L 333.708539 348.521365 
L 334.456285 347.178311 
L 335.204009 344.084946 
L 335.951755 355.752765 
L 336.699502 352.334909 
L 337.447225 343.185943 
L 338.194972 347.000327 
L 338.942718 346.579361 
L 339.690442 342.247981 
L 340.438188 348.683413 
L 341.185934 345.997193 
L 341.933658 351.349396 
L 342.681404 357.915385 
L 343.429151 357.671167 
L 344.176874 349.099812 
L 344.924621 350.950651 
L 345.672367 353.969125 
L 346.420091 347.973086 
L 347.167837 355.793592 
L 347.915583 349.644446 
L 348.663307 350.671617 
L 349.411053 356.069334 
L 350.1588 365.505716 
L 350.906523 341.955825 
L 351.65427 349.372377 
L 352.402016 368.428164 
L 353.14974 354.450064 
L 353.897486 349.423347 
L 354.645232 353.499618 
L 355.392956 348.498048 
L 356.140702 358.411463 
L 356.888448 351.19177 
L 357.636172 352.645743 
L 358.383918 353.428571 
L 359.131665 353.583358 
L 359.879388 350.78298 
L 360.627135 345.951147 
L 361.374881 354.953727 
L 362.122605 353.859259 
L 362.870351 349.883045 
L 363.618097 351.206518 
L 364.365821 347.481358 
L 365.113567 344.776624 
L 365.861314 340.475049 
L 366.609037 348.626684 
L 367.356784 361.463918 
L 368.10453 346.576928 
L 368.852254 342.896597 
L 369.6 345.234414 
L 369.6 343.891679 
L 370.347746 357.128271 
L 371.09547 337.270042 
L 371.843216 341.208418 
L 372.590963 347.312083 
L 373.338686 341.770465 
L 374.086433 340.143886 
L 374.834179 329.141193 
L 375.581903 327.665564 
L 376.329649 319.765079 
L 377.077395 323.285154 
L 377.825119 333.879008 
L 378.572865 332.093158 
L 379.320612 313.783262 
L 380.068335 308.702505 
L 380.816082 317.718964 
L 381.563828 310.203721 
L 382.311552 320.719494 
L 383.059298 320.894136 
L 384.554768 305.49352 
L 385.302514 303.790926 
L 386.05026 299.176349 
L 386.797984 298.034026 
L 387.54573 287.822479 
L 388.293477 280.277266 
L 389.0412 286.274956 
L 389.788947 270.865747 
L 390.536693 284.953491 
L 391.284417 281.520351 
L 392.032163 273.04099 
L 392.779909 275.082365 
L 393.527633 262.786024 
L 394.275379 271.748143 
L 395.023126 256.846989 
L 395.770849 261.586503 
L 396.518596 244.259823 
L 397.266342 261.191587 
L 398.761812 253.124473 
L 399.509558 265.881937 
L 400.257282 246.400782 
L 401.005028 245.395349 
L 401.752775 246.067774 
L 402.500498 254.946985 
L 403.248245 253.466556 
L 403.995991 238.561106 
L 404.743715 233.510617 
L 405.491461 229.605619 
L 406.239207 244.175031 
L 406.986931 243.902137 
L 407.734677 238.016051 
L 408.482401 247.79636 
L 409.977894 228.151414 
L 410.725617 222.442733 
L 411.473364 230.342985 
L 412.22111 221.128972 
L 412.968833 228.384973 
L 413.71658 229.321158 
L 414.464326 231.233482 
L 415.21205 228.648868 
L 415.959796 231.190633 
L 416.707542 230.275727 
L 417.455266 233.434496 
L 418.203012 227.5218 
L 418.950759 229.032333 
L 419.698482 238.493133 
L 420.446229 230.701134 
L 421.193975 234.675283 
L 421.941699 242.335276 
L 422.689445 226.45415 
L 423.437191 219.816505 
L 424.184915 214.865735 
L 424.932661 220.168745 
L 425.680408 235.769002 
L 426.428131 223.031023 
L 427.175878 223.590579 
L 427.923624 243.461205 
L 428.671348 225.632224 
L 429.419094 227.302242 
L 430.16684 230.415534 
L 430.914564 229.777771 
L 431.66231 231.374216 
L 432.410057 221.534721 
L 433.15778 234.498168 
L 434.653273 232.025361 
L 435.400997 230.348585 
L 436.148743 243.246416 
L 436.896489 223.279914 
L 437.644213 230.583225 
L 438.391959 228.34699 
L 439.887429 232.955503 
L 440.635176 233.927509 
L 441.382922 230.977137 
L 442.130646 230.538136 
L 442.878392 224.123178 
L 443.626138 229.204408 
L 444.373862 232.238799 
L 445.121608 218.823895 
L 445.869354 239.489837 
L 446.617078 239.874461 
L 447.364824 229.150339 
L 448.112571 232.737933 
L 448.860294 242.623097 
L 449.608041 233.369787 
L 450.355787 235.890889 
L 451.103511 224.236781 
L 451.851257 235.325173 
L 452.599003 224.746246 
L 454.094451 232.699718 
L 454.84222 231.26015 
L 455.589943 228.681735 
L 456.337667 245.998508 
L 457.085436 229.324557 
L 457.83316 233.793051 
L 458.580883 220.017584 
L 459.328652 235.76821 
L 460.076376 224.164425 
L 460.8241 247.307596 
L 461.571869 226.239496 
L 463.067316 232.957144 
L 463.815085 232.159066 
L 464.562809 233.042843 
L 465.310532 228.717517 
L 466.058301 232.243607 
L 466.806025 242.706247 
L 467.553749 232.569855 
L 468.301518 217.253654 
L 469.049241 231.097692 
L 469.796965 229.554138 
L 470.544734 234.165972 
L 471.292458 230.292778 
L 472.040181 230.268158 
L 472.78795 233.046918 
L 473.535674 225.931728 
L 474.283397 237.235006 
L 475.031167 232.217943 
L 475.77889 228.198339 
L 476.526614 233.083627 
L 477.274383 239.138369 
L 478.022106 227.861643 
L 478.76983 237.608854 
L 479.517599 234.224521 
L 480.265323 236.634318 
L 481.013046 232.094763 
L 481.760815 234.111111 
L 482.508539 234.397156 
L 484.004032 220.241005 
L 484.751755 233.656333 
L 485.499479 228.086956 
L 486.247248 233.643048 
L 486.994972 230.768064 
L 487.742695 224.258138 
L 488.490464 231.07589 
L 489.238188 236.554605 
L 489.985912 236.012815 
L 490.733681 235.296651 
L 491.481404 231.478318 
L 492.229128 225.964961 
L 492.976897 239.99208 
L 493.724621 237.957696 
L 494.472344 237.244274 
L 495.220113 242.46369 
L 495.967837 223.004201 
L 496.715561 231.624324 
L 497.46333 219.366728 
L 498.211053 240.40677 
L 498.958777 223.205028 
L 499.706546 235.833885 
L 500.45427 233.971807 
L 501.201993 237.651916 
L 501.949762 237.404493 
L 502.697486 239.770281 
L 503.445209 230.025253 
L 504.192979 239.709879 
L 504.940702 232.924162 
L 505.688426 231.452346 
L 506.436195 227.176068 
L 507.183918 230.758892 
L 508.679411 228.139133 
L 509.427135 231.503287 
L 510.174858 229.094996 
L 510.922627 237.593425 
L 511.670351 236.301002 
L 512.418075 219.38741 
L 513.165844 231.468373 
L 513.913567 235.889904 
L 514.661291 222.662774 
L 515.40906 232.386562 
L 516.156784 235.484869 
L 516.904507 240.562798 
L 517.652276 226.461797 
L 518.4 238.26782 
L 518.4 238.26782 
" clip-path="url(#p33df6a24c3)" style="fill: none; stroke-dasharray: 5.55,2.4; stroke-dashoffset: 0; stroke: #ff7f0e; stroke-width: 1.5"/>
   </g>
   <g id="patch_17">
    <path d="M 72 384.48 
L 72 51.84 
" style="fill: none; stroke: #000000; stroke-width: 0.8; stroke-linejoin: miter; stroke-linecap: square"/>
   </g>
   <g id="patch_18">
    <path d="M 518.4 384.48 
L 518.4 51.84 
" style="fill: none; stroke: #000000; stroke-width: 0.8; stroke-linejoin: miter; stroke-linecap: square"/>
   </g>
   <g id="patch_19">
    <path d="M 72 384.48 
L 518.4 384.48 
" style="fill: none; stroke: #000000; stroke-width: 0.8; stroke-linejoin: miter; stroke-linecap: square"/>
   </g>
   <g id="patch_20">
    <path d="M 72 51.84 
L 518.4 51.84 
" style="fill: none; stroke: #000000; stroke-width: 0.8; stroke-linejoin: miter; stroke-linecap: square"/>
   </g>
   <g id="patch_21">
    <path d="M 295.573862 338.450664 
Q 295.573862 350.034824 295.573862 361.618984 
" style="fill: none; stroke: #16344c; stroke-width: 2; stroke-linecap: round"/>
    <path d="M 293.173862 343.250664 
L 295.573862 338.450664 
L 297.973862 343.250664 
" style="fill: none; stroke: #16344c; stroke-width: 2; stroke-linecap: round"/>
    <path d="M 297.973862 356.818984 
L 295.573862 361.618984 
L 293.173862 356.818984 
" style="fill: none; stroke: #16344c; stroke-width: 2; stroke-linecap: round"/>
   </g>
   <g id="text_33">
    <!-- 1000±200W -->
    <g transform="translate(295.573862 330.263144) scale(0.16 -0.16)">
     <use xlink:href="#TimesNewRomanPSMT-31"/>
     <use xlink:href="#TimesNewRomanPSMT-30" x="50"/>
     <use xlink:href="#TimesNewRomanPSMT-30" x="100"/>
     <use xlink:href="#TimesNewRomanPSMT-30" x="150"/>
     <use xlink:href="#TimesNewRomanPSMT-b1" x="200"/>
     <use xlink:href="#TimesNewRomanPSMT-32" x="254.882812"/>
     <use xlink:href="#TimesNewRomanPSMT-30" x="304.882812"/>
     <use xlink:href="#TimesNewRomanPSMT-30" x="354.882812"/>
     <use xlink:href="#TimesNewRomanPSMT-57" x="404.882812"/>
    </g>
   </g>
  </g>
 </g>
 <defs>
  <clipPath id="p33df6a24c3">
   <rect x="72" y="51.84" width="446.4" height="332.64"/>
  </clipPath>
 </defs>
</svg>
