<?xml version="1.0" encoding="utf-8" standalone="no"?>
<!DOCTYPE svg PUBLIC "-//W3C//DTD SVG 1.1//EN"
  "http://www.w3.org/Graphics/SVG/1.1/DTD/svg11.dtd">
<svg xmlns:xlink="http://www.w3.org/1999/xlink" width="658.525pt" height="383.329063pt" viewBox="0 0 658.525 383.329063" xmlns="http://www.w3.org/2000/svg" version="1.1">
 <metadata>
  <rdf:RDF xmlns:dc="http://purl.org/dc/elements/1.1/" xmlns:cc="http://creativecommons.org/ns#" xmlns:rdf="http://www.w3.org/1999/02/22-rdf-syntax-ns#">
   <cc:Work>
    <dc:type rdf:resource="http://purl.org/dc/dcmitype/StillImage"/>
    <dc:date>2025-12-13T16:01:34.949922</dc:date>
    <dc:format>image/svg+xml</dc:format>
    <dc:creator>
     <cc:Agent>
      <dc:title>Matplotlib v3.10.7, https://matplotlib.org/</dc:title>
     </cc:Agent>
    </dc:creator>
   </cc:Work>
  </rdf:RDF>
 </metadata>
 <defs>
  <style type="text/css">*{stroke-linejoin: round; stroke-linecap: butt}</style>
 </defs>
 <g id="figure_1">
  <g id="patch_1">
   <path d="M 0 383.329063 
L 658.525 383.329063 
L 658.525 0 
L 0 0 
z
" style="fill: #ffffff"/>
  </g>
  <g id="axes_1">
   <g id="patch_2">
    <path d="M 47.2625 344.129063 
L 605.2625 344.129063 
L 605.2625 11.489062 
L 47.2625 11.489062 
z
" style="fill: #ffffff"/>
   </g>
   <g id="patch_3">
    <path d="M 47.2625 344.129063 
L 186.7625 344.129063 
L 186.7625 11.489062 
L 47.2625 11.489062 
z
" clip-path="url(#p249ba38d8f)" style="fill: #add8e6; opacity: 0.2; stroke: #add8e6; stroke-linejoin: miter"/>
   </g>
   <g id="patch_4">
    <path d="M 186.7625 344.129063 
L 326.2625 344.129063 
L 326.2625 11.489062 
L 186.7625 11.489062 
z
" clip-path="url(#p249ba38d8f)" style="fill: #90ee90; opacity: 0.2; stroke: #90ee90; stroke-linejoin: miter"/>
   </g>
   <g id="patch_5">
    <path d="M 326.2625 344.129063 
L 465.7625 344.129063 
L 465.7625 11.489062 
L 326.2625 11.489062 
z
" clip-path="url(#p249ba38d8f)" style="fill: #fa8072; opacity: 0.2; stroke: #fa8072; stroke-linejoin: miter"/>
   </g>
   <g id="patch_6">
    <path d="M 465.7625 344.129063 
L 605.2625 344.129063 
L 605.2625 11.489062 
L 465.7625 11.489062 
z
" clip-path="url(#p249ba38d8f)" style="fill: #9370db; opacity: 0.2; stroke: #9370db; stroke-linejoin: miter"/>
   </g>
   <g id="patch_7">
    <path d="M 186.7625 139.427524 
L 326.2625 139.427524 
L 326.2625 37.076755 
L 186.7625 37.076755 
z
" clip-path="url(#p249ba38d8f)" style="fill: #808080; opacity: 0.2"/>
   </g>
   <g id="matplotlib.axis_1">
    <g id="xtick_1">
     <g id="line2d_1">
      <path d="M 47.2625 344.129063 
L 47.2625 11.489062 
" clip-path="url(#p249ba38d8f)" style="fill: none; stroke-dasharray: 1.85,0.8; stroke-dashoffset: 0; stroke: #b0b0b0; stroke-opacity: 0.5; stroke-width: 0.5"/>
     </g>
     <g id="line2d_2">
      <defs>
       <path id="m7a707ca45d" d="M 0 0 
L 0 3.5 
" style="stroke: #000000; stroke-width: 0.8"/>
      </defs>
      <g>
       <use xlink:href="#m7a707ca45d" x="47.2625" y="344.129063" style="stroke: #000000; stroke-width: 0.8"/>
      </g>
     </g>
     <g id="text_1">
      <!-- 0 -->
      <g transform="translate(44.2625 359.707188) scale(0.12 -0.12)">
       <defs>
        <path id="SimSun-30" d="M 1600 4225 
Q 1250 4225 1012 3687 
Q 775 3150 775 2250 
Q 775 1300 1012 775 
Q 1250 250 1600 250 
Q 1975 250 2187 775 
Q 2400 1300 2400 2250 
Q 2400 3150 2200 3687 
Q 2000 4225 1600 4225 
z
M 1600 50 
Q 1050 50 675 625 
Q 300 1200 300 2250 
Q 300 3225 662 3825 
Q 1025 4425 1600 4425 
Q 2150 4425 2512 3850 
Q 2875 3275 2875 2250 
Q 2875 1225 2512 637 
Q 2150 50 1600 50 
z
" transform="scale(0.015625)"/>
       </defs>
       <use xlink:href="#SimSun-30"/>
      </g>
     </g>
    </g>
    <g id="xtick_2">
     <g id="line2d_3">
      <path d="M 117.0125 344.129063 
L 117.0125 11.489062 
" clip-path="url(#p249ba38d8f)" style="fill: none; stroke-dasharray: 1.85,0.8; stroke-dashoffset: 0; stroke: #b0b0b0; stroke-opacity: 0.5; stroke-width: 0.5"/>
     </g>
     <g id="line2d_4">
      <g>
       <use xlink:href="#m7a707ca45d" x="117.0125" y="344.129063" style="stroke: #000000; stroke-width: 0.8"/>
      </g>
     </g>
     <g id="text_2">
      <!-- 100 -->
      <g transform="translate(108.0125 359.707188) scale(0.12 -0.12)">
       <defs>
        <path id="SimSun-31" d="M 1825 4450 
L 1825 650 
Q 1825 450 1950 350 
Q 2075 250 2300 250 
L 2550 250 
L 2550 100 
L 725 100 
L 725 250 
L 950 250 
Q 1200 250 1312 350 
Q 1425 450 1425 650 
L 1425 3675 
Q 1425 3775 1362 3837 
Q 1300 3900 1175 3900 
L 725 3900 
L 725 4050 
L 950 4050 
Q 1250 4050 1437 4150 
Q 1625 4250 1725 4450 
L 1825 4450 
z
" transform="scale(0.015625)"/>
       </defs>
       <use xlink:href="#SimSun-31"/>
       <use xlink:href="#SimSun-30" transform="translate(50 0)"/>
       <use xlink:href="#SimSun-30" transform="translate(100 0)"/>
      </g>
     </g>
    </g>
    <g id="xtick_3">
     <g id="line2d_5">
      <path d="M 186.7625 344.129063 
L 186.7625 11.489062 
" clip-path="url(#p249ba38d8f)" style="fill: none; stroke-dasharray: 1.85,0.8; stroke-dashoffset: 0; stroke: #b0b0b0; stroke-opacity: 0.5; stroke-width: 0.5"/>
     </g>
     <g id="line2d_6">
      <g>
       <use xlink:href="#m7a707ca45d" x="186.7625" y="344.129063" style="stroke: #000000; stroke-width: 0.8"/>
      </g>
     </g>
     <g id="text_3">
      <!-- 200 -->
      <g transform="translate(177.7625 359.707188) scale(0.12 -0.12)">
       <defs>
        <path id="SimSun-32" d="M 2325 3325 
Q 2325 3775 2125 4012 
Q 1925 4250 1525 4250 
Q 1225 4250 1012 4087 
Q 800 3925 800 3675 
Q 800 3525 900 3425 
Q 975 3325 975 3225 
Q 975 3100 912 3037 
Q 850 2975 725 2975 
Q 575 2975 487 3062 
Q 400 3150 400 3350 
Q 400 3875 775 4150 
Q 1150 4425 1575 4425 
Q 2175 4425 2462 4125 
Q 2750 3825 2750 3375 
Q 2750 3075 2612 2775 
Q 2475 2475 2175 2200 
Q 1450 1500 1062 1062 
Q 675 625 600 475 
L 2075 475 
Q 2300 475 2450 650 
Q 2600 825 2650 1175 
L 2800 1175 
L 2650 100 
L 325 100 
L 325 425 
Q 450 650 737 1000 
Q 1025 1350 1500 1825 
Q 1925 2250 2125 2625 
Q 2325 3000 2325 3325 
z
" transform="scale(0.015625)"/>
       </defs>
       <use xlink:href="#SimSun-32"/>
       <use xlink:href="#SimSun-30" transform="translate(50 0)"/>
       <use xlink:href="#SimSun-30" transform="translate(100 0)"/>
      </g>
     </g>
    </g>
    <g id="xtick_4">
     <g id="line2d_7">
      <path d="M 256.5125 344.129063 
L 256.5125 11.489062 
" clip-path="url(#p249ba38d8f)" style="fill: none; stroke-dasharray: 1.85,0.8; stroke-dashoffset: 0; stroke: #b0b0b0; stroke-opacity: 0.5; stroke-width: 0.5"/>
     </g>
     <g id="line2d_8">
      <g>
       <use xlink:href="#m7a707ca45d" x="256.5125" y="344.129063" style="stroke: #000000; stroke-width: 0.8"/>
      </g>
     </g>
     <g id="text_4">
      <!-- 300 -->
      <g transform="translate(247.5125 359.707188) scale(0.12 -0.12)">
       <defs>
        <path id="SimSun-33" d="M 2800 1250 
Q 2800 775 2450 412 
Q 2100 50 1475 50 
Q 1025 50 700 300 
Q 375 550 375 875 
Q 375 1025 475 1137 
Q 575 1250 675 1250 
Q 825 1250 887 1137 
Q 950 1025 950 950 
Q 950 825 900 750 
Q 850 650 850 575 
Q 850 425 1037 325 
Q 1225 225 1450 225 
Q 1900 225 2125 487 
Q 2350 750 2350 1300 
Q 2350 1750 2112 2025 
Q 1875 2300 1225 2300 
L 1225 2475 
Q 1725 2475 1962 2712 
Q 2200 2950 2200 3375 
Q 2200 3725 2012 3987 
Q 1825 4250 1425 4250 
Q 1250 4250 1050 4162 
Q 850 4075 850 3875 
Q 850 3675 900 3625 
Q 950 3575 950 3500 
Q 950 3375 900 3300 
Q 850 3225 725 3225 
Q 625 3225 537 3300 
Q 450 3375 450 3575 
Q 450 3950 775 4187 
Q 1100 4425 1525 4425 
Q 2025 4425 2325 4112 
Q 2625 3800 2625 3450 
Q 2625 3075 2437 2812 
Q 2250 2550 1850 2425 
Q 2400 2225 2600 1900 
Q 2800 1575 2800 1250 
z
" transform="scale(0.015625)"/>
       </defs>
       <use xlink:href="#SimSun-33"/>
       <use xlink:href="#SimSun-30" transform="translate(50 0)"/>
       <use xlink:href="#SimSun-30" transform="translate(100 0)"/>
      </g>
     </g>
    </g>
    <g id="xtick_5">
     <g id="line2d_9">
      <path d="M 326.2625 344.129063 
L 326.2625 11.489062 
" clip-path="url(#p249ba38d8f)" style="fill: none; stroke-dasharray: 1.85,0.8; stroke-dashoffset: 0; stroke: #b0b0b0; stroke-opacity: 0.5; stroke-width: 0.5"/>
     </g>
     <g id="line2d_10">
      <g>
       <use xlink:href="#m7a707ca45d" x="326.2625" y="344.129063" style="stroke: #000000; stroke-width: 0.8"/>
      </g>
     </g>
     <g id="text_5">
      <!-- 400 -->
      <g transform="translate(317.2625 359.707188) scale(0.12 -0.12)">
       <defs>
        <path id="SimSun-34" d="M 2300 575 
Q 2300 400 2400 325 
Q 2500 250 2675 250 
L 2900 250 
L 2900 100 
L 1250 100 
L 1250 250 
L 1525 250 
Q 1725 250 1812 325 
Q 1900 400 1900 575 
L 1900 1400 
L 225 1400 
L 225 1525 
L 2050 4425 
L 2300 4425 
L 2300 1550 
L 2975 1550 
L 2975 1400 
L 2300 1400 
L 2300 575 
z
M 1875 3800 
L 450 1550 
L 1900 1550 
L 1900 3800 
L 1875 3800 
z
" transform="scale(0.015625)"/>
       </defs>
       <use xlink:href="#SimSun-34"/>
       <use xlink:href="#SimSun-30" transform="translate(50 0)"/>
       <use xlink:href="#SimSun-30" transform="translate(100 0)"/>
      </g>
     </g>
    </g>
    <g id="xtick_6">
     <g id="line2d_11">
      <path d="M 396.0125 344.129063 
L 396.0125 11.489062 
" clip-path="url(#p249ba38d8f)" style="fill: none; stroke-dasharray: 1.85,0.8; stroke-dashoffset: 0; stroke: #b0b0b0; stroke-opacity: 0.5; stroke-width: 0.5"/>
     </g>
     <g id="line2d_12">
      <g>
       <use xlink:href="#m7a707ca45d" x="396.0125" y="344.129063" style="stroke: #000000; stroke-width: 0.8"/>
      </g>
     </g>
     <g id="text_6">
      <!-- 500 -->
      <g transform="translate(387.0125 359.707188) scale(0.12 -0.12)">
       <defs>
        <path id="SimSun-35" d="M 1725 2850 
Q 2200 2850 2500 2487 
Q 2800 2125 2800 1525 
Q 2800 850 2487 450 
Q 2175 50 1525 50 
Q 1075 50 725 312 
Q 375 575 375 950 
Q 375 1100 462 1212 
Q 550 1325 700 1325 
Q 850 1325 900 1225 
Q 950 1125 950 1050 
Q 950 900 875 825 
Q 800 725 800 625 
Q 800 425 1037 325 
Q 1275 225 1550 225 
Q 1950 225 2162 550 
Q 2375 875 2375 1475 
Q 2375 1975 2187 2287 
Q 2000 2600 1625 2600 
Q 1350 2600 1150 2500 
Q 950 2400 775 2075 
L 550 2100 
L 675 4375 
L 2725 4375 
L 2650 4000 
L 850 4000 
L 750 2350 
Q 1000 2700 1237 2775 
Q 1475 2850 1725 2850 
z
" transform="scale(0.015625)"/>
       </defs>
       <use xlink:href="#SimSun-35"/>
       <use xlink:href="#SimSun-30" transform="translate(50 0)"/>
       <use xlink:href="#SimSun-30" transform="translate(100 0)"/>
      </g>
     </g>
    </g>
    <g id="xtick_7">
     <g id="line2d_13">
      <path d="M 465.7625 344.129063 
L 465.7625 11.489062 
" clip-path="url(#p249ba38d8f)" style="fill: none; stroke-dasharray: 1.85,0.8; stroke-dashoffset: 0; stroke: #b0b0b0; stroke-opacity: 0.5; stroke-width: 0.5"/>
     </g>
     <g id="line2d_14">
      <g>
       <use xlink:href="#m7a707ca45d" x="465.7625" y="344.129063" style="stroke: #000000; stroke-width: 0.8"/>
      </g>
     </g>
     <g id="text_7">
      <!-- 600 -->
      <g transform="translate(456.7625 359.707188) scale(0.12 -0.12)">
       <defs>
        <path id="SimSun-36" d="M 775 1800 
Q 775 1050 1037 637 
Q 1300 225 1675 225 
Q 2050 225 2250 500 
Q 2450 775 2450 1525 
Q 2450 2025 2237 2300 
Q 2025 2575 1725 2575 
Q 1450 2575 1212 2412 
Q 975 2250 775 1800 
z
M 1750 2825 
Q 2350 2825 2612 2425 
Q 2875 2025 2875 1525 
Q 2875 775 2512 412 
Q 2150 50 1675 50 
Q 1000 50 650 562 
Q 300 1075 300 2050 
Q 300 3200 725 3812 
Q 1150 4425 1875 4425 
Q 2225 4425 2437 4225 
Q 2650 4025 2650 3875 
Q 2650 3725 2587 3650 
Q 2525 3575 2375 3575 
Q 2250 3575 2187 3637 
Q 2125 3700 2125 3825 
Q 2125 3875 2150 3925 
Q 2150 3975 2150 4025 
Q 2150 4125 2075 4187 
Q 2000 4250 1800 4250 
Q 1375 4250 1075 3862 
Q 775 3475 775 2175 
Q 925 2500 1187 2662 
Q 1450 2825 1750 2825 
z
" transform="scale(0.015625)"/>
       </defs>
       <use xlink:href="#SimSun-36"/>
       <use xlink:href="#SimSun-30" transform="translate(50 0)"/>
       <use xlink:href="#SimSun-30" transform="translate(100 0)"/>
      </g>
     </g>
    </g>
    <g id="xtick_8">
     <g id="line2d_15">
      <path d="M 535.5125 344.129063 
L 535.5125 11.489062 
" clip-path="url(#p249ba38d8f)" style="fill: none; stroke-dasharray: 1.85,0.8; stroke-dashoffset: 0; stroke: #b0b0b0; stroke-opacity: 0.5; stroke-width: 0.5"/>
     </g>
     <g id="line2d_16">
      <g>
       <use xlink:href="#m7a707ca45d" x="535.5125" y="344.129063" style="stroke: #000000; stroke-width: 0.8"/>
      </g>
     </g>
     <g id="text_8">
      <!-- 700 -->
      <g transform="translate(526.5125 359.707188) scale(0.12 -0.12)">
       <defs>
        <path id="SimSun-37" d="M 2825 4200 
Q 2300 3350 1987 2537 
Q 1675 1725 1675 1125 
Q 1675 1025 1700 850 
Q 1700 650 1700 400 
Q 1700 200 1637 125 
Q 1575 50 1425 50 
Q 1300 50 1212 137 
Q 1125 225 1125 450 
Q 1125 925 1337 1625 
Q 1550 2325 2475 4000 
L 1225 4000 
Q 950 4000 787 3825 
Q 625 3650 550 3300 
L 400 3325 
L 575 4375 
L 2825 4375 
L 2825 4200 
z
" transform="scale(0.015625)"/>
       </defs>
       <use xlink:href="#SimSun-37"/>
       <use xlink:href="#SimSun-30" transform="translate(50 0)"/>
       <use xlink:href="#SimSun-30" transform="translate(100 0)"/>
      </g>
     </g>
    </g>
    <g id="xtick_9">
     <g id="line2d_17">
      <path d="M 605.2625 344.129063 
L 605.2625 11.489062 
" clip-path="url(#p249ba38d8f)" style="fill: none; stroke-dasharray: 1.85,0.8; stroke-dashoffset: 0; stroke: #b0b0b0; stroke-opacity: 0.5; stroke-width: 0.5"/>
     </g>
     <g id="line2d_18">
      <g>
       <use xlink:href="#m7a707ca45d" x="605.2625" y="344.129063" style="stroke: #000000; stroke-width: 0.8"/>
      </g>
     </g>
     <g id="text_9">
      <!-- 800 -->
      <g transform="translate(596.2625 359.707188) scale(0.12 -0.12)">
       <defs>
        <path id="SimSun-38" d="M 625 1125 
Q 625 725 887 475 
Q 1150 225 1550 225 
Q 2025 225 2237 475 
Q 2450 725 2450 1100 
Q 2450 1425 2150 1725 
Q 1850 2025 1250 2275 
Q 950 2075 787 1775 
Q 625 1475 625 1125 
z
M 2825 1175 
Q 2825 700 2475 375 
Q 2125 50 1550 50 
Q 1025 50 650 375 
Q 275 700 275 1125 
Q 275 1550 487 1850 
Q 700 2150 1100 2375 
Q 750 2550 562 2812 
Q 375 3075 375 3400 
Q 375 3825 700 4125 
Q 1025 4425 1600 4425 
Q 2125 4425 2450 4125 
Q 2775 3825 2775 3400 
Q 2775 3100 2587 2837 
Q 2400 2575 2000 2375 
Q 2425 2125 2625 1825 
Q 2825 1525 2825 1175 
z
M 2425 3375 
Q 2425 3725 2225 3987 
Q 2025 4250 1600 4250 
Q 1125 4250 925 4000 
Q 725 3750 725 3475 
Q 725 3200 1012 2937 
Q 1300 2675 1825 2475 
Q 2125 2625 2275 2850 
Q 2425 3075 2425 3375 
z
" transform="scale(0.015625)"/>
       </defs>
       <use xlink:href="#SimSun-38"/>
       <use xlink:href="#SimSun-30" transform="translate(50 0)"/>
       <use xlink:href="#SimSun-30" transform="translate(100 0)"/>
      </g>
     </g>
    </g>
    <g id="text_10">
     <!-- 时间 (s) -->
     <g transform="translate(302.2625 374.582188) scale(0.12 -0.12)">
      <defs>
       <path id="SimSun-65f6" d="M 4500 3600 
Q 4500 4575 4475 5225 
L 5100 4900 
L 4850 4725 
L 4850 3600 
L 5225 3600 
L 5550 3925 
L 6025 3450 
L 4850 3450 
L 4850 100 
Q 4850 -375 4300 -575 
Q 4275 -200 3475 -25 
L 3475 100 
Q 4150 0 4325 25 
Q 4500 50 4500 325 
L 4500 3450 
L 3200 3450 
Q 2875 3450 2600 3375 
L 2375 3600 
L 4500 3600 
z
M 2875 2825 
Q 3525 2375 3637 2200 
Q 3750 2025 3750 1925 
Q 3750 1800 3637 1637 
Q 3525 1475 3475 1475 
Q 3400 1475 3325 1775 
Q 3200 2225 2800 2750 
L 2875 2825 
z
M 925 4150 
L 925 2650 
L 1950 2650 
L 1950 4150 
L 925 4150 
z
M 925 2500 
L 925 900 
L 1950 900 
L 1950 2500 
L 925 2500 
z
M 2300 2000 
Q 2300 800 2325 450 
L 1950 250 
L 1950 750 
L 925 750 
L 925 225 
L 550 25 
Q 575 825 575 2425 
Q 575 4025 550 4500 
L 950 4300 
L 1900 4300 
L 2100 4550 
L 2500 4225 
L 2300 4050 
L 2300 2000 
z
" transform="scale(0.015625)"/>
       <path id="SimSun-95f4" d="M 2150 525 
Q 2175 1325 2175 2112 
Q 2175 2900 2150 3675 
L 2525 3450 
L 3750 3450 
L 4000 3700 
L 4325 3375 
L 4125 3200 
Q 4125 1550 4150 775 
L 3800 575 
L 3800 975 
L 2500 975 
L 2500 700 
L 2150 525 
z
M 2500 3300 
L 2500 2325 
L 3800 2325 
L 3800 3300 
L 2500 3300 
z
M 2500 2175 
L 2500 1125 
L 3800 1125 
L 3800 2175 
L 2500 2175 
z
M 1275 5200 
Q 1850 4825 1950 4675 
Q 2050 4525 2050 4425 
Q 2050 4275 1950 4137 
Q 1850 4000 1825 4000 
Q 1750 4000 1675 4275 
Q 1550 4650 1200 5125 
L 1275 5200 
z
M 1125 425 
Q 1125 25 1150 -375 
L 750 -525 
Q 775 -150 775 1950 
Q 775 4050 750 4425 
L 1350 4125 
L 1125 3975 
L 1125 425 
z
M 4225 125 
Q 5025 0 5125 37 
Q 5225 75 5225 250 
L 5225 4450 
L 3225 4450 
Q 2900 4450 2625 4375 
L 2400 4600 
L 5175 4600 
L 5425 4850 
L 5775 4500 
L 5575 4350 
L 5575 225 
Q 5575 -100 5462 -250 
Q 5350 -400 5000 -550 
Q 4800 -125 4225 25 
L 4225 125 
z
" transform="scale(0.015625)"/>
       <path id="SimSun-20" d="M 0 0 
Q 0 0 0 0 
z
" transform="scale(0.015625)"/>
       <path id="SimSun-28" d="M 2900 5025 
Q 2325 4425 2037 3737 
Q 1750 3050 1750 2300 
Q 1750 1525 2037 850 
Q 2325 175 2900 -425 
L 2775 -550 
Q 2075 75 1725 787 
Q 1375 1500 1375 2300 
Q 1375 3075 1725 3787 
Q 2075 4500 2775 5150 
L 2900 5025 
z
" transform="scale(0.015625)"/>
       <path id="SimSun-73" d="M 625 2175 
Q 625 2550 912 2750 
Q 1200 2950 1600 2950 
Q 1825 2950 2025 2900 
Q 2225 2825 2300 2825 
Q 2375 2825 2425 2850 
Q 2475 2875 2550 2950 
L 2650 2125 
L 2500 2100 
Q 2400 2425 2162 2612 
Q 1925 2800 1625 2800 
Q 1300 2800 1112 2675 
Q 925 2550 925 2325 
Q 925 2125 1012 2012 
Q 1100 1900 1325 1850 
Q 1500 1775 1775 1700 
Q 2025 1600 2250 1500 
Q 2450 1400 2587 1237 
Q 2725 1075 2725 875 
Q 2725 500 2462 287 
Q 2200 75 1700 75 
Q 1375 75 1225 150 
Q 1050 200 950 200 
Q 875 200 787 162 
Q 700 125 600 75 
L 525 1000 
L 675 1025 
Q 750 625 1000 425 
Q 1250 225 1700 225 
Q 2050 225 2237 350 
Q 2425 475 2425 725 
Q 2425 900 2325 1012 
Q 2225 1125 2125 1175 
Q 1875 1275 1575 1400 
Q 1275 1500 1050 1600 
Q 825 1700 725 1850 
Q 625 2000 625 2175 
z
" transform="scale(0.015625)"/>
       <path id="SimSun-29" d="M 275 5025 
L 400 5150 
Q 1100 4500 1450 3787 
Q 1800 3075 1800 2300 
Q 1800 1500 1450 787 
Q 1100 75 400 -550 
L 275 -425 
Q 850 175 1137 850 
Q 1425 1525 1425 2300 
Q 1425 3050 1137 3737 
Q 850 4425 275 5025 
z
" transform="scale(0.015625)"/>
      </defs>
      <use xlink:href="#SimSun-65f6"/>
      <use xlink:href="#SimSun-95f4" transform="translate(100 0)"/>
      <use xlink:href="#SimSun-20" transform="translate(200 0)"/>
      <use xlink:href="#SimSun-28" transform="translate(250 0)"/>
      <use xlink:href="#SimSun-73" transform="translate(300 0)"/>
      <use xlink:href="#SimSun-29" transform="translate(350 0)"/>
     </g>
    </g>
   </g>
   <g id="matplotlib.axis_2">
    <g id="ytick_1">
     <g id="line2d_19">
      <path d="M 47.2625 318.54137 
L 605.2625 318.54137 
" clip-path="url(#p249ba38d8f)" style="fill: none; stroke-dasharray: 1.85,0.8; stroke-dashoffset: 0; stroke: #b0b0b0; stroke-opacity: 0.5; stroke-width: 0.5"/>
     </g>
     <g id="line2d_20">
      <defs>
       <path id="ma038fc4290" d="M 0 0 
L -3.5 0 
" style="stroke: #000000; stroke-width: 0.8"/>
      </defs>
      <g>
       <use xlink:href="#ma038fc4290" x="47.2625" y="318.54137" style="stroke: #000000; stroke-width: 0.8"/>
      </g>
     </g>
     <g id="text_11">
      <!-- -20 -->
      <g style="fill: #1f77b4" transform="translate(22.2625 322.830433) scale(0.12 -0.12)">
       <defs>
        <path id="SimSun-2d" d="M 200 2225 
L 200 2450 
L 2975 2450 
L 2975 2225 
L 200 2225 
z
" transform="scale(0.015625)"/>
       </defs>
       <use xlink:href="#SimSun-2d"/>
       <use xlink:href="#SimSun-32" transform="translate(50 0)"/>
       <use xlink:href="#SimSun-30" transform="translate(100 0)"/>
      </g>
     </g>
    </g>
    <g id="ytick_2">
     <g id="line2d_21">
      <path d="M 47.2625 267.365986 
L 605.2625 267.365986 
" clip-path="url(#p249ba38d8f)" style="fill: none; stroke-dasharray: 1.85,0.8; stroke-dashoffset: 0; stroke: #b0b0b0; stroke-opacity: 0.5; stroke-width: 0.5"/>
     </g>
     <g id="line2d_22">
      <g>
       <use xlink:href="#ma038fc4290" x="47.2625" y="267.365986" style="stroke: #000000; stroke-width: 0.8"/>
      </g>
     </g>
     <g id="text_12">
      <!-- -10 -->
      <g style="fill: #1f77b4" transform="translate(22.2625 271.655048) scale(0.12 -0.12)">
       <use xlink:href="#SimSun-2d"/>
       <use xlink:href="#SimSun-31" transform="translate(50 0)"/>
       <use xlink:href="#SimSun-30" transform="translate(100 0)"/>
      </g>
     </g>
    </g>
    <g id="ytick_3">
     <g id="line2d_23">
      <path d="M 47.2625 216.190601 
L 605.2625 216.190601 
" clip-path="url(#p249ba38d8f)" style="fill: none; stroke-dasharray: 1.85,0.8; stroke-dashoffset: 0; stroke: #b0b0b0; stroke-opacity: 0.5; stroke-width: 0.5"/>
     </g>
     <g id="line2d_24">
      <g>
       <use xlink:href="#ma038fc4290" x="47.2625" y="216.190601" style="stroke: #000000; stroke-width: 0.8"/>
      </g>
     </g>
     <g id="text_13">
      <!-- 0 -->
      <g style="fill: #1f77b4" transform="translate(34.2625 220.479663) scale(0.12 -0.12)">
       <use xlink:href="#SimSun-30"/>
      </g>
     </g>
    </g>
    <g id="ytick_4">
     <g id="line2d_25">
      <path d="M 47.2625 165.015216 
L 605.2625 165.015216 
" clip-path="url(#p249ba38d8f)" style="fill: none; stroke-dasharray: 1.85,0.8; stroke-dashoffset: 0; stroke: #b0b0b0; stroke-opacity: 0.5; stroke-width: 0.5"/>
     </g>
     <g id="line2d_26">
      <g>
       <use xlink:href="#ma038fc4290" x="47.2625" y="165.015216" style="stroke: #000000; stroke-width: 0.8"/>
      </g>
     </g>
     <g id="text_14">
      <!-- 10 -->
      <g style="fill: #1f77b4" transform="translate(28.2625 169.304279) scale(0.12 -0.12)">
       <use xlink:href="#SimSun-31"/>
       <use xlink:href="#SimSun-30" transform="translate(50 0)"/>
      </g>
     </g>
    </g>
    <g id="ytick_5">
     <g id="line2d_27">
      <path d="M 47.2625 113.839832 
L 605.2625 113.839832 
" clip-path="url(#p249ba38d8f)" style="fill: none; stroke-dasharray: 1.85,0.8; stroke-dashoffset: 0; stroke: #b0b0b0; stroke-opacity: 0.5; stroke-width: 0.5"/>
     </g>
     <g id="line2d_28">
      <g>
       <use xlink:href="#ma038fc4290" x="47.2625" y="113.839832" style="stroke: #000000; stroke-width: 0.8"/>
      </g>
     </g>
     <g id="text_15">
      <!-- 20 -->
      <g style="fill: #1f77b4" transform="translate(28.2625 118.128894) scale(0.12 -0.12)">
       <use xlink:href="#SimSun-32"/>
       <use xlink:href="#SimSun-30" transform="translate(50 0)"/>
      </g>
     </g>
    </g>
    <g id="ytick_6">
     <g id="line2d_29">
      <path d="M 47.2625 62.664447 
L 605.2625 62.664447 
" clip-path="url(#p249ba38d8f)" style="fill: none; stroke-dasharray: 1.85,0.8; stroke-dashoffset: 0; stroke: #b0b0b0; stroke-opacity: 0.5; stroke-width: 0.5"/>
     </g>
     <g id="line2d_30">
      <g>
       <use xlink:href="#ma038fc4290" x="47.2625" y="62.664447" style="stroke: #000000; stroke-width: 0.8"/>
      </g>
     </g>
     <g id="text_16">
      <!-- 30 -->
      <g style="fill: #1f77b4" transform="translate(28.2625 66.95351) scale(0.12 -0.12)">
       <use xlink:href="#SimSun-33"/>
       <use xlink:href="#SimSun-30" transform="translate(50 0)"/>
      </g>
     </g>
    </g>
    <g id="ytick_7">
     <g id="line2d_31">
      <path d="M 47.2625 11.489062 
L 605.2625 11.489062 
" clip-path="url(#p249ba38d8f)" style="fill: none; stroke-dasharray: 1.85,0.8; stroke-dashoffset: 0; stroke: #b0b0b0; stroke-opacity: 0.5; stroke-width: 0.5"/>
     </g>
     <g id="line2d_32">
      <g>
       <use xlink:href="#ma038fc4290" x="47.2625" y="11.489062" style="stroke: #000000; stroke-width: 0.8"/>
      </g>
     </g>
     <g id="text_17">
      <!-- 40 -->
      <g style="fill: #1f77b4" transform="translate(28.2625 15.778125) scale(0.12 -0.12)">
       <use xlink:href="#SimSun-34"/>
       <use xlink:href="#SimSun-30" transform="translate(50 0)"/>
      </g>
     </g>
    </g>
    <g id="text_18">
     <!-- 环境温度 (°C) -->
     <g style="fill: #1f77b4" transform="translate(16.715625 219.809062) rotate(-90) scale(0.12 -0.12)">
      <defs>
       <path id="SimSun-73af" d="M 300 4600 
L 1900 4600 
L 2200 4900 
L 2625 4525 
L 1675 4525 
L 1675 3000 
L 1950 3000 
L 2225 3275 
L 2625 2850 
L 1675 2850 
L 1675 1400 
L 2550 1775 
L 2575 1675 
Q 975 800 525 475 
L 250 925 
Q 775 1050 1325 1275 
L 1325 2850 
L 1225 2850 
Q 900 2850 625 2775 
L 400 3000 
L 1325 3000 
L 1325 4450 
L 1125 4450 
Q 800 4450 525 4375 
L 300 4600 
z
M 4250 3000 
L 4250 700 
Q 4250 25 4275 -375 
L 3875 -575 
L 3900 25 
Q 3900 500 3900 2975 
Q 3150 1625 2125 900 
L 2075 975 
Q 3475 2400 4100 4525 
L 3400 4525 
Q 3075 4525 2800 4450 
L 2575 4675 
L 5300 4675 
L 5675 5000 
L 6075 4525 
L 4500 4525 
Q 4300 3925 4075 3375 
L 4400 3175 
L 4250 3000 
z
M 4575 2800 
Q 5525 2150 5700 1912 
Q 5875 1675 5875 1475 
Q 5875 1325 5800 1187 
Q 5725 1050 5700 1050 
Q 5625 1050 5575 1200 
Q 5450 1450 5237 1825 
Q 5025 2200 4525 2725 
L 4575 2800 
z
" transform="scale(0.015625)"/>
       <path id="SimSun-5883" d="M 3575 5200 
L 3650 5250 
Q 4050 5075 4150 4962 
Q 4250 4850 4250 4775 
Q 4250 4675 4162 4562 
Q 4075 4450 4050 4450 
Q 3975 4450 3925 4625 
Q 3850 4875 3575 5200 
z
M 2425 4425 
L 5075 4425 
L 5350 4700 
L 5775 4275 
L 3250 4275 
Q 2875 4275 2650 4200 
L 2425 4425 
z
M 3100 4125 
L 3175 4175 
Q 3725 3850 3737 3650 
Q 3750 3450 3650 3362 
Q 3550 3275 3525 3275 
Q 3425 3275 3400 3475 
Q 3350 3775 3100 4125 
z
M 4350 3225 
Q 4625 3775 4725 4225 
L 5200 3925 
L 5000 3825 
Q 4750 3550 4475 3225 
L 5350 3225 
L 5650 3525 
L 6100 3075 
L 2900 3075 
Q 2575 3075 2300 3000 
L 2075 3225 
L 4350 3225 
z
M 6125 -150 
Q 5925 -500 5475 -500 
L 4775 -500 
Q 4225 -500 4225 125 
L 4225 1050 
L 3800 1050 
Q 3725 300 3287 -75 
Q 2850 -450 1475 -625 
L 1450 -525 
Q 2650 -275 3037 75 
Q 3425 425 3450 1050 
L 3050 1050 
L 3050 925 
L 2700 775 
Q 2725 1300 2725 1875 
Q 2725 2450 2700 2875 
L 3075 2650 
L 4975 2650 
L 5200 2875 
L 5550 2525 
L 5325 2375 
Q 5325 1300 5350 975 
L 5000 850 
L 5000 1050 
L 4550 1050 
L 4550 150 
Q 4550 -225 4900 -225 
L 5375 -225 
Q 5575 -225 5625 75 
Q 5675 375 5700 900 
L 5825 900 
Q 5825 550 5862 225 
Q 5900 -100 6125 -150 
z
M 3050 2500 
L 3050 1925 
L 5000 1925 
L 5000 2500 
L 3050 2500 
z
M 3050 1775 
L 3050 1200 
L 5000 1200 
L 5000 1775 
L 3050 1775 
z
M 1550 1300 
L 2525 1550 
L 2550 1450 
Q 775 800 575 550 
L 300 1025 
Q 625 1075 1200 1225 
L 1200 3300 
L 750 3300 
L 475 3250 
L 275 3450 
L 1200 3450 
Q 1200 4725 1175 5125 
L 1750 4875 
L 1550 4725 
L 1550 3450 
L 1750 3450 
L 2025 3725 
L 2450 3300 
L 1550 3300 
L 1550 1300 
z
" transform="scale(0.015625)"/>
       <path id="SimSun-6e29" d="M 2775 4575 
L 2775 3800 
L 4750 3800 
L 4750 4575 
L 2775 4575 
z
M 2775 3650 
L 2775 2750 
L 4750 2750 
L 4750 3650 
L 2775 3650 
z
M 2350 1700 
L 2350 -175 
L 3075 -175 
L 3075 1700 
L 2350 1700 
z
M 3375 1700 
L 3375 -175 
L 4075 -175 
L 4075 1700 
L 3375 1700 
z
M 4375 1700 
L 4375 -175 
L 5100 -175 
L 5100 1700 
L 4375 1700 
z
M 2425 2250 
Q 2450 2725 2450 3700 
Q 2450 4675 2425 4975 
L 2775 4725 
L 4700 4725 
L 4875 4975 
L 5250 4700 
L 5075 4550 
Q 5075 3050 5100 2450 
L 4750 2325 
L 4750 2600 
L 2775 2600 
L 2775 2400 
L 2425 2250 
z
M 2000 2075 
L 2350 1850 
L 5075 1850 
L 5225 2075 
L 5600 1800 
L 5425 1625 
L 5425 -175 
L 5500 -175 
L 5800 125 
L 6175 -325 
L 2175 -325 
Q 1850 -325 1575 -400 
L 1350 -175 
L 2025 -175 
L 2025 1475 
Q 2025 1725 2000 2075 
z
M 2125 4175 
Q 1400 1425 1337 1112 
Q 1275 800 1262 350 
Q 1250 -100 1275 -275 
Q 1275 -375 1175 -375 
Q 1075 -375 912 -312 
Q 750 -250 750 -75 
Q 750 75 825 300 
Q 900 550 900 700 
Q 900 850 787 950 
Q 675 1050 300 1150 
L 300 1250 
Q 750 1200 850 1212 
Q 950 1225 1087 1437 
Q 1225 1650 2025 4200 
L 2125 4175 
z
M 375 3600 
Q 1050 3300 1100 3100 
Q 1150 2900 1050 2762 
Q 950 2625 900 2625 
Q 850 2625 800 2800 
Q 700 3050 325 3550 
L 375 3600 
z
M 850 5000 
Q 1325 4825 1475 4700 
Q 1625 4575 1625 4450 
Q 1625 4350 1562 4212 
Q 1500 4075 1450 4075 
Q 1400 4075 1325 4250 
Q 1175 4525 800 4950 
L 850 5000 
z
" transform="scale(0.015625)"/>
       <path id="SimSun-5ea6" d="M 2550 2025 
Q 2575 2525 2575 3175 
L 1925 3175 
L 1625 3125 
L 1425 3325 
L 2575 3325 
Q 2575 3700 2550 4150 
L 3100 3875 
L 2900 3750 
L 2900 3325 
L 4300 3325 
Q 4300 3750 4275 4125 
L 4850 3875 
L 4625 3725 
L 4625 3325 
L 5100 3325 
L 5425 3650 
L 5900 3175 
L 4625 3175 
Q 4625 2450 4650 2225 
L 4300 2075 
L 4300 2300 
L 2900 2300 
L 2900 2175 
L 2550 2025 
z
M 4875 1500 
Q 4300 775 3900 425 
Q 4700 -75 6025 -125 
L 6025 -225 
Q 5625 -300 5550 -550 
Q 4375 -325 3675 225 
Q 2475 -450 1075 -625 
L 1050 -525 
Q 2375 -275 3450 450 
Q 2975 925 2575 1625 
L 2325 1625 
L 2100 1575 
L 1900 1775 
L 4525 1775 
L 4750 2000 
L 5125 1625 
L 4875 1500 
z
M 2700 1625 
Q 3175 975 3650 625 
Q 4150 1100 4500 1625 
L 2700 1625 
z
M 2900 3175 
L 2900 2450 
L 4300 2450 
L 4300 3175 
L 2900 3175 
z
M 975 4650 
L 1400 4400 
L 3375 4400 
Q 3350 4550 3262 4725 
Q 3175 4900 2900 5225 
L 2975 5275 
Q 3550 5025 3637 4887 
Q 3725 4750 3725 4725 
Q 3725 4575 3525 4400 
L 5150 4400 
L 5500 4750 
L 6000 4250 
L 1375 4250 
Q 1400 2750 1287 1912 
Q 1175 1075 925 475 
Q 675 -125 300 -625 
L 225 -575 
Q 725 300 862 1250 
Q 1000 2200 1012 3187 
Q 1025 4175 975 4650 
z
" transform="scale(0.015625)"/>
       <path id="SimSun-b0" d="M 2037 3362 
Q 1825 3200 1512 3225 
Q 1200 3250 1012 3450 
Q 825 3650 837 3950 
Q 850 4250 1000 4412 
Q 1150 4575 1375 4637 
Q 1600 4700 1812 4650 
Q 2025 4600 2175 4387 
Q 2325 4175 2287 3850 
Q 2250 3525 2037 3362 
z
M 1212 4325 
Q 1075 4200 1050 4012 
Q 1025 3825 1125 3650 
Q 1225 3475 1487 3437 
Q 1750 3400 1912 3550 
Q 2075 3700 2075 3962 
Q 2075 4225 1912 4362 
Q 1750 4500 1550 4475 
Q 1350 4450 1212 4325 
z
" transform="scale(0.015625)"/>
       <path id="SimSun-43" d="M 1725 50 
Q 1025 50 612 575 
Q 200 1100 200 2225 
Q 200 3175 637 3800 
Q 1075 4425 1825 4425 
Q 2000 4425 2175 4375 
Q 2350 4300 2475 4300 
Q 2575 4300 2637 4325 
Q 2700 4350 2750 4425 
L 2975 3325 
L 2825 3275 
Q 2675 3750 2425 4000 
Q 2175 4250 1775 4250 
Q 1250 4250 962 3675 
Q 675 3100 675 2250 
Q 675 1325 925 800 
Q 1175 275 1750 275 
Q 2150 275 2437 562 
Q 2725 850 2825 1325 
L 2975 1250 
Q 2850 725 2512 387 
Q 2175 50 1725 50 
z
" transform="scale(0.015625)"/>
      </defs>
      <use xlink:href="#SimSun-73af"/>
      <use xlink:href="#SimSun-5883" transform="translate(100 0)"/>
      <use xlink:href="#SimSun-6e29" transform="translate(200 0)"/>
      <use xlink:href="#SimSun-5ea6" transform="translate(300 0)"/>
      <use xlink:href="#SimSun-20" transform="translate(400 0)"/>
      <use xlink:href="#SimSun-28" transform="translate(450 0)"/>
      <use xlink:href="#SimSun-b0" transform="translate(500 0)"/>
      <use xlink:href="#SimSun-43" transform="translate(600 0)"/>
      <use xlink:href="#SimSun-29" transform="translate(650 0)"/>
     </g>
    </g>
   </g>
   <g id="line2d_33">
    <path d="M 47.2625 268.015727 
L 47.963505 302.345742 
L 48.66451 301.062492 
L 49.365515 309.426555 
L 50.06652 279.667407 
L 50.767525 328.288313 
L 51.46853 266.166255 
L 52.169535 304.640195 
L 52.87054 288.055594 
L 53.571545 296.782164 
L 54.27255 270.506496 
L 54.973555 324.582224 
L 55.67456 297.903626 
L 56.375565 298.849914 
L 57.07657 275.547353 
L 57.777575 309.839882 
L 58.478581 295.600901 
L 59.179585 306.431101 
L 59.88059 292.305586 
L 60.581596 284.005941 
L 61.2826 309.851058 
L 61.983606 275.379177 
L 62.68461 279.111903 
L 63.385615 285.239073 
L 64.086621 279.123182 
L 64.787625 303.450689 
L 65.488631 294.840363 
L 66.189636 307.320186 
L 66.89064 297.06646 
L 67.591646 284.811335 
L 68.29265 303.572476 
L 68.993656 299.044879 
L 69.694661 303.503574 
L 70.395666 305.9298 
L 71.09667 303.259063 
L 71.797677 293.148111 
L 72.498681 310.107312 
L 73.900692 267.471374 
L 75.3027 295.898853 
L 76.003707 306.581107 
L 76.704711 304.424508 
L 77.405716 266.970072 
L 78.10672 292.173648 
L 78.807727 302.733232 
L 79.508731 290.022627 
L 80.209735 260.70927 
L 80.910742 291.108926 
L 81.611746 283.477996 
L 82.31275 288.345279 
L 83.013757 298.361633 
L 83.714761 310.494323 
L 84.415766 298.317006 
L 85.116773 296.160749 
L 85.817777 283.947478 
L 86.518781 280.073086 
L 87.219785 278.658825 
L 87.920792 288.569166 
L 88.621796 279.364448 
L 89.3228 304.535656 
L 90.023807 273.718877 
L 91.425816 297.530183 
L 92.126823 285.453648 
L 92.827824 294.113901 
L 93.528831 275.580208 
L 94.229838 269.620516 
L 94.930839 259.399378 
L 95.631846 314.393551 
L 96.332853 315.124605 
L 97.033855 300.698546 
L 98.435868 279.502194 
L 99.13687 288.107854 
L 99.837877 323.999751 
L 100.538884 297.654713 
L 101.239885 280.242102 
L 101.940892 289.421124 
L 102.641899 281.254813 
L 103.342901 296.366997 
L 104.043907 296.035838 
L 104.744914 290.089475 
L 105.445916 286.658312 
L 106.146923 289.909258 
L 106.84793 291.126583 
L 107.548931 303.250102 
L 108.249938 287.157086 
L 108.95094 291.083401 
L 109.651946 275.613147 
L 110.352953 274.547151 
L 111.053955 290.111041 
L 111.754962 298.715282 
L 112.455969 302.75986 
L 113.15697 286.451932 
L 113.857977 291.766305 
L 114.558984 298.23273 
L 115.259985 292.284351 
L 115.960992 302.472312 
L 116.661999 282.23706 
L 117.363001 299.818267 
L 118.064008 274.213312 
L 118.765015 286.930096 
L 119.466016 284.17091 
L 120.167023 310.294126 
L 120.86803 291.120038 
L 121.569031 282.617292 
L 122.270038 308.919553 
L 122.971045 298.675311 
L 123.672047 294.412097 
L 124.373054 316.327611 
L 125.07406 290.746273 
L 125.775062 282.931609 
L 126.476069 309.450577 
L 127.17707 291.195544 
L 127.878077 317.032682 
L 128.579084 297.769594 
L 129.280086 322.248923 
L 129.981093 280.466144 
L 130.682099 291.614625 
L 131.383101 298.445119 
L 132.084108 310.104491 
L 132.785115 278.742886 
L 133.486116 268.147475 
L 134.187123 326.873046 
L 134.88813 279.318401 
L 135.589132 273.201592 
L 136.290138 292.836425 
L 136.991145 316.212295 
L 137.692147 284.256762 
L 138.393148 299.933699 
L 139.094161 306.003846 
L 139.795162 315.12156 
L 140.496164 287.216267 
L 141.197176 282.852804 
L 141.898177 303.875797 
L 142.599179 285.509876 
L 143.300191 310.188679 
L 144.001193 279.34454 
L 144.702194 289.891118 
L 145.403206 292.335508 
L 146.104208 289.811366 
L 146.80521 273.599603 
L 147.506222 274.019289 
L 148.207223 275.92209 
L 148.908225 280.356495 
L 149.609237 279.604054 
L 150.310239 269.541194 
L 151.01124 273.609154 
L 151.712252 264.750374 
L 152.413254 277.889147 
L 153.114255 308.261793 
L 153.815268 252.544499 
L 154.516269 232.395658 
L 155.217271 256.545558 
L 155.918283 262.087206 
L 156.619284 259.755979 
L 157.320286 256.490306 
L 158.021298 251.292203 
L 158.7223 265.583991 
L 159.423301 253.002982 
L 160.124313 256.990903 
L 160.825315 234.403419 
L 161.526317 239.242023 
L 162.227329 223.481115 
L 162.92833 230.099543 
L 163.629332 208.551409 
L 164.330344 216.642089 
L 165.031346 182.46886 
L 165.732347 241.35861 
L 166.433359 218.286257 
L 167.835362 161.683216 
L 168.536375 200.364097 
L 169.237376 191.9148 
L 169.938378 192.095099 
L 170.639379 164.217568 
L 171.340391 185.117117 
L 172.041393 166.32752 
L 173.443407 188.498413 
L 174.144408 160.290209 
L 174.84541 153.560223 
L 175.546422 137.657184 
L 176.247424 155.484078 
L 176.948425 159.600038 
L 177.649437 137.878157 
L 178.350439 139.286737 
L 179.05144 135.21294 
L 179.752453 137.264058 
L 180.453454 115.033515 
L 181.154456 123.973659 
L 181.855468 97.30181 
L 182.556469 106.487001 
L 183.257471 110.538119 
L 183.958483 142.869594 
L 184.659485 105.987125 
L 185.360486 106.260216 
L 186.061498 97.874923 
L 186.7625 92.042855 
L 186.7625 112.131025 
L 187.463502 91.376623 
L 188.164514 110.803724 
L 188.865515 70.394518 
L 189.566517 119.184195 
L 190.267529 124.186222 
L 190.968531 121.00863 
L 191.669532 107.938891 
L 192.370544 110.137862 
L 193.071546 61.703718 
L 193.772547 95.612388 
L 194.47356 110.164197 
L 195.174561 71.477083 
L 195.875563 96.708414 
L 196.576575 105.89178 
L 197.277576 72.734935 
L 197.978578 75.967121 
L 198.67959 91.646591 
L 199.380592 62.864312 
L 200.081593 82.067673 
L 200.782605 58.870042 
L 201.483607 75.687041 
L 202.184609 59.248288 
L 203.586622 101.635331 
L 204.287624 45.253427 
L 204.988625 91.237247 
L 205.689638 85.960127 
L 206.390639 93.75503 
L 207.792653 79.587889 
L 208.493654 80.424352 
L 209.194656 73.614834 
L 209.895668 56.515979 
L 210.59667 86.169557 
L 211.297671 103.560099 
L 211.998683 103.10274 
L 212.699685 95.504501 
L 213.400687 111.324303 
L 214.101699 73.292782 
L 214.8027 93.941883 
L 215.503702 91.392094 
L 216.204714 86.957098 
L 216.905716 108.660819 
L 217.606717 100.708775 
L 218.307729 77.362865 
L 219.008731 78.425733 
L 219.709732 94.884916 
L 220.410745 60.396661 
L 221.111746 108.298464 
L 221.812748 93.548596 
L 222.51376 91.796138 
L 223.214761 131.133301 
L 223.915763 58.506008 
L 225.317777 104.289318 
L 226.018778 56.761261 
L 226.71979 79.260693 
L 227.420781 81.657792 
L 228.121794 97.571153 
L 228.822806 86.621342 
L 229.523797 111.675326 
L 230.224809 76.046409 
L 230.925821 94.000751 
L 231.626812 86.194145 
L 232.327824 69.797452 
L 233.028836 83.880512 
L 233.729827 84.222574 
L 234.430839 84.00715 
L 235.131852 99.509781 
L 235.832843 75.417278 
L 236.533855 64.55754 
L 237.234867 76.602489 
L 237.935858 74.666477 
L 238.63687 101.72071 
L 239.337882 101.57494 
L 240.038873 110.373355 
L 240.739885 69.333837 
L 241.440898 92.154462 
L 242.141888 66.760875 
L 242.842901 100.256531 
L 243.543913 94.969045 
L 244.244904 86.787112 
L 244.945916 74.105467 
L 245.646928 87.319463 
L 246.347919 85.010818 
L 247.048931 87.998394 
L 247.749943 85.531846 
L 248.450934 105.392869 
L 249.151946 87.0097 
L 249.852959 91.116611 
L 250.55395 89.124542 
L 251.254962 80.69349 
L 251.955974 98.702328 
L 252.656965 89.549562 
L 253.357977 92.817424 
L 254.058989 81.845465 
L 254.75998 76.203853 
L 255.460992 102.920416 
L 256.862995 56.536965 
L 257.564008 110.838248 
L 258.26502 100.997444 
L 258.966011 101.771311 
L 259.667023 92.537022 
L 260.368035 63.337161 
L 261.069026 88.04714 
L 261.770038 98.917507 
L 262.47105 78.705833 
L 263.172041 97.460708 
L 263.873054 71.00482 
L 264.574066 83.565487 
L 265.275057 66.930745 
L 265.976069 98.405508 
L 266.677081 41.720556 
L 267.378072 75.592613 
L 268.079084 78.202618 
L 269.481087 99.391957 
L 270.182099 101.574657 
L 270.883112 90.339749 
L 271.584102 100.492316 
L 272.285115 83.912332 
L 272.986127 100.934896 
L 273.687118 78.716892 
L 274.38813 73.573175 
L 275.089142 99.088636 
L 275.790133 69.941289 
L 276.491145 91.905167 
L 277.192157 70.515446 
L 277.893148 81.525141 
L 278.594161 71.021463 
L 279.295173 103.559005 
L 279.996164 89.891702 
L 280.697176 65.968903 
L 281.398188 97.740622 
L 282.099179 119.528502 
L 282.800191 118.075968 
L 283.501203 126.732556 
L 284.202194 120.710082 
L 285.604219 68.623388 
L 286.30521 95.04152 
L 287.006222 83.285144 
L 287.707234 89.9408 
L 288.408225 88.120894 
L 289.109237 90.834432 
L 289.810249 90.926263 
L 290.51124 81.172068 
L 291.212252 106.306551 
L 291.913243 72.744042 
L 292.614255 74.07759 
L 293.315268 91.102253 
L 294.016258 75.60827 
L 294.717271 98.571268 
L 295.418283 95.852087 
L 296.119274 84.980295 
L 296.820286 90.053909 
L 298.222289 96.920841 
L 298.923301 94.873954 
L 299.624313 71.610603 
L 300.325304 115.57919 
L 301.026317 80.051582 
L 301.727329 88.820694 
L 302.42832 73.756417 
L 303.129332 76.777688 
L 303.830344 127.178962 
L 304.531335 75.280957 
L 305.232347 79.101385 
L 305.933359 83.596459 
L 306.63435 91.01212 
L 307.335362 70.636696 
L 308.036375 90.036262 
L 308.737365 55.527011 
L 309.438378 75.07341 
L 310.13939 51.006851 
L 310.840381 96.027081 
L 311.541393 111.115556 
L 312.242405 73.427786 
L 312.943396 71.660452 
L 313.644408 84.661698 
L 314.34542 109.38181 
L 315.747424 77.662819 
L 316.448436 90.812597 
L 317.149427 90.688126 
L 317.850439 92.608618 
L 318.551451 105.342288 
L 319.252442 100.355917 
L 319.953454 115.318456 
L 320.654466 67.591765 
L 321.355457 103.420332 
L 322.056469 90.24417 
L 322.757482 114.784075 
L 323.458473 88.477197 
L 324.159485 131.071182 
L 324.860497 89.872542 
L 325.561488 106.294691 
L 326.2625 75.142888 
L 326.2625 129.445616 
L 326.963512 110.098204 
L 327.664503 107.557063 
L 328.365515 96.228264 
L 329.066527 123.644188 
L 329.767518 117.851818 
L 330.468531 154.127114 
L 331.870534 118.484941 
L 332.571546 110.588915 
L 333.272558 134.005113 
L 333.973549 100.261558 
L 334.674561 106.970255 
L 335.375573 137.096014 
L 336.076564 175.393049 
L 336.777576 167.805876 
L 337.478589 154.632374 
L 338.17958 127.729284 
L 338.880592 142.259565 
L 339.581604 181.327504 
L 340.983607 128.667309 
L 341.684619 161.293925 
L 342.38561 169.134397 
L 343.086622 128.131922 
L 343.787635 160.882844 
L 344.488625 171.054875 
L 345.189638 160.284035 
L 345.89065 167.32068 
L 346.591641 176.0566 
L 347.292653 152.755888 
L 347.993665 155.974409 
L 348.694656 161.93923 
L 349.395668 178.121373 
L 350.09668 160.571841 
L 350.797671 180.522662 
L 352.199696 166.863141 
L 352.900687 171.7026 
L 353.601699 157.960538 
L 354.302711 179.753994 
L 355.003702 213.705514 
L 355.704714 206.751834 
L 356.405726 169.219927 
L 357.106717 195.956104 
L 357.807729 185.770145 
L 358.508742 205.520161 
L 359.209732 177.731588 
L 359.910745 199.558666 
L 360.611757 171.717583 
L 361.312748 202.624557 
L 362.01376 177.531276 
L 362.714751 184.534221 
L 363.415763 206.117544 
L 364.116775 178.244417 
L 364.817766 209.002769 
L 365.518778 207.786891 
L 366.21979 184.038098 
L 366.920781 204.638934 
L 367.621794 204.039984 
L 368.322806 200.054983 
L 369.023797 209.95345 
L 369.724809 178.351868 
L 370.425821 184.827344 
L 371.126812 194.989168 
L 371.827824 195.328382 
L 372.528836 186.480687 
L 373.229827 166.008445 
L 373.930839 179.454084 
L 374.631852 200.346238 
L 375.332843 180.322624 
L 376.033855 193.807212 
L 376.734867 194.776668 
L 377.435858 162.820476 
L 378.13687 197.682537 
L 378.837882 198.40799 
L 379.538873 220.851806 
L 380.239885 212.276854 
L 380.940898 183.726863 
L 381.641888 201.271763 
L 382.342901 182.689959 
L 383.043913 207.719095 
L 383.744904 202.383121 
L 384.445916 180.246484 
L 385.146928 168.17439 
L 385.847919 181.506901 
L 386.548931 172.213073 
L 387.249943 164.432928 
L 387.950934 174.634818 
L 388.651946 204.703365 
L 390.05395 180.927758 
L 390.754962 196.971894 
L 391.455974 183.664354 
L 392.156965 214.847088 
L 392.857977 203.324515 
L 393.558989 182.48322 
L 394.25998 224.948037 
L 395.662005 190.874931 
L 396.362995 217.000111 
L 397.064008 189.725953 
L 397.76502 202.878054 
L 398.466011 195.079649 
L 399.167023 194.578972 
L 399.868035 187.696763 
L 400.569026 199.25854 
L 401.270038 189.225988 
L 401.97105 199.832238 
L 403.373054 164.598508 
L 404.074066 187.580442 
L 404.775057 187.994971 
L 405.476048 208.473476 
L 406.177081 179.957924 
L 406.878072 202.241224 
L 407.579063 203.020828 
L 408.280096 182.044755 
L 408.981087 187.823491 
L 409.682078 173.604869 
L 410.383112 168.450976 
L 411.084102 198.888433 
L 411.785093 188.631987 
L 412.486127 163.575933 
L 413.187118 175.764004 
L 413.888109 179.65574 
L 414.589142 170.549229 
L 415.290133 199.885146 
L 415.991124 180.829687 
L 416.692157 168.967183 
L 417.393148 165.717667 
L 418.094139 202.979955 
L 419.496164 184.727229 
L 420.197155 195.039774 
L 420.898188 196.618312 
L 421.599179 180.1017 
L 422.30017 196.028677 
L 423.001203 218.052048 
L 423.702194 185.047607 
L 424.403185 197.119983 
L 425.104219 201.833822 
L 425.80521 214.641084 
L 426.5062 175.038081 
L 427.207234 224.794913 
L 427.908225 216.692124 
L 429.310249 171.735226 
L 430.01124 170.495495 
L 430.712231 208.334913 
L 431.413264 193.330027 
L 432.114255 213.799644 
L 432.815246 175.099331 
L 433.51628 213.31273 
L 434.918262 174.838475 
L 435.619295 194.14495 
L 436.320286 168.195391 
L 437.021277 204.161378 
L 437.72231 185.176473 
L 438.423301 177.785573 
L 439.124292 193.072324 
L 439.825326 169.685465 
L 440.526317 182.594783 
L 441.227307 216.188921 
L 441.928341 130.312914 
L 442.629332 181.165178 
L 443.330323 189.508491 
L 444.031356 212.661554 
L 444.732347 189.956603 
L 445.433338 198.294842 
L 446.134371 181.357844 
L 446.835362 185.555917 
L 447.536353 162.819559 
L 448.237387 189.084237 
L 448.938378 183.378176 
L 449.639369 185.530512 
L 450.340402 193.508118 
L 451.041393 194.016289 
L 451.742384 174.26174 
L 452.443417 179.145702 
L 453.144408 200.732444 
L 453.845399 208.101965 
L 454.546433 191.972621 
L 455.247424 173.027139 
L 455.948414 191.191954 
L 456.649448 163.858195 
L 457.350439 202.46112 
L 458.05143 188.268226 
L 458.752463 228.945239 
L 459.453454 199.318498 
L 460.154445 194.768576 
L 460.855479 182.01697 
L 461.556469 163.425512 
L 462.25746 188.968507 
L 462.958494 166.988671 
L 463.659485 178.94541 
L 464.360476 173.743337 
L 465.061509 195.814183 
L 465.7625 167.153865 
L 465.7625 204.638056 
L 466.463491 180.299935 
L 467.164524 202.243753 
L 467.865515 195.295744 
L 468.566506 209.479558 
L 469.968531 181.023288 
L 470.669521 187.138135 
L 471.370555 206.43141 
L 472.071546 162.806357 
L 472.772537 179.844331 
L 473.47357 169.169878 
L 474.174561 172.20523 
L 475.576586 213.319459 
L 476.277576 197.095638 
L 476.978567 163.80592 
L 477.679601 198.354185 
L 478.380592 169.206013 
L 479.081583 190.682338 
L 479.782616 174.782135 
L 480.483607 208.347956 
L 481.184598 161.948815 
L 481.885631 179.988097 
L 482.586622 165.284433 
L 483.287613 175.467245 
L 483.988647 165.620902 
L 484.689638 178.922938 
L 485.390629 165.424282 
L 486.091662 199.485781 
L 486.792653 192.3696 
L 487.493644 164.103189 
L 488.194677 175.301577 
L 488.895668 177.667248 
L 489.596659 176.364667 
L 490.297693 165.353428 
L 490.998683 181.612382 
L 491.699674 164.113477 
L 492.400708 185.451656 
L 493.101699 177.08742 
L 493.80269 155.156565 
L 494.503723 153.275263 
L 495.204714 186.010752 
L 495.905705 155.737857 
L 496.606738 184.016187 
L 497.307729 156.26017 
L 498.00872 196.121418 
L 498.709754 183.580347 
L 499.410745 173.709018 
L 500.111736 167.921948 
L 500.812769 142.987282 
L 501.51376 150.449547 
L 502.214751 139.625559 
L 502.915784 144.773336 
L 503.616775 167.125427 
L 504.317766 166.356358 
L 505.0188 145.340847 
L 505.71979 160.617361 
L 506.420781 163.132245 
L 507.121815 180.705645 
L 507.822806 161.326044 
L 508.523797 202.025509 
L 509.22483 165.663825 
L 509.925821 173.189917 
L 510.626812 146.998023 
L 511.327845 164.464534 
L 512.028836 161.652273 
L 512.729827 135.403693 
L 513.430861 171.676031 
L 514.131852 150.193366 
L 514.832843 183.637023 
L 515.533876 152.646952 
L 516.234867 147.21069 
L 516.935858 139.792885 
L 517.636891 166.276104 
L 518.337882 147.056208 
L 519.038873 146.564086 
L 519.739907 151.228654 
L 520.440898 148.115069 
L 521.141888 142.786558 
L 521.842922 143.279329 
L 522.543913 164.164019 
L 523.244904 166.717059 
L 523.945937 109.368916 
L 524.646928 117.853243 
L 525.347919 168.178031 
L 526.048952 139.384683 
L 526.749943 136.148715 
L 527.450934 133.731338 
L 528.151968 142.595702 
L 528.852959 158.465857 
L 529.55395 146.521392 
L 530.254983 150.74563 
L 530.955974 140.627406 
L 531.656965 146.295397 
L 532.357998 143.681572 
L 533.058989 125.507374 
L 533.75998 121.737342 
L 534.461014 158.247466 
L 535.162005 146.660383 
L 535.862995 151.217634 
L 536.563986 119.760441 
L 537.26502 138.924416 
L 537.966011 115.22728 
L 538.667002 144.260858 
L 539.368035 135.98155 
L 540.069026 156.535662 
L 540.770017 115.278847 
L 541.47105 140.287999 
L 542.172041 156.965626 
L 542.873032 142.703536 
L 543.574066 168.437252 
L 544.275057 132.983182 
L 544.976048 130.212757 
L 545.677081 126.963763 
L 546.378072 107.835718 
L 547.079063 134.908238 
L 547.780096 117.346094 
L 549.182078 131.632865 
L 549.883112 160.017191 
L 550.584102 113.059367 
L 551.285093 134.822044 
L 551.986127 126.293802 
L 552.687118 145.565519 
L 553.388109 121.213843 
L 554.089142 123.405104 
L 554.790133 124.124631 
L 555.491124 126.166149 
L 556.192157 107.517101 
L 556.893148 108.32843 
L 557.594139 111.563602 
L 558.295173 71.275998 
L 558.996164 131.042505 
L 559.697155 127.227845 
L 560.398188 136.564731 
L 561.099179 113.884898 
L 561.80017 130.736948 
L 562.501203 161.223329 
L 563.903185 117.947426 
L 564.604219 103.200174 
L 565.30521 142.263538 
L 566.0062 127.431478 
L 566.707234 119.847987 
L 567.408225 128.584507 
L 568.109216 108.947127 
L 568.810249 116.754211 
L 569.51124 111.608551 
L 570.212231 127.411439 
L 570.913264 92.434835 
L 571.614255 115.787196 
L 572.315246 95.688387 
L 573.01628 122.063415 
L 573.717271 106.050463 
L 574.418262 125.334449 
L 575.119295 129.307665 
L 575.820286 125.336499 
L 576.521277 115.050782 
L 577.22231 117.538024 
L 577.923301 90.391901 
L 578.624292 131.510795 
L 579.325326 130.476722 
L 580.026317 87.506404 
L 580.727307 104.143441 
L 581.428341 142.265134 
L 582.129332 105.646439 
L 582.830323 109.546965 
L 583.531356 146.032862 
L 584.232347 118.712752 
L 584.933338 113.245508 
L 585.634371 101.696678 
L 586.335362 98.229284 
L 587.036353 111.380546 
L 587.737387 96.961134 
L 588.438378 115.059353 
L 589.139369 125.974425 
L 589.840402 127.157235 
L 590.541393 104.499139 
L 591.242384 142.917813 
L 591.943417 102.482873 
L 592.644408 129.92155 
L 594.747424 94.422872 
L 595.448414 142.998014 
L 596.149448 125.672031 
L 596.850439 112.643025 
L 597.55143 122.658471 
L 598.252463 100.399119 
L 598.953454 145.788707 
L 599.654445 108.341988 
L 600.355479 107.506599 
L 601.056469 113.450644 
L 601.75746 97.450078 
L 602.458494 133.427178 
L 603.159485 97.717098 
L 603.860476 125.725765 
L 604.561509 104.00141 
L 605.2625 120.333857 
L 605.2625 120.333857 
" clip-path="url(#p249ba38d8f)" style="fill: none; stroke: #1f77b4; stroke-width: 1.5; stroke-linecap: square"/>
   </g>
   <g id="patch_8">
    <path d="M 47.2625 344.129063 
L 47.2625 11.489062 
" style="fill: none; stroke: #000000; stroke-width: 0.8; stroke-linejoin: miter; stroke-linecap: square"/>
   </g>
   <g id="patch_9">
    <path d="M 605.2625 344.129063 
L 605.2625 11.489062 
" style="fill: none; stroke: #000000; stroke-width: 0.8; stroke-linejoin: miter; stroke-linecap: square"/>
   </g>
   <g id="patch_10">
    <path d="M 47.2625 344.129063 
L 605.2625 344.129063 
" style="fill: none; stroke: #000000; stroke-width: 0.8; stroke-linejoin: miter; stroke-linecap: square"/>
   </g>
   <g id="patch_11">
    <path d="M 47.2625 11.489062 
L 605.2625 11.489062 
" style="fill: none; stroke: #000000; stroke-width: 0.8; stroke-linejoin: miter; stroke-linecap: square"/>
   </g>
   <g id="patch_12">
    <path d="M 256.862995 41.314985 
Q 256.862995 88.253348 256.862995 135.191711 
" style="fill: none; stroke: #16344c; stroke-width: 2; stroke-linecap: round"/>
    <path d="M 254.462995 46.114985 
L 256.862995 41.314985 
L 259.262995 46.114985 
" style="fill: none; stroke: #16344c; stroke-width: 2; stroke-linecap: round"/>
    <path d="M 259.262995 130.391711 
L 256.862995 135.191711 
L 254.462995 130.391711 
" style="fill: none; stroke: #16344c; stroke-width: 2; stroke-linecap: round"/>
   </g>
   <g id="text_19">
    <!-- 25 ± 10°C -->
    <g transform="translate(256.862995 190.602909) scale(0.14 -0.14)">
     <defs>
      <path id="SimSun-b1" d="M 1000 200 
L 5375 200 
L 5375 -100 
L 1000 -100 
L 1000 200 
z
M 3000 4725 
L 3300 4725 
L 3300 2750 
L 5375 2750 
L 5375 2450 
L 3300 2450 
L 3300 725 
L 3000 725 
L 3000 2450 
L 1000 2450 
L 1000 2750 
L 3000 2750 
L 3000 4725 
z
" transform="scale(0.015625)"/>
     </defs>
     <use xlink:href="#SimSun-32"/>
     <use xlink:href="#SimSun-35" transform="translate(50 0)"/>
     <use xlink:href="#SimSun-20" transform="translate(100 0)"/>
     <use xlink:href="#SimSun-b1" transform="translate(150 0)"/>
     <use xlink:href="#SimSun-20" transform="translate(250 0)"/>
     <use xlink:href="#SimSun-31" transform="translate(300 0)"/>
     <use xlink:href="#SimSun-30" transform="translate(350 0)"/>
     <use xlink:href="#SimSun-b0" transform="translate(400 0)"/>
     <use xlink:href="#SimSun-43" transform="translate(500 0)"/>
    </g>
   </g>
   <g id="legend_1">
    <g id="patch_13">
     <path d="M 510.4625 338.129063 
L 596.8625 338.129063 
Q 599.2625 338.129063 599.2625 335.729062 
L 599.2625 234.647813 
Q 599.2625 232.247813 596.8625 232.247813 
L 510.4625 232.247813 
Q 508.0625 232.247813 508.0625 234.647813 
L 508.0625 335.729062 
Q 508.0625 338.129063 510.4625 338.129063 
z
" style="fill: #ffffff; opacity: 0.8; stroke: #000000; stroke-linejoin: miter"/>
    </g>
    <g id="line2d_34">
     <path d="M 512.8625 242.363438 
L 524.8625 242.363438 
L 536.8625 242.363438 
" style="fill: none; stroke-dasharray: 5.55,2.4; stroke-dashoffset: 0; stroke: #ff7f0e; stroke-width: 1.5"/>
    </g>
    <g id="text_20">
     <!-- 功率需求 -->
     <g transform="translate(546.4625 246.563438) scale(0.12 -0.12)">
      <defs>
       <path id="SimSun-529f" d="M 4000 3475 
Q 4025 4675 3975 5250 
L 4575 4975 
L 4350 4775 
Q 4350 4000 4325 3475 
L 5375 3475 
L 5600 3725 
L 5975 3400 
L 5775 3250 
Q 5675 1350 5625 687 
Q 5575 25 5387 -225 
Q 5200 -475 4825 -600 
Q 4800 -250 3875 50 
L 3900 175 
Q 4750 25 4962 25 
Q 5175 25 5250 550 
Q 5325 1075 5425 3325 
L 4325 3325 
Q 4250 2300 4037 1625 
Q 3825 950 3325 412 
Q 2825 -125 1825 -600 
L 1750 -525 
Q 2575 -50 3025 462 
Q 3475 975 3700 1612 
Q 3925 2250 4000 3325 
L 3325 3325 
L 3025 3275 
L 2825 3475 
L 4000 3475 
z
M 1950 1275 
Q 2650 1450 3175 1625 
L 3225 1525 
Q 2125 1125 1462 850 
Q 800 575 700 425 
L 350 900 
Q 725 950 1625 1200 
L 1625 4000 
L 1250 4000 
Q 925 4000 650 3925 
L 425 4150 
L 2500 4150 
L 2775 4425 
L 3200 4000 
L 1950 4000 
L 1950 1275 
z
" transform="scale(0.015625)"/>
       <path id="SimSun-7387" d="M 875 3725 
L 925 3800 
Q 1375 3650 1550 3525 
Q 1725 3400 1725 3250 
Q 1725 3175 1662 3025 
Q 1600 2875 1550 2875 
Q 1500 2875 1425 3050 
Q 1275 3325 875 3725 
z
M 550 1850 
Q 875 1925 2000 2575 
L 2050 2500 
Q 1675 2225 1337 1937 
Q 1000 1650 875 1425 
L 550 1850 
z
M 5200 3450 
Q 4800 3150 4275 2800 
L 4225 2875 
Q 4775 3400 5050 3925 
L 5450 3525 
L 5200 3450 
z
M 4325 2500 
L 4350 2575 
Q 5225 2350 5375 2212 
Q 5525 2075 5525 1900 
Q 5525 1775 5487 1662 
Q 5450 1550 5400 1550 
Q 5325 1550 5200 1800 
Q 4975 2150 4325 2500 
z
M 3150 3900 
Q 2500 3300 2300 3150 
Q 2800 3150 3400 3175 
Q 3700 3500 3850 3825 
L 4250 3450 
Q 4050 3400 3450 2825 
Q 2850 2250 2475 1950 
Q 3150 1975 3850 2000 
Q 3750 2175 3550 2450 
L 3600 2500 
Q 4050 2250 4200 2100 
Q 4350 1950 4350 1850 
Q 4350 1775 4250 1625 
Q 4150 1475 4100 1475 
Q 4075 1475 4050 1550 
Q 4000 1700 3900 1900 
Q 3650 1875 3075 1800 
L 3500 1550 
L 3325 1425 
L 3325 975 
L 5325 975 
L 5650 1300 
L 6100 825 
L 3325 825 
Q 3325 -275 3350 -525 
L 2975 -650 
Q 3000 0 3000 825 
L 1125 825 
Q 800 825 525 750 
L 300 975 
L 3000 975 
L 3000 1775 
Q 2450 1700 2200 1525 
L 1950 1950 
Q 2275 1950 2675 2350 
Q 3075 2750 3325 3050 
Q 2400 2950 2150 2775 
L 1950 3175 
Q 2150 3150 2475 3575 
Q 2800 4000 2900 4225 
L 1450 4225 
Q 1125 4225 850 4150 
L 625 4375 
L 3100 4375 
Q 3050 4800 2675 5200 
L 2725 5250 
Q 3225 5050 3337 4912 
Q 3450 4775 3450 4700 
Q 3450 4550 3250 4375 
L 5025 4375 
L 5350 4675 
L 5775 4225 
L 3050 4225 
L 3375 3950 
L 3150 3900 
z
" transform="scale(0.015625)"/>
       <path id="SimSun-9700" d="M 2625 1600 
L 2800 2225 
L 1325 2225 
Q 1125 2225 850 2150 
L 625 2375 
L 5050 2375 
L 5375 2700 
L 5825 2225 
L 3250 2225 
Q 2875 1825 2750 1600 
L 4975 1600 
L 5125 1825 
L 5525 1525 
L 5325 1350 
L 5325 -100 
Q 5325 -475 4875 -600 
Q 4825 -275 4300 -175 
L 4300 -75 
Q 4625 -100 4812 -100 
Q 5000 -100 5000 75 
L 5000 1450 
L 4000 1450 
L 4000 -150 
L 3675 -325 
L 3675 1450 
L 2800 1450 
L 2800 -200 
L 2475 -375 
L 2475 1450 
L 1500 1450 
L 1500 -450 
L 1125 -625 
Q 1150 -100 1150 687 
Q 1150 1475 1125 1800 
L 1500 1600 
L 2625 1600 
z
M 3725 3000 
L 4875 3000 
L 4875 2850 
L 3725 2850 
L 3725 3000 
z
M 3450 2775 
L 3075 2625 
Q 3100 3325 3100 4075 
L 1125 4075 
Q 1175 3825 1100 3637 
Q 1025 3450 850 3437 
Q 675 3425 637 3475 
Q 600 3525 600 3550 
Q 600 3625 725 3750 
Q 900 3925 1025 4450 
L 1100 4450 
L 1125 4225 
L 3100 4225 
L 3100 4700 
L 1875 4700 
Q 1675 4700 1400 4625 
L 1175 4850 
L 4625 4850 
L 4950 5175 
L 5425 4700 
L 3425 4700 
L 3425 4225 
L 5350 4225 
L 5575 4475 
L 6000 4025 
Q 5850 4025 5662 3950 
Q 5475 3875 5150 3450 
L 5075 3500 
L 5375 4075 
L 3425 4075 
Q 3425 2875 3450 2775 
z
M 1500 3600 
L 2625 3600 
L 2625 3450 
L 1500 3450 
L 1500 3600 
z
M 3725 3600 
L 4875 3600 
L 4875 3450 
L 3725 3450 
L 3725 3600 
z
M 1425 3000 
L 2625 3000 
L 2625 2850 
L 1425 2850 
L 1425 3000 
z
" transform="scale(0.015625)"/>
       <path id="SimSun-6c42" d="M 3950 5025 
Q 4500 4825 4737 4687 
Q 4975 4550 4975 4350 
Q 4975 4300 4912 4125 
Q 4850 3950 4800 3950 
Q 4725 3950 4625 4150 
Q 4425 4475 3900 4950 
L 3950 5025 
z
M 2900 5225 
L 3500 4900 
L 3300 4700 
L 3300 3775 
L 5050 3775 
L 5400 4150 
L 5900 3625 
L 3325 3625 
Q 3650 2575 4000 2000 
Q 4725 2575 5100 3125 
L 5525 2650 
Q 5250 2600 4950 2425 
Q 4650 2225 4050 1875 
Q 4900 650 6100 375 
L 6100 275 
Q 5675 225 5525 -75 
Q 3750 900 3300 3325 
L 3300 175 
Q 3325 -425 2675 -600 
Q 2650 -250 1925 -25 
L 1925 75 
Q 2475 25 2687 25 
Q 2900 25 2925 250 
L 2925 1700 
Q 1950 1075 1387 700 
Q 825 325 700 100 
L 300 600 
Q 575 650 1225 975 
Q 1875 1300 2925 1850 
L 2925 3625 
L 1275 3625 
Q 950 3625 675 3550 
L 450 3775 
L 2925 3775 
Q 2925 4850 2900 5225 
z
M 1050 3175 
Q 1775 2900 1975 2712 
Q 2175 2525 2175 2350 
Q 2175 2250 2075 2075 
Q 1975 1900 1925 1900 
Q 1850 1900 1750 2175 
Q 1575 2575 1000 3100 
L 1050 3175 
z
" transform="scale(0.015625)"/>
      </defs>
      <use xlink:href="#SimSun-529f"/>
      <use xlink:href="#SimSun-7387" transform="translate(100 0)"/>
      <use xlink:href="#SimSun-9700" transform="translate(200 0)"/>
      <use xlink:href="#SimSun-6c42" transform="translate(300 0)"/>
     </g>
    </g>
    <g id="line2d_35">
     <path d="M 512.8625 259.425938 
L 524.8625 259.425938 
L 536.8625 259.425938 
" style="fill: none; stroke: #1f77b4; stroke-width: 1.5; stroke-linecap: square"/>
    </g>
    <g id="text_21">
     <!-- 环境温度 -->
     <g transform="translate(546.4625 263.625938) scale(0.12 -0.12)">
      <use xlink:href="#SimSun-73af"/>
      <use xlink:href="#SimSun-5883" transform="translate(100 0)"/>
      <use xlink:href="#SimSun-6e29" transform="translate(200 0)"/>
      <use xlink:href="#SimSun-5ea6" transform="translate(300 0)"/>
     </g>
    </g>
    <g id="patch_14">
     <path d="M 512.8625 280.735313 
L 536.8625 280.735313 
L 536.8625 272.335313 
L 512.8625 272.335313 
z
" style="fill: #add8e6; opacity: 0.2; stroke: #add8e6; stroke-linejoin: miter"/>
    </g>
    <g id="text_22">
     <!-- 高空飞行 -->
     <g transform="translate(546.4625 280.735313) scale(0.12 -0.12)">
      <defs>
       <path id="SimSun-9ad8" d="M 2625 5200 
L 2650 5275 
Q 3050 5125 3200 5012 
Q 3350 4900 3362 4750 
Q 3375 4600 3287 4512 
Q 3200 4425 3175 4425 
Q 3100 4425 3025 4625 
Q 2925 4900 2625 5200 
z
M 425 4375 
L 5400 4375 
L 5700 4675 
L 6125 4225 
L 1250 4225 
Q 925 4225 650 4150 
L 425 4375 
z
M 4275 -25 
Q 4900 -100 5050 -112 
Q 5200 -125 5200 75 
L 5200 2025 
L 1225 2025 
L 1225 -400 
L 875 -575 
Q 900 175 900 912 
Q 900 1650 875 2400 
L 1225 2175 
L 5175 2175 
L 5425 2425 
L 5775 2075 
L 5550 1925 
L 5550 -25 
Q 5550 -275 5475 -412 
Q 5400 -550 5125 -650 
Q 5025 -300 4275 -125 
L 4275 -25 
z
M 1700 2425 
Q 1725 2825 1725 3200 
Q 1725 3575 1700 3950 
L 2100 3750 
L 4200 3750 
L 4425 3975 
L 4750 3650 
L 4575 3525 
Q 4575 2925 4600 2600 
L 4250 2475 
L 4250 2750 
L 2075 2750 
L 2075 2575 
L 1700 2425 
z
M 2075 3600 
L 2075 2900 
L 4250 2900 
L 4250 3600 
L 2075 3600 
z
M 4225 1325 
Q 4225 725 4250 250 
L 3900 100 
L 3900 450 
L 2400 450 
L 2400 225 
L 2050 50 
Q 2075 475 2075 900 
Q 2075 1325 2050 1750 
L 2400 1575 
L 3850 1575 
L 4075 1800 
L 4400 1475 
L 4225 1325 
z
M 2400 1425 
L 2400 600 
L 3900 600 
L 3900 1425 
L 2400 1425 
z
" transform="scale(0.015625)"/>
       <path id="SimSun-7a7a" d="M 1275 2100 
L 4400 2100 
L 4725 2400 
L 5175 1950 
L 3375 1950 
L 3375 -150 
L 5100 -150 
L 5475 225 
L 5975 -300 
L 1275 -300 
Q 950 -300 675 -375 
L 450 -150 
L 3000 -150 
L 3000 1950 
L 2100 1950 
Q 1775 1950 1500 1875 
L 1275 2100 
z
M 2650 5175 
Q 3200 5025 3350 4875 
Q 3500 4725 3500 4575 
Q 3500 4450 3425 4325 
Q 3350 4200 3300 4200 
Q 3225 4200 3150 4400 
Q 3025 4725 2600 5100 
L 2650 5175 
z
M 5050 3300 
L 5350 4000 
L 1175 4000 
Q 1250 3400 1062 3312 
Q 875 3225 750 3225 
Q 650 3225 575 3250 
Q 500 3275 500 3325 
Q 500 3350 575 3450 
Q 700 3575 837 3787 
Q 975 4000 1050 4425 
L 1175 4425 
L 1175 4150 
L 5300 4150 
L 5525 4450 
L 6050 3925 
Q 5650 3925 5125 3250 
L 5050 3300 
z
M 2825 3425 
L 2600 3350 
Q 1425 2400 600 2100 
L 550 2175 
Q 1175 2550 1637 2962 
Q 2100 3375 2400 3850 
L 2825 3425 
z
M 3675 3675 
Q 4500 3400 4975 3175 
Q 5450 2950 5500 2787 
Q 5550 2625 5550 2575 
Q 5550 2500 5512 2400 
Q 5475 2300 5425 2300 
Q 5325 2300 5200 2450 
Q 4975 2675 4587 2975 
Q 4200 3275 3625 3575 
L 3675 3675 
z
" transform="scale(0.015625)"/>
       <path id="SimSun-98de" d="M 5900 -375 
Q 6025 -525 5450 -475 
Q 4875 -425 4237 -12 
Q 3600 400 3362 1212 
Q 3125 2025 3125 2825 
Q 3125 3625 3125 4525 
L 1275 4525 
Q 950 4525 675 4450 
L 450 4675 
L 3075 4675 
L 3350 4950 
L 3700 4600 
L 3475 4425 
L 3475 3075 
L 3675 3000 
Q 4375 3725 4825 4575 
L 5325 4175 
L 5050 4075 
Q 4350 3400 3800 2950 
Q 4875 2475 5012 2287 
Q 5150 2100 5150 1950 
Q 5150 1875 5112 1750 
Q 5075 1625 5025 1625 
Q 4950 1625 4750 1900 
Q 4450 2300 3475 2950 
Q 3475 1550 3937 837 
Q 4400 125 5325 -25 
L 5500 1300 
L 5600 1300 
Q 5600 575 5687 187 
Q 5775 -200 5900 -375 
z
" transform="scale(0.015625)"/>
       <path id="SimSun-884c" d="M 2825 4550 
L 4950 4550 
L 5300 4875 
L 5725 4400 
L 3650 4400 
Q 3325 4400 3050 4325 
L 2825 4550 
z
M 3050 100 
Q 3725 50 3950 50 
Q 4175 50 4175 350 
L 4175 2900 
L 3225 2900 
Q 2900 2900 2625 2825 
L 2400 3050 
L 5275 3050 
L 5650 3400 
L 6075 2900 
L 4525 2900 
L 4525 225 
Q 4550 -450 3900 -575 
Q 3900 -225 3050 -25 
L 3050 100 
z
M 1825 5175 
L 2275 4825 
Q 2100 4775 1675 4300 
Q 1250 3800 600 3325 
L 550 3400 
Q 975 3800 1337 4312 
Q 1700 4825 1825 5175 
z
M 1875 2325 
L 1875 -400 
L 1500 -625 
Q 1525 -75 1525 2425 
Q 950 1825 400 1450 
L 350 1525 
Q 875 2050 1362 2700 
Q 1850 3350 2100 3950 
L 2525 3575 
L 2300 3450 
Q 1975 2975 1750 2700 
L 2025 2475 
L 1875 2325 
z
" transform="scale(0.015625)"/>
      </defs>
      <use xlink:href="#SimSun-9ad8"/>
      <use xlink:href="#SimSun-7a7a" transform="translate(100 0)"/>
      <use xlink:href="#SimSun-98de" transform="translate(200 0)"/>
      <use xlink:href="#SimSun-884c" transform="translate(300 0)"/>
     </g>
    </g>
    <g id="patch_15">
     <path d="M 512.8625 297.704063 
L 536.8625 297.704063 
L 536.8625 289.304063 
L 512.8625 289.304063 
z
" style="fill: #90ee90; opacity: 0.2; stroke: #90ee90; stroke-linejoin: miter"/>
    </g>
    <g id="text_23">
     <!-- 水面滑行 -->
     <g transform="translate(546.4625 297.704063) scale(0.12 -0.12)">
      <defs>
       <path id="SimSun-6c34" d="M 2950 5200 
L 3600 4925 
L 3350 4725 
Q 3325 4150 3450 3750 
Q 3575 3350 3850 2775 
Q 4825 3575 5175 4150 
L 5600 3700 
Q 5350 3675 4975 3400 
Q 4575 3125 3900 2650 
Q 4875 775 6100 375 
L 6100 275 
Q 5625 250 5525 -25 
Q 4000 1100 3350 3625 
L 3350 125 
Q 3375 -500 2750 -650 
Q 2775 -300 1975 -100 
L 1975 0 
Q 2550 -50 2762 -50 
Q 2975 -50 2975 250 
L 2975 4275 
Q 2975 4750 2950 5200 
z
M 375 -150 
L 325 -75 
Q 1575 1175 2050 3125 
L 1275 3125 
Q 950 3125 675 3050 
L 450 3275 
L 2025 3275 
L 2250 3575 
L 2700 3175 
L 2450 3050 
Q 1825 825 375 -150 
z
" transform="scale(0.015625)"/>
       <path id="SimSun-9762" d="M 2650 1175 
L 2650 75 
L 3700 75 
L 3700 1175 
L 2650 1175 
z
M 2475 3575 
Q 2675 4150 2750 4650 
L 1150 4650 
Q 775 4650 500 4575 
L 275 4800 
L 5275 4800 
L 5675 5175 
L 6125 4650 
L 3000 4650 
L 3375 4450 
L 3125 4375 
Q 2825 3950 2625 3575 
L 5075 3575 
L 5250 3825 
L 5650 3525 
L 5475 3350 
Q 5475 1100 5500 -400 
L 5125 -575 
L 5125 -75 
L 1250 -75 
L 1250 -425 
L 875 -600 
Q 900 275 900 1637 
Q 900 3000 875 3775 
L 1250 3575 
L 2475 3575 
z
M 1250 3425 
L 1250 75 
L 2325 75 
L 2325 3425 
L 1250 3425 
z
M 4025 3425 
L 4025 75 
L 5125 75 
L 5125 3425 
L 4025 3425 
z
M 2650 3425 
L 2650 2475 
L 3700 2475 
L 3700 3425 
L 2650 3425 
z
M 2650 2325 
L 2650 1325 
L 3700 1325 
L 3700 2325 
L 2650 2325 
z
" transform="scale(0.015625)"/>
       <path id="SimSun-6ed1" d="M 2675 3225 
Q 2675 4575 2650 5025 
L 3025 4800 
L 4700 4800 
L 4925 5025 
L 5275 4675 
L 5050 4525 
L 5050 3225 
L 5450 3225 
L 5675 3475 
L 6075 3075 
Q 5850 3025 5687 2887 
Q 5525 2750 5350 2525 
L 5275 2550 
L 5500 3075 
L 2275 3075 
Q 2275 2825 2225 2662 
Q 2175 2500 2012 2462 
Q 1850 2425 1775 2537 
Q 1700 2650 1900 2825 
Q 2075 2975 2200 3500 
L 2275 3500 
L 2275 3225 
L 2675 3225 
z
M 3000 2375 
L 3000 1750 
L 4725 1750 
L 4725 2375 
L 3000 2375 
z
M 3000 1600 
L 3000 950 
L 4725 950 
L 4725 1600 
L 3000 1600 
z
M 2650 -575 
Q 2675 150 2675 1025 
Q 2675 1900 2650 2725 
L 3000 2525 
L 4700 2525 
L 4925 2750 
L 5275 2400 
L 5050 2250 
L 5050 50 
Q 5050 -225 4937 -362 
Q 4825 -500 4575 -600 
Q 4425 -275 3850 -125 
L 3850 -25 
Q 4500 -100 4612 -75 
Q 4725 -50 4725 125 
L 4725 800 
L 3000 800 
L 3000 -400 
L 2650 -575 
z
M 3000 4650 
L 3000 4075 
L 3750 4075 
L 3975 4300 
L 4275 4000 
L 4075 3875 
L 4075 3225 
L 4725 3225 
L 4725 4650 
L 3000 4650 
z
M 3000 3925 
L 3000 3225 
L 3775 3225 
L 3775 3925 
L 3000 3925 
z
M 1925 3975 
Q 1375 1475 1300 1175 
Q 1200 850 1225 400 
Q 1225 -50 1225 -187 
Q 1225 -325 1100 -325 
Q 1000 -325 862 -275 
Q 725 -225 725 -50 
Q 725 75 800 325 
Q 875 575 875 725 
Q 875 900 762 1000 
Q 650 1100 275 1200 
L 275 1300 
Q 725 1250 837 1262 
Q 950 1275 1087 1487 
Q 1225 1700 1825 4000 
L 1925 3975 
z
M 300 3775 
Q 1075 3375 1087 3100 
Q 1100 2825 962 2725 
Q 825 2625 725 2975 
Q 600 3325 250 3700 
L 300 3775 
z
M 875 5100 
Q 1575 4750 1637 4575 
Q 1700 4400 1700 4325 
Q 1700 4200 1612 4100 
Q 1525 4000 1475 4000 
Q 1400 4000 1325 4250 
Q 1200 4575 825 5025 
L 875 5100 
z
" transform="scale(0.015625)"/>
      </defs>
      <use xlink:href="#SimSun-6c34"/>
      <use xlink:href="#SimSun-9762" transform="translate(100 0)"/>
      <use xlink:href="#SimSun-6ed1" transform="translate(200 0)"/>
      <use xlink:href="#SimSun-884c" transform="translate(300 0)"/>
     </g>
    </g>
    <g id="patch_16">
     <path d="M 512.8625 314.813438 
L 536.8625 314.813438 
L 536.8625 306.413438 
L 512.8625 306.413438 
z
" style="fill: #fa8072; opacity: 0.2; stroke: #fa8072; stroke-linejoin: miter"/>
    </g>
    <g id="text_24">
     <!-- 水下潜航 -->
     <g transform="translate(546.4625 314.813438) scale(0.12 -0.12)">
      <defs>
       <path id="SimSun-4e0b" d="M 450 4575 
L 5075 4575 
L 5450 4950 
L 5975 4425 
L 3250 4425 
L 3250 3125 
Q 4750 2675 4987 2412 
Q 5225 2150 5225 1950 
Q 5225 1875 5162 1737 
Q 5100 1600 5050 1600 
Q 4950 1600 4700 1925 
Q 4350 2400 3250 3000 
L 3250 450 
Q 3250 -75 3275 -425 
L 2850 -600 
Q 2875 325 2875 675 
L 2875 4425 
L 1275 4425 
Q 950 4425 675 4350 
L 450 4575 
z
" transform="scale(0.015625)"/>
       <path id="SimSun-6f5c" d="M 2775 1600 
L 2775 800 
L 4725 800 
L 4725 1600 
L 2775 1600 
z
M 2775 650 
L 2775 -150 
L 4725 -150 
L 4725 650 
L 2775 650 
z
M 2400 1950 
L 2800 1750 
L 4675 1750 
L 4875 2000 
L 5300 1675 
L 5075 1500 
Q 5075 -300 5100 -525 
L 4725 -625 
L 4725 -300 
L 2775 -300 
L 2775 -525 
L 2400 -625 
Q 2425 -225 2425 612 
Q 2425 1450 2400 1950 
z
M 1950 4250 
L 2700 4250 
Q 2700 5000 2675 5250 
L 3250 4950 
L 3025 4800 
L 3025 4250 
L 3200 4250 
L 3450 4500 
L 3825 4100 
L 3025 4100 
Q 3025 3950 2975 3325 
L 3250 3325 
L 3525 3600 
L 3925 3175 
L 2950 3175 
L 2925 3050 
Q 3300 2875 3425 2762 
Q 3550 2650 3550 2525 
Q 3550 2425 3487 2300 
Q 3425 2175 3375 2175 
Q 3300 2175 3250 2375 
Q 3125 2675 2875 2950 
Q 2600 2225 1625 1750 
L 1575 1825 
Q 2400 2375 2625 3175 
Q 2400 3175 2125 3100 
L 1900 3325 
L 2650 3325 
Q 2700 3750 2700 4100 
Q 2450 4100 2175 4025 
L 1950 4250 
z
M 4625 3175 
Q 4375 2225 3300 1800 
L 3250 1875 
Q 4100 2400 4300 3175 
Q 4200 3175 4050 3100 
L 3850 3325 
L 4325 3325 
Q 4375 3750 4375 4100 
Q 4175 4100 3950 4025 
L 3750 4250 
L 4375 4250 
Q 4375 4900 4350 5200 
L 4875 4975 
L 4725 4775 
L 4700 4250 
L 5200 4250 
L 5475 4550 
L 5900 4100 
L 4700 4100 
Q 4675 3775 4650 3325 
L 5325 3325 
L 5625 3675 
L 6075 3175 
L 4750 3175 
Q 5275 2375 6000 2175 
L 6000 2075 
Q 5650 2075 5550 1850 
Q 5075 2225 4625 3175 
z
M 1850 3800 
Q 1300 1450 1250 1125 
Q 1200 800 1200 350 
Q 1200 -100 1200 -237 
Q 1200 -375 1100 -375 
Q 1025 -375 862 -300 
Q 700 -225 700 -50 
Q 700 50 775 300 
Q 850 550 850 700 
Q 850 875 737 962 
Q 625 1050 250 1150 
L 250 1250 
Q 700 1225 787 1237 
Q 875 1250 1000 1475 
Q 1125 1700 1750 3825 
L 1850 3800 
z
M 275 3625 
Q 1050 3250 1062 3000 
Q 1075 2750 987 2650 
Q 900 2550 850 2550 
Q 775 2550 675 2825 
Q 550 3175 225 3550 
L 275 3625 
z
M 850 4975 
Q 1550 4650 1600 4525 
Q 1650 4400 1650 4325 
Q 1650 4200 1562 4050 
Q 1475 3900 1425 3900 
Q 1350 3900 1300 4100 
Q 1175 4425 800 4900 
L 850 4975 
z
" transform="scale(0.015625)"/>
       <path id="SimSun-822a" d="M 1525 75 
Q 2150 -25 2250 12 
Q 2350 50 2350 175 
L 2350 2225 
L 1250 2225 
Q 1225 1225 1050 637 
Q 875 50 300 -625 
L 250 -550 
Q 700 150 825 812 
Q 950 1475 925 2225 
Q 750 2225 475 2150 
L 250 2375 
L 925 2375 
Q 925 2900 925 3437 
Q 925 3975 900 4550 
L 1225 4300 
L 1450 4300 
Q 1600 4800 1650 5275 
L 2175 5025 
L 1975 4925 
Q 1750 4575 1575 4300 
L 2325 4300 
L 2550 4525 
L 2875 4200 
L 2675 4075 
L 2675 125 
Q 2675 -100 2575 -250 
Q 2475 -400 2150 -525 
Q 2050 -200 1525 -25 
L 1525 75 
z
M 1250 4150 
L 1250 2375 
L 2350 2375 
L 2350 4150 
L 1250 4150 
z
M 1525 3750 
Q 1800 3550 1937 3387 
Q 2075 3225 2075 3100 
Q 2075 3025 2037 2925 
Q 2000 2825 1887 2787 
Q 1775 2750 1725 3075 
Q 1675 3375 1475 3700 
L 1525 3750 
z
M 1525 1950 
Q 1875 1650 2012 1475 
Q 2150 1300 2112 1137 
Q 2075 975 1937 925 
Q 1800 875 1775 1175 
Q 1725 1450 1450 1875 
L 1525 1950 
z
M 3875 5075 
Q 4225 4850 4400 4687 
Q 4575 4525 4550 4362 
Q 4525 4200 4450 4150 
Q 4375 4100 4325 4100 
Q 4225 4100 4175 4350 
Q 4100 4650 3825 5025 
L 3875 5075 
z
M 5050 3925 
L 5425 4250 
L 5875 3775 
L 3525 3775 
Q 3325 3775 3050 3700 
L 2825 3925 
L 5050 3925 
z
M 5025 125 
Q 5025 -150 5225 -150 
L 5450 -150 
Q 5600 -150 5637 87 
Q 5675 325 5675 825 
L 5800 825 
Q 5825 425 5875 187 
Q 5925 -50 6150 -100 
Q 6000 -325 5862 -387 
Q 5725 -450 5675 -450 
L 5125 -450 
Q 4700 -450 4700 -50 
L 4700 2850 
L 3800 2850 
Q 3800 2150 3775 1587 
Q 3750 1025 3525 462 
Q 3300 -100 2625 -600 
L 2575 -525 
Q 3075 -25 3250 462 
Q 3425 950 3450 1625 
Q 3475 2300 3450 3225 
L 3825 3000 
L 4675 3000 
L 4900 3225 
L 5225 2900 
L 5025 2750 
L 5025 125 
z
" transform="scale(0.015625)"/>
      </defs>
      <use xlink:href="#SimSun-6c34"/>
      <use xlink:href="#SimSun-4e0b" transform="translate(100 0)"/>
      <use xlink:href="#SimSun-6f5c" transform="translate(200 0)"/>
      <use xlink:href="#SimSun-822a" transform="translate(300 0)"/>
     </g>
    </g>
    <g id="patch_17">
     <path d="M 512.8625 331.782188 
L 536.8625 331.782188 
L 536.8625 323.382188 
L 512.8625 323.382188 
z
" style="fill: #9370db; opacity: 0.2; stroke: #9370db; stroke-linejoin: miter"/>
    </g>
    <g id="text_25">
     <!-- 出水飞行 -->
     <g transform="translate(546.4625 331.782188) scale(0.12 -0.12)">
      <defs>
       <path id="SimSun-51fa" d="M 5175 3975 
L 5175 3000 
Q 5175 2750 5225 2300 
L 4825 2150 
L 4825 2450 
L 3350 2450 
L 3350 25 
L 5075 25 
L 5075 1125 
Q 5075 1475 5050 1900 
L 5625 1575 
L 5425 1425 
L 5425 500 
Q 5425 50 5450 -400 
L 5075 -525 
L 5075 -125 
L 1325 -125 
L 1150 -300 
L 800 -25 
L 975 150 
L 975 1125 
Q 975 1500 950 1950 
L 1525 1650 
L 1325 1475 
L 1325 25 
L 3000 25 
L 3000 2450 
L 1550 2450 
L 1350 2275 
L 1000 2550 
L 1175 2700 
L 1175 3725 
Q 1175 4025 1150 4375 
L 1750 4075 
L 1525 3925 
L 1525 2600 
L 3000 2600 
L 3000 4250 
Q 3000 4700 2975 5125 
L 3550 4850 
L 3350 4625 
L 3350 2600 
L 4825 2600 
L 4825 3725 
Q 4825 4025 4800 4425 
L 5375 4150 
L 5175 3975 
z
" transform="scale(0.015625)"/>
      </defs>
      <use xlink:href="#SimSun-51fa"/>
      <use xlink:href="#SimSun-6c34" transform="translate(100 0)"/>
      <use xlink:href="#SimSun-98de" transform="translate(200 0)"/>
      <use xlink:href="#SimSun-884c" transform="translate(300 0)"/>
     </g>
    </g>
   </g>
  </g>
  <g id="axes_2">
   <g id="patch_18">
    <path d="M 186.7625 295.745063 
L 326.2625 295.745063 
L 326.2625 271.553063 
L 186.7625 271.553063 
z
" clip-path="url(#p249ba38d8f)" style="fill: #808080; opacity: 0.2"/>
   </g>
   <g id="matplotlib.axis_3">
    <g id="ytick_8">
     <g id="line2d_36">
      <defs>
       <path id="m7e7256dcab" d="M 0 0 
L 3.5 0 
" style="stroke: #000000; stroke-width: 0.8"/>
      </defs>
      <g>
       <use xlink:href="#m7e7256dcab" x="605.2625" y="344.129063" style="stroke: #000000; stroke-width: 0.8"/>
      </g>
     </g>
     <g id="text_26">
      <!-- 0 -->
      <g style="fill: #ff7f0e" transform="translate(612.2625 348.418125) scale(0.12 -0.12)">
       <use xlink:href="#SimSun-30"/>
      </g>
     </g>
    </g>
    <g id="ytick_9">
     <g id="line2d_37">
      <g>
       <use xlink:href="#m7e7256dcab" x="605.2625" y="283.649063" style="stroke: #000000; stroke-width: 0.8"/>
      </g>
     </g>
     <g id="text_27">
      <!-- 1000 -->
      <g style="fill: #ff7f0e" transform="translate(612.2625 287.938125) scale(0.12 -0.12)">
       <use xlink:href="#SimSun-31"/>
       <use xlink:href="#SimSun-30" transform="translate(50 0)"/>
       <use xlink:href="#SimSun-30" transform="translate(100 0)"/>
       <use xlink:href="#SimSun-30" transform="translate(150 0)"/>
      </g>
     </g>
    </g>
    <g id="ytick_10">
     <g id="line2d_38">
      <g>
       <use xlink:href="#m7e7256dcab" x="605.2625" y="223.169063" style="stroke: #000000; stroke-width: 0.8"/>
      </g>
     </g>
     <g id="text_28">
      <!-- 2000 -->
      <g style="fill: #ff7f0e" transform="translate(612.2625 227.458125) scale(0.12 -0.12)">
       <use xlink:href="#SimSun-32"/>
       <use xlink:href="#SimSun-30" transform="translate(50 0)"/>
       <use xlink:href="#SimSun-30" transform="translate(100 0)"/>
       <use xlink:href="#SimSun-30" transform="translate(150 0)"/>
      </g>
     </g>
    </g>
    <g id="ytick_11">
     <g id="line2d_39">
      <g>
       <use xlink:href="#m7e7256dcab" x="605.2625" y="162.689063" style="stroke: #000000; stroke-width: 0.8"/>
      </g>
     </g>
     <g id="text_29">
      <!-- 3000 -->
      <g style="fill: #ff7f0e" transform="translate(612.2625 166.978125) scale(0.12 -0.12)">
       <use xlink:href="#SimSun-33"/>
       <use xlink:href="#SimSun-30" transform="translate(50 0)"/>
       <use xlink:href="#SimSun-30" transform="translate(100 0)"/>
       <use xlink:href="#SimSun-30" transform="translate(150 0)"/>
      </g>
     </g>
    </g>
    <g id="ytick_12">
     <g id="line2d_40">
      <g>
       <use xlink:href="#m7e7256dcab" x="605.2625" y="102.209063" style="stroke: #000000; stroke-width: 0.8"/>
      </g>
     </g>
     <g id="text_30">
      <!-- 4000 -->
      <g style="fill: #ff7f0e" transform="translate(612.2625 106.498125) scale(0.12 -0.12)">
       <use xlink:href="#SimSun-34"/>
       <use xlink:href="#SimSun-30" transform="translate(50 0)"/>
       <use xlink:href="#SimSun-30" transform="translate(100 0)"/>
       <use xlink:href="#SimSun-30" transform="translate(150 0)"/>
      </g>
     </g>
    </g>
    <g id="ytick_13">
     <g id="line2d_41">
      <g>
       <use xlink:href="#m7e7256dcab" x="605.2625" y="41.729062" style="stroke: #000000; stroke-width: 0.8"/>
      </g>
     </g>
     <g id="text_31">
      <!-- 5000 -->
      <g style="fill: #ff7f0e" transform="translate(612.2625 46.018125) scale(0.12 -0.12)">
       <use xlink:href="#SimSun-35"/>
       <use xlink:href="#SimSun-30" transform="translate(50 0)"/>
       <use xlink:href="#SimSun-30" transform="translate(100 0)"/>
       <use xlink:href="#SimSun-30" transform="translate(150 0)"/>
      </g>
     </g>
    </g>
    <g id="text_32">
     <!-- 功率需求 (W) -->
     <g style="fill: #ff7f0e" transform="translate(649.778125 213.809062) rotate(-90) scale(0.12 -0.12)">
      <defs>
       <path id="SimSun-57" d="M 3150 4375 
L 3150 4225 
L 3050 4225 
Q 3000 4225 2937 4175 
Q 2875 4125 2850 4000 
L 2175 100 
L 2025 100 
L 1625 2750 
L 1575 2750 
L 1050 100 
L 900 100 
L 300 4025 
Q 300 4125 262 4175 
Q 225 4225 150 4225 
L 50 4225 
L 50 4375 
L 925 4375 
L 925 4225 
L 850 4225 
Q 750 4225 700 4175 
Q 650 4125 650 4025 
L 1050 1275 
L 1100 1275 
L 1525 3350 
L 1450 4025 
Q 1450 4125 1387 4175 
Q 1325 4225 1275 4225 
L 1200 4225 
L 1200 4375 
L 2050 4375 
L 2050 4225 
L 1975 4225 
Q 1875 4225 1837 4175 
Q 1800 4125 1800 4025 
L 2175 1350 
L 2225 1350 
L 2675 3975 
Q 2700 4100 2637 4162 
Q 2575 4225 2475 4225 
L 2400 4225 
L 2400 4375 
L 3150 4375 
z
M 1775 4225 
L 1775 4225 
z
M 1425 4225 
L 1425 4225 
z
M 2900 4225 
L 2900 4225 
z
M 2725 4225 
L 2725 4225 
z
M 625 4225 
L 625 4225 
z
M 275 4225 
L 275 4225 
z
" transform="scale(0.015625)"/>
      </defs>
      <use xlink:href="#SimSun-529f"/>
      <use xlink:href="#SimSun-7387" transform="translate(100 0)"/>
      <use xlink:href="#SimSun-9700" transform="translate(200 0)"/>
      <use xlink:href="#SimSun-6c42" transform="translate(300 0)"/>
      <use xlink:href="#SimSun-20" transform="translate(400 0)"/>
      <use xlink:href="#SimSun-28" transform="translate(450 0)"/>
      <use xlink:href="#SimSun-57" transform="translate(500 0)"/>
      <use xlink:href="#SimSun-29" transform="translate(550 0)"/>
     </g>
    </g>
   </g>
   <g id="line2d_42">
    <path d="M 47.2625 219.228944 
L 47.963505 219.392843 
L 48.66451 230.252738 
L 49.365515 223.91655 
L 50.06652 223.616284 
L 50.767525 224.319999 
L 51.46853 226.82526 
L 52.169535 214.211068 
L 52.87054 222.157366 
L 53.571545 215.645268 
L 54.27255 225.922829 
L 54.973555 228.306459 
L 55.67456 222.529194 
L 56.375565 225.894228 
L 57.07657 211.604581 
L 57.777575 221.981611 
L 58.478581 217.592322 
L 59.179585 224.254004 
L 59.88059 224.746681 
L 60.581596 223.318624 
L 61.2826 221.447959 
L 61.983606 219.058416 
L 62.68461 223.760094 
L 63.385615 226.463296 
L 64.086621 228.33588 
L 64.787625 223.540071 
L 65.488631 220.396839 
L 66.189636 220.953333 
L 66.89064 223.255272 
L 67.591646 226.072774 
L 68.29265 222.458954 
L 68.993656 220.402442 
L 69.694661 223.347202 
L 70.395666 222.625377 
L 71.09667 223.897266 
L 71.797677 218.739508 
L 72.498681 225.289251 
L 73.199685 222.271364 
L 73.900692 221.260665 
L 74.601696 219.658698 
L 75.3027 215.931367 
L 76.003707 219.900942 
L 76.704711 220.269832 
L 77.405716 230.282661 
L 78.10672 220.235044 
L 78.807727 212.071145 
L 79.508731 227.184988 
L 80.209735 228.101911 
L 80.910742 224.207647 
L 81.611746 218.227849 
L 82.31275 220.630113 
L 83.013757 225.477579 
L 83.714761 223.343201 
L 84.415766 218.151452 
L 85.116773 219.91466 
L 85.817777 211.41719 
L 86.518781 218.303154 
L 87.219785 221.458361 
L 87.920792 220.194764 
L 88.621796 224.857586 
L 89.3228 227.899917 
L 90.023807 222.337064 
L 90.724812 220.795533 
L 91.425816 229.920002 
L 92.126823 225.696435 
L 92.827824 224.955674 
L 93.528831 221.883781 
L 94.229838 224.429301 
L 94.930839 221.015503 
L 95.631846 222.694355 
L 96.332853 218.038776 
L 97.033855 231.448377 
L 97.734862 215.151225 
L 98.435868 216.309795 
L 99.13687 222.925607 
L 99.837877 220.022537 
L 100.538884 220.234335 
L 101.239885 226.736364 
L 101.940892 222.372346 
L 102.641899 219.403946 
L 103.342901 221.670041 
L 104.043907 218.082349 
L 104.744914 222.709431 
L 105.445916 222.778357 
L 106.146923 226.884005 
L 106.84793 224.932846 
L 107.548931 225.393364 
L 108.249938 214.917249 
L 109.651946 228.004687 
L 110.352953 221.240487 
L 111.053955 224.098057 
L 111.754962 237.944396 
L 112.455969 220.847345 
L 113.15697 230.681643 
L 113.857977 220.370224 
L 114.558984 227.820042 
L 115.259985 230.225023 
L 115.960992 220.777238 
L 116.661999 230.398571 
L 117.363001 225.330373 
L 118.064008 222.15964 
L 118.765015 220.151028 
L 119.466016 219.464471 
L 120.86803 226.995833 
L 121.569031 213.612145 
L 122.270038 225.809673 
L 122.971045 214.116332 
L 123.672047 225.007102 
L 124.373054 217.184761 
L 125.07406 217.624688 
L 125.775062 227.871242 
L 126.476069 221.117563 
L 127.17707 219.218815 
L 127.878077 219.53192 
L 128.579084 223.948053 
L 129.280086 221.597675 
L 130.682099 228.903625 
L 131.383101 218.006631 
L 132.084108 225.257638 
L 132.785115 215.860816 
L 133.486116 219.773796 
L 134.187123 227.288185 
L 134.88813 224.124679 
L 135.589132 225.170499 
L 136.290138 228.47574 
L 136.991145 222.325414 
L 137.692147 227.54696 
L 138.393148 217.786815 
L 139.094161 221.920134 
L 139.795162 230.686744 
L 140.496164 226.788575 
L 141.197176 227.977894 
L 141.898177 234.541436 
L 142.599179 222.457101 
L 144.001193 222.149636 
L 144.702194 228.507146 
L 145.403206 220.682251 
L 146.104208 226.318644 
L 146.80521 220.121821 
L 147.506222 215.116215 
L 148.908225 228.941322 
L 150.310239 216.817644 
L 151.01124 212.828238 
L 151.712252 222.965445 
L 152.413254 217.232676 
L 153.114255 213.870558 
L 153.815268 211.473403 
L 154.516269 207.671535 
L 155.217271 215.112096 
L 155.918283 210.993594 
L 156.619284 202.488845 
L 157.320286 203.911572 
L 158.021298 202.128903 
L 158.7223 197.406473 
L 159.423301 200.983371 
L 160.124313 197.667233 
L 160.825315 200.593795 
L 161.526317 204.557952 
L 162.227329 203.436562 
L 162.92833 196.081125 
L 163.629332 196.838719 
L 164.330344 198.642326 
L 165.031346 193.714653 
L 165.732347 199.52091 
L 166.433359 194.820953 
L 167.134361 195.789533 
L 167.835362 200.285784 
L 168.536375 208.059502 
L 169.237376 190.802237 
L 169.938378 197.416956 
L 170.639379 213.125809 
L 171.340391 203.76932 
L 172.041393 201.450216 
L 172.742395 206.282252 
L 173.443407 204.360417 
L 174.144408 214.026793 
L 174.84541 210.770943 
L 176.247424 217.522407 
L 176.948425 220.402981 
L 177.649437 221.174138 
L 178.350439 220.533 
L 179.05144 230.601369 
L 179.752453 233.069303 
L 180.453454 233.442409 
L 181.154456 237.9643 
L 181.855468 238.70913 
L 182.556469 240.303839 
L 183.257471 240.732737 
L 183.958483 250.724103 
L 184.659485 264.322749 
L 185.360486 256.730287 
L 186.061498 257.698262 
L 186.7625 263.241898 
L 186.7625 265.897274 
L 187.463502 279.616925 
L 188.164514 267.962771 
L 188.865515 274.431429 
L 189.566517 282.476775 
L 190.267529 281.532447 
L 190.968531 283.490221 
L 191.669532 278.180525 
L 192.370544 280.051115 
L 193.071546 276.89799 
L 193.772547 282.360426 
L 194.47356 293.108856 
L 195.174561 294.262871 
L 195.875563 282.64878 
L 196.576575 281.013295 
L 197.277576 290.017023 
L 197.978578 286.237462 
L 198.67959 296.101841 
L 199.380592 297.91562 
L 200.782605 289.077763 
L 201.483607 289.787664 
L 202.184609 288.236916 
L 202.885621 289.307719 
L 203.586622 283.410738 
L 204.287624 279.520011 
L 204.988625 285.95271 
L 205.689638 275.98498 
L 206.390639 288.540737 
L 207.091641 287.668288 
L 207.792653 282.906735 
L 208.493654 286.159665 
L 209.194656 278.419462 
L 209.895668 286.904946 
L 210.59667 277.114129 
L 211.297671 282.312397 
L 211.998683 270.608786 
L 212.699685 285.071882 
L 213.400687 283.650163 
L 214.101699 281.848491 
L 214.8027 293.031772 
L 215.503702 279.533691 
L 216.204714 280.132142 
L 216.905716 281.981706 
L 217.606717 290.073475 
L 218.307729 290.209157 
L 219.008731 280.04295 
L 219.709732 277.373635 
L 220.410745 275.53891 
L 221.111746 287.786225 
L 221.812748 288.636477 
L 222.51376 284.964813 
L 223.214761 293.208435 
L 224.616775 279.527762 
L 225.317777 275.740202 
L 226.018778 282.298395 
L 226.71979 275.711409 
L 227.420781 281.661093 
L 228.121794 282.723166 
L 228.822806 284.478562 
L 229.523797 282.744587 
L 230.224809 284.882144 
L 230.925821 284.330847 
L 231.626812 286.85156 
L 232.327824 282.395764 
L 233.028836 283.579155 
L 233.729827 290.807862 
L 234.430839 284.813668 
L 235.131852 287.789144 
L 235.832843 293.559074 
L 236.533855 281.30784 
L 237.234867 276.107505 
L 237.935858 272.183363 
L 238.63687 276.089454 
L 239.337882 287.862349 
L 240.038873 277.962754 
L 240.739885 278.230543 
L 241.440898 293.266977 
L 242.141888 279.481804 
L 242.842901 280.614527 
L 243.543913 282.861331 
L 244.244904 282.252618 
L 244.945916 283.366947 
L 245.646928 275.753108 
L 246.347919 285.593079 
L 247.749943 283.613311 
L 248.450934 282.315291 
L 249.151946 292.180371 
L 249.852959 276.933486 
L 250.55395 282.554616 
L 251.254962 280.895414 
L 252.656965 284.551139 
L 253.357977 285.367862 
L 254.058989 283.184023 
L 254.75998 282.913373 
L 255.460992 278.059447 
L 256.162005 281.9747 
L 256.862995 284.294933 
L 257.564008 274.037268 
L 258.26502 289.839436 
L 258.966011 290.133531 
L 259.667023 281.933356 
L 260.368035 284.67661 
L 261.069026 292.235266 
L 261.770038 285.159756 
L 262.47105 287.0875 
L 263.172041 278.176213 
L 263.873054 286.654927 
L 264.574066 278.565767 
L 265.976069 284.647374 
L 266.677081 283.546626 
L 267.378072 281.575039 
L 268.079084 294.816275 
L 268.780096 282.066571 
L 269.481087 285.483396 
L 270.182099 274.950013 
L 270.883112 286.993698 
L 271.584102 278.120879 
L 272.285115 295.817274 
L 272.986127 279.707578 
L 274.38813 284.844225 
L 275.089142 284.233973 
L 275.790133 284.909759 
L 276.491145 281.602407 
L 277.192157 284.29861 
L 277.893148 292.298854 
L 278.594161 284.54809 
L 279.295173 272.836587 
L 279.996164 283.422403 
L 280.697176 282.242113 
L 281.398188 285.768546 
L 282.099179 282.806916 
L 282.800191 282.78809 
L 283.501203 284.912863 
L 284.202194 279.472251 
L 284.903206 288.115284 
L 285.604219 284.278997 
L 286.30521 281.205411 
L 287.006222 284.940937 
L 287.707234 289.570684 
L 288.408225 280.947957 
L 289.109237 288.40115 
L 289.810249 285.813319 
L 290.51124 287.655973 
L 291.212252 284.184811 
L 291.913243 285.726604 
L 292.614255 285.91542 
L 294.016258 274.974664 
L 294.717271 285.160516 
L 295.418283 280.828422 
L 296.119274 285.007031 
L 296.820286 282.746665 
L 297.521298 277.718161 
L 298.222289 282.894672 
L 298.923301 287.06348 
L 300.325304 286.114704 
L 301.026317 283.229966 
L 301.727329 279.068175 
L 302.42832 289.866476 
L 303.129332 288.400988 
L 303.830344 287.961862 
L 304.531335 292.073937 
L 305.232347 277.328031 
L 305.933359 284.063644 
L 306.63435 274.843176 
L 307.335362 291.089007 
L 308.036375 278.095814 
L 308.737365 287.911961 
L 309.438378 286.643934 
L 310.13939 289.606767 
L 310.840381 289.556132 
L 311.541393 291.489986 
L 312.242405 284.146247 
L 312.943396 291.638846 
L 313.644408 286.513498 
L 314.34542 285.424149 
L 315.046411 282.159765 
L 315.747424 284.870999 
L 317.149427 282.697104 
L 317.850439 285.121206 
L 318.551451 283.085713 
L 319.252442 289.341672 
L 319.953454 288.060297 
L 320.654466 274.781123 
L 321.355457 283.617409 
L 322.056469 286.539829 
L 322.757482 275.908449 
L 323.458473 282.76617 
L 324.159485 284.496177 
L 324.860497 287.677291 
L 325.561488 276.129882 
L 326.2625 284.328211 
L 326.2625 280.816728 
L 326.963512 274.185567 
L 327.664503 275.456215 
L 328.365515 275.748715 
L 329.066527 275.289666 
L 329.767518 267.56737 
L 330.468531 261.109004 
L 331.169543 273.271656 
L 331.870534 266.507671 
L 332.571546 258.498397 
L 333.272558 261.107365 
L 333.973549 268.077271 
L 334.674561 265.193862 
L 335.375573 264.29186 
L 336.076564 264.042623 
L 336.777576 260.805563 
L 337.478589 254.627323 
L 338.17958 256.790538 
L 338.880592 247.720192 
L 339.581604 249.331491 
L 340.282595 249.782256 
L 340.983607 241.477249 
L 341.684619 242.101909 
L 342.38561 240.22787 
L 343.086622 234.331498 
L 343.787635 234.440816 
L 344.488625 235.595613 
L 345.189638 228.396633 
L 345.89065 229.317018 
L 346.591641 214.602209 
L 347.292653 221.334382 
L 348.694656 216.381526 
L 349.395668 220.297451 
L 350.09668 212.438957 
L 350.797671 216.842096 
L 351.498683 219.201022 
L 352.199696 216.196853 
L 352.900687 209.269589 
L 353.601699 217.803175 
L 354.302711 207.739324 
L 355.003702 210.841921 
L 355.704714 202.486571 
L 356.405726 208.288443 
L 357.106717 194.407353 
L 357.807729 198.608808 
L 358.508742 207.386824 
L 359.209732 191.723833 
L 359.910745 200.375692 
L 360.611757 201.889272 
L 361.312748 202.459417 
L 362.01376 193.929685 
L 362.714751 188.632162 
L 363.415763 198.008585 
L 364.116775 199.397706 
L 364.817766 199.507591 
L 365.518778 186.235775 
L 366.21979 184.933831 
L 366.920781 194.302133 
L 367.621794 189.668237 
L 368.322806 191.990781 
L 369.023797 192.027739 
L 369.724809 186.876057 
L 370.425821 189.258564 
L 371.126812 189.692526 
L 371.827824 192.636998 
L 372.528836 187.246822 
L 373.229827 192.562949 
L 373.930839 190.993023 
L 374.631852 190.23599 
L 375.332843 197.196845 
L 376.033855 192.940092 
L 376.734867 193.130318 
L 377.435858 191.266704 
L 378.13687 197.284627 
L 378.837882 197.802029 
L 379.538873 184.365576 
L 380.239885 186.785278 
L 380.940898 188.236695 
L 381.641888 183.861285 
L 382.342901 190.80457 
L 383.043913 193.409182 
L 383.744904 190.756611 
L 384.445916 202.288697 
L 385.146928 198.599018 
L 385.847919 189.687964 
L 386.548931 193.254718 
L 387.249943 199.629201 
L 387.950934 190.277097 
L 388.651946 188.627496 
L 389.352959 190.208644 
L 390.754962 197.397879 
L 391.455974 192.77014 
L 392.156965 191.155253 
L 392.857977 194.882407 
L 393.558989 190.157525 
L 394.25998 191.488868 
L 394.960992 191.347221 
L 395.662005 202.763308 
L 396.362995 187.698296 
L 397.064008 184.585761 
L 397.76502 194.876368 
L 398.466011 200.074887 
L 399.167023 189.837672 
L 399.868035 195.182105 
L 400.569026 197.607861 
L 401.270038 187.037268 
L 401.97105 199.622409 
L 402.672041 189.457856 
L 403.373054 198.966106 
L 404.074066 185.854025 
L 404.775057 190.429774 
L 405.476048 194.17444 
L 406.878072 190.112697 
L 407.579063 188.913698 
L 408.280096 188.923872 
L 408.981087 190.283756 
L 409.682078 195.23882 
L 410.383112 189.715974 
L 411.084102 199.273778 
L 411.785093 188.070862 
L 412.486127 188.705104 
L 413.187118 186.183948 
L 413.888109 195.777809 
L 415.290133 188.776334 
L 415.991124 191.391134 
L 416.692157 194.993445 
L 417.393148 191.442075 
L 418.094139 192.599892 
L 418.795173 188.111453 
L 419.496164 195.969821 
L 420.197155 191.28649 
L 420.898188 191.51174 
L 421.599179 189.26481 
L 422.30017 193.281739 
L 423.001203 192.31307 
L 423.702194 193.272349 
L 424.403185 192.764234 
L 425.104219 192.888619 
L 425.80521 194.509988 
L 426.5062 179.249449 
L 427.207234 197.012245 
L 427.908225 198.60649 
L 428.609216 196.778623 
L 429.310249 196.36458 
L 430.01124 192.873721 
L 430.712231 186.005638 
L 431.413264 185.248339 
L 432.114255 192.558165 
L 432.815246 205.916345 
L 433.51628 191.955506 
L 434.217271 200.034045 
L 434.918262 195.908736 
L 435.619295 198.781359 
L 436.320286 190.850786 
L 437.021277 195.61081 
L 437.72231 188.505577 
L 438.423301 189.601969 
L 439.124292 192.762683 
L 439.825326 190.931436 
L 440.526317 186.641579 
L 441.227307 192.686493 
L 441.928341 186.313428 
L 442.629332 190.750985 
L 443.330323 189.327416 
L 444.732347 184.319079 
L 445.433338 188.39919 
L 446.134371 190.854049 
L 446.835362 187.924431 
L 447.536353 199.218126 
L 448.237387 184.190308 
L 448.938378 198.958886 
L 449.639369 188.638999 
L 450.340402 196.241701 
L 451.041393 191.58669 
L 451.742384 195.155556 
L 452.443417 193.687809 
L 453.144408 199.603538 
L 453.845399 206.754826 
L 454.546433 194.896833 
L 455.247424 200.317146 
L 456.649448 201.934529 
L 457.350439 189.273758 
L 458.05143 202.093495 
L 458.752463 198.040376 
L 459.453454 205.517083 
L 460.154445 192.741938 
L 461.556469 212.867086 
L 462.25746 187.112617 
L 462.958494 205.39757 
L 463.659485 193.495339 
L 464.360476 195.913948 
L 465.061509 195.820482 
L 465.7625 199.488913 
L 465.7625 196.779406 
L 466.463491 191.070499 
L 467.164524 197.681748 
L 467.865515 194.14733 
L 468.566506 189.886044 
L 469.26754 192.84131 
L 469.968531 194.001505 
L 470.669521 183.438841 
L 471.370555 187.130734 
L 472.071546 187.505161 
L 472.772537 188.556725 
L 473.47357 187.355024 
L 474.174561 175.634691 
L 474.875552 172.620112 
L 475.576586 184.757839 
L 477.679601 152.45204 
L 478.380592 150.053807 
L 479.081583 152.015553 
L 479.782616 145.89597 
L 480.483607 150.930442 
L 481.184598 140.356483 
L 481.885631 145.721558 
L 483.287613 129.244139 
L 483.988647 115.7791 
L 484.689638 118.109869 
L 486.091662 113.527844 
L 486.792653 114.663823 
L 487.493644 100.986926 
L 488.194677 101.331792 
L 488.895668 94.347519 
L 489.596659 95.812594 
L 490.297693 87.093935 
L 490.998683 91.474394 
L 491.699674 78.162622 
L 492.400708 71.003597 
L 493.101699 69.99856 
L 493.80269 61.48541 
L 494.503723 67.71166 
L 495.204714 64.697435 
L 495.905705 62.81718 
L 496.606738 68.047696 
L 497.307729 52.183686 
L 498.709754 62.415585 
L 499.410745 65.449685 
L 500.111736 58.461528 
L 500.812769 57.614306 
L 501.51376 61.251463 
L 502.214751 61.402604 
L 502.915784 63.838017 
L 503.616775 63.815396 
L 504.317766 58.471982 
L 505.0188 59.54435 
L 505.71979 75.229431 
L 506.420781 69.208777 
L 507.121815 77.873304 
L 507.822806 80.928607 
L 508.523797 74.29456 
L 509.22483 84.101563 
L 509.925821 98.413145 
L 510.626812 83.374976 
L 511.327845 83.834601 
L 512.028836 83.901932 
L 512.729827 99.582967 
L 513.430861 94.725342 
L 514.131852 118.590682 
L 515.533876 112.114966 
L 516.234867 116.832775 
L 516.935858 117.274267 
L 517.636891 123.623383 
L 518.337882 133.256757 
L 519.038873 130.073598 
L 519.739907 138.743014 
L 520.440898 138.310292 
L 521.141888 155.006818 
L 521.842922 154.085266 
L 522.543913 161.947592 
L 523.244904 160.193126 
L 523.945937 169.255764 
L 524.646928 173.37719 
L 525.347919 182.39404 
L 526.048952 178.143962 
L 526.749943 177.730716 
L 527.450934 181.569705 
L 528.151968 204.183319 
L 528.852959 200.390945 
L 529.55395 185.638565 
L 530.254983 198.859159 
L 530.955974 201.11483 
L 531.656965 197.039872 
L 533.058989 209.885138 
L 533.75998 209.737984 
L 534.461014 201.355465 
L 535.162005 218.972007 
L 535.862995 207.719597 
L 536.563986 217.18516 
L 537.26502 218.516237 
L 537.966011 209.593813 
L 538.667002 222.996017 
L 539.368035 217.000309 
L 540.770017 229.921117 
L 542.172041 218.831719 
L 542.873032 225.973151 
L 543.574066 222.900084 
L 544.275057 225.034116 
L 544.976048 226.016414 
L 545.677081 228.473746 
L 546.378072 225.946794 
L 547.079063 236.477084 
L 547.780096 228.79935 
L 548.481087 235.286266 
L 549.182078 225.126453 
L 549.883112 224.540856 
L 550.584102 229.892974 
L 551.285093 221.914509 
L 551.986127 223.599274 
L 552.687118 223.796351 
L 553.388109 226.653765 
L 554.089142 222.298548 
L 554.790133 219.165289 
L 555.491124 227.146235 
L 556.192157 227.598418 
L 556.893148 217.604784 
L 557.594139 234.307652 
L 558.295173 235.511552 
L 558.996164 231.415649 
L 559.697155 221.575748 
L 560.398188 221.572847 
L 561.099179 219.799842 
L 561.80017 221.764601 
L 562.501203 214.661995 
L 563.202194 214.481737 
L 563.903185 216.539208 
L 564.604219 227.812505 
L 565.30521 220.562583 
L 566.0062 226.63677 
L 566.707234 225.008047 
L 567.408225 227.683815 
L 568.109216 222.824854 
L 568.810249 220.374063 
L 569.51124 222.728523 
L 570.212231 228.943057 
L 570.913264 230.552628 
L 571.614255 226.856334 
L 572.315246 226.931587 
L 573.01628 219.37443 
L 573.717271 224.713872 
L 574.418262 224.081903 
L 575.119295 223.928377 
L 575.820286 217.862075 
L 576.521277 215.252886 
L 577.22231 221.102783 
L 577.923301 224.370468 
L 578.624292 216.383195 
L 580.026317 225.206497 
L 580.727307 218.2795 
L 581.428341 222.166403 
L 582.129332 230.107474 
L 582.830323 220.135834 
L 583.531356 221.718392 
L 584.232347 232.15224 
L 584.933338 233.576672 
L 585.634371 222.509585 
L 586.335362 219.862714 
L 587.036353 220.224502 
L 587.737387 229.754029 
L 589.139369 219.943837 
L 589.840402 230.599649 
L 590.541393 222.75643 
L 591.242384 222.136894 
L 591.943417 218.699567 
L 592.644408 235.041976 
L 593.345399 222.467555 
L 594.046433 213.404584 
L 594.747424 226.174709 
L 595.448414 224.699158 
L 596.149448 218.553269 
L 596.850439 226.861451 
L 597.55143 217.571252 
L 598.252463 220.553745 
L 598.953454 230.785061 
L 599.654445 222.682351 
L 600.355479 230.228198 
L 601.056469 218.560253 
L 601.75746 231.300839 
L 602.458494 231.935052 
L 603.159485 228.671798 
L 603.860476 227.054651 
L 604.561509 216.80685 
L 605.2625 223.257398 
L 605.2625 223.257398 
" clip-path="url(#p249ba38d8f)" style="fill: none; stroke-dasharray: 5.55,2.4; stroke-dashoffset: 0; stroke: #ff7f0e; stroke-width: 1.5"/>
   </g>
   <g id="patch_19">
    <path d="M 47.2625 344.129063 
L 47.2625 11.489062 
" style="fill: none; stroke: #000000; stroke-width: 0.8; stroke-linejoin: miter; stroke-linecap: square"/>
   </g>
   <g id="patch_20">
    <path d="M 605.2625 344.129063 
L 605.2625 11.489062 
" style="fill: none; stroke: #000000; stroke-width: 0.8; stroke-linejoin: miter; stroke-linecap: square"/>
   </g>
   <g id="patch_21">
    <path d="M 47.2625 344.129063 
L 605.2625 344.129063 
" style="fill: none; stroke: #000000; stroke-width: 0.8; stroke-linejoin: miter; stroke-linecap: square"/>
   </g>
   <g id="patch_22">
    <path d="M 47.2625 11.489062 
L 605.2625 11.489062 
" style="fill: none; stroke: #000000; stroke-width: 0.8; stroke-linejoin: miter; stroke-linecap: square"/>
   </g>
   <g id="patch_23">
    <path d="M 256.862995 275.788396 
Q 256.862995 283.647692 256.862995 291.506989 
" style="fill: none; stroke: #16344c; stroke-width: 2; stroke-linecap: round"/>
    <path d="M 254.462995 280.588396 
L 256.862995 275.788396 
L 259.262995 280.588396 
" style="fill: none; stroke: #16344c; stroke-width: 2; stroke-linecap: round"/>
    <path d="M 259.262995 286.706989 
L 256.862995 291.506989 
L 254.462995 286.706989 
" style="fill: none; stroke: #16344c; stroke-width: 2; stroke-linecap: round"/>
   </g>
   <g id="text_33">
    <!-- 1000±200W -->
    <g transform="translate(256.862995 268.529063) scale(0.14 -0.14)">
     <use xlink:href="#SimSun-31"/>
     <use xlink:href="#SimSun-30" transform="translate(50 0)"/>
     <use xlink:href="#SimSun-30" transform="translate(100 0)"/>
     <use xlink:href="#SimSun-30" transform="translate(150 0)"/>
     <use xlink:href="#SimSun-b1" transform="translate(200 0)"/>
     <use xlink:href="#SimSun-32" transform="translate(300 0)"/>
     <use xlink:href="#SimSun-30" transform="translate(350 0)"/>
     <use xlink:href="#SimSun-30" transform="translate(400 0)"/>
     <use xlink:href="#SimSun-57" transform="translate(450 0)"/>
    </g>
   </g>
  </g>
 </g>
 <defs>
  <clipPath id="p249ba38d8f">
   <rect x="47.2625" y="11.489062" width="558" height="332.64"/>
  </clipPath>
 </defs>
</svg>
