<?xml version="1.0" encoding="utf-8" standalone="no"?>
<!DOCTYPE svg PUBLIC "-//W3C//DTD SVG 1.1//EN"
  "http://www.w3.org/Graphics/SVG/1.1/DTD/svg11.dtd">
<svg xmlns:xlink="http://www.w3.org/1999/xlink" width="576pt" height="432pt" viewBox="0 0 576 432" xmlns="http://www.w3.org/2000/svg" version="1.1">
 <metadata>
  <rdf:RDF xmlns:dc="http://purl.org/dc/elements/1.1/" xmlns:cc="http://creativecommons.org/ns#" xmlns:rdf="http://www.w3.org/1999/02/22-rdf-syntax-ns#">
   <cc:Work>
    <dc:type rdf:resource="http://purl.org/dc/dcmitype/StillImage"/>
    <dc:date>2025-11-18T14:46:18.045590</dc:date>
    <dc:format>image/svg+xml</dc:format>
    <dc:creator>
     <cc:Agent>
      <dc:title>Matplotlib v3.9.2, https://matplotlib.org/</dc:title>
     </cc:Agent>
    </dc:creator>
   </cc:Work>
  </rdf:RDF>
 </metadata>
 <defs>
  <style type="text/css">*{stroke-linejoin: round; stroke-linecap: butt}</style>
 </defs>
 <g id="figure_1">
  <g id="patch_1">
   <path d="M 0 432 
L 576 432 
L 576 0 
L 0 0 
z
" style="fill: #ffffff"/>
  </g>
  <g id="axes_1">
   <g id="patch_2">
    <path d="M 72 384.48 
L 518.4 384.48 
L 518.4 51.84 
L 72 51.84 
z
" style="fill: #ffffff"/>
   </g>
   <g id="patch_3">
    <path d="M 72 384.48 
L 220.8 384.48 
L 220.8 51.84 
L 72 51.84 
z
" clip-path="url(#p4bfc218279)" style="fill: #add8e6; opacity: 0.2; stroke: #add8e6; stroke-linejoin: miter"/>
   </g>
   <g id="patch_4">
    <path d="M 220.8 384.48 
L 369.6 384.48 
L 369.6 51.84 
L 220.8 51.84 
z
" clip-path="url(#p4bfc218279)" style="fill: #90ee90; opacity: 0.2; stroke: #90ee90; stroke-linejoin: miter"/>
   </g>
   <g id="patch_5">
    <path d="M 369.6 384.48 
L 518.4 384.48 
L 518.4 51.84 
L 369.6 51.84 
z
" clip-path="url(#p4bfc218279)" style="fill: #fa8072; opacity: 0.2; stroke: #fa8072; stroke-linejoin: miter"/>
   </g>
   <g id="patch_6">
    <path d="M 220.8 111.24 
L 369.6 111.24 
L 369.6 63.72 
L 220.8 63.72 
z
" clip-path="url(#p4bfc218279)" style="fill: #808080; opacity: 0.2"/>
   </g>
   <g id="matplotlib.axis_1">
    <g id="xtick_1">
     <g id="line2d_1">
      <path d="M 72 384.48 
L 72 51.84 
" clip-path="url(#p4bfc218279)" style="fill: none; stroke-dasharray: 1.85,0.8; stroke-dashoffset: 0; stroke: #b0b0b0; stroke-opacity: 0.5; stroke-width: 0.5"/>
     </g>
     <g id="line2d_2">
      <defs>
       <path id="md0b77aa4d1" d="M 0 0 
L 0 3.5 
" style="stroke: #000000; stroke-width: 0.8"/>
      </defs>
      <g>
       <use xlink:href="#md0b77aa4d1" x="72" y="384.48" style="stroke: #000000; stroke-width: 0.8"/>
      </g>
     </g>
     <g id="text_1">
      <!-- 0 -->
      <g transform="translate(69 399.8125) scale(0.12 -0.12)">
       <defs>
        <path id="TimesNewRomanPSMT-30" d="M 231 2094 
Q 231 2819 450 3342 
Q 669 3866 1031 4122 
Q 1313 4325 1613 4325 
Q 2100 4325 2488 3828 
Q 2972 3213 2972 2159 
Q 2972 1422 2759 906 
Q 2547 391 2217 158 
Q 1888 -75 1581 -75 
Q 975 -75 572 641 
Q 231 1244 231 2094 
z
M 844 2016 
Q 844 1141 1059 588 
Q 1238 122 1591 122 
Q 1759 122 1940 273 
Q 2122 425 2216 781 
Q 2359 1319 2359 2297 
Q 2359 3022 2209 3506 
Q 2097 3866 1919 4016 
Q 1791 4119 1609 4119 
Q 1397 4119 1231 3928 
Q 1006 3669 925 3112 
Q 844 2556 844 2016 
z
" transform="scale(0.015625)"/>
       </defs>
       <use xlink:href="#TimesNewRomanPSMT-30"/>
      </g>
     </g>
    </g>
    <g id="xtick_2">
     <g id="line2d_3">
      <path d="M 146.4 384.48 
L 146.4 51.84 
" clip-path="url(#p4bfc218279)" style="fill: none; stroke-dasharray: 1.85,0.8; stroke-dashoffset: 0; stroke: #b0b0b0; stroke-opacity: 0.5; stroke-width: 0.5"/>
     </g>
     <g id="line2d_4">
      <g>
       <use xlink:href="#md0b77aa4d1" x="146.4" y="384.48" style="stroke: #000000; stroke-width: 0.8"/>
      </g>
     </g>
     <g id="text_2">
      <!-- 100 -->
      <g transform="translate(137.4 399.8125) scale(0.12 -0.12)">
       <defs>
        <path id="TimesNewRomanPSMT-31" d="M 750 3822 
L 1781 4325 
L 1884 4325 
L 1884 747 
Q 1884 391 1914 303 
Q 1944 216 2037 169 
Q 2131 122 2419 116 
L 2419 0 
L 825 0 
L 825 116 
Q 1125 122 1212 167 
Q 1300 213 1334 289 
Q 1369 366 1369 747 
L 1369 3034 
Q 1369 3497 1338 3628 
Q 1316 3728 1258 3775 
Q 1200 3822 1119 3822 
Q 1003 3822 797 3725 
L 750 3822 
z
" transform="scale(0.015625)"/>
       </defs>
       <use xlink:href="#TimesNewRomanPSMT-31"/>
       <use xlink:href="#TimesNewRomanPSMT-30" x="50"/>
       <use xlink:href="#TimesNewRomanPSMT-30" x="100"/>
      </g>
     </g>
    </g>
    <g id="xtick_3">
     <g id="line2d_5">
      <path d="M 220.8 384.48 
L 220.8 51.84 
" clip-path="url(#p4bfc218279)" style="fill: none; stroke-dasharray: 1.85,0.8; stroke-dashoffset: 0; stroke: #b0b0b0; stroke-opacity: 0.5; stroke-width: 0.5"/>
     </g>
     <g id="line2d_6">
      <g>
       <use xlink:href="#md0b77aa4d1" x="220.8" y="384.48" style="stroke: #000000; stroke-width: 0.8"/>
      </g>
     </g>
     <g id="text_3">
      <!-- 200 -->
      <g transform="translate(211.8 399.8125) scale(0.12 -0.12)">
       <defs>
        <path id="TimesNewRomanPSMT-32" d="M 2934 816 
L 2638 0 
L 138 0 
L 138 116 
Q 1241 1122 1691 1759 
Q 2141 2397 2141 2925 
Q 2141 3328 1894 3587 
Q 1647 3847 1303 3847 
Q 991 3847 742 3664 
Q 494 3481 375 3128 
L 259 3128 
Q 338 3706 661 4015 
Q 984 4325 1469 4325 
Q 1984 4325 2329 3994 
Q 2675 3663 2675 3213 
Q 2675 2891 2525 2569 
Q 2294 2063 1775 1497 
Q 997 647 803 472 
L 1909 472 
Q 2247 472 2383 497 
Q 2519 522 2628 598 
Q 2738 675 2819 816 
L 2934 816 
z
" transform="scale(0.015625)"/>
       </defs>
       <use xlink:href="#TimesNewRomanPSMT-32"/>
       <use xlink:href="#TimesNewRomanPSMT-30" x="50"/>
       <use xlink:href="#TimesNewRomanPSMT-30" x="100"/>
      </g>
     </g>
    </g>
    <g id="xtick_4">
     <g id="line2d_7">
      <path d="M 295.2 384.48 
L 295.2 51.84 
" clip-path="url(#p4bfc218279)" style="fill: none; stroke-dasharray: 1.85,0.8; stroke-dashoffset: 0; stroke: #b0b0b0; stroke-opacity: 0.5; stroke-width: 0.5"/>
     </g>
     <g id="line2d_8">
      <g>
       <use xlink:href="#md0b77aa4d1" x="295.2" y="384.48" style="stroke: #000000; stroke-width: 0.8"/>
      </g>
     </g>
     <g id="text_4">
      <!-- 300 -->
      <g transform="translate(286.2 399.8125) scale(0.12 -0.12)">
       <defs>
        <path id="TimesNewRomanPSMT-33" d="M 325 3431 
Q 506 3859 782 4092 
Q 1059 4325 1472 4325 
Q 1981 4325 2253 3994 
Q 2459 3747 2459 3466 
Q 2459 3003 1878 2509 
Q 2269 2356 2469 2072 
Q 2669 1788 2669 1403 
Q 2669 853 2319 450 
Q 1863 -75 997 -75 
Q 569 -75 414 31 
Q 259 138 259 259 
Q 259 350 332 419 
Q 406 488 509 488 
Q 588 488 669 463 
Q 722 447 909 348 
Q 1097 250 1169 231 
Q 1284 197 1416 197 
Q 1734 197 1970 444 
Q 2206 691 2206 1028 
Q 2206 1275 2097 1509 
Q 2016 1684 1919 1775 
Q 1784 1900 1550 2001 
Q 1316 2103 1072 2103 
L 972 2103 
L 972 2197 
Q 1219 2228 1467 2375 
Q 1716 2522 1828 2728 
Q 1941 2934 1941 3181 
Q 1941 3503 1739 3701 
Q 1538 3900 1238 3900 
Q 753 3900 428 3381 
L 325 3431 
z
" transform="scale(0.015625)"/>
       </defs>
       <use xlink:href="#TimesNewRomanPSMT-33"/>
       <use xlink:href="#TimesNewRomanPSMT-30" x="50"/>
       <use xlink:href="#TimesNewRomanPSMT-30" x="100"/>
      </g>
     </g>
    </g>
    <g id="xtick_5">
     <g id="line2d_9">
      <path d="M 369.6 384.48 
L 369.6 51.84 
" clip-path="url(#p4bfc218279)" style="fill: none; stroke-dasharray: 1.85,0.8; stroke-dashoffset: 0; stroke: #b0b0b0; stroke-opacity: 0.5; stroke-width: 0.5"/>
     </g>
     <g id="line2d_10">
      <g>
       <use xlink:href="#md0b77aa4d1" x="369.6" y="384.48" style="stroke: #000000; stroke-width: 0.8"/>
      </g>
     </g>
     <g id="text_5">
      <!-- 400 -->
      <g transform="translate(360.6 399.8125) scale(0.12 -0.12)">
       <defs>
        <path id="TimesNewRomanPSMT-34" d="M 2978 1563 
L 2978 1119 
L 2409 1119 
L 2409 0 
L 1894 0 
L 1894 1119 
L 100 1119 
L 100 1519 
L 2066 4325 
L 2409 4325 
L 2409 1563 
L 2978 1563 
z
M 1894 1563 
L 1894 3666 
L 406 1563 
L 1894 1563 
z
" transform="scale(0.015625)"/>
       </defs>
       <use xlink:href="#TimesNewRomanPSMT-34"/>
       <use xlink:href="#TimesNewRomanPSMT-30" x="50"/>
       <use xlink:href="#TimesNewRomanPSMT-30" x="100"/>
      </g>
     </g>
    </g>
    <g id="xtick_6">
     <g id="line2d_11">
      <path d="M 444 384.48 
L 444 51.84 
" clip-path="url(#p4bfc218279)" style="fill: none; stroke-dasharray: 1.85,0.8; stroke-dashoffset: 0; stroke: #b0b0b0; stroke-opacity: 0.5; stroke-width: 0.5"/>
     </g>
     <g id="line2d_12">
      <g>
       <use xlink:href="#md0b77aa4d1" x="444" y="384.48" style="stroke: #000000; stroke-width: 0.8"/>
      </g>
     </g>
     <g id="text_6">
      <!-- 500 -->
      <g transform="translate(435 399.8125) scale(0.12 -0.12)">
       <defs>
        <path id="TimesNewRomanPSMT-35" d="M 2778 4238 
L 2534 3706 
L 1259 3706 
L 981 3138 
Q 1809 3016 2294 2522 
Q 2709 2097 2709 1522 
Q 2709 1188 2573 903 
Q 2438 619 2231 419 
Q 2025 219 1772 97 
Q 1413 -75 1034 -75 
Q 653 -75 479 54 
Q 306 184 306 341 
Q 306 428 378 495 
Q 450 563 559 563 
Q 641 563 702 538 
Q 763 513 909 409 
Q 1144 247 1384 247 
Q 1750 247 2026 523 
Q 2303 800 2303 1197 
Q 2303 1581 2056 1914 
Q 1809 2247 1375 2428 
Q 1034 2569 447 2591 
L 1259 4238 
L 2778 4238 
z
" transform="scale(0.015625)"/>
       </defs>
       <use xlink:href="#TimesNewRomanPSMT-35"/>
       <use xlink:href="#TimesNewRomanPSMT-30" x="50"/>
       <use xlink:href="#TimesNewRomanPSMT-30" x="100"/>
      </g>
     </g>
    </g>
    <g id="xtick_7">
     <g id="line2d_13">
      <path d="M 518.4 384.48 
L 518.4 51.84 
" clip-path="url(#p4bfc218279)" style="fill: none; stroke-dasharray: 1.85,0.8; stroke-dashoffset: 0; stroke: #b0b0b0; stroke-opacity: 0.5; stroke-width: 0.5"/>
     </g>
     <g id="line2d_14">
      <g>
       <use xlink:href="#md0b77aa4d1" x="518.4" y="384.48" style="stroke: #000000; stroke-width: 0.8"/>
      </g>
     </g>
     <g id="text_7">
      <!-- 600 -->
      <g transform="translate(509.4 399.8125) scale(0.12 -0.12)">
       <defs>
        <path id="TimesNewRomanPSMT-36" d="M 2869 4325 
L 2869 4209 
Q 2456 4169 2195 4045 
Q 1934 3922 1679 3669 
Q 1425 3416 1258 3105 
Q 1091 2794 978 2366 
Q 1428 2675 1881 2675 
Q 2316 2675 2634 2325 
Q 2953 1975 2953 1425 
Q 2953 894 2631 456 
Q 2244 -75 1606 -75 
Q 1172 -75 869 213 
Q 275 772 275 1663 
Q 275 2231 503 2743 
Q 731 3256 1154 3653 
Q 1578 4050 1965 4187 
Q 2353 4325 2688 4325 
L 2869 4325 
z
M 925 2138 
Q 869 1716 869 1456 
Q 869 1156 980 804 
Q 1091 453 1309 247 
Q 1469 100 1697 100 
Q 1969 100 2183 356 
Q 2397 613 2397 1088 
Q 2397 1622 2184 2012 
Q 1972 2403 1581 2403 
Q 1463 2403 1327 2353 
Q 1191 2303 925 2138 
z
" transform="scale(0.015625)"/>
       </defs>
       <use xlink:href="#TimesNewRomanPSMT-36"/>
       <use xlink:href="#TimesNewRomanPSMT-30" x="50"/>
       <use xlink:href="#TimesNewRomanPSMT-30" x="100"/>
      </g>
     </g>
    </g>
    <g id="text_8">
     <!-- 时间 (s) -->
     <g transform="translate(275.369062 416.316875) scale(0.12 -0.12)">
      <defs>
       <path id="SimHei-65f6" d="M 2525 4575 
Q 2500 3675 2500 2400 
Q 2500 1125 2525 400 
L 2000 400 
L 2000 875 
L 1000 875 
L 1000 50 
L 475 50 
Q 500 1200 500 2350 
Q 500 3525 475 4575 
L 2525 4575 
z
M 4875 3825 
Q 4875 4575 4850 5225 
L 5400 5225 
Q 5375 4575 5375 3825 
Q 5750 3825 6175 3850 
L 6175 3375 
Q 5750 3400 5375 3400 
L 5375 50 
Q 5375 -325 5075 -425 
Q 4775 -525 4300 -575 
Q 4300 -275 4025 0 
Q 4500 -50 4687 -25 
Q 4875 0 4875 300 
L 4875 3400 
Q 3625 3400 2775 3375 
L 2775 3850 
Q 3575 3825 4875 3825 
z
M 2000 1300 
L 2000 2550 
L 1000 2550 
L 1000 1300 
L 2000 1300 
z
M 2000 2975 
L 2000 4150 
L 1000 4150 
L 1000 2975 
L 2000 2975 
z
M 3550 2725 
Q 3875 2200 4175 1600 
Q 3925 1525 3650 1375 
Q 3450 1975 3075 2500 
Q 3300 2600 3550 2725 
z
" transform="scale(0.015625)"/>
       <path id="SimHei-95f4" d="M 4450 3550 
Q 4425 3075 4425 2725 
L 4425 1400 
Q 4425 1075 4450 625 
L 1925 625 
Q 1950 1075 1950 1425 
L 1950 2725 
Q 1950 3075 1925 3550 
L 4450 3550 
z
M 5800 4875 
Q 5775 4400 5775 3925 
L 5775 250 
Q 5800 -325 5462 -450 
Q 5125 -575 4725 -625 
Q 4700 -325 4525 -25 
Q 5000 -50 5137 25 
Q 5275 100 5275 350 
L 5275 4450 
L 3775 4450 
Q 3175 4450 2650 4425 
L 2650 4900 
Q 3175 4875 3775 4875 
L 5800 4875 
z
M 550 -525 
Q 600 -25 600 525 
L 600 3150 
Q 600 3675 550 4025 
L 1125 4025 
Q 1100 3650 1100 3300 
L 1100 500 
Q 1100 0 1125 -525 
L 550 -525 
z
M 3950 1025 
L 3950 1950 
L 2425 1950 
L 2425 1025 
L 3950 1025 
z
M 3950 2350 
L 3950 3150 
L 2425 3150 
L 2425 2350 
L 3950 2350 
z
M 1525 5300 
Q 1750 5000 2225 4350 
Q 1950 4225 1700 4075 
Q 1450 4575 1075 5025 
Q 1350 5225 1525 5300 
z
" transform="scale(0.015625)"/>
       <path id="TimesNewRomanPSMT-20" transform="scale(0.015625)"/>
       <path id="TimesNewRomanPSMT-28" d="M 1988 -1253 
L 1988 -1369 
Q 1516 -1131 1200 -813 
Q 750 -359 506 256 
Q 263 872 263 1534 
Q 263 2503 741 3301 
Q 1219 4100 1988 4444 
L 1988 4313 
Q 1603 4100 1356 3731 
Q 1109 3363 987 2797 
Q 866 2231 866 1616 
Q 866 947 969 400 
Q 1050 -31 1165 -292 
Q 1281 -553 1476 -793 
Q 1672 -1034 1988 -1253 
z
" transform="scale(0.015625)"/>
       <path id="TimesNewRomanPSMT-73" d="M 2050 2947 
L 2050 1972 
L 1947 1972 
Q 1828 2431 1642 2597 
Q 1456 2763 1169 2763 
Q 950 2763 815 2647 
Q 681 2531 681 2391 
Q 681 2216 781 2091 
Q 878 1963 1175 1819 
L 1631 1597 
Q 2266 1288 2266 781 
Q 2266 391 1970 151 
Q 1675 -88 1309 -88 
Q 1047 -88 709 6 
Q 606 38 541 38 
Q 469 38 428 -44 
L 325 -44 
L 325 978 
L 428 978 
Q 516 541 762 319 
Q 1009 97 1316 97 
Q 1531 97 1667 223 
Q 1803 350 1803 528 
Q 1803 744 1651 891 
Q 1500 1038 1047 1263 
Q 594 1488 453 1669 
Q 313 1847 313 2119 
Q 313 2472 555 2709 
Q 797 2947 1181 2947 
Q 1350 2947 1591 2875 
Q 1750 2828 1803 2828 
Q 1853 2828 1881 2850 
Q 1909 2872 1947 2947 
L 2050 2947 
z
" transform="scale(0.015625)"/>
       <path id="TimesNewRomanPSMT-29" d="M 144 4313 
L 144 4444 
Q 619 4209 934 3891 
Q 1381 3434 1625 2820 
Q 1869 2206 1869 1541 
Q 1869 572 1392 -226 
Q 916 -1025 144 -1369 
L 144 -1253 
Q 528 -1038 776 -670 
Q 1025 -303 1145 264 
Q 1266 831 1266 1447 
Q 1266 2113 1163 2663 
Q 1084 3094 967 3353 
Q 850 3613 656 3853 
Q 463 4094 144 4313 
z
" transform="scale(0.015625)"/>
      </defs>
      <use xlink:href="#SimHei-65f6"/>
      <use xlink:href="#SimHei-95f4" x="100"/>
      <use xlink:href="#TimesNewRomanPSMT-20" x="200"/>
      <use xlink:href="#TimesNewRomanPSMT-28" x="225"/>
      <use xlink:href="#TimesNewRomanPSMT-73" x="258.300781"/>
      <use xlink:href="#TimesNewRomanPSMT-29" x="297.216797"/>
     </g>
    </g>
   </g>
   <g id="matplotlib.axis_2">
    <g id="ytick_1">
     <g id="line2d_15">
      <path d="M 72 384.48 
L 518.4 384.48 
" clip-path="url(#p4bfc218279)" style="fill: none; stroke-dasharray: 1.85,0.8; stroke-dashoffset: 0; stroke: #b0b0b0; stroke-opacity: 0.5; stroke-width: 0.5"/>
     </g>
     <g id="line2d_16">
      <defs>
       <path id="m2dc37e6df7" d="M 0 0 
L -3.5 0 
" style="stroke: #000000; stroke-width: 0.8"/>
      </defs>
      <g>
       <use xlink:href="#m2dc37e6df7" x="72" y="384.48" style="stroke: #000000; stroke-width: 0.8"/>
      </g>
     </g>
     <g id="text_9">
      <!-- −100 -->
      <g style="fill: #1f77b4" transform="translate(40.233125 388.64625) scale(0.12 -0.12)">
       <defs>
        <path id="TimesNewRomanPSMT-2212" d="M 3484 2000 
L 116 2000 
L 116 2256 
L 3484 2256 
L 3484 2000 
z
" transform="scale(0.015625)"/>
       </defs>
       <use xlink:href="#TimesNewRomanPSMT-2212"/>
       <use xlink:href="#TimesNewRomanPSMT-31" x="56.396484"/>
       <use xlink:href="#TimesNewRomanPSMT-30" x="106.396484"/>
       <use xlink:href="#TimesNewRomanPSMT-30" x="156.396484"/>
      </g>
     </g>
    </g>
    <g id="ytick_2">
     <g id="line2d_17">
      <path d="M 72 336.96 
L 518.4 336.96 
" clip-path="url(#p4bfc218279)" style="fill: none; stroke-dasharray: 1.85,0.8; stroke-dashoffset: 0; stroke: #b0b0b0; stroke-opacity: 0.5; stroke-width: 0.5"/>
     </g>
     <g id="line2d_18">
      <g>
       <use xlink:href="#m2dc37e6df7" x="72" y="336.96" style="stroke: #000000; stroke-width: 0.8"/>
      </g>
     </g>
     <g id="text_10">
      <!-- −80 -->
      <g style="fill: #1f77b4" transform="translate(46.233125 341.12625) scale(0.12 -0.12)">
       <defs>
        <path id="TimesNewRomanPSMT-38" d="M 1228 2134 
Q 725 2547 579 2797 
Q 434 3047 434 3316 
Q 434 3728 753 4026 
Q 1072 4325 1600 4325 
Q 2113 4325 2425 4047 
Q 2738 3769 2738 3413 
Q 2738 3175 2569 2928 
Q 2400 2681 1866 2347 
Q 2416 1922 2594 1678 
Q 2831 1359 2831 1006 
Q 2831 559 2490 242 
Q 2150 -75 1597 -75 
Q 994 -75 656 303 
Q 388 606 388 966 
Q 388 1247 577 1523 
Q 766 1800 1228 2134 
z
M 1719 2469 
Q 2094 2806 2194 3001 
Q 2294 3197 2294 3444 
Q 2294 3772 2109 3958 
Q 1925 4144 1606 4144 
Q 1288 4144 1088 3959 
Q 888 3775 888 3528 
Q 888 3366 970 3203 
Q 1053 3041 1206 2894 
L 1719 2469 
z
M 1375 2016 
Q 1116 1797 991 1539 
Q 866 1281 866 981 
Q 866 578 1086 336 
Q 1306 94 1647 94 
Q 1984 94 2187 284 
Q 2391 475 2391 747 
Q 2391 972 2272 1150 
Q 2050 1481 1375 2016 
z
" transform="scale(0.015625)"/>
       </defs>
       <use xlink:href="#TimesNewRomanPSMT-2212"/>
       <use xlink:href="#TimesNewRomanPSMT-38" x="56.396484"/>
       <use xlink:href="#TimesNewRomanPSMT-30" x="106.396484"/>
      </g>
     </g>
    </g>
    <g id="ytick_3">
     <g id="line2d_19">
      <path d="M 72 289.44 
L 518.4 289.44 
" clip-path="url(#p4bfc218279)" style="fill: none; stroke-dasharray: 1.85,0.8; stroke-dashoffset: 0; stroke: #b0b0b0; stroke-opacity: 0.5; stroke-width: 0.5"/>
     </g>
     <g id="line2d_20">
      <g>
       <use xlink:href="#m2dc37e6df7" x="72" y="289.44" style="stroke: #000000; stroke-width: 0.8"/>
      </g>
     </g>
     <g id="text_11">
      <!-- −60 -->
      <g style="fill: #1f77b4" transform="translate(46.233125 293.60625) scale(0.12 -0.12)">
       <use xlink:href="#TimesNewRomanPSMT-2212"/>
       <use xlink:href="#TimesNewRomanPSMT-36" x="56.396484"/>
       <use xlink:href="#TimesNewRomanPSMT-30" x="106.396484"/>
      </g>
     </g>
    </g>
    <g id="ytick_4">
     <g id="line2d_21">
      <path d="M 72 241.92 
L 518.4 241.92 
" clip-path="url(#p4bfc218279)" style="fill: none; stroke-dasharray: 1.85,0.8; stroke-dashoffset: 0; stroke: #b0b0b0; stroke-opacity: 0.5; stroke-width: 0.5"/>
     </g>
     <g id="line2d_22">
      <g>
       <use xlink:href="#m2dc37e6df7" x="72" y="241.92" style="stroke: #000000; stroke-width: 0.8"/>
      </g>
     </g>
     <g id="text_12">
      <!-- −40 -->
      <g style="fill: #1f77b4" transform="translate(46.233125 246.08625) scale(0.12 -0.12)">
       <use xlink:href="#TimesNewRomanPSMT-2212"/>
       <use xlink:href="#TimesNewRomanPSMT-34" x="56.396484"/>
       <use xlink:href="#TimesNewRomanPSMT-30" x="106.396484"/>
      </g>
     </g>
    </g>
    <g id="ytick_5">
     <g id="line2d_23">
      <path d="M 72 194.4 
L 518.4 194.4 
" clip-path="url(#p4bfc218279)" style="fill: none; stroke-dasharray: 1.85,0.8; stroke-dashoffset: 0; stroke: #b0b0b0; stroke-opacity: 0.5; stroke-width: 0.5"/>
     </g>
     <g id="line2d_24">
      <g>
       <use xlink:href="#m2dc37e6df7" x="72" y="194.4" style="stroke: #000000; stroke-width: 0.8"/>
      </g>
     </g>
     <g id="text_13">
      <!-- −20 -->
      <g style="fill: #1f77b4" transform="translate(46.233125 198.56625) scale(0.12 -0.12)">
       <use xlink:href="#TimesNewRomanPSMT-2212"/>
       <use xlink:href="#TimesNewRomanPSMT-32" x="56.396484"/>
       <use xlink:href="#TimesNewRomanPSMT-30" x="106.396484"/>
      </g>
     </g>
    </g>
    <g id="ytick_6">
     <g id="line2d_25">
      <path d="M 72 146.88 
L 518.4 146.88 
" clip-path="url(#p4bfc218279)" style="fill: none; stroke-dasharray: 1.85,0.8; stroke-dashoffset: 0; stroke: #b0b0b0; stroke-opacity: 0.5; stroke-width: 0.5"/>
     </g>
     <g id="line2d_26">
      <g>
       <use xlink:href="#m2dc37e6df7" x="72" y="146.88" style="stroke: #000000; stroke-width: 0.8"/>
      </g>
     </g>
     <g id="text_14">
      <!-- 0 -->
      <g style="fill: #1f77b4" transform="translate(59 151.04625) scale(0.12 -0.12)">
       <use xlink:href="#TimesNewRomanPSMT-30"/>
      </g>
     </g>
    </g>
    <g id="ytick_7">
     <g id="line2d_27">
      <path d="M 72 99.36 
L 518.4 99.36 
" clip-path="url(#p4bfc218279)" style="fill: none; stroke-dasharray: 1.85,0.8; stroke-dashoffset: 0; stroke: #b0b0b0; stroke-opacity: 0.5; stroke-width: 0.5"/>
     </g>
     <g id="line2d_28">
      <g>
       <use xlink:href="#m2dc37e6df7" x="72" y="99.36" style="stroke: #000000; stroke-width: 0.8"/>
      </g>
     </g>
     <g id="text_15">
      <!-- 20 -->
      <g style="fill: #1f77b4" transform="translate(53 103.52625) scale(0.12 -0.12)">
       <use xlink:href="#TimesNewRomanPSMT-32"/>
       <use xlink:href="#TimesNewRomanPSMT-30" x="50"/>
      </g>
     </g>
    </g>
    <g id="ytick_8">
     <g id="line2d_29">
      <path d="M 72 51.84 
L 518.4 51.84 
" clip-path="url(#p4bfc218279)" style="fill: none; stroke-dasharray: 1.85,0.8; stroke-dashoffset: 0; stroke: #b0b0b0; stroke-opacity: 0.5; stroke-width: 0.5"/>
     </g>
     <g id="line2d_30">
      <g>
       <use xlink:href="#m2dc37e6df7" x="72" y="51.84" style="stroke: #000000; stroke-width: 0.8"/>
      </g>
     </g>
     <g id="text_16">
      <!-- 40 -->
      <g style="fill: #1f77b4" transform="translate(53 56.00625) scale(0.12 -0.12)">
       <use xlink:href="#TimesNewRomanPSMT-34"/>
       <use xlink:href="#TimesNewRomanPSMT-30" x="50"/>
      </g>
     </g>
    </g>
    <g id="text_17">
     <!-- 环境温度 (℃) -->
     <g style="fill: #1f77b4" transform="translate(33.66625 253.799062) rotate(-90) scale(0.12 -0.12)">
      <defs>
       <path id="SimHei-73af" d="M 5175 4850 
Q 5550 4850 6025 4875 
L 6025 4400 
Q 5600 4425 5175 4425 
L 4700 4425 
Q 4475 3625 4400 3325 
L 4400 275 
Q 4400 -225 4425 -625 
L 3900 -625 
Q 3925 -250 3925 275 
L 3925 2275 
Q 3400 1250 2650 550 
Q 2500 700 2200 875 
Q 2550 1125 2862 1512 
Q 3175 1900 3475 2425 
Q 3775 2950 3912 3400 
Q 4050 3850 4175 4425 
L 3475 4425 
Q 3075 4425 2650 4400 
L 2650 4875 
Q 3075 4850 3475 4850 
L 5175 4850 
z
M 1875 4850 
Q 2125 4850 2450 4875 
L 2450 4425 
Q 2125 4450 1875 4450 
L 1700 4450 
L 1700 3250 
Q 2050 3250 2475 3275 
L 2475 2825 
Q 2025 2850 1700 2850 
L 1700 1425 
Q 1925 1475 2450 1725 
Q 2450 1525 2475 1250 
Q 1725 975 1337 850 
Q 950 725 500 525 
Q 400 775 250 1050 
Q 425 1050 1250 1275 
L 1250 2850 
Q 825 2850 450 2800 
L 450 3275 
Q 825 3250 1250 3250 
L 1250 4450 
L 1025 4450 
Q 700 4450 375 4425 
L 375 4875 
Q 700 4850 1000 4850 
L 1875 4850 
z
M 5000 3125 
Q 5775 2075 6175 1425 
Q 5925 1275 5700 1125 
Q 5325 1800 5112 2125 
Q 4900 2450 4600 2825 
Q 4825 2950 5000 3125 
z
" transform="scale(0.015625)"/>
       <path id="SimHei-5883" d="M 5300 -150 
Q 5475 -150 5525 37 
Q 5575 225 5625 425 
Q 5850 225 6150 175 
Q 5950 -500 5737 -537 
Q 5525 -575 5375 -575 
L 4650 -575 
Q 4075 -575 4100 -25 
L 4100 975 
L 3600 975 
Q 3500 325 3037 -50 
Q 2575 -425 1750 -675 
Q 1675 -425 1475 -175 
Q 2375 -50 2725 262 
Q 3075 575 3150 975 
L 2375 975 
Q 2400 1500 2400 1925 
Q 2400 2375 2375 2825 
L 5500 2825 
Q 5475 2450 5475 1975 
Q 5475 1500 5500 975 
L 4575 975 
L 4575 175 
Q 4550 -175 4825 -150 
L 5300 -150 
z
M 3300 4250 
Q 3425 4050 3600 3725 
Q 3400 3625 3200 3525 
L 4250 3525 
Q 4350 3800 4450 4300 
L 3125 4300 
Q 2575 4300 2225 4275 
L 2225 4700 
Q 2550 4675 3125 4675 
L 3775 4675 
Q 3750 4950 3650 5200 
Q 3850 5225 4200 5300 
Q 4275 4950 4325 4675 
L 4875 4675 
Q 5325 4675 5725 4700 
L 5725 4275 
Q 5325 4300 4900 4300 
L 4500 4300 
Q 4725 4200 5000 4075 
Q 4825 3850 4700 3525 
L 5225 3525 
Q 5625 3525 6000 3550 
L 6000 3100 
Q 5625 3150 5225 3150 
L 2950 3150 
Q 2500 3150 2125 3100 
L 2125 3550 
Q 2500 3525 2925 3525 
L 3150 3525 
Q 3050 3850 2900 4025 
Q 3100 4125 3300 4250 
z
M 2125 1025 
Q 1675 875 1200 687 
Q 725 500 450 325 
Q 325 650 250 875 
Q 475 900 637 950 
Q 800 1000 950 1050 
L 950 3150 
Q 700 3150 350 3100 
L 350 3550 
Q 700 3525 950 3525 
L 950 4425 
Q 950 4675 925 5025 
L 1400 5025 
Q 1375 4650 1375 4425 
L 1375 3525 
Q 1575 3525 1925 3550 
L 1925 3100 
Q 1575 3150 1375 3150 
L 1375 1200 
Q 1750 1325 2050 1450 
Q 2075 1275 2125 1025 
z
M 5050 2075 
L 5050 2475 
L 2875 2475 
L 2875 2075 
L 5050 2075 
z
M 5050 1325 
L 5050 1725 
L 2875 1725 
L 2875 1325 
L 5050 1325 
z
" transform="scale(0.015625)"/>
       <path id="SimHei-6e29" d="M 5625 1925 
Q 5600 1475 5600 0 
Q 5875 0 6125 25 
L 6125 -425 
Q 5725 -400 5325 -400 
L 2275 -400 
Q 1825 -400 1400 -425 
L 1400 25 
Q 1725 0 2000 0 
Q 2000 1425 1975 1925 
L 5625 1925 
z
M 5325 2525 
L 2250 2525 
Q 2275 2950 2275 3675 
Q 2275 4400 2250 4925 
L 5325 4925 
L 5325 2525 
z
M 4875 2950 
L 4875 3500 
L 2725 3500 
L 2725 2950 
L 4875 2950 
z
M 1550 1775 
Q 1375 1300 1162 600 
Q 950 -100 800 -500 
Q 550 -275 275 -175 
Q 525 250 787 950 
Q 1050 1650 1100 2075 
Q 1300 1875 1550 1775 
z
M 4875 3925 
L 4875 4450 
L 2725 4450 
L 2725 3925 
L 4875 3925 
z
M 5150 0 
L 5150 1500 
L 4525 1500 
L 4525 0 
L 5150 0 
z
M 4075 0 
L 4075 1500 
L 3475 1500 
L 3475 0 
L 4075 0 
z
M 3075 0 
L 3075 1500 
L 2475 1500 
L 2475 0 
L 3075 0 
z
M 875 5050 
Q 1475 4600 1825 4325 
Q 1675 4100 1525 3925 
Q 1300 4200 575 4700 
Q 750 4875 875 5050 
z
M 575 3625 
Q 1000 3400 1550 2900 
Q 1350 2750 1225 2550 
Q 975 2825 325 3300 
Q 425 3400 575 3625 
z
" transform="scale(0.015625)"/>
       <path id="SimHei-5ea6" d="M 1750 1675 
Q 2450 1650 2875 1650 
L 5200 1650 
Q 4975 1250 4650 850 
Q 4325 450 4025 200 
Q 4350 50 4950 -50 
Q 5550 -150 6100 -150 
Q 5950 -300 5825 -650 
Q 5100 -550 4550 -412 
Q 4000 -275 3625 -100 
Q 3100 -325 2587 -462 
Q 2075 -600 1525 -675 
Q 1450 -475 1225 -250 
Q 1675 -250 2250 -125 
Q 2825 0 3250 200 
Q 2825 550 2400 1275 
L 1750 1250 
L 1750 1675 
z
M 2975 5075 
Q 3250 5150 3475 5250 
Q 3625 4975 3775 4525 
L 4700 4525 
Q 4975 4525 5700 4550 
L 5700 4100 
Q 5000 4125 4650 4125 
L 1375 4125 
Q 1375 3000 1350 2312 
Q 1325 1625 1212 950 
Q 1100 275 725 -525 
Q 500 -375 250 -300 
Q 650 400 762 1075 
Q 875 1750 887 2800 
Q 900 3850 875 4525 
L 3200 4525 
Q 3100 4850 2975 5075 
z
M 2475 3300 
Q 2475 3700 2450 3925 
L 2975 3925 
Q 2950 3725 2950 3300 
L 4300 3300 
Q 4300 3700 4275 3950 
L 4800 3950 
Q 4775 3650 4775 3300 
Q 5325 3300 5725 3325 
L 5725 2900 
Q 5350 2925 4775 2925 
Q 4775 2250 4800 1950 
L 2450 1950 
Q 2475 2350 2475 2925 
Q 2175 2925 1600 2900 
L 1600 3325 
Q 2175 3300 2475 3300 
z
M 4300 2350 
L 4300 2925 
L 2950 2925 
L 2950 2350 
L 4300 2350 
z
M 2875 1275 
Q 3200 775 3650 425 
Q 4025 700 4425 1275 
L 2900 1275 
L 2875 1275 
z
" transform="scale(0.015625)"/>
       <path id="TimesNewRomanPSMT-2103" d="M 6138 4334 
L 6234 2894 
L 6138 2894 
Q 5944 3541 5584 3825 
Q 5225 4109 4722 4109 
Q 4034 4109 3631 3581 
Q 3228 3053 3228 2047 
Q 3228 1138 3664 658 
Q 4100 178 4813 178 
Q 5225 178 5540 354 
Q 5856 531 6234 1056 
L 6331 994 
Q 6013 428 5588 165 
Q 5163 -97 4578 -97 
Q 3634 -97 3075 529 
Q 2516 1156 2516 2053 
Q 2516 2688 2800 3219 
Q 3084 3750 3582 4042 
Q 4081 4334 4672 4334 
Q 4903 4334 5129 4278 
Q 5356 4222 5578 4109 
Q 5709 4041 5766 4041 
Q 5866 4041 5931 4122 
Q 5997 4203 6028 4334 
L 6138 4334 
z
M 2228 3369 
Q 2228 2972 1947 2690 
Q 1666 2409 1266 2409 
Q 869 2409 587 2690 
Q 306 2972 306 3369 
Q 306 3769 586 4050 
Q 866 4331 1266 4331 
Q 1669 4331 1948 4050 
Q 2228 3769 2228 3369 
z
M 569 3372 
Q 569 3084 772 2879 
Q 975 2675 1266 2675 
Q 1553 2675 1758 2879 
Q 1963 3084 1963 3372 
Q 1963 3663 1759 3866 
Q 1556 4069 1266 4069 
Q 975 4069 772 3866 
Q 569 3663 569 3372 
z
" transform="scale(0.015625)"/>
      </defs>
      <use xlink:href="#SimHei-73af"/>
      <use xlink:href="#SimHei-5883" x="100"/>
      <use xlink:href="#SimHei-6e29" x="200"/>
      <use xlink:href="#SimHei-5ea6" x="300"/>
      <use xlink:href="#TimesNewRomanPSMT-20" x="400"/>
      <use xlink:href="#TimesNewRomanPSMT-28" x="425"/>
      <use xlink:href="#TimesNewRomanPSMT-2103" x="458.300781"/>
      <use xlink:href="#TimesNewRomanPSMT-29" x="560.693359"/>
     </g>
    </g>
   </g>
   <g id="line2d_31">
    <path d="M 72 313.501666 
L 72.747739 329.4406 
L 73.495477 328.844808 
L 74.243216 332.72812 
L 74.990955 318.911374 
L 75.738693 341.485368 
L 76.486432 312.642982 
L 77.234171 330.505883 
L 77.98191 322.805889 
L 78.729648 326.857512 
L 79.477387 314.658095 
L 80.225126 339.764683 
L 80.972864 327.37819 
L 81.720603 327.817539 
L 82.468342 316.998491 
L 83.21608 332.920025 
L 83.963819 326.309068 
L 84.711558 331.337375 
L 85.459296 324.7791 
L 86.207035 320.925693 
L 86.954774 332.925213 
L 87.702513 316.920409 
L 88.450251 318.653461 
L 89.19799 321.49822 
L 89.945729 318.658699 
L 90.693467 329.953612 
L 91.441206 325.955962 
L 92.188945 331.750165 
L 92.936683 326.989506 
L 93.684422 321.299626 
L 94.432161 330.010158 
L 95.179899 327.908059 
L 95.927638 329.978167 
L 96.675377 331.104626 
L 97.423116 329.864642 
L 98.170854 325.170273 
L 98.918593 333.044188 
L 100.41407 313.24893 
L 101.909548 326.447404 
L 102.657286 331.407019 
L 103.405025 330.405744 
L 104.152764 313.016184 
L 104.900503 324.717842 
L 105.648241 329.620505 
L 106.39598 323.719154 
L 107.143719 310.109381 
L 107.891457 324.223507 
L 108.639196 320.680576 
L 109.386935 322.940386 
L 110.134673 327.590837 
L 110.882412 333.22387 
L 111.630151 327.570115 
L 112.377889 326.568998 
L 113.125628 320.89855 
L 113.873367 319.099726 
L 114.621106 318.443104 
L 115.368844 323.044334 
L 116.116583 318.770714 
L 116.864322 330.457349 
L 117.61206 316.149556 
L 119.107538 327.204806 
L 119.855276 321.597843 
L 120.603015 325.618675 
L 121.350754 317.013746 
L 122.098492 314.246746 
L 122.846231 309.501219 
L 123.59397 335.034226 
L 124.341709 335.373643 
L 125.089447 328.675833 
L 126.584925 318.834668 
L 127.332663 322.830154 
L 128.080402 339.49425 
L 128.828141 327.262622 
L 129.575879 319.178197 
L 130.323618 323.439885 
L 131.071357 319.648384 
L 131.819095 326.664755 
L 132.566834 326.511004 
L 133.314573 323.75019 
L 134.062312 322.157152 
L 134.81005 323.66652 
L 135.557789 324.231706 
L 136.305528 329.860481 
L 137.053266 322.388725 
L 137.801005 324.211658 
L 138.548744 317.029039 
L 139.296482 316.534113 
L 140.044221 323.760205 
L 140.79196 327.755031 
L 141.539698 329.63287 
L 142.287437 322.061332 
L 143.035176 324.52872 
L 143.782915 327.530989 
L 144.530653 324.769242 
L 145.278392 329.499366 
L 146.026131 320.104428 
L 146.773869 328.267132 
L 147.521608 316.420878 
L 148.269347 322.404289 
L 149.017085 321.23561 
L 149.764824 333.505643 
L 150.512563 324.769747 
L 151.260302 321.009382 
L 152.00804 333.425577 
L 152.755779 328.887044 
L 153.503518 327.134999 
L 154.251256 337.543323 
L 154.998995 325.901964 
L 155.746734 322.508398 
L 156.494472 335.051076 
L 157.242211 326.798189 
L 157.98995 339.005851 
L 158.737688 330.260218 
L 159.485427 341.806662 
L 160.233166 322.568748 
L 160.980905 327.883427 
L 161.728643 331.167965 
L 162.476382 336.666475 
L 163.224121 322.1604 
L 163.971859 317.262748 
L 164.719598 344.514439 
L 165.467337 322.384056 
L 166.215075 319.452785 
L 166.962814 328.435641 
L 167.710553 339.111397 
L 168.458291 324.051629 
L 169.20603 331.059154 
L 169.953769 333.556848 
L 170.701508 337.418287 
L 171.449246 324.037695 
L 172.196985 321.532983 
L 172.944724 330.759183 
L 173.692462 321.640712 
L 174.440201 332.44911 
L 175.18794 317.419693 
L 175.935678 321.547043 
L 176.683417 321.851363 
L 177.431156 319.786703 
L 178.178894 311.30414 
L 178.926633 310.479702 
L 179.674372 310.279636 
L 180.422111 311.190241 
L 181.169849 309.627529 
L 181.917588 303.676658 
L 182.665327 304.22082 
L 183.413065 298.697427 
L 184.160804 303.279506 
L 184.908543 315.759718 
L 185.656281 288.170644 
L 186.40402 277.000907 
L 187.151759 286.308216 
L 187.899497 286.890115 
L 188.647236 283.735248 
L 189.394975 280.069394 
L 190.142714 275.433562 
L 190.890452 279.778194 
L 191.638191 271.582118 
L 192.38593 271.019069 
L 193.133668 258.062113 
L 193.881407 257.787733 
L 194.629146 247.902691 
L 195.376884 248.365815 
L 196.124623 235.713729 
L 196.872362 236.789006 
L 197.620101 218.212601 
L 198.367839 242.819217 
L 199.115578 229.351573 
L 200.611055 197.516793 
L 201.358794 212.685183 
L 202.106533 205.968727 
L 202.854271 203.260253 
L 203.60201 187.530675 
L 204.349749 194.45771 
L 205.097487 182.972112 
L 206.592965 187.80289 
L 207.340704 172.013956 
L 208.088442 166.228972 
L 208.836181 156.221355 
L 209.58392 161.914709 
L 210.331658 161.287282 
L 211.079397 148.713085 
L 211.827136 146.931764 
L 212.574874 142.66315 
L 213.322613 141.300703 
L 214.070352 128.73145 
L 214.81809 130.70548 
L 215.565829 116.220923 
L 216.313568 118.464179 
L 217.061307 118.408031 
L 217.809045 131.570683 
L 218.556784 112.691283 
L 219.304523 111.160034 
L 220.052261 105.710542 
L 220.8 101.552564 
L 220.8 109.539419 
L 221.547739 98.602016 
L 222.295477 106.385875 
L 223.043216 86.453854 
L 223.790955 108.000487 
L 224.538693 109.281552 
L 225.286432 106.82878 
L 226.034171 99.846421 
L 226.78191 100.015561 
L 227.529648 76.738095 
L 228.277387 91.75193 
L 229.025126 97.838348 
L 229.772864 79.265298 
L 230.520603 90.426086 
L 231.268342 94.19218 
L 232.01608 78.355093 
L 232.763819 79.466242 
L 233.511558 86.40827 
L 234.259296 72.757501 
L 235.007035 81.434209 
L 235.754774 70.471369 
L 236.502513 78.131474 
L 237.250251 70.394155 
L 238.745729 89.983594 
L 239.493467 63.816651 
L 240.241206 85.210546 
L 240.988945 82.836194 
L 241.736683 86.559945 
L 243.232161 80.268038 
L 243.979899 80.831918 
L 244.727638 77.863851 
L 245.475377 70.133601 
L 246.223116 84.121791 
L 246.970854 92.425238 
L 247.718593 92.447732 
L 248.466332 89.157078 
L 249.21407 96.737925 
L 249.961809 79.311712 
L 250.709548 89.121828 
L 251.457286 88.149102 
L 252.205025 86.285414 
L 252.952764 96.538006 
L 253.700503 92.998351 
L 254.448241 82.284019 
L 255.19598 82.870676 
L 255.943719 90.56976 
L 256.691457 74.574507 
L 257.439196 96.787222 
L 258.186935 89.939069 
L 258.934673 89.125426 
L 259.682412 107.38911 
L 260.430151 73.669295 
L 261.925628 94.925833 
L 262.673367 72.859236 
L 263.421106 83.305401 
L 264.168844 84.418338 
L 264.916583 91.806685 
L 265.664322 86.722844 
L 266.41206 98.355049 
L 267.159799 81.813054 
L 267.907538 90.148996 
L 268.655276 86.524504 
L 269.403015 78.911753 
L 270.150754 85.450315 
L 270.898492 85.609132 
L 271.646231 85.509113 
L 272.39397 92.70676 
L 273.141709 81.520958 
L 273.889447 76.478936 
L 274.637186 82.071233 
L 275.384925 81.17237 
L 276.132663 93.733263 
L 276.880402 93.665587 
L 277.628141 97.750564 
L 278.375879 78.6965 
L 279.123618 89.291794 
L 279.871357 77.501912 
L 280.619095 93.053466 
L 281.366834 90.598564 
L 282.114573 86.79981 
L 282.862312 80.911904 
L 283.61005 87.046973 
L 284.357789 85.975103 
L 285.105528 87.362192 
L 285.853266 86.217006 
L 286.601005 95.438198 
L 287.348744 86.903152 
L 288.096482 88.809935 
L 288.844221 87.885045 
L 289.59196 83.970625 
L 290.339698 92.331874 
L 291.087437 88.082373 
L 291.835176 89.599596 
L 292.582915 84.505471 
L 293.330653 81.886155 
L 294.078392 94.290271 
L 295.573869 72.755096 
L 296.321608 97.966407 
L 297.069347 93.397465 
L 297.817085 93.756757 
L 298.564824 89.469409 
L 299.312563 75.912332 
L 300.060302 87.384822 
L 300.80804 92.431776 
L 301.555779 83.047785 
L 302.303518 91.755407 
L 303.051256 79.472318 
L 303.798995 85.304057 
L 304.546734 77.58078 
L 305.294472 92.194062 
L 306.042211 65.876051 
L 306.78995 81.602361 
L 307.537688 82.814153 
L 309.033166 92.652056 
L 309.780905 93.665455 
L 310.528643 88.449246 
L 311.276382 93.162939 
L 312.024121 85.465088 
L 312.771859 93.368422 
L 313.519598 83.052923 
L 314.267337 80.664764 
L 315.015075 92.511231 
L 315.762814 78.978534 
L 316.510553 89.17605 
L 317.258291 79.245108 
L 318.00603 84.35675 
L 318.753769 79.480044 
L 319.501508 94.586757 
L 320.249246 88.241228 
L 320.996985 77.134212 
L 321.744724 91.885367 
L 322.492462 102.00117 
L 323.240201 101.326776 
L 323.98794 105.345909 
L 324.735678 102.54976 
L 326.231156 78.366652 
L 326.978894 90.63221 
L 327.726633 85.173897 
L 328.474372 88.264019 
L 329.222111 87.419063 
L 329.969849 88.678921 
L 330.717588 88.721557 
L 331.465327 84.192822 
L 332.213065 95.862404 
L 332.960804 80.279813 
L 333.708543 80.898738 
L 334.456281 88.802655 
L 335.20402 81.608499 
L 335.951759 92.26929 
L 336.699497 91.006166 
L 337.447236 85.957908 
L 338.194975 88.312914 
L 339.690452 91.500201 
L 340.438191 90.549606 
L 341.18593 79.748691 
L 341.933668 100.162825 
L 342.681407 83.668262 
L 343.429146 87.740308 
L 344.176884 80.74716 
L 344.924623 82.151207 
L 345.672362 105.553475 
L 346.420101 81.460029 
L 347.167839 83.23626 
L 347.915578 85.326146 
L 348.663317 88.772466 
L 349.411055 79.316247 
L 350.158794 88.327465 
L 350.906533 72.310088 
L 351.654271 81.390484 
L 352.40201 70.222532 
L 353.149749 91.131118 
L 353.897487 98.143357 
L 354.645226 80.652896 
L 355.392965 79.840554 
L 356.140704 85.885784 
L 356.888442 97.372615 
L 358.38392 82.667114 
L 359.131658 88.783824 
L 359.879397 88.738016 
L 360.627136 89.642137 
L 361.374874 95.567107 
L 362.122613 93.265311 
L 362.870352 100.225862 
L 363.61809 78.081018 
L 364.365829 94.729957 
L 365.113568 88.626932 
L 365.861307 100.035129 
L 366.609045 87.83604 
L 367.356784 107.626738 
L 368.104523 88.513782 
L 368.852261 96.153354 
L 369.6 81.705002 
L 369.6 106.931906 
L 370.347739 97.963994 
L 371.095477 96.798848 
L 371.843216 91.553528 
L 372.590955 104.296602 
L 373.338693 101.621266 
L 374.086432 118.477029 
L 375.58191 101.955093 
L 376.329648 98.301549 
L 377.077387 109.185342 
L 377.825126 93.53015 
L 378.572864 96.655802 
L 379.320603 110.653047 
L 380.068342 128.443449 
L 380.81608 124.929777 
L 381.563819 118.82172 
L 382.311558 106.338432 
L 383.059296 113.091254 
L 383.807035 131.235695 
L 385.302513 106.795083 
L 386.050251 121.946082 
L 386.79799 125.588199 
L 387.545729 106.552162 
L 388.293467 121.757664 
L 389.041206 126.478955 
L 389.788945 121.475575 
L 390.536683 124.738719 
L 391.284422 128.789531 
L 392.032161 117.964872 
L 392.779899 119.451351 
L 393.527638 122.211492 
L 394.275377 129.713942 
L 395.023116 121.553768 
L 395.770854 130.802942 
L 397.266332 124.428844 
L 398.01407 126.657182 
L 398.761809 120.256686 
L 399.509548 130.353084 
L 400.257286 146.092514 
L 401.005025 142.838419 
L 401.752764 125.385423 
L 402.500503 137.769271 
L 403.248241 133.008748 
L 403.99598 142.145079 
L 404.743719 129.207886 
L 405.491457 139.304456 
L 406.239196 126.338689 
L 406.986935 140.646645 
L 407.734673 128.978114 
L 408.482412 132.211934 
L 409.230151 142.215804 
L 409.977889 129.258399 
L 410.725628 143.523459 
L 411.473367 142.944111 
L 412.221106 131.903883 
L 412.968844 141.455453 
L 413.716583 141.165227 
L 414.464322 139.303934 
L 415.21206 143.889636 
L 415.959799 129.208628 
L 416.707538 132.207492 
L 417.455276 136.91919 
L 418.203015 137.071776 
L 418.950754 132.960476 
L 419.698492 123.453606 
L 420.446231 129.695944 
L 421.19397 139.397291 
L 421.941709 130.103814 
L 422.689447 136.369583 
L 423.437186 136.826703 
L 424.184925 121.998952 
L 424.932663 138.196082 
L 425.680402 138.546287 
L 426.428141 148.98232 
L 427.175879 145.019177 
L 427.923618 131.784396 
L 428.671357 139.953396 
L 429.419095 131.32613 
L 430.166834 142.946801 
L 430.914573 140.469384 
L 431.662312 130.19166 
L 432.41005 124.586759 
L 433.157789 130.776854 
L 433.905528 126.461862 
L 434.653266 122.849653 
L 435.401005 127.586245 
L 436.148744 141.546641 
L 437.644221 130.507965 
L 438.39196 137.957029 
L 439.139698 131.778529 
L 439.887437 146.256226 
L 440.635176 140.90646 
L 441.382915 131.230145 
L 442.130653 150.945953 
L 443.626131 135.126296 
L 444.373869 147.255844 
L 445.121608 134.592842 
L 445.869347 140.699175 
L 446.617085 137.078486 
L 447.364824 136.84603 
L 448.112563 133.650718 
L 448.860302 139.018686 
L 449.60804 134.360715 
L 450.355779 139.285046 
L 451.851256 122.926529 
L 452.598995 133.596712 
L 453.346734 133.789172 
L 454.094472 143.297049 
L 454.842211 130.057686 
L 455.58995 140.403504 
L 456.337688 140.765463 
L 457.085427 131.026572 
L 457.833166 133.709556 
L 458.580905 127.108053 
L 459.328643 124.715173 
L 460.076382 138.84685 
L 460.824121 134.084929 
L 461.571859 122.451761 
L 462.319598 128.110508 
L 463.067337 129.917386 
L 463.815075 125.689363 
L 464.562814 139.30961 
L 465.310553 130.462433 
L 466.058291 124.954842 
L 466.80603 123.446137 
L 467.553769 140.746485 
L 469.049246 132.272006 
L 469.796985 137.059973 
L 470.544724 137.792866 
L 471.292462 130.124439 
L 472.040201 137.519106 
L 472.78794 147.744243 
L 473.535678 132.420752 
L 474.283417 138.025785 
L 475.031156 140.214353 
L 475.778894 146.160582 
L 476.526633 127.773473 
L 477.274372 150.874859 
L 478.022111 147.11285 
L 479.517588 126.240005 
L 480.265327 125.664416 
L 481.013065 143.232716 
L 481.760804 136.266162 
L 482.508543 145.766533 
L 483.256281 127.792116 
L 484.00402 145.524939 
L 485.499497 127.636892 
L 486.247236 136.585367 
L 486.994975 124.520697 
L 487.742714 141.201419 
L 488.490452 132.36841 
L 489.238191 128.917805 
L 489.98593 135.995865 
L 490.733668 125.118352 
L 491.481407 131.092932 
L 492.229146 146.671741 
L 492.976884 106.78308 
L 493.724623 130.376468 
L 494.472362 134.234857 
L 495.220101 144.970738 
L 495.967839 134.417159 
L 496.715578 138.278472 
L 497.463317 130.407047 
L 498.211055 132.350734 
L 498.958794 121.791748 
L 499.706533 133.986032 
L 500.454271 131.339733 
L 501.20201 132.345128 
L 501.949749 136.058435 
L 502.697487 136.307277 
L 503.445226 127.152071 
L 504.192965 129.439967 
L 504.940704 139.48666 
L 505.688442 142.936573 
L 506.436181 135.480499 
L 507.18392 126.721256 
L 507.931658 135.196229 
L 508.679397 122.551411 
L 509.427136 140.524701 
L 510.174874 133.990386 
L 510.922613 152.936214 
L 511.670352 139.245921 
L 512.41809 137.203417 
L 513.165829 131.358036 
L 513.913568 122.806402 
L 514.661307 134.750922 
L 515.409045 124.636475 
L 516.156784 130.283537 
L 516.904523 127.969282 
L 517.652261 138.322752 
L 518.4 125.127782 
L 518.4 125.127782 
" clip-path="url(#p4bfc218279)" style="fill: none; stroke: #1f77b4; stroke-width: 1.5; stroke-linecap: square"/>
   </g>
   <g id="patch_7">
    <path d="M 72 384.48 
L 72 51.84 
" style="fill: none; stroke: #000000; stroke-width: 0.8; stroke-linejoin: miter; stroke-linecap: square"/>
   </g>
   <g id="patch_8">
    <path d="M 518.4 384.48 
L 518.4 51.84 
" style="fill: none; stroke: #000000; stroke-width: 0.8; stroke-linejoin: miter; stroke-linecap: square"/>
   </g>
   <g id="patch_9">
    <path d="M 72 384.48 
L 518.4 384.48 
" style="fill: none; stroke: #000000; stroke-width: 0.8; stroke-linejoin: miter; stroke-linecap: square"/>
   </g>
   <g id="patch_10">
    <path d="M 72 51.84 
L 518.4 51.84 
" style="fill: none; stroke: #000000; stroke-width: 0.8; stroke-linejoin: miter; stroke-linecap: square"/>
   </g>
   <g id="patch_11">
    <path d="M 258.186935 67.954437 
Q 258.186935 87.480343 258.186935 107.006248 
" style="fill: none; stroke: #16344c; stroke-width: 2; stroke-linecap: round"/>
    <path d="M 255.786935 72.754437 
L 258.186935 67.954437 
L 260.586935 72.754437 
" style="fill: none; stroke: #16344c; stroke-width: 2; stroke-linecap: round"/>
    <path d="M 260.586935 102.206248 
L 258.186935 107.006248 
L 255.786935 102.206248 
" style="fill: none; stroke: #16344c; stroke-width: 2; stroke-linecap: round"/>
   </g>
   <g id="text_18">
    <!-- 25 ± 10℃ -->
    <g transform="translate(265.664322 123.12) scale(0.16 -0.16)">
     <defs>
      <path id="TimesNewRomanPSMT-b1" d="M 25 441 
L 25 694 
L 1581 694 
L 1581 2000 
L 25 2000 
L 25 2256 
L 1581 2256 
L 1581 3809 
L 1831 3809 
L 1831 2256 
L 3394 2256 
L 3394 2000 
L 1831 2000 
L 1831 694 
L 3397 694 
L 3397 441 
L 25 441 
z
" transform="scale(0.015625)"/>
     </defs>
     <use xlink:href="#TimesNewRomanPSMT-32"/>
     <use xlink:href="#TimesNewRomanPSMT-35" x="50"/>
     <use xlink:href="#TimesNewRomanPSMT-20" x="100"/>
     <use xlink:href="#TimesNewRomanPSMT-b1" x="125"/>
     <use xlink:href="#TimesNewRomanPSMT-20" x="179.882812"/>
     <use xlink:href="#TimesNewRomanPSMT-31" x="204.882812"/>
     <use xlink:href="#TimesNewRomanPSMT-30" x="254.882812"/>
     <use xlink:href="#TimesNewRomanPSMT-2103" x="304.882812"/>
    </g>
   </g>
   <g id="legend_1">
    <g id="patch_12">
     <path d="M 407.8 377.48 
L 508.6 377.48 
Q 511.4 377.48 511.4 374.68 
L 511.4 276.168125 
Q 511.4 273.368125 508.6 273.368125 
L 407.8 273.368125 
Q 405 273.368125 405 276.168125 
L 405 374.68 
Q 405 377.48 407.8 377.48 
z
" style="fill: #ffffff; opacity: 0.8; stroke: #000000; stroke-linejoin: miter"/>
    </g>
    <g id="line2d_32">
     <path d="M 410.6 283.868125 
L 424.6 283.868125 
L 438.6 283.868125 
" style="fill: none; stroke-dasharray: 5.55,2.4; stroke-dashoffset: 0; stroke: #ff7f0e; stroke-width: 1.5"/>
    </g>
    <g id="text_19">
     <!-- 功率需求 -->
     <g transform="translate(449.8 288.768125) scale(0.14 -0.14)">
      <defs>
       <path id="SimHei-529f" d="M 5675 275 
Q 5575 -200 5225 -312 
Q 4875 -425 4450 -475 
Q 4400 -175 4200 100 
Q 4725 75 4937 137 
Q 5150 200 5175 425 
Q 5300 1775 5375 3275 
L 4250 3275 
Q 4225 2550 4125 1925 
Q 4025 1300 3787 850 
Q 3550 400 3250 50 
Q 2950 -300 2550 -650 
Q 2375 -400 2100 -250 
Q 2650 100 2925 425 
Q 3200 750 3400 1162 
Q 3600 1575 3675 2075 
Q 3750 2575 3775 3275 
L 3400 3275 
Q 3100 3275 2800 3250 
L 2800 3725 
Q 3125 3700 3450 3700 
L 3775 3700 
L 3775 4575 
Q 3775 4875 3750 5175 
Q 4075 5100 4325 5075 
Q 4275 4900 4262 4525 
Q 4250 4150 4250 3700 
L 5900 3700 
Q 5875 3350 5850 3037 
Q 5825 2725 5675 275 
z
M 2900 1000 
Q 2475 900 2200 837 
Q 1925 775 1337 600 
Q 750 425 500 350 
Q 400 700 300 900 
Q 450 900 1375 1100 
L 1375 3900 
L 1175 3900 
Q 875 3900 450 3875 
L 450 4350 
Q 850 4325 1175 4325 
L 2100 4325 
Q 2450 4325 2725 4350 
L 2725 3875 
Q 2425 3900 2125 3900 
L 1875 3900 
L 1875 1200 
L 2375 1325 
Q 2575 1375 2850 1450 
L 2900 1000 
z
" transform="scale(0.015625)"/>
       <path id="SimHei-7387" d="M 3325 5150 
Q 3425 4900 3550 4525 
L 4800 4525 
Q 5250 4525 5800 4550 
L 5800 4125 
Q 5250 4175 4775 4175 
L 2800 4175 
Q 2975 4050 3300 3900 
Q 3075 3750 2875 3537 
Q 2675 3325 2475 3125 
L 3275 3125 
Q 3575 3425 3775 3775 
Q 4000 3600 4275 3425 
Q 3950 3250 3600 2875 
Q 3250 2500 2625 2000 
L 3850 2100 
Q 3725 2250 3600 2425 
Q 3750 2475 4000 2650 
Q 4250 2350 4700 1700 
Q 4475 1625 4225 1450 
Q 4175 1600 4025 1775 
Q 3700 1750 3425 1750 
L 3425 1050 
L 5150 1050 
Q 5675 1050 6100 1075 
L 6100 650 
Q 5700 675 5125 675 
L 3425 675 
L 3425 175 
Q 3425 -300 3450 -625 
L 2900 -625 
Q 2925 -300 2925 175 
L 2925 675 
L 1325 675 
Q 825 675 325 650 
L 325 1075 
Q 825 1050 1350 1050 
L 2925 1050 
L 2925 1700 
Q 2700 1675 2475 1637 
Q 2250 1600 2025 1525 
Q 1950 1775 1850 2000 
Q 2075 2025 2325 2200 
Q 2575 2375 2975 2800 
Q 2300 2725 2025 2625 
Q 1975 2875 1850 3175 
Q 2075 3175 2325 3487 
Q 2575 3800 2750 4175 
L 1700 4175 
Q 1150 4175 650 4125 
L 650 4550 
Q 1150 4525 1550 4525 
L 2975 4525 
Q 2900 4825 2800 5025 
Q 3025 5075 3325 5150 
z
M 1625 2575 
Q 1725 2400 1825 2200 
Q 1575 2050 1325 1862 
Q 1075 1675 800 1425 
Q 625 1675 475 1875 
Q 800 2025 1100 2212 
Q 1400 2400 1625 2575 
z
M 4850 2650 
Q 5125 2475 5337 2337 
Q 5550 2200 5875 1950 
Q 5675 1800 5500 1600 
Q 5300 1775 5062 1975 
Q 4825 2175 4575 2325 
Q 4725 2475 4850 2650 
z
M 5725 3525 
Q 5550 3450 5300 3262 
Q 5050 3075 4800 2825 
Q 4625 3050 4475 3175 
Q 4700 3325 4875 3487 
Q 5050 3650 5300 3925 
Q 5525 3700 5725 3525 
z
M 1050 3850 
Q 1425 3600 1775 3275 
Q 1575 3100 1425 2925 
Q 1075 3300 675 3525 
Q 875 3700 1050 3850 
z
" transform="scale(0.015625)"/>
       <path id="SimHei-9700" d="M 5150 2100 
Q 5500 2100 5975 2125 
L 5975 1700 
Q 5500 1725 5150 1725 
L 3425 1725 
Q 3300 1500 3250 1275 
L 5600 1275 
Q 5575 950 5575 700 
L 5575 -50 
Q 5575 -350 5425 -437 
Q 5275 -525 4775 -625 
Q 4750 -400 4550 -100 
Q 4950 -100 5025 -50 
Q 5100 0 5100 200 
L 5100 900 
L 4125 900 
L 4125 -375 
L 3650 -375 
L 3650 900 
L 2775 900 
L 2775 -375 
L 2300 -375 
L 2300 900 
L 1350 900 
L 1350 -575 
L 875 -575 
Q 900 -225 900 175 
L 900 575 
Q 900 900 875 1275 
L 2800 1275 
Q 2875 1500 2925 1725 
L 1350 1725 
Q 925 1725 525 1700 
L 525 2125 
Q 900 2100 1325 2100 
L 5150 2100 
z
M 4700 5075 
Q 5075 5075 5550 5100 
L 5550 4675 
Q 5075 4700 4700 4700 
L 3475 4700 
L 3475 4275 
L 5975 4275 
L 5975 3100 
L 5500 3100 
L 5500 3900 
L 3475 3900 
L 3475 3200 
Q 3475 2775 3500 2425 
L 2975 2425 
Q 3000 2750 3000 3175 
L 3000 3900 
L 950 3900 
L 950 3100 
L 450 3100 
Q 450 3375 462 3650 
Q 475 3925 450 4275 
L 3000 4275 
L 3000 4700 
L 1775 4700 
Q 1400 4700 1025 4675 
L 1025 5100 
Q 1400 5075 1750 5075 
L 4700 5075 
z
M 2475 2450 
L 1250 2450 
L 1250 2800 
L 2475 2800 
L 2475 2450 
z
M 2500 3150 
L 1325 3150 
L 1325 3500 
L 2500 3500 
L 2500 3150 
z
M 5000 3175 
L 3825 3175 
L 3825 3525 
L 5000 3525 
L 5000 3175 
z
M 5025 2500 
L 3850 2500 
L 3850 2850 
L 5025 2850 
L 5025 2500 
z
" transform="scale(0.015625)"/>
       <path id="SimHei-6c42" d="M 475 4025 
Q 875 4000 1325 4000 
L 2875 4000 
Q 2875 4725 2850 5125 
L 3400 5125 
Q 3375 4725 3375 4000 
L 5150 4000 
Q 5500 4000 5925 4025 
L 5925 3575 
Q 5475 3600 5150 3600 
L 3375 3600 
Q 3400 3200 3612 2750 
Q 3825 2300 4050 2000 
Q 4600 2450 5075 3150 
Q 5250 2950 5575 2750 
Q 5275 2600 4250 1650 
Q 4575 1225 5037 850 
Q 5500 475 6050 325 
Q 5700 125 5550 -150 
Q 5000 150 4437 687 
Q 3875 1225 3375 2375 
L 3375 150 
Q 3400 -225 3137 -350 
Q 2875 -475 2375 -525 
Q 2325 -275 2150 25 
Q 2575 0 2737 37 
Q 2900 75 2875 300 
L 2875 1675 
Q 1875 900 1437 550 
Q 1000 200 725 -50 
Q 500 200 300 400 
Q 650 575 1200 937 
Q 1750 1300 2875 2250 
L 2875 3600 
L 1325 3600 
Q 875 3600 475 3575 
L 475 4025 
z
M 1225 3175 
Q 1775 2725 2250 2325 
L 1825 1950 
Q 1450 2375 825 2825 
L 1225 3175 
z
M 4500 5100 
Q 4900 4825 5300 4425 
Q 5125 4300 4925 4100 
Q 4650 4400 4125 4825 
Q 4275 4950 4500 5100 
z
" transform="scale(0.015625)"/>
      </defs>
      <use xlink:href="#SimHei-529f"/>
      <use xlink:href="#SimHei-7387" x="100"/>
      <use xlink:href="#SimHei-9700" x="200"/>
      <use xlink:href="#SimHei-6c42" x="300"/>
     </g>
    </g>
    <g id="line2d_33">
     <path d="M 410.6 303.938438 
L 424.6 303.938438 
L 438.6 303.938438 
" style="fill: none; stroke: #1f77b4; stroke-width: 1.5; stroke-linecap: square"/>
    </g>
    <g id="text_20">
     <!-- 环境温度 -->
     <g transform="translate(449.8 308.838437) scale(0.14 -0.14)">
      <use xlink:href="#SimHei-73af"/>
      <use xlink:href="#SimHei-5883" x="100"/>
      <use xlink:href="#SimHei-6e29" x="200"/>
      <use xlink:href="#SimHei-5ea6" x="300"/>
     </g>
    </g>
    <g id="patch_13">
     <path d="M 410.6 328.90875 
L 438.6 328.90875 
L 438.6 319.10875 
L 410.6 319.10875 
z
" style="fill: #add8e6; opacity: 0.2; stroke: #add8e6; stroke-linejoin: miter"/>
    </g>
    <g id="text_21">
     <!-- 飞行阶段 -->
     <g transform="translate(449.8 328.90875) scale(0.14 -0.14)">
      <defs>
       <path id="SimHei-98de" d="M 3925 3025 
Q 4500 3575 5000 4425 
Q 5250 4200 5550 3950 
Q 5300 3825 4975 3475 
Q 4650 3125 4350 2800 
Q 4825 2475 5050 2337 
Q 5275 2200 5675 1925 
Q 5450 1725 5275 1425 
Q 5025 1675 4650 1962 
Q 4275 2250 3950 2475 
Q 3975 1950 4100 1500 
Q 4225 1050 4475 687 
Q 4725 325 5000 187 
Q 5275 50 5362 250 
Q 5450 450 5500 875 
Q 5775 675 6050 550 
Q 5875 -75 5700 -312 
Q 5525 -550 5125 -475 
Q 4725 -400 4325 -12 
Q 3925 375 3712 1025 
Q 3500 1675 3462 2500 
Q 3425 3325 3450 4325 
L 1250 4325 
Q 925 4325 500 4300 
L 500 4800 
Q 925 4775 1225 4775 
L 3975 4775 
Q 3925 4275 3925 3850 
L 3925 3025 
z
" transform="scale(0.015625)"/>
       <path id="SimHei-884c" d="M 5300 3100 
Q 5775 3100 6175 3125 
L 6175 2625 
Q 5775 2650 5325 2650 
L 4975 2650 
L 4975 -75 
Q 5000 -375 4787 -487 
Q 4575 -600 3950 -675 
Q 3900 -375 3675 -75 
Q 4100 -125 4275 -112 
Q 4450 -100 4475 150 
L 4475 2650 
L 3475 2650 
Q 3000 2650 2575 2625 
L 2575 3125 
Q 3025 3100 3475 3100 
L 5300 3100 
z
M 2300 3400 
Q 2075 3275 1962 3075 
Q 1850 2875 1650 2575 
L 1650 325 
Q 1650 0 1675 -675 
L 1150 -675 
Q 1175 75 1175 450 
L 1175 2050 
Q 950 1675 575 1300 
Q 400 1550 250 1725 
Q 825 2275 1150 2775 
Q 1475 3275 1725 3725 
Q 1975 3575 2300 3400 
z
M 4875 4800 
Q 5300 4800 5750 4825 
L 5750 4350 
Q 5300 4375 4825 4375 
L 3900 4375 
Q 3350 4375 2950 4350 
L 2950 4825 
Q 3350 4800 3900 4800 
L 4875 4800 
z
M 2075 4925 
Q 1875 4900 1550 4387 
Q 1225 3875 650 3250 
Q 500 3450 325 3625 
Q 725 4025 1050 4487 
Q 1375 4950 1525 5300 
Q 1775 5150 2075 4925 
z
" transform="scale(0.015625)"/>
       <path id="SimHei-9636" d="M 2450 4850 
Q 2350 4575 2175 3962 
Q 2000 3350 1825 2800 
Q 2225 2225 2312 1912 
Q 2400 1600 2375 1250 
Q 2350 900 2137 725 
Q 1925 550 1400 475 
Q 1300 925 1200 1075 
Q 1725 1025 1837 1225 
Q 1950 1425 1875 1775 
Q 1800 2125 1350 2725 
Q 1700 3825 1825 4400 
L 975 4400 
L 975 -500 
L 500 -500 
Q 525 175 525 675 
L 525 3650 
Q 525 4225 500 4850 
L 2450 4850 
z
M 4250 4825 
Q 4600 4100 5187 3637 
Q 5775 3175 6200 3025 
Q 5950 2775 5800 2500 
Q 4975 3075 4600 3512 
Q 4225 3950 4025 4400 
Q 3850 4025 3512 3487 
Q 3175 2950 2625 2350 
Q 2425 2575 2175 2700 
Q 2700 3075 3150 3787 
Q 3600 4500 3850 5275 
Q 4050 5150 4375 5075 
Q 4275 4900 4250 4825 
z
M 3750 2700 
Q 3650 2325 3575 1512 
Q 3500 700 3250 225 
Q 3000 -250 2650 -575 
Q 2425 -400 2175 -300 
Q 2550 -25 2762 337 
Q 2975 700 3087 1200 
Q 3200 1700 3200 2800 
Q 3350 2725 3750 2700 
z
M 5025 2775 
Q 4975 2425 4975 2025 
L 4975 350 
Q 4975 100 5000 -525 
L 4475 -525 
Q 4500 150 4500 375 
L 4500 2025 
Q 4500 2375 4475 2775 
L 5025 2775 
z
" transform="scale(0.015625)"/>
       <path id="SimHei-6bb5" d="M 5500 2475 
Q 5350 1775 5100 1237 
Q 4850 700 4600 400 
Q 4825 225 5250 87 
Q 5675 -50 6125 -125 
Q 5950 -275 5825 -650 
Q 5150 -450 4825 -287 
Q 4500 -125 4225 75 
Q 3825 -175 3450 -337 
Q 3075 -500 2625 -650 
Q 2525 -400 2325 -225 
Q 2675 -150 3100 0 
Q 3525 150 3925 425 
Q 3725 675 3525 1150 
Q 3325 1600 3225 2075 
Q 3050 2075 2900 2075 
L 2900 2500 
Q 3375 2475 3800 2475 
L 5500 2475 
z
M 2650 4625 
Q 2300 4550 1887 4475 
Q 1475 4400 1300 4375 
L 1300 3550 
Q 2050 3550 2525 3600 
L 2525 3125 
Q 2050 3150 1300 3150 
L 1300 2350 
Q 2050 2350 2525 2375 
L 2525 1900 
Q 2050 1925 1300 1925 
L 1300 975 
Q 1950 1075 2625 1250 
Q 2600 1000 2600 775 
Q 1900 675 1300 525 
L 1300 100 
Q 1300 -200 1325 -625 
L 800 -625 
Q 825 -200 825 100 
L 825 425 
Q 575 375 350 300 
Q 300 650 250 825 
Q 500 850 825 900 
L 825 3800 
Q 825 4225 800 4725 
Q 1100 4725 1575 4825 
Q 2050 4925 2375 5125 
Q 2475 4850 2650 4625 
z
M 5100 4975 
Q 5075 4600 5075 4275 
L 5075 3650 
Q 5075 3425 5237 3387 
Q 5400 3350 5975 3400 
Q 5875 3225 5850 2950 
L 5075 2950 
Q 4650 2950 4625 3375 
L 4625 4575 
L 3775 4575 
Q 3775 3925 3675 3525 
Q 3575 3125 3200 2725 
Q 3025 2900 2800 3050 
Q 3275 3400 3300 3937 
Q 3325 4475 3300 4975 
L 5100 4975 
z
M 3675 2100 
Q 3775 1675 3962 1287 
Q 4150 900 4275 775 
Q 4450 950 4625 1312 
Q 4800 1675 4900 2100 
L 3800 2100 
L 3675 2100 
z
" transform="scale(0.015625)"/>
      </defs>
      <use xlink:href="#SimHei-98de"/>
      <use xlink:href="#SimHei-884c" x="100"/>
      <use xlink:href="#SimHei-9636" x="200"/>
      <use xlink:href="#SimHei-6bb5" x="300"/>
     </g>
    </g>
    <g id="patch_14">
     <path d="M 410.6 348.979062 
L 438.6 348.979062 
L 438.6 339.179062 
L 410.6 339.179062 
z
" style="fill: #90ee90; opacity: 0.2; stroke: #90ee90; stroke-linejoin: miter"/>
    </g>
    <g id="text_22">
     <!-- 水面滑行 -->
     <g transform="translate(449.8 348.979062) scale(0.14 -0.14)">
      <defs>
       <path id="SimHei-6c34" d="M 3450 5175 
Q 3450 4800 3437 4500 
Q 3425 4200 3487 3762 
Q 3550 3325 3950 2725 
Q 4975 3575 5175 4050 
Q 5450 3800 5675 3575 
Q 5350 3350 5037 3075 
Q 4725 2800 4175 2325 
Q 4375 1900 4900 1375 
Q 5425 850 6175 625 
Q 5750 425 5675 125 
Q 4725 700 4212 1400 
Q 3700 2100 3425 2800 
L 3425 25 
Q 3450 -325 3162 -475 
Q 2875 -625 2400 -675 
Q 2375 -400 2175 -75 
Q 2575 -150 2750 -100 
Q 2925 -50 2925 225 
L 2925 4175 
Q 2925 4800 2875 5175 
L 3450 5175 
z
M 2550 3575 
Q 2425 2900 2237 2362 
Q 2050 1825 1737 1300 
Q 1425 775 750 100 
Q 575 325 225 450 
Q 925 950 1337 1600 
Q 1750 2250 1950 3125 
L 1275 3125 
Q 900 3125 425 3075 
L 425 3600 
Q 875 3575 1250 3575 
L 2550 3575 
z
" transform="scale(0.015625)"/>
       <path id="SimHei-9762" d="M 5275 4850 
Q 5650 4850 5950 4875 
L 5950 4400 
Q 5600 4425 5275 4425 
L 3275 4425 
Q 3175 4200 2950 3575 
L 5525 3575 
Q 5500 3100 5500 2600 
L 5500 450 
Q 5500 -100 5525 -525 
L 5025 -525 
L 5025 -175 
L 1350 -175 
L 1350 -525 
L 850 -525 
Q 875 -200 875 425 
L 875 2650 
Q 875 3125 850 3575 
L 2475 3575 
Q 2700 4150 2750 4425 
L 1175 4425 
Q 800 4425 425 4400 
L 425 4875 
Q 825 4850 1175 4850 
L 5275 4850 
z
M 2200 225 
L 2200 3175 
L 1350 3175 
L 1350 225 
L 2200 225 
z
M 5025 225 
L 5025 3175 
L 4175 3175 
L 4175 225 
L 5025 225 
z
M 3750 225 
L 3750 1050 
L 2625 1050 
L 2625 225 
L 3750 225 
z
M 3750 2475 
L 3750 3175 
L 2625 3175 
L 2625 2475 
L 3750 2475 
z
M 3750 1425 
L 3750 2100 
L 2625 2100 
L 2625 1425 
L 3750 1425 
z
" transform="scale(0.015625)"/>
       <path id="SimHei-6ed1" d="M 5350 5100 
Q 5325 4725 5325 4400 
L 5325 3325 
L 6125 3325 
Q 6100 3050 6100 2775 
Q 6100 2500 6125 2275 
L 5650 2275 
L 5650 2925 
L 2150 2925 
L 2150 2275 
L 1700 2275 
Q 1725 2550 1725 2800 
Q 1725 3075 1700 3325 
L 2475 3325 
L 2475 4375 
Q 2475 4675 2450 5100 
L 5350 5100 
z
M 5275 2500 
Q 5250 2150 5250 1725 
L 5250 -75 
Q 5250 -375 5025 -475 
Q 4800 -575 4375 -625 
Q 4375 -400 4225 -75 
Q 4775 -175 4775 75 
L 4775 425 
L 3000 425 
L 3000 -625 
L 2525 -625 
Q 2550 -125 2550 225 
L 2550 1750 
Q 2550 2125 2525 2500 
L 5275 2500 
z
M 4300 4225 
L 4300 3325 
L 4900 3325 
L 4900 4700 
L 2925 4700 
L 2925 4225 
L 4300 4225 
z
M 1675 1900 
Q 1525 1675 1375 1262 
Q 1225 850 1062 437 
Q 900 25 775 -300 
Q 500 -100 200 50 
Q 375 250 525 525 
Q 675 800 875 1275 
Q 1075 1750 1175 2125 
Q 1375 2000 1675 1900 
z
M 4775 1625 
L 4775 2125 
L 3000 2125 
L 3000 1625 
L 4775 1625 
z
M 4775 800 
L 4775 1250 
L 3000 1250 
L 3000 800 
L 4775 800 
z
M 950 5125 
Q 1100 5025 1362 4825 
Q 1625 4625 1850 4450 
Q 1700 4275 1550 4000 
Q 1325 4225 1112 4400 
Q 900 4575 650 4725 
Q 825 4950 950 5125 
z
M 1000 3375 
Q 1225 3225 1475 3025 
Q 1325 2875 1175 2625 
Q 950 2800 750 2950 
Q 550 3100 250 3275 
L 550 3675 
L 1000 3375 
z
M 3900 3325 
L 3900 3825 
L 2925 3825 
L 2925 3325 
L 3900 3325 
z
" transform="scale(0.015625)"/>
      </defs>
      <use xlink:href="#SimHei-6c34"/>
      <use xlink:href="#SimHei-9762" x="100"/>
      <use xlink:href="#SimHei-6ed1" x="200"/>
      <use xlink:href="#SimHei-884c" x="300"/>
     </g>
    </g>
    <g id="patch_15">
     <path d="M 410.6 368.885312 
L 438.6 368.885312 
L 438.6 359.085312 
L 410.6 359.085312 
z
" style="fill: #fa8072; opacity: 0.2; stroke: #fa8072; stroke-linejoin: miter"/>
    </g>
    <g id="text_23">
     <!-- 水下潜航 -->
     <g transform="translate(449.8 368.885312) scale(0.14 -0.14)">
      <defs>
       <path id="SimHei-4e0b" d="M 5000 4700 
Q 5475 4700 5975 4725 
L 5975 4200 
Q 5425 4225 5000 4225 
L 3275 4225 
L 3275 375 
Q 3275 50 3300 -450 
L 2725 -450 
Q 2750 0 2750 375 
L 2750 4225 
L 1375 4225 
Q 875 4225 400 4200 
L 400 4725 
Q 875 4700 1375 4700 
L 5000 4700 
z
M 5650 1400 
Q 5400 1225 5200 1000 
Q 4800 1525 3650 2575 
L 4025 2950 
Q 4700 2400 5650 1400 
z
" transform="scale(0.015625)"/>
       <path id="SimHei-6f5c" d="M 5475 1975 
Q 5450 1350 5450 575 
Q 5450 -200 5475 -600 
L 5000 -600 
L 5000 -250 
L 2775 -250 
L 2775 -650 
L 2275 -650 
Q 2300 -200 2300 525 
Q 2300 1275 2275 1975 
L 4025 1975 
Q 3925 2125 3650 2275 
Q 4325 2625 4575 3350 
Q 4200 3350 3850 3325 
L 3850 3725 
Q 4225 3700 4650 3700 
Q 4675 3900 4675 4225 
Q 4350 4225 3975 4200 
L 3975 4600 
Q 4325 4575 4675 4575 
Q 4675 4900 4650 5225 
Q 4900 5200 5150 5200 
Q 5075 4900 5075 4575 
Q 5450 4575 5850 4600 
L 5850 4200 
Q 5500 4225 5075 4225 
Q 5050 3750 5050 3700 
Q 5525 3700 5975 3725 
L 5975 3325 
Q 5650 3350 5150 3350 
Q 5475 2700 6200 2350 
Q 5975 2225 5850 1975 
Q 5200 2375 4900 3025 
Q 4650 2475 4100 1975 
L 5475 1975 
z
M 3350 2275 
Q 3175 2600 2850 2925 
Q 2525 2350 2000 1925 
Q 1875 2050 1575 2200 
Q 2250 2625 2550 3350 
L 1775 3350 
L 1775 3700 
L 2625 3700 
Q 2625 3925 2650 4225 
L 2000 4225 
L 2000 4575 
L 2650 4575 
Q 2650 4900 2625 5225 
Q 2825 5175 3125 5175 
Q 3050 4900 3050 4575 
L 3600 4575 
L 3600 4225 
L 3050 4225 
Q 3050 3925 3025 3700 
L 3625 3700 
L 3625 3350 
L 3000 3350 
Q 3475 2900 3725 2600 
Q 3525 2475 3350 2275 
z
M 5000 125 
L 5000 675 
L 2775 675 
L 2775 125 
L 5000 125 
z
M 5000 1075 
L 5000 1600 
L 2775 1600 
L 2775 1075 
L 5000 1075 
z
M 1625 1450 
Q 1525 1300 1237 625 
Q 950 -50 750 -550 
Q 525 -375 225 -200 
Q 525 175 812 762 
Q 1100 1350 1250 1775 
Q 1425 1600 1625 1450 
z
M 1400 4050 
Q 1050 4375 475 4675 
Q 625 4850 750 5050 
Q 1325 4775 1700 4475 
Q 1525 4300 1400 4050 
z
M 575 3500 
Q 1100 3225 1525 2875 
Q 1350 2675 1250 2450 
Q 950 2775 325 3125 
Q 475 3300 575 3500 
z
" transform="scale(0.015625)"/>
       <path id="SimHei-822a" d="M 2000 5000 
Q 1850 4725 1650 4275 
L 2600 4275 
L 2600 150 
Q 2600 -250 2425 -350 
Q 2250 -450 1750 -525 
Q 1700 -250 1550 25 
Q 1950 0 2062 25 
Q 2175 50 2175 350 
L 2175 1975 
L 1125 1975 
Q 1125 1400 1087 962 
Q 1050 525 950 137 
Q 850 -250 650 -675 
Q 450 -500 200 -450 
Q 525 125 612 662 
Q 700 1200 700 1975 
Q 525 1975 275 1950 
L 275 2375 
Q 550 2350 700 2350 
L 700 3450 
Q 700 3825 675 4275 
L 1200 4275 
Q 1400 4750 1475 5175 
Q 1750 5075 2000 5000 
z
M 5200 2975 
Q 5175 2650 5175 2075 
L 5175 300 
Q 5175 0 5325 0 
L 5450 0 
Q 5575 0 5625 150 
Q 5675 300 5675 625 
Q 5900 475 6175 425 
Q 6075 -50 5975 -225 
Q 5875 -400 5550 -400 
L 5150 -400 
Q 4725 -400 4725 100 
L 4725 2575 
L 3825 2575 
Q 3825 1725 3800 1237 
Q 3775 750 3587 287 
Q 3400 -175 2950 -675 
Q 2800 -450 2550 -350 
Q 3075 125 3212 575 
Q 3350 1025 3362 1362 
Q 3375 1700 3375 2125 
Q 3375 2550 3350 2975 
L 5200 2975 
z
M 2175 2350 
L 2175 3900 
L 1125 3900 
L 1125 2350 
L 2175 2350 
z
M 5925 3675 
Q 5625 3700 5300 3700 
L 3500 3700 
Q 3225 3700 2975 3675 
L 2975 4125 
Q 3250 4100 3475 4100 
L 5325 4100 
Q 5625 4100 5925 4125 
L 5925 3675 
z
M 4125 5225 
Q 4450 4725 4625 4375 
Q 4325 4250 4150 4150 
Q 4000 4525 3700 5000 
Q 3950 5125 4125 5225 
z
M 1550 1675 
Q 1800 1250 2025 825 
Q 1850 725 1650 600 
Q 1425 1125 1225 1450 
Q 1400 1550 1550 1675 
z
M 2000 2800 
Q 1800 2725 1625 2625 
Q 1525 2925 1275 3425 
Q 1425 3500 1625 3625 
L 2000 2800 
z
" transform="scale(0.015625)"/>
      </defs>
      <use xlink:href="#SimHei-6c34"/>
      <use xlink:href="#SimHei-4e0b" x="100"/>
      <use xlink:href="#SimHei-6f5c" x="200"/>
      <use xlink:href="#SimHei-822a" x="300"/>
     </g>
    </g>
   </g>
  </g>
  <g id="axes_2">
   <g id="patch_16">
    <path d="M 220.8 365.857153 
L 369.6 365.857153 
L 369.6 334.229559 
L 220.8 334.229559 
z
" clip-path="url(#p4bfc218279)" style="fill: #808080; opacity: 0.2"/>
   </g>
   <g id="matplotlib.axis_3">
    <g id="ytick_9">
     <g id="line2d_34">
      <defs>
       <path id="m8e3f606b7a" d="M 0 0 
L 3.5 0 
" style="stroke: #000000; stroke-width: 0.8"/>
      </defs>
      <g>
       <use xlink:href="#m8e3f606b7a" x="518.4" y="350.043356" style="stroke: #000000; stroke-width: 0.8"/>
      </g>
     </g>
     <g id="text_24">
      <!-- 1000 -->
      <g style="fill: #ff7f0e" transform="translate(525.4 354.209606) scale(0.12 -0.12)">
       <use xlink:href="#TimesNewRomanPSMT-31"/>
       <use xlink:href="#TimesNewRomanPSMT-30" x="50"/>
       <use xlink:href="#TimesNewRomanPSMT-30" x="100"/>
       <use xlink:href="#TimesNewRomanPSMT-30" x="150"/>
      </g>
     </g>
    </g>
    <g id="ytick_10">
     <g id="line2d_35">
      <g>
       <use xlink:href="#m8e3f606b7a" x="518.4" y="310.508863" style="stroke: #000000; stroke-width: 0.8"/>
      </g>
     </g>
     <g id="text_25">
      <!-- 1500 -->
      <g style="fill: #ff7f0e" transform="translate(525.4 314.675113) scale(0.12 -0.12)">
       <use xlink:href="#TimesNewRomanPSMT-31"/>
       <use xlink:href="#TimesNewRomanPSMT-35" x="50"/>
       <use xlink:href="#TimesNewRomanPSMT-30" x="100"/>
       <use xlink:href="#TimesNewRomanPSMT-30" x="150"/>
      </g>
     </g>
    </g>
    <g id="ytick_11">
     <g id="line2d_36">
      <g>
       <use xlink:href="#m8e3f606b7a" x="518.4" y="270.974371" style="stroke: #000000; stroke-width: 0.8"/>
      </g>
     </g>
     <g id="text_26">
      <!-- 2000 -->
      <g style="fill: #ff7f0e" transform="translate(525.4 275.140621) scale(0.12 -0.12)">
       <use xlink:href="#TimesNewRomanPSMT-32"/>
       <use xlink:href="#TimesNewRomanPSMT-30" x="50"/>
       <use xlink:href="#TimesNewRomanPSMT-30" x="100"/>
       <use xlink:href="#TimesNewRomanPSMT-30" x="150"/>
      </g>
     </g>
    </g>
    <g id="ytick_12">
     <g id="line2d_37">
      <g>
       <use xlink:href="#m8e3f606b7a" x="518.4" y="231.439878" style="stroke: #000000; stroke-width: 0.8"/>
      </g>
     </g>
     <g id="text_27">
      <!-- 2500 -->
      <g style="fill: #ff7f0e" transform="translate(525.4 235.606128) scale(0.12 -0.12)">
       <use xlink:href="#TimesNewRomanPSMT-32"/>
       <use xlink:href="#TimesNewRomanPSMT-35" x="50"/>
       <use xlink:href="#TimesNewRomanPSMT-30" x="100"/>
       <use xlink:href="#TimesNewRomanPSMT-30" x="150"/>
      </g>
     </g>
    </g>
    <g id="ytick_13">
     <g id="line2d_38">
      <g>
       <use xlink:href="#m8e3f606b7a" x="518.4" y="191.905386" style="stroke: #000000; stroke-width: 0.8"/>
      </g>
     </g>
     <g id="text_28">
      <!-- 3000 -->
      <g style="fill: #ff7f0e" transform="translate(525.4 196.071636) scale(0.12 -0.12)">
       <use xlink:href="#TimesNewRomanPSMT-33"/>
       <use xlink:href="#TimesNewRomanPSMT-30" x="50"/>
       <use xlink:href="#TimesNewRomanPSMT-30" x="100"/>
       <use xlink:href="#TimesNewRomanPSMT-30" x="150"/>
      </g>
     </g>
    </g>
    <g id="ytick_14">
     <g id="line2d_39">
      <g>
       <use xlink:href="#m8e3f606b7a" x="518.4" y="152.370893" style="stroke: #000000; stroke-width: 0.8"/>
      </g>
     </g>
     <g id="text_29">
      <!-- 3500 -->
      <g style="fill: #ff7f0e" transform="translate(525.4 156.537143) scale(0.12 -0.12)">
       <use xlink:href="#TimesNewRomanPSMT-33"/>
       <use xlink:href="#TimesNewRomanPSMT-35" x="50"/>
       <use xlink:href="#TimesNewRomanPSMT-30" x="100"/>
       <use xlink:href="#TimesNewRomanPSMT-30" x="150"/>
      </g>
     </g>
    </g>
    <g id="ytick_15">
     <g id="line2d_40">
      <g>
       <use xlink:href="#m8e3f606b7a" x="518.4" y="112.8364" style="stroke: #000000; stroke-width: 0.8"/>
      </g>
     </g>
     <g id="text_30">
      <!-- 4000 -->
      <g style="fill: #ff7f0e" transform="translate(525.4 117.00265) scale(0.12 -0.12)">
       <use xlink:href="#TimesNewRomanPSMT-34"/>
       <use xlink:href="#TimesNewRomanPSMT-30" x="50"/>
       <use xlink:href="#TimesNewRomanPSMT-30" x="100"/>
       <use xlink:href="#TimesNewRomanPSMT-30" x="150"/>
      </g>
     </g>
    </g>
    <g id="ytick_16">
     <g id="line2d_41">
      <g>
       <use xlink:href="#m8e3f606b7a" x="518.4" y="73.301908" style="stroke: #000000; stroke-width: 0.8"/>
      </g>
     </g>
     <g id="text_31">
      <!-- 4500 -->
      <g style="fill: #ff7f0e" transform="translate(525.4 77.468158) scale(0.12 -0.12)">
       <use xlink:href="#TimesNewRomanPSMT-34"/>
       <use xlink:href="#TimesNewRomanPSMT-35" x="50"/>
       <use xlink:href="#TimesNewRomanPSMT-30" x="100"/>
       <use xlink:href="#TimesNewRomanPSMT-30" x="150"/>
      </g>
     </g>
    </g>
    <g id="text_32">
     <!-- 功率需求 (W) -->
     <g style="fill: #ff7f0e" transform="translate(563.103125 253.319062) rotate(-90) scale(0.12 -0.12)">
      <defs>
       <path id="TimesNewRomanPSMT-57" d="M 5991 4238 
L 5991 4122 
Q 5825 4122 5722 4062 
Q 5619 4003 5525 3841 
Q 5463 3731 5328 3319 
L 4147 -97 
L 4022 -97 
L 3056 2613 
L 2097 -97 
L 1984 -97 
L 725 3422 
Q 584 3816 547 3888 
Q 484 4006 376 4064 
Q 269 4122 84 4122 
L 84 4238 
L 1653 4238 
L 1653 4122 
L 1578 4122 
Q 1413 4122 1325 4047 
Q 1238 3972 1238 3866 
Q 1238 3756 1375 3363 
L 2209 984 
L 2913 3006 
L 2788 3363 
L 2688 3647 
Q 2622 3803 2541 3922 
Q 2500 3981 2441 4022 
Q 2363 4078 2284 4103 
Q 2225 4122 2097 4122 
L 2097 4238 
L 3747 4238 
L 3747 4122 
L 3634 4122 
Q 3459 4122 3378 4047 
Q 3297 3972 3297 3844 
Q 3297 3684 3438 3288 
L 4250 984 
L 5056 3319 
Q 5194 3706 5194 3856 
Q 5194 3928 5148 3990 
Q 5103 4053 5034 4078 
Q 4916 4122 4725 4122 
L 4725 4238 
L 5991 4238 
z
" transform="scale(0.015625)"/>
      </defs>
      <use xlink:href="#SimHei-529f"/>
      <use xlink:href="#SimHei-7387" x="100"/>
      <use xlink:href="#SimHei-9700" x="200"/>
      <use xlink:href="#SimHei-6c42" x="300"/>
      <use xlink:href="#TimesNewRomanPSMT-20" x="400"/>
      <use xlink:href="#TimesNewRomanPSMT-28" x="425"/>
      <use xlink:href="#TimesNewRomanPSMT-57" x="458.300781"/>
      <use xlink:href="#TimesNewRomanPSMT-29" x="552.685547"/>
     </g>
    </g>
   </g>
   <g id="line2d_42">
    <path d="M 72 119.623456 
L 72.747739 109.704265 
L 73.495477 118.858687 
L 74.243216 116.11394 
L 74.990955 122.080536 
L 76.486432 110.615404 
L 77.234171 113.271409 
L 77.98191 121.361713 
L 78.729648 103.533208 
L 79.477387 110.703303 
L 80.225126 106.459864 
L 80.972864 107.869433 
L 82.468342 125.139832 
L 83.21608 118.626935 
L 83.963819 105.086654 
L 84.711558 119.500626 
L 85.459296 107.674501 
L 86.207035 116.710192 
L 86.954774 110.349781 
L 87.702513 124.37364 
L 88.450251 105.454045 
L 89.19799 113.087326 
L 89.945729 107.233093 
L 90.693467 111.635427 
L 91.441206 107.788233 
L 92.188945 113.481174 
L 92.936683 108.134285 
L 93.684422 122.385231 
L 94.432161 119.672456 
L 95.179899 108.247401 
L 95.927638 113.084223 
L 96.675377 114.283389 
L 97.423116 113.972541 
L 98.170854 109.662729 
L 98.918593 116.589608 
L 99.666332 109.60844 
L 100.41407 118.629259 
L 101.161809 115.412481 
L 101.909548 106.60607 
L 102.657286 106.060173 
L 103.405025 119.776471 
L 104.152764 107.531601 
L 104.900503 119.409768 
L 105.648241 108.199648 
L 106.39598 124.847372 
L 107.143719 119.902705 
L 107.891457 116.055914 
L 108.639196 113.889511 
L 109.386935 103.831301 
L 110.134673 107.118137 
L 110.882412 102.870749 
L 111.630151 105.20398 
L 112.377889 114.625659 
L 113.125628 114.521056 
L 113.873367 106.0746 
L 114.621106 112.58103 
L 115.368844 113.829467 
L 116.116583 121.282251 
L 116.864322 113.509816 
L 117.61206 130.490901 
L 118.359799 115.721581 
L 119.107538 119.034715 
L 119.855276 108.455509 
L 120.603015 115.864252 
L 121.350754 114.917822 
L 122.098492 104.31526 
L 122.846231 119.472298 
L 123.59397 110.833369 
L 124.341709 124.824947 
L 125.089447 112.268817 
L 125.837186 110.241257 
L 126.584925 107.397271 
L 127.332663 118.521038 
L 128.080402 110.814405 
L 128.828141 110.82391 
L 129.575879 112.958051 
L 130.323618 111.88747 
L 131.071357 109.904306 
L 131.819095 110.3196 
L 132.566834 119.136686 
L 133.314573 120.400845 
L 134.062312 96.984775 
L 134.81005 100.692718 
L 135.557789 121.639586 
L 136.305528 109.98854 
L 137.053266 108.867536 
L 137.801005 108.083803 
L 138.548744 111.948327 
L 139.296482 118.699346 
L 140.044221 113.990304 
L 140.79196 115.943022 
L 141.539698 111.986421 
L 142.287437 114.533988 
L 143.035176 113.669317 
L 143.782915 106.393528 
L 144.530653 105.052482 
L 145.278392 120.307491 
L 146.026131 115.745697 
L 146.773869 117.838621 
L 147.521608 105.041497 
L 148.269347 113.064909 
L 149.017085 103.40626 
L 149.764824 115.462772 
L 150.512563 112.145341 
L 151.260302 120.716053 
L 152.00804 103.835349 
L 152.755779 114.27891 
L 153.503518 121.31613 
L 154.251256 115.635612 
L 154.998995 126.466343 
L 155.746734 112.120497 
L 157.242211 110.266107 
L 157.98995 102.747264 
L 158.737688 114.294267 
L 159.485427 107.478874 
L 160.980905 114.275812 
L 161.728643 126.764248 
L 162.476382 108.346098 
L 163.224121 118.320736 
L 163.971859 115.843413 
L 164.719598 124.80391 
L 165.467337 115.735735 
L 166.215075 117.514914 
L 166.962814 118.570419 
L 167.710553 120.029562 
L 168.458291 112.803602 
L 169.20603 113.420398 
L 169.953769 114.84968 
L 170.701508 98.153533 
L 171.449246 122.484211 
L 172.196985 120.421012 
L 172.944724 123.581654 
L 173.692462 113.361565 
L 174.440201 119.247941 
L 175.18794 130.581003 
L 176.683417 109.834754 
L 177.431156 102.10142 
L 178.178894 116.429361 
L 178.926633 108.461243 
L 179.674372 103.409799 
L 180.422111 105.034065 
L 181.169849 94.941757 
L 181.917588 96.153891 
L 182.665327 92.049696 
L 183.413065 96.620887 
L 184.160804 80.178984 
L 184.908543 87.749072 
L 185.656281 77.461075 
L 186.40402 86.425235 
L 187.151759 78.083747 
L 187.899497 84.493735 
L 188.647236 84.848929 
L 189.394975 82.224633 
L 190.142714 77.328061 
L 190.890452 78.054867 
L 191.638191 66.96 
L 192.38593 84.402031 
L 193.133668 84.905911 
L 193.881407 68.575969 
L 194.629146 77.261069 
L 195.376884 95.26177 
L 196.124623 82.936094 
L 196.872362 87.773744 
L 197.620101 106.503582 
L 198.367839 99.405531 
L 199.115578 101.764161 
L 199.863317 102.059016 
L 200.611055 106.111807 
L 201.358794 117.423827 
L 202.106533 117.7698 
L 202.854271 131.88624 
L 203.60201 143.392881 
L 204.349749 151.214545 
L 205.097487 149.511504 
L 205.845226 173.242724 
L 206.592965 164.724667 
L 207.340704 184.379794 
L 208.088442 188.199787 
L 208.836181 191.423505 
L 209.58392 195.719472 
L 210.331658 224.577277 
L 211.079397 226.316826 
L 211.827136 229.823585 
L 212.574874 242.784056 
L 213.322613 242.367734 
L 214.070352 269.706432 
L 214.81809 262.759443 
L 215.565829 270.702693 
L 216.313568 281.206769 
L 217.061307 282.399032 
L 217.809045 304.699186 
L 218.556784 297.118522 
L 219.304523 315.410277 
L 220.052261 312.795255 
L 220.8 325.409963 
L 220.8 323.703022 
L 221.547739 328.972597 
L 222.295477 347.77502 
L 223.043216 343.637931 
L 223.790955 346.930295 
L 224.538693 351.074048 
L 225.286432 357.116694 
L 226.034171 342.945755 
L 226.78191 355.221809 
L 227.529648 348.181771 
L 228.277387 362.702432 
L 229.025126 366.543448 
L 229.772864 359.391492 
L 230.520603 363.909724 
L 231.268342 345.11289 
L 232.01608 358.384621 
L 232.763819 352.233176 
L 233.511558 360.47926 
L 234.259296 360.685818 
L 235.007035 358.490021 
L 235.754774 355.502653 
L 236.502513 351.740188 
L 237.250251 357.170204 
L 237.99799 359.927596 
L 238.745729 361.557265 
L 239.493467 354.444879 
L 240.241206 349.486119 
L 240.988945 349.373858 
L 241.736683 351.568873 
L 242.484422 354.477999 
L 243.232161 349.032769 
L 243.979899 345.689476 
L 244.727638 348.961423 
L 245.475377 347.525791 
L 246.223116 348.789918 
L 246.970854 341.746778 
L 247.718593 350.111148 
L 248.466332 346.069486 
L 249.21407 344.752209 
L 249.961809 342.757392 
L 250.709548 338.071536 
L 251.457286 343.524651 
L 252.205025 344.332066 
L 252.952764 357.790819 
L 253.700503 345.044221 
L 254.448241 334.754493 
L 255.19598 354.860137 
L 255.943719 356.332475 
L 256.691457 351.401153 
L 257.439196 343.583432 
L 258.186935 346.724037 
L 258.934673 353.061414 
L 259.682412 350.271013 
L 260.430151 343.483546 
L 261.177889 345.788687 
L 261.925628 334.679449 
L 262.673367 343.681866 
L 263.421106 347.80686 
L 264.168844 346.154893 
L 264.916583 352.250862 
L 265.664322 356.228277 
L 266.41206 348.955638 
L 267.159799 346.940303 
L 267.907538 358.869245 
L 268.655276 353.347532 
L 269.403015 352.379091 
L 270.150754 348.36303 
L 270.898492 351.690939 
L 271.646231 347.227888 
L 272.39397 349.422745 
L 273.141709 343.336234 
L 273.889447 360.867379 
L 274.637186 339.561183 
L 275.384925 341.075832 
L 276.132663 349.725074 
L 276.880402 345.929724 
L 277.628141 346.206623 
L 278.375879 354.707095 
L 279.123618 349.001764 
L 279.871357 345.121001 
L 280.619095 348.083604 
L 281.366834 343.393207 
L 282.114573 349.442456 
L 282.862312 349.532564 
L 283.61005 354.900113 
L 284.357789 352.349248 
L 285.105528 352.951309 
L 285.853266 339.255288 
L 286.601005 348.522034 
L 287.348744 356.365247 
L 288.096482 347.522014 
L 288.844221 351.257879 
L 289.59196 369.36 
L 290.339698 347.008041 
L 291.087437 359.864981 
L 291.835176 346.384268 
L 292.582915 356.123847 
L 293.330653 359.268015 
L 294.078392 346.916389 
L 294.826131 359.494907 
L 295.573869 352.86896 
L 296.321608 348.750563 
L 297.069347 346.170668 
L 297.817085 345.331575 
L 299.312563 355.308688 
L 300.060302 337.874225 
L 300.80804 353.876502 
L 301.555779 338.63472 
L 302.303518 352.905811 
L 303.051256 342.697621 
L 303.798995 343.275269 
L 304.546734 356.656903 
L 305.294472 347.795997 
L 306.042211 345.265109 
L 306.78995 345.60928 
L 307.537688 351.301739 
L 308.285427 348.133302 
L 309.780905 357.455684 
L 310.528643 343.818968 
L 311.276382 353.583631 
L 312.024121 341.31567 
L 312.771859 346.232541 
L 313.519598 355.689809 
L 314.267337 351.063019 
L 315.015075 351.854889 
L 315.762814 355.552172 
L 316.510553 346.871554 
L 317.258291 353.070838 
L 318.00603 339.722061 
L 318.753769 344.597772 
L 319.501508 355.611008 
L 320.249246 350.163544 
L 320.996985 351.477732 
L 321.744724 359.93968 
L 322.492462 344.152681 
L 323.240201 344.035322 
L 323.98794 344.189081 
L 324.735678 352.934041 
L 325.483417 343.281465 
L 326.231156 351.370152 
L 326.978894 344.128061 
L 327.726633 338.578177 
L 329.222111 359.020208 
L 330.717588 345.988788 
L 331.465327 342.327018 
L 332.213065 357.215179 
L 332.960804 351.248673 
L 333.708543 348.527941 
L 334.456281 347.184873 
L 335.20402 344.09213 
L 335.951759 355.755857 
L 336.699497 352.339219 
L 337.447236 343.19374 
L 338.194975 347.007747 
L 338.942714 346.588258 
L 339.690452 342.260109 
L 340.438191 348.695629 
L 341.18593 346.01292 
L 341.933668 351.36632 
L 342.681407 357.933372 
L 343.429146 357.692672 
L 344.176884 349.127691 
L 344.924623 350.981447 
L 345.672362 354.002338 
L 346.420101 348.011475 
L 347.167839 355.832227 
L 347.915578 349.687487 
L 348.663317 350.716084 
L 349.411055 356.113052 
L 350.158794 365.546501 
L 350.906533 342.003636 
L 351.654271 349.415865 
L 352.40201 368.462262 
L 353.149749 354.484415 
L 353.897487 349.45357 
L 354.645226 353.521183 
L 355.392965 348.512365 
L 356.140704 358.411915 
L 356.888442 351.182294 
L 357.636181 352.621661 
L 358.38392 353.388259 
L 359.131658 353.525137 
L 359.879397 350.705923 
L 360.627136 345.853999 
L 361.374874 354.829986 
L 362.122613 353.710364 
L 362.870352 349.708062 
L 363.61809 351.001843 
L 364.365829 347.246867 
L 365.113568 344.510241 
L 365.861307 340.175647 
L 366.609045 348.288564 
L 367.356784 361.084056 
L 368.104523 346.163152 
L 368.852261 342.443959 
L 369.6 344.739816 
L 369.6 343.355711 
L 370.347739 356.545425 
L 371.095477 336.650603 
L 371.843216 340.543833 
L 372.590955 346.601038 
L 373.338693 341.016353 
L 374.086432 339.345074 
L 374.834171 328.300612 
L 375.58191 326.780099 
L 376.329648 318.837121 
L 377.077387 322.311408 
L 377.825126 332.857893 
L 378.572864 331.029806 
L 379.320603 312.684475 
L 380.068342 307.565513 
L 380.81608 316.540984 
L 381.563819 308.992447 
L 382.311558 319.471429 
L 383.059296 319.6155 
L 384.554774 304.168411 
L 385.302513 302.445826 
L 386.050251 297.816043 
L 386.79799 296.661373 
L 387.545729 286.444685 
L 388.293467 278.897807 
L 389.041206 284.893814 
L 389.788945 269.494597 
L 390.536683 283.587159 
L 391.284422 280.169272 
L 392.032161 271.711425 
L 392.779899 273.77531 
L 393.527638 261.510602 
L 394.275377 270.50147 
L 395.023116 255.640893 
L 395.770854 260.418077 
L 396.518593 243.139588 
L 397.266332 260.110993 
L 398.761809 252.143208 
L 399.509548 264.946616 
L 400.257286 245.522329 
L 401.005025 244.567057 
L 401.752764 245.287583 
L 402.500503 254.209644 
L 403.248241 252.771875 
L 403.99598 237.908701 
L 404.743719 232.891072 
L 405.491457 229.011005 
L 406.239196 243.590138 
L 406.986935 243.321194 
L 407.734673 237.480648 
L 408.482412 247.301788 
L 409.977889 227.752136 
L 410.725628 222.089723 
L 411.473367 230.031429 
L 412.221106 220.86405 
L 412.968844 228.160531 
L 413.716583 229.138399 
L 414.464322 231.090985 
L 415.21206 228.546815 
L 415.959799 231.125806 
L 416.707538 230.247553 
L 417.455276 233.439747 
L 418.203015 227.561375 
L 418.950754 229.10152 
L 419.698492 238.586853 
L 420.446231 230.822536 
L 421.19397 234.817725 
L 421.941709 242.494683 
L 422.689447 226.635386 
L 423.437186 220.013439 
L 424.184925 215.074701 
L 424.932663 220.383192 
L 425.680402 235.98235 
L 426.428141 223.249514 
L 427.175879 223.806698 
L 427.923618 243.665534 
L 428.671357 225.83434 
L 429.419095 227.492934 
L 430.166834 230.591755 
L 430.914573 229.938461 
L 431.662312 231.516602 
L 432.41005 221.6609 
L 433.157789 234.599271 
L 434.653266 232.08368 
L 435.401005 230.385695 
L 436.148744 243.25834 
L 436.896482 223.279081 
L 437.644221 230.562935 
L 438.39196 228.313575 
L 439.887437 232.906088 
L 440.635176 233.87929 
L 441.382915 230.938799 
L 442.130653 230.517493 
L 442.878392 224.132248 
L 443.626131 229.250883 
L 444.373869 232.284263 
L 445.121608 218.873823 
L 445.869347 239.532912 
L 446.617085 239.917397 
L 447.364824 229.196836 
L 448.112563 232.783249 
L 448.860302 242.665119 
L 449.60804 233.414893 
L 450.355779 235.935145 
L 451.103518 224.284903 
L 451.851256 235.369618 
L 452.598995 224.794196 
L 454.094472 232.745028 
L 454.842211 231.305955 
L 455.58995 228.728389 
L 456.337688 246.039419 
L 457.085427 229.371001 
L 457.833166 233.838007 
L 458.580905 220.067105 
L 459.328643 235.812513 
L 460.076382 224.212569 
L 460.824121 247.348081 
L 461.571859 226.286952 
L 463.067337 233.002386 
L 463.815075 232.204566 
L 464.562814 233.088059 
L 465.310553 228.764164 
L 466.058291 232.28907 
L 466.80603 242.748247 
L 467.553769 232.615228 
L 468.301508 217.304104 
L 469.049246 231.143552 
L 469.796985 229.600494 
L 470.544724 234.2108 
L 471.292462 230.338893 
L 472.040201 230.31428 
L 472.78794 233.092116 
L 473.535678 225.979289 
L 474.283417 237.278825 
L 475.031156 232.263431 
L 475.778894 228.245151 
L 476.526633 233.128818 
L 477.274372 239.181552 
L 478.022111 227.908567 
L 478.769849 237.652556 
L 479.517588 234.269334 
L 480.265327 236.678341 
L 481.013065 232.140293 
L 481.760804 234.155967 
L 482.508543 234.441905 
L 484.00402 220.290462 
L 484.751759 233.701341 
L 485.499497 228.133813 
L 486.247236 233.688053 
L 486.994975 230.814017 
L 487.742714 224.306266 
L 488.490452 231.121747 
L 489.238191 236.598638 
L 489.98593 236.057043 
L 490.733668 235.341119 
L 491.481407 231.524034 
L 492.229146 226.012511 
L 492.976884 240.034973 
L 493.724623 238.00127 
L 494.472362 237.288081 
L 495.220101 242.505775 
L 495.967839 223.052729 
L 496.715578 231.669992 
L 497.463317 219.416463 
L 498.211055 240.449528 
L 498.958794 223.253504 
L 499.706533 235.878169 
L 500.454271 234.016703 
L 501.20201 237.695591 
L 501.949749 237.44826 
L 502.697487 239.813255 
L 503.445226 230.07146 
L 504.192965 239.752882 
L 504.940704 232.9694 
L 505.688442 231.498083 
L 506.436181 227.22322 
L 507.18392 230.804848 
L 508.679397 228.185958 
L 509.427136 231.548999 
L 510.174874 229.141514 
L 510.922613 237.637117 
L 511.670352 236.345131 
L 512.41809 219.437138 
L 513.165829 231.514103 
L 513.913568 235.934164 
L 514.661307 222.711422 
L 515.409045 232.431989 
L 516.156784 235.529269 
L 516.904523 240.605502 
L 517.652261 226.509188 
L 518.4 238.311295 
L 518.4 238.311295 
" clip-path="url(#p4bfc218279)" style="fill: none; stroke-dasharray: 5.55,2.4; stroke-dashoffset: 0; stroke: #ff7f0e; stroke-width: 1.5"/>
   </g>
   <g id="patch_17">
    <path d="M 72 384.48 
L 72 51.84 
" style="fill: none; stroke: #000000; stroke-width: 0.8; stroke-linejoin: miter; stroke-linecap: square"/>
   </g>
   <g id="patch_18">
    <path d="M 518.4 384.48 
L 518.4 51.84 
" style="fill: none; stroke: #000000; stroke-width: 0.8; stroke-linejoin: miter; stroke-linecap: square"/>
   </g>
   <g id="patch_19">
    <path d="M 72 384.48 
L 518.4 384.48 
" style="fill: none; stroke: #000000; stroke-width: 0.8; stroke-linejoin: miter; stroke-linecap: square"/>
   </g>
   <g id="patch_20">
    <path d="M 72 51.84 
L 518.4 51.84 
" style="fill: none; stroke: #000000; stroke-width: 0.8; stroke-linejoin: miter; stroke-linecap: square"/>
   </g>
   <g id="patch_21">
    <path d="M 258.186935 338.469377 
Q 258.186935 350.045354 258.186935 361.621331 
" style="fill: none; stroke: #16344c; stroke-width: 2; stroke-linecap: round"/>
    <path d="M 255.786935 343.269377 
L 258.186935 338.469377 
L 260.586935 343.269377 
" style="fill: none; stroke: #16344c; stroke-width: 2; stroke-linecap: round"/>
    <path d="M 260.586935 356.821331 
L 258.186935 361.621331 
L 255.786935 356.821331 
" style="fill: none; stroke: #16344c; stroke-width: 2; stroke-linecap: round"/>
   </g>
   <g id="text_33">
    <!-- 1000±200W -->
    <g transform="translate(265.664322 330.27611) scale(0.16 -0.16)">
     <use xlink:href="#TimesNewRomanPSMT-31"/>
     <use xlink:href="#TimesNewRomanPSMT-30" x="50"/>
     <use xlink:href="#TimesNewRomanPSMT-30" x="100"/>
     <use xlink:href="#TimesNewRomanPSMT-30" x="150"/>
     <use xlink:href="#TimesNewRomanPSMT-b1" x="200"/>
     <use xlink:href="#TimesNewRomanPSMT-32" x="254.882812"/>
     <use xlink:href="#TimesNewRomanPSMT-30" x="304.882812"/>
     <use xlink:href="#TimesNewRomanPSMT-30" x="354.882812"/>
     <use xlink:href="#TimesNewRomanPSMT-57" x="404.882812"/>
    </g>
   </g>
  </g>
 </g>
 <defs>
  <clipPath id="p4bfc218279">
   <rect x="72" y="51.84" width="446.4" height="332.64"/>
  </clipPath>
 </defs>
</svg>
